<svg width="80" height="80" viewBox="0 0 80 80" fill="none" xmlns="http://www.w3.org/2000/svg">
<g clip-path="url(#clip0_2147_1464)">
<path d="M19.1465 66.1169C19.4848 68.3002 19.8365 70.2869 20.1298 71.8569C20.5465 74.0652 22.1165 75.8386 24.3382 76.1736C26.0815 76.4386 28.5032 76.6669 31.6665 76.6669C34.6748 76.6669 37.1465 76.4602 39.0282 76.2136C41.6682 75.8669 43.5182 73.6702 43.8048 71.0236L44.3398 66.0869" stroke="white" stroke-width="5" stroke-linecap="round" stroke-linejoin="round"/>
<path d="M59.3715 4.34046C59.5151 4.07833 59.7265 3.85965 59.9837 3.70732C60.2409 3.55499 60.5343 3.47461 60.8331 3.47461C61.132 3.47461 61.4254 3.55499 61.6826 3.70732C61.9397 3.85965 62.1512 4.07833 62.2948 4.34046L65.6148 10.4105C66.5325 12.0883 67.912 13.4678 69.5898 14.3855L75.6598 17.7055C75.9219 17.8491 76.1406 18.0605 76.293 18.3177C76.4453 18.5748 76.5257 18.8682 76.5257 19.1671C76.5257 19.466 76.4453 19.7594 76.293 20.0166C76.1406 20.2737 75.9219 20.4852 75.6598 20.6288L69.5898 23.9488C67.912 24.8664 66.5325 26.246 65.6148 27.9238L62.2948 33.9938C62.1512 34.2559 61.9397 34.4746 61.6826 34.6269C61.4254 34.7793 61.132 34.8596 60.8331 34.8596C60.5343 34.8596 60.2409 34.7793 59.9837 34.6269C59.7265 34.4746 59.5151 34.2559 59.3715 33.9938L56.0515 27.9238C55.1338 26.246 53.7543 24.8664 52.0765 23.9488L46.0065 20.6288C45.7443 20.4852 45.5257 20.2737 45.3733 20.0166C45.221 19.7594 45.1406 19.466 45.1406 19.1671C45.1406 18.8682 45.221 18.5748 45.3733 18.3177C45.5257 18.0605 45.7443 17.8491 46.0065 17.7055L52.0765 14.3855C53.7543 13.4678 55.1338 12.0883 56.0515 10.4105L59.3715 4.34046Z" stroke="white" stroke-width="5"/>
<path d="M42.4997 8.81201C39.0648 7.39127 35.3834 6.66234 31.6663 6.66701C16.018 6.66701 3.33301 19.352 3.33301 35.0003C3.33301 44.0553 7.58134 52.1187 14.193 57.3053C14.68 59.2529 15.2196 61.187 15.8113 63.1054C16.323 64.7687 17.7047 65.977 19.4363 66.1587C21.758 66.4004 25.673 66.667 31.6663 66.667C37.6597 66.667 41.5747 66.4004 43.8963 66.1587C45.628 65.977 47.0097 64.7687 47.5197 63.1037C47.998 61.5487 48.603 59.4703 49.1397 57.3053C53.3464 54.0083 56.5375 49.5914 58.3463 44.562" stroke="white" stroke-width="5" stroke-linecap="round" stroke-linejoin="round"/>
</g>
<defs>
<clipPath id="clip0_2147_1464">
<rect width="80" height="80" fill="white"/>
</clipPath>
</defs>
</svg>
