<svg width="80" height="80" viewBox="0 0 80 80" fill="none" xmlns="http://www.w3.org/2000/svg">
<path d="M13.333 5.07129V18.333" stroke="white" stroke-width="5" stroke-linecap="round" stroke-linejoin="round"/>
<path d="M13.333 55V65" stroke="white" stroke-width="5" stroke-linecap="round" stroke-linejoin="round"/>
<path d="M41.667 65.0713V75.0713" stroke="white" stroke-width="5" stroke-linecap="round" stroke-linejoin="round"/>
<path d="M41.667 25.0713V38.333" stroke="white" stroke-width="5" stroke-linecap="round" stroke-linejoin="round"/>
<path d="M5.12913 25.6332C5.23177 21.7147 7.83965 18.4828 11.7575 18.3575C12.2514 18.3418 12.7764 18.333 13.3333 18.333C13.8902 18.333 14.4152 18.3418 14.9091 18.3575C18.827 18.4828 21.4348 21.7147 21.5375 25.6332C21.609 28.3597 21.6667 32.005 21.6667 36.6663C21.6667 41.3277 21.609 44.973 21.5375 47.6995C21.4348 51.6182 18.827 54.8498 14.9091 54.9752C14.4152 54.9908 13.8902 54.9997 13.3333 54.9997C12.7764 54.9997 12.2514 54.9908 11.7575 54.9752C7.83967 54.8498 5.23177 51.6182 5.12913 47.6995C5.05772 44.973 5 41.3277 5 36.6663C5 32.005 5.05772 28.3597 5.12913 25.6332Z" stroke="white" stroke-width="5" stroke-linecap="round" stroke-linejoin="round"/>
<path d="M33.397 45.8455C33.4948 41.6987 36.4302 38.4065 40.5775 38.3413C40.926 38.336 41.2888 38.333 41.6663 38.333C42.0438 38.333 42.4067 38.336 42.7552 38.3413C46.9025 38.4065 49.8378 41.6987 49.9357 45.8455C49.974 47.4707 49.9997 49.404 49.9997 51.6663C49.9997 53.9287 49.974 55.862 49.9357 57.4872C49.8378 61.634 46.9025 64.9262 42.7552 64.9913C42.4067 64.9967 42.0438 64.9997 41.6663 64.9997C41.2888 64.9997 40.926 64.9967 40.5775 64.9913C36.4302 64.9262 33.4948 61.634 33.397 57.4872C33.3587 55.862 33.333 53.9287 33.333 51.6663C33.333 49.404 33.3587 47.4707 33.397 45.8455Z" stroke="white" stroke-width="5" stroke-linecap="round" stroke-linejoin="round"/>
<path d="M74.9997 12.6786C74.9997 12.6786 71.6663 10 66.6663 10C62.4998 10 58.333 12.6786 58.333 16.25C58.333 25.1785 74.9997 19.8215 74.9997 28.75C74.9997 32.3215 70.833 35 66.6663 35C61.6663 35 58.333 32.3215 58.333 32.3215" stroke="white" stroke-width="5" stroke-linecap="round" stroke-linejoin="round"/>
<path d="M66.667 10V5" stroke="white" stroke-width="5" stroke-linecap="round" stroke-linejoin="round"/>
<path d="M66.667 40V35" stroke="white" stroke-width="5" stroke-linecap="round" stroke-linejoin="round"/>
</svg>
