<svg width="77" height="78" viewBox="0 0 77 78" fill="none" xmlns="http://www.w3.org/2000/svg">
<path d="M41.3396 47.2997C41.583 44.5463 43.2946 42.3497 46.0313 41.963C48.428 41.6247 52.108 41.333 57.6813 41.333C63.2546 41.333 66.9347 41.6247 69.3313 41.963C72.068 42.3497 73.7813 44.5463 74.0213 47.2997C74.2375 49.7493 74.3465 52.2072 74.348 54.6663C74.348 62.1897 70.3763 69.2297 63.688 72.673C61.453 73.823 59.2713 74.6663 57.6813 74.6663C56.0913 74.6663 53.9096 73.823 51.6746 72.673C44.9846 69.2297 41.0146 62.1897 41.0146 54.6663C41.0146 51.8197 41.1663 49.278 41.3396 47.2997Z" stroke="white" stroke-width="5" stroke-linecap="round" stroke-linejoin="round"/>
<path d="M51.8486 55.945L57.3386 62.1667L65.182 50.5" stroke="white" stroke-width="5" stroke-linecap="round" stroke-linejoin="round"/>
<path d="M35.9266 37.7117C38.9603 36.1841 41.51 33.8439 43.2913 30.9519C45.0726 28.0599 46.0156 24.7299 46.0149 21.3333C46.0149 11.2083 37.8066 3 27.6816 3C17.5566 3 9.34822 11.2083 9.34822 21.3333C9.34755 24.7299 10.2905 28.0599 12.0718 30.9519C13.8531 33.8439 16.4029 36.1841 19.4366 37.7117C11.0749 40.605 4.73989 47.775 3.09822 56.5767C2.56822 59.42 4.22322 61.7433 7.09322 62.115C10.5849 62.5667 16.7766 63 27.6816 63C29.4732 63 31.1366 62.9883 32.6816 62.9667" stroke="white" stroke-width="5" stroke-linecap="round" stroke-linejoin="round"/>
</svg>
