<svg width="80" height="81" viewBox="0 0 80 81" fill="none" xmlns="http://www.w3.org/2000/svg">
<path d="M22.889 33.4396C23.0913 35.3878 24.3378 37.0081 26.1175 37.8259C29.8123 39.5241 36.2992 42.2393 40 42.2393C43.7008 42.2393 50.1877 39.5241 53.8825 37.8259C55.6622 37.0081 56.9087 35.3878 57.111 33.4396C57.3098 31.5273 57.5 28.6698 57.5 24.7393C57.5 20.8088 57.3098 17.9513 57.111 16.0389C56.9087 14.0908 55.6622 12.4704 53.8825 11.6525C50.1877 9.95447 43.7008 7.23926 40 7.23926C36.2992 7.23926 29.8123 9.95447 26.1175 11.6525C24.3378 12.4704 23.0913 14.0908 22.889 16.0389C22.6902 17.9513 22.5 20.8088 22.5 24.7393C22.5 28.6698 22.6902 31.5273 22.889 33.4396Z" stroke="white" stroke-width="5" stroke-linejoin="round"/>
<path d="M22.5 14.2402C22.5 14.2402 36.4665 21.2403 40 21.2403C43.5335 21.2403 57.5 14.2402 57.5 14.2402" stroke="white" stroke-width="5" stroke-linejoin="round"/>
<path d="M40 21.2402V42.2402" stroke="white" stroke-width="5" stroke-linecap="round" stroke-linejoin="round"/>
<path d="M5.38892 63.8566C5.5913 65.8047 6.83787 67.4251 8.6175 68.2429C12.3124 69.9411 18.7992 72.6562 22.5 72.6562C26.2008 72.6562 32.6877 69.9411 36.3825 68.2429C38.1622 67.4251 39.4087 65.8047 39.611 63.8566C39.8098 61.9442 40 59.0867 40 55.1562C40 51.2257 39.8098 48.3683 39.611 46.4559C39.4087 44.5078 38.1622 42.8874 36.3825 42.0696C32.6877 40.3714 26.2008 37.6562 22.5 37.6562C18.7992 37.6562 12.3124 40.3714 8.61752 42.0696C6.83787 42.8874 5.5913 44.5078 5.38892 46.4559C5.19023 48.3683 5 51.2257 5 55.1562C5 59.0867 5.19023 61.9442 5.38892 63.8566Z" stroke="white" stroke-width="5" stroke-linejoin="round"/>
<path d="M5 44.6562C5 44.6562 18.9665 51.6563 22.5 51.6563C26.0335 51.6563 40 44.6562 40 44.6562" stroke="white" stroke-width="5" stroke-linejoin="round"/>
<path d="M22.5 51.6562V72.6563" stroke="white" stroke-width="5" stroke-linecap="round" stroke-linejoin="round"/>
<path d="M40.389 63.8566C40.5913 65.8047 41.8378 67.4251 43.6175 68.2429C47.3123 69.9411 53.7992 72.6562 57.5 72.6562C61.2008 72.6562 67.6877 69.9411 71.3825 68.2429C73.1622 67.4251 74.4087 65.8047 74.611 63.8566C74.8098 61.9442 75 59.0867 75 55.1562C75 51.2257 74.8098 48.3683 74.611 46.4559C74.4087 44.5078 73.1622 42.8874 71.3825 42.0696C67.6877 40.3714 61.2008 37.6562 57.5 37.6562C53.7992 37.6562 47.3123 40.3714 43.6175 42.0696C41.8378 42.8874 40.5913 44.5078 40.389 46.4559C40.1902 48.3683 40 51.2257 40 55.1562C40 59.0867 40.1902 61.9442 40.389 63.8566Z" stroke="white" stroke-width="5" stroke-linejoin="round"/>
<path d="M40 44.6562C40 44.6562 53.9665 51.6563 57.5 51.6563C61.0335 51.6563 75 44.6562 75 44.6562" stroke="white" stroke-width="5" stroke-linejoin="round"/>
<path d="M57.5 51.6562V72.6563" stroke="white" stroke-width="5" stroke-linecap="round" stroke-linejoin="round"/>
</svg>
