<svg width="30" height="30" viewBox="0 0 30 30" fill="none" xmlns="http://www.w3.org/2000/svg">
<path d="M24.6775 21.8651L25.74 22.4276C26.4837 22.8213 26.8562 23.0188 27.2025 22.7913C27.5487 22.5638 27.5212 22.2076 27.4687 21.4951C27.1625 17.4001 22.0912 14.5913 18.5837 17.3551M19.07 21.8638L18.0075 21.3013C17.2637 20.9076 16.8912 20.7101 16.545 20.9388C16.1987 21.1676 16.2275 21.5238 16.2837 22.2338C16.6087 26.2951 21.65 29.1413 25.0712 26.4388" stroke="black" stroke-width="1.5" stroke-linecap="round" stroke-linejoin="round"/>
<path d="M13.7625 27.5C7.44 26.8712 2.5 21.5287 2.5 15.0312C2.5 8.11 8.1025 2.5 15.015 2.5C21.635 2.5 27.055 7.6475 27.5 14.1625" stroke="black" stroke-width="1.5" stroke-linecap="round" stroke-linejoin="round"/>
<path d="M25 7.12375C23.8312 7.2075 22.335 7.66125 21.2975 9.00375C19.4225 11.4288 17.5487 11.6325 16.2987 10.8238C14.4237 9.61125 16 7.645 13.8 6.5775C12.3663 5.88125 12.1662 3.9875 12.965 2.5M2.5 13.75C3.45375 14.5775 4.7875 15.335 6.36125 15.335C9.61125 15.335 10.2612 15.9562 10.2612 18.44C10.2612 20.9237 10.2613 20.9238 10.9113 22.7863C11.3338 23.9988 11.4812 25.2087 10.6387 26.25" stroke="black" stroke-width="1.5" stroke-linecap="round" stroke-linejoin="round"/>
</svg>
