<svg width="30" height="30" viewBox="0 0 30 30" fill="none" xmlns="http://www.w3.org/2000/svg">
<g clip-path="url(#clip0_360_5863)">
<path d="M13.5813 7.92878C13.4341 7.51039 13.1606 7.14801 12.7987 6.89162C12.4367 6.63523 12.0042 6.49747 11.5606 6.49735H9.8999C9.42878 6.49867 8.97471 6.67374 8.62464 6.98904C8.27457 7.30433 8.05312 7.73769 8.0027 8.2061C7.95227 8.67452 8.07642 9.14508 8.35136 9.52765C8.6263 9.91023 9.03271 10.1779 9.49276 10.2795L12.017 10.8323C12.5336 10.9451 12.9902 11.2448 13.2991 11.6738C13.608 12.1028 13.7474 12.6309 13.6905 13.1565C13.6336 13.6821 13.3844 14.1682 12.9909 14.5211C12.5973 14.8741 12.0871 15.0692 11.5585 15.0688H10.1292C9.68616 15.069 9.25396 14.9318 8.89209 14.6763C8.53021 14.4207 8.25645 14.0592 8.10847 13.6416M10.847 6.49735V4.35449M10.847 17.2116V15.0688M14.9335 28.9266V17.6766C14.9335 16.9662 15.2157 16.2849 15.718 15.7826C16.2203 15.2803 16.9016 14.9981 17.612 14.9981C18.3224 14.9981 19.0038 15.2803 19.5061 15.7826C20.0084 16.2849 20.2906 16.9662 20.2906 17.6766V23.5695H24.5763C25.713 23.5695 26.8031 24.021 27.6068 24.8247C28.4105 25.6285 28.862 26.7186 28.862 27.8552V28.9266" stroke="black" stroke-width="1.5" stroke-linecap="round" stroke-linejoin="round"/>
<path d="M10.8491 20.4943C8.87203 20.494 6.94217 19.8902 5.31754 18.7636C3.69291 17.6369 2.45092 16.0412 1.75764 14.1897C1.06436 12.3382 0.952828 10.3191 1.43795 8.40253C1.92308 6.48593 2.98174 4.76309 4.47239 3.46437C5.96305 2.16566 7.81465 1.35295 9.77964 1.13492C11.7446 0.916882 13.7294 1.30391 15.4685 2.24426C17.2076 3.18461 18.6181 4.63346 19.5116 6.39709C20.4051 8.16073 20.7389 10.1551 20.4684 12.1135" stroke="black" stroke-width="1.5" stroke-linecap="round"/>
</g>
<defs>
<clipPath id="clip0_360_5863">
<rect width="30" height="30" fill="white"/>
</clipPath>
</defs>
</svg>
