<svg width="30" height="30" viewBox="0 0 30 30" fill="none" xmlns="http://www.w3.org/2000/svg">
<path d="M13.75 23.75V26.25M13.75 15V20M20 15V20H17.5M26.25 15H10M6.25 15H3.75M3.75 6.25L15 3.75L26.25 6.25" stroke="black" stroke-width="1.5" stroke-linecap="round" stroke-linejoin="round"/>
<path d="M26.25 10.75V25.5C26.25 25.6989 26.171 25.8897 26.0303 26.0303C25.8897 26.171 25.6989 26.25 25.5 26.25H4.5C4.30109 26.25 4.11032 26.171 3.96967 26.0303C3.82902 25.8897 3.75 25.6989 3.75 25.5V10.75C3.75 10.5511 3.82902 10.3603 3.96967 10.2197C4.11032 10.079 4.30109 10 4.5 10H25.5C25.6989 10 25.8897 10.079 26.0303 10.2197C26.171 10.3603 26.25 10.5511 26.25 10.75Z" stroke="black" stroke-width="1.5" stroke-linecap="round" stroke-linejoin="round"/>
</svg>
