<svg width="30" height="30" viewBox="0 0 30 30" fill="none" xmlns="http://www.w3.org/2000/svg">
<path d="M12.5 14.534L6.34379 21.7777C6.14871 22.0076 5.90804 22.1944 5.63702 22.3265C5.366 22.4586 5.07052 22.5329 4.76928 22.5449C4.46803 22.5569 4.16758 22.5062 3.88693 22.3961C3.60627 22.286 3.35152 22.1188 3.13879 21.9052C2.92522 21.6917 2.75819 21.4362 2.64821 21.1549C2.53824 20.8736 2.48771 20.5726 2.4998 20.2708C2.5119 19.969 2.58636 19.673 2.71849 19.4014C2.85062 19.1298 3.03757 18.8885 3.26754 18.6927L10.4938 12.524M22.5 12.584L16.31 18.7877M12.44 2.50146L6.25004 8.70647M25 14.574L27.5 12.524M25 18.674L27.5 20.0402M13.7525 27.499H26.25M15.2838 27.499C15.9725 26.264 16.4875 23.9015 18.9275 23.7702C19.6525 23.7302 20.39 23.7302 21.115 23.7702C23.5538 23.9015 24.0713 26.264 24.7613 27.499M11.6663 3.27771L7.02504 7.93021C7.02504 7.93021 9.34629 11.0327 11.6675 13.359C13.99 15.6852 17.085 18.0127 17.085 18.0127L21.7275 13.359C21.7275 13.359 19.4063 10.2577 17.085 7.93021C14.7638 5.60521 11.6663 3.27771 11.6663 3.27771Z" stroke="black" stroke-width="1.5" stroke-linecap="round" stroke-linejoin="round"/>
</svg>
