<svg width="30" height="30" viewBox="0 0 30 30" fill="none" xmlns="http://www.w3.org/2000/svg">
<path d="M15.5 28L13 20.5H3L5.5 28H15.5ZM15.5 28H20.5M15.5 16.75V16.125C15.5 13.7675 15.5 12.59 14.7675 11.8575C14.035 11.125 12.8575 11.125 10.5 11.125C8.1425 11.125 6.965 11.125 6.2325 11.8575C5.5 12.59 5.5 13.7675 5.5 16.125V16.75M18 22.375H25.5C26.163 22.375 26.7989 22.6384 27.2678 23.1072C27.7366 23.5761 28 24.212 28 24.875V25.5C28 26.163 27.7366 26.7989 27.2678 27.2678C26.7989 27.7366 26.163 28 25.5 28H24.25M24.25 16.75C24.25 17.413 23.9866 18.0489 23.5178 18.5178C23.0489 18.9866 22.413 19.25 21.75 19.25C21.087 19.25 20.4511 18.9866 19.9822 18.5178C19.5134 18.0489 19.25 17.413 19.25 16.75C19.25 16.087 19.5134 15.4511 19.9822 14.9822C20.4511 14.5134 21.087 14.25 21.75 14.25C22.413 14.25 23.0489 14.5134 23.5178 14.9822C23.9866 15.4511 24.25 16.087 24.25 16.75ZM13 5.5C13 6.16304 12.7366 6.79893 12.2678 7.26777C11.7989 7.73661 11.163 8 10.5 8C9.83696 8 9.20107 7.73661 8.73223 7.26777C8.26339 6.79893 8 6.16304 8 5.5C8 4.83696 8.26339 4.20107 8.73223 3.73223C9.20107 3.26339 9.83696 3 10.5 3C11.163 3 11.7989 3.26339 12.2678 3.73223C12.7366 4.20107 13 4.83696 13 5.5Z" stroke="black" stroke-width="1.5" stroke-linecap="round" stroke-linejoin="round"/>
</svg>
