<svg width="30" height="30" viewBox="0 0 30 30" fill="none" xmlns="http://www.w3.org/2000/svg">
<path d="M20 27.5C18.6675 25.9437 16.9175 25 15 25C13.0825 25 11.3325 25.9437 10 27.5M15 16.25C13.415 16.25 11.7388 16.525 10.425 16.8912C9.43625 17.1662 8.64 18.4275 8.7625 19.45C8.8075 19.8288 9.13375 20 9.4775 20H20.5225C20.8662 20 21.1925 19.8288 21.2375 19.45C21.36 18.4263 20.5637 17.1675 19.575 16.8912C18.0844 16.4791 16.5464 16.2635 15 16.25ZM15 16.25V12.5M26.25 12.5C25.587 12.5 24.9511 12.7634 24.4822 13.2322C24.0134 13.7011 23.75 14.337 23.75 15V16.25C23.75 16.913 23.4866 17.5489 23.0178 18.0178C22.5489 18.4866 21.913 18.75 21.25 18.75M3.75 12.5C4.41304 12.5 5.04893 12.7634 5.51777 13.2322C5.98661 13.7011 6.25 14.337 6.25 15V16.25C6.25 16.913 6.51339 17.5489 6.98223 18.0178C7.45107 18.4866 8.08696 18.75 8.75 18.75M15 20V27.5M16.025 12.5H13.975C12.2225 12.5 11.3462 12.5 10.7125 11.97C10.0787 11.4413 9.86625 10.5325 9.44125 8.7125C8.7725 5.8525 8.43875 4.4225 9.14 3.4625C9.84125 2.5 11.22 2.5 13.975 2.5H16.025C18.78 2.5 20.1587 2.5 20.86 3.4625C21.5612 4.4225 21.2275 5.8525 20.56 8.7125C20.135 10.5312 19.9225 11.4413 19.2875 11.97C18.6538 12.5 17.7775 12.5 16.025 12.5Z" stroke="black" stroke-width="1.5" stroke-linecap="round" stroke-linejoin="round"/>
</svg>
