<svg width="30" height="30" viewBox="0 0 30 30" fill="none" xmlns="http://www.w3.org/2000/svg">
<path d="M25 27.5V21.25C25 18.8925 25 17.715 24.2675 16.9825C23.535 16.25 22.3575 16.25 20 16.25L15 27.5L10 16.25C7.6425 16.25 6.465 16.25 5.7325 16.9825C5 17.715 5 18.8925 5 21.25V27.5" stroke="black" stroke-width="1.5" stroke-linecap="round" stroke-linejoin="round"/>
<path d="M15 18.75L14.375 23.75L15 25.625L15.625 23.75L15 18.75ZM15 18.75L13.75 16.25H16.25L15 18.75ZM19.375 8.125V6.875C19.375 6.30047 19.2618 5.73156 19.042 5.20076C18.8221 4.66996 18.4998 4.18766 18.0936 3.78141C17.6873 3.37515 17.205 3.05289 16.6742 2.83303C16.1434 2.61316 15.5745 2.5 15 2.5C14.4255 2.5 13.8566 2.61316 13.3258 2.83303C12.795 3.05289 12.3127 3.37515 11.9064 3.78141C11.5002 4.18766 11.1779 4.66996 10.958 5.20076C10.7382 5.73156 10.625 6.30047 10.625 6.875V8.125C10.625 8.69953 10.7382 9.26844 10.958 9.79924C11.1779 10.33 11.5002 10.8123 11.9064 11.2186C12.3127 11.6248 12.795 11.9471 13.3258 12.167C13.8566 12.3868 14.4255 12.5 15 12.5C15.5745 12.5 16.1434 12.3868 16.6742 12.167C17.205 11.9471 17.6873 11.6248 18.0936 11.2186C18.4998 10.8123 18.8221 10.33 19.042 9.79924C19.2618 9.26844 19.375 8.69953 19.375 8.125Z" stroke="black" stroke-width="1.5" stroke-linecap="round" stroke-linejoin="round"/>
</svg>
