<svg width="28" height="28" viewBox="0 0 28 28" fill="none" xmlns="http://www.w3.org/2000/svg">
<path d="M11.7703 10.8803C11.4177 11.116 11.1149 11.4189 10.8794 11.7717C10.6438 12.1244 10.48 12.5201 10.3974 12.9362C10.2304 13.7764 10.4042 14.6486 10.8803 15.3607C11.3564 16.0729 12.0959 16.5668 12.9362 16.7337C13.7764 16.9006 14.6486 16.7269 15.3607 16.2508C16.0729 15.7747 16.5668 15.0351 16.7337 14.1949C16.9006 13.3546 16.7269 12.4825 16.2508 11.7703C15.7747 11.0581 15.0351 10.5643 14.1949 10.3974C13.3546 10.2304 12.4825 10.4042 11.7703 10.8803ZM20.3861 6.73887C20.0713 6.42402 19.6898 6.17578 19.2721 6.0123C18.1762 5.58242 15.7846 5.60059 14.2406 5.61875C13.9924 5.61875 13.7623 5.6248 13.5625 5.6248C13.3627 5.6248 13.1266 5.6248 12.8723 5.61875C11.3283 5.60059 8.94883 5.57637 7.85293 6.0123C7.43516 6.17578 7.05977 6.42402 6.73887 6.73887C6.41797 7.05371 6.17578 7.43516 6.0123 7.85293C5.58242 8.94883 5.60664 11.3465 5.61875 12.8904C5.61875 13.1387 5.6248 13.3687 5.6248 13.5625C5.6248 13.7563 5.6248 13.9863 5.61875 14.2346C5.60664 15.7785 5.58242 18.1762 6.0123 19.2721C6.17578 19.6898 6.42402 20.0652 6.73887 20.3861C7.05371 20.707 7.43516 20.9492 7.85293 21.1127C8.94883 21.5426 11.3404 21.5244 12.8844 21.5063C13.1326 21.5063 13.3627 21.5002 13.5625 21.5002C13.7623 21.5002 13.9984 21.5002 14.2527 21.5063C15.7967 21.5244 18.1762 21.5486 19.2721 21.1127C19.6898 20.9492 20.0652 20.701 20.3861 20.3861C20.707 20.0713 20.9492 19.6898 21.1127 19.2721C21.5486 18.1822 21.5244 15.7967 21.5063 14.2467C21.5063 13.9924 21.5002 13.7562 21.5002 13.5564C21.5002 13.3566 21.5002 13.1266 21.5063 12.8662C21.5244 11.3223 21.5486 8.93672 21.1127 7.84082C20.9492 7.42305 20.701 7.04766 20.3861 6.72676V6.73887ZM16.3234 9.4332C17.4186 10.1654 18.178 11.3028 18.4346 12.5949C18.6912 13.8871 18.424 15.2283 17.6918 16.3234C16.9596 17.4186 15.8222 18.178 14.5301 18.4346C13.2379 18.6912 11.8967 18.424 10.8016 17.6918C10.2593 17.3296 9.79367 16.8642 9.43128 16.3221C9.06889 15.7799 8.81683 15.1718 8.68948 14.5322C8.56214 13.8927 8.562 13.2343 8.68909 12.5947C8.81618 11.9551 9.068 11.3469 9.43018 10.8046C9.79235 10.2623 10.2578 9.7967 10.7999 9.43431C11.342 9.07192 11.9502 8.81985 12.5898 8.69251C13.2293 8.56516 13.8876 8.56503 14.5272 8.69212C15.1668 8.81921 15.7751 9.07103 16.3174 9.4332H16.3234ZM18.0914 9.35449C17.9037 9.22734 17.7523 9.0457 17.6615 8.83379C17.5707 8.62187 17.5525 8.3918 17.5949 8.16172C17.6373 7.93164 17.7523 7.73184 17.9098 7.56836C18.0672 7.40488 18.2791 7.2959 18.5031 7.25352C18.7271 7.21113 18.9633 7.2293 19.1752 7.32012C19.3871 7.41094 19.5687 7.55625 19.6959 7.74395C19.823 7.93164 19.8896 8.15566 19.8896 8.38574C19.8896 8.53711 19.8594 8.68848 19.8049 8.82773C19.7504 8.96699 19.6596 9.09414 19.5566 9.20312C19.4537 9.31211 19.3205 9.39687 19.1812 9.45742C19.042 9.51797 18.8906 9.54824 18.7393 9.54824C18.5092 9.54824 18.2852 9.48164 18.0975 9.35449H18.0914ZM27.125 3.875C27.125 1.7377 25.3873 0 23.25 0H3.875C1.7377 0 0 1.7377 0 3.875V23.25C0 25.3873 1.7377 27.125 3.875 27.125H23.25C25.3873 27.125 27.125 25.3873 27.125 23.25V3.875ZM21.6152 21.6152C20.483 22.7475 19.1086 23.1047 17.5586 23.1834C15.9602 23.2742 11.1648 23.2742 9.56641 23.1834C8.01641 23.1047 6.64199 22.7475 5.50977 21.6152C4.37754 20.483 4.02031 19.1086 3.94766 17.5586C3.85684 15.9602 3.85684 11.1648 3.94766 9.56641C4.02637 8.01641 4.37754 6.64199 5.50977 5.50977C6.64199 4.37754 8.02246 4.02031 9.56641 3.94766C11.1648 3.85684 15.9602 3.85684 17.5586 3.94766C19.1086 4.02637 20.483 4.37754 21.6152 5.50977C22.7475 6.64199 23.1047 8.01641 23.1773 9.56641C23.2682 11.1588 23.2682 15.948 23.1773 17.5525C23.0986 19.1025 22.7475 20.477 21.6152 21.6092V21.6152Z" fill="white"/>
</svg>
