<svg width="24" height="24" viewBox="0 0 24 24" fill="none" xmlns="http://www.w3.org/2000/svg">
<g clip-path="url(#clip0_2116_1702)">
<path d="M10.7529 20.7469C11.0341 21.0278 11.4154 21.1855 11.8129 21.1855C12.2104 21.1855 12.5916 21.0278 12.8729 20.7469L18.5309 15.0909C18.6702 14.9515 18.7807 14.7861 18.8561 14.6041C18.9315 14.422 18.9704 14.2269 18.9704 14.0299C18.9704 13.8328 18.9315 13.6377 18.8561 13.4557C18.7807 13.2736 18.6702 13.1082 18.5309 12.9689C18.3915 12.8295 18.2261 12.719 18.0441 12.6436C17.862 12.5682 17.6669 12.5294 17.4699 12.5294C17.2728 12.5294 17.0777 12.5682 16.8957 12.6436C16.7136 12.719 16.5482 12.8295 16.4089 12.9689L13.3129 16.0649L13.3129 4.52987C13.3129 4.13204 13.1548 3.75051 12.8735 3.46921C12.5922 3.1879 12.2107 3.02987 11.8129 3.02987C11.4151 3.02987 11.0335 3.1879 10.7522 3.46921C10.4709 3.75051 10.3129 4.13204 10.3129 4.52987L10.3129 16.0649L7.21688 12.9689C6.93548 12.6876 6.55388 12.5296 6.15602 12.5297C5.75816 12.5298 5.37664 12.688 5.09538 12.9694C4.81411 13.2508 4.65616 13.6324 4.65625 14.0302C4.65634 14.4281 4.81448 14.8096 5.09588 15.0909L10.7529 20.7469Z" fill="#FF8A40"/>
</g>
<defs>
<clipPath id="clip0_2116_1702">
<rect width="24" height="24" fill="white"/>
</clipPath>
</defs>
</svg>
