<svg width="31" height="32" viewBox="0 0 31 32" fill="none" xmlns="http://www.w3.org/2000/svg">
<path d="M3.131 32C2.23846 32 1.49381 31.692 0.897062 31.076C0.300312 30.46 0.00129167 29.6907 0 28.768V3.232C0 2.31067 0.29902 1.542 0.897062 0.926C1.4951 0.31 2.23975 0.00133333 3.131 0H13.0413C13.3164 0 13.547 0.0953336 13.733 0.286C13.919 0.476667 14.0114 0.714667 14.0101 1C14.0088 1.28533 13.9164 1.52333 13.733 1.714C13.5496 1.90467 13.3184 2 13.0394 2H3.131C2.83263 2 2.55879 2.128 2.3095 2.384C2.06021 2.64 1.93621 2.92267 1.9375 3.232V28.77C1.9375 29.0767 2.0615 29.3587 2.3095 29.616C2.5575 29.8733 2.83069 30.0013 3.12906 30H27.8709C28.168 30 28.4412 29.872 28.6905 29.616C28.9398 29.36 29.0638 29.078 29.0625 28.77V18.538C29.0625 18.254 29.1549 18.016 29.3396 17.824C29.5243 17.632 29.7548 17.5367 30.0312 17.538C30.3077 17.5393 30.5382 17.6347 30.7229 17.824C30.9076 18.0133 31 18.2513 31 18.538V28.77C31 29.69 30.7016 30.458 30.1049 31.074C29.5081 31.69 28.7628 31.9987 27.869 32H3.131Z" fill="#2D415C"/>
<path d="M11.8048 21.232L29.0641 3.416V11C29.0641 11.2853 29.1564 11.5233 29.3411 11.714C29.5258 11.9047 29.7564 12 30.0328 12C30.3092 12 30.5398 11.9047 30.7245 11.714C30.9092 11.5233 31.0016 11.2853 31.0016 11V1.616C31.0003 1.152 30.8517 0.766667 30.556 0.46C30.2602 0.153333 29.8869 0 29.4361 0H20.3453C20.0676 0 19.8371 0.0953336 19.6536 0.286C19.4702 0.476667 19.3779 0.714667 19.3766 1C19.3753 1.28533 19.4676 1.52333 19.6536 1.714C19.8396 1.90467 20.0702 2 20.3453 2H27.6923L10.435 19.816C10.2271 20.0293 10.1237 20.2653 10.125 20.524C10.1263 20.7827 10.2296 21.0187 10.435 21.232C10.6404 21.4453 10.8748 21.5453 11.1383 21.532C11.4018 21.5187 11.624 21.4187 11.8048 21.232Z" fill="#2D415C"/>
</svg>
