<svg width="28" height="31" viewBox="0 0 28 31" fill="none" xmlns="http://www.w3.org/2000/svg">
<g clip-path="url(#clip0_1306_34424)">
<path d="M11.7703 12.8178C11.4177 13.0535 11.1149 13.3564 10.8794 13.7092C10.6438 14.0619 10.48 14.4576 10.3974 14.8737C10.2304 15.7139 10.4042 16.5861 10.8803 17.2982C11.3564 18.0104 12.0959 18.5043 12.9362 18.6712C13.7764 18.8381 14.6486 18.6644 15.3607 18.1883C16.0729 17.7122 16.5668 16.9726 16.7337 16.1324C16.9006 15.2921 16.7269 14.42 16.2508 13.7078C15.7747 12.9956 15.0351 12.5018 14.1949 12.3349C13.3546 12.1679 12.4825 12.3417 11.7703 12.8178ZM20.3861 8.67637C20.0713 8.36152 19.6898 8.11328 19.2721 7.9498C18.1762 7.51992 15.7846 7.53809 14.2406 7.55625C13.9924 7.55625 13.7623 7.5623 13.5625 7.5623C13.3627 7.5623 13.1266 7.5623 12.8723 7.55625C11.3283 7.53809 8.94883 7.51387 7.85293 7.9498C7.43516 8.11328 7.05977 8.36152 6.73887 8.67637C6.41797 8.99121 6.17578 9.37266 6.0123 9.79043C5.58242 10.8863 5.60664 13.284 5.61875 14.8279C5.61875 15.0762 5.6248 15.3062 5.6248 15.5C5.6248 15.6938 5.6248 15.9238 5.61875 16.1721C5.60664 17.716 5.58242 20.1137 6.0123 21.2096C6.17578 21.6273 6.42402 22.0027 6.73887 22.3236C7.05371 22.6445 7.43516 22.8867 7.85293 23.0502C8.94883 23.4801 11.3404 23.4619 12.8844 23.4438C13.1326 23.4438 13.3627 23.4377 13.5625 23.4377C13.7623 23.4377 13.9984 23.4377 14.2527 23.4438C15.7967 23.4619 18.1762 23.4861 19.2721 23.0502C19.6898 22.8867 20.0652 22.6385 20.3861 22.3236C20.707 22.0088 20.9492 21.6273 21.1127 21.2096C21.5486 20.1197 21.5244 17.7342 21.5063 16.1842C21.5063 15.9299 21.5002 15.6937 21.5002 15.4939C21.5002 15.2941 21.5002 15.0641 21.5063 14.8037C21.5244 13.2598 21.5486 10.8742 21.1127 9.77832C20.9492 9.36055 20.701 8.98516 20.3861 8.66426V8.67637ZM16.3234 11.3707C17.4186 12.1029 18.178 13.2403 18.4346 14.5324C18.6912 15.8246 18.424 17.1658 17.6918 18.2609C16.9596 19.3561 15.8222 20.1155 14.5301 20.3721C13.2379 20.6287 11.8967 20.3615 10.8016 19.6293C10.2593 19.2671 9.79367 18.8017 9.43128 18.2596C9.06889 17.7174 8.81683 17.1093 8.68948 16.4697C8.56214 15.8302 8.562 15.1718 8.68909 14.5322C8.81618 13.8926 9.068 13.2844 9.43018 12.7421C9.79235 12.1998 10.2578 11.7342 10.7999 11.3718C11.342 11.0094 11.9502 10.7574 12.5898 10.63C13.2293 10.5027 13.8876 10.5025 14.5272 10.6296C15.1668 10.7567 15.7751 11.0085 16.3174 11.3707H16.3234ZM18.0914 11.292C17.9037 11.1648 17.7523 10.9832 17.6615 10.7713C17.5707 10.5594 17.5525 10.3293 17.5949 10.0992C17.6373 9.86914 17.7523 9.66934 17.9098 9.50586C18.0672 9.34238 18.2791 9.2334 18.5031 9.19102C18.7271 9.14863 18.9633 9.1668 19.1752 9.25762C19.3871 9.34844 19.5687 9.49375 19.6959 9.68145C19.823 9.86914 19.8896 10.0932 19.8896 10.3232C19.8896 10.4746 19.8594 10.626 19.8049 10.7652C19.7504 10.9045 19.6596 11.0316 19.5566 11.1406C19.4537 11.2496 19.3205 11.3344 19.1812 11.3949C19.042 11.4555 18.8906 11.4857 18.7393 11.4857C18.5092 11.4857 18.2852 11.4191 18.0975 11.292H18.0914ZM27.125 5.8125C27.125 3.6752 25.3873 1.9375 23.25 1.9375H3.875C1.7377 1.9375 0 3.6752 0 5.8125V25.1875C0 27.3248 1.7377 29.0625 3.875 29.0625H23.25C25.3873 29.0625 27.125 27.3248 27.125 25.1875V5.8125ZM21.6152 23.5527C20.483 24.685 19.1086 25.0422 17.5586 25.1209C15.9602 25.2117 11.1648 25.2117 9.56641 25.1209C8.01641 25.0422 6.64199 24.685 5.50977 23.5527C4.37754 22.4205 4.02031 21.0461 3.94766 19.4961C3.85684 17.8977 3.85684 13.1023 3.94766 11.5039C4.02637 9.95391 4.37754 8.57949 5.50977 7.44727C6.64199 6.31504 8.02246 5.95781 9.56641 5.88516C11.1648 5.79434 15.9602 5.79434 17.5586 5.88516C19.1086 5.96387 20.483 6.31504 21.6152 7.44727C22.7475 8.57949 23.1047 9.95391 23.1773 11.5039C23.2682 13.0963 23.2682 17.8855 23.1773 19.49C23.0986 21.04 22.7475 22.4145 21.6152 23.5467V23.5527Z" fill="white"/>
</g>
<defs>
<clipPath id="clip0_1306_34424">
<rect width="27.125" height="31" fill="white"/>
</clipPath>
</defs>
</svg>
