<svg width="24" height="32" viewBox="0 0 24 32" fill="none" xmlns="http://www.w3.org/2000/svg">
<path d="M11.9993 15.2087C10.9495 15.2087 9.94272 14.7916 9.20038 14.0493C8.45805 13.307 8.04102 12.3001 8.04102 11.2503C8.04102 10.2005 8.45805 9.19369 9.20038 8.45136C9.94272 7.70903 10.9495 7.29199 11.9993 7.29199C13.0492 7.29199 14.056 7.70903 14.7983 8.45136C15.5406 9.19369 15.9577 10.2005 15.9577 11.2503C15.9577 11.7701 15.8553 12.2849 15.6564 12.7651C15.4574 13.2454 15.1659 13.6817 14.7983 14.0493C14.4307 14.4169 13.9944 14.7084 13.5141 14.9073C13.0339 15.1063 12.5192 15.2087 11.9993 15.2087ZM11.9993 0.166992C9.05987 0.166992 6.24078 1.3347 4.16225 3.41323C2.08372 5.49175 0.916016 8.31084 0.916016 11.2503C0.916016 19.5628 11.9993 31.8337 11.9993 31.8337C11.9993 31.8337 23.0827 19.5628 23.0827 11.2503C23.0827 8.31084 21.915 5.49175 19.8364 3.41323C17.7579 1.3347 14.9388 0.166992 11.9993 0.166992Z" fill="white"/>
</svg>
