<svg width="33" height="26" viewBox="0 0 33 26" fill="none" xmlns="http://www.w3.org/2000/svg">
<path d="M0.648438 5.24149C0.648437 3.92725 1.17052 2.66683 2.09983 1.73752C3.02914 0.808214 4.28955 0.286133 5.6038 0.286133H27.4021C28.7163 0.286133 29.9767 0.808214 30.906 1.73752C31.8354 2.66683 32.3574 3.92725 32.3574 5.24149V5.2547L16.5003 13.3775L0.648438 5.25999V5.24149ZM0.648438 7.4866V20.4379C0.648438 21.7522 1.17052 23.0126 2.09983 23.9419C3.02914 24.8712 4.28955 25.3933 5.6038 25.3933H27.4021C28.7163 25.3933 29.9767 24.8712 30.906 23.9419C31.8354 23.0126 32.3574 21.7522 32.3574 20.4379V7.48263L16.9522 15.3742C16.8124 15.4459 16.6575 15.4832 16.5003 15.4832C16.3431 15.4832 16.1882 15.4459 16.0484 15.3742L0.648438 7.4866Z" fill="white"/>
</svg>
