<svg width="37" height="37" viewBox="0 0 37 37" fill="none" xmlns="http://www.w3.org/2000/svg">
<path d="M5.854 16.854C5.854 10.7262 5.854 7.66095 7.75748 5.75748C9.66095 3.854 12.7248 3.854 18.8554 3.854C24.9832 3.854 28.0471 3.854 29.9505 5.75748C31.854 7.66095 31.854 10.7248 31.854 16.854C31.854 22.9818 31.854 26.0471 29.9505 27.9505C28.0471 29.854 24.9832 29.854 18.854 29.854C12.7262 29.854 9.66232 29.854 7.75748 27.9505C5.85537 26.0457 5.854 22.9832 5.854 16.854Z" stroke="white" stroke-width="2.5" stroke-linecap="round" stroke-linejoin="round"/>
<path d="M12.0117 23.6959L17.7509 17.9581M17.7509 17.9581L12.0117 10.0117H15.8118L19.9581 15.7509L25.6959 10.0117M17.7509 17.9581L21.8945 23.6959H25.6959L19.9581 15.7495" stroke="white" stroke-width="1.5" stroke-linecap="round" stroke-linejoin="round"/>
</svg>
