<svg width="29" height="29" viewBox="0 0 29 29" fill="none" xmlns="http://www.w3.org/2000/svg">
<path d="M5.92 0.75C4.54883 0.75 3.23382 1.29469 2.26426 2.26426C1.29469 3.23382 0.75 4.54883 0.75 5.92V23.08C0.75 24.4512 1.29469 25.7662 2.26426 26.7357C3.23382 27.7053 4.54883 28.25 5.92 28.25H23.08C23.7589 28.25 24.4312 28.1163 25.0585 27.8565C25.6857 27.5966 26.2557 27.2158 26.7357 26.7357C27.2158 26.2557 27.5966 25.6857 27.8565 25.0585C28.1163 24.4312 28.25 23.7589 28.25 23.08V5.92C28.25 5.24107 28.1163 4.56878 27.8565 3.94153C27.5966 3.31427 27.2158 2.74434 26.7357 2.26426C26.2557 1.78418 25.6857 1.40336 25.0585 1.14354C24.4312 0.883726 23.7589 0.75 23.08 0.75H5.92ZM8.47063 7.20288H20.5294C21.092 7.20306 21.6491 7.31406 22.1689 7.52954C22.6886 7.74502 23.1608 8.06077 23.5586 8.45875C23.9563 8.85673 24.2717 9.32915 24.4869 9.84904C24.702 10.3689 24.8127 10.9261 24.8125 11.4888V17.514C24.8125 18.6501 24.3613 19.7397 23.5581 20.5431C22.7549 21.3466 21.6655 21.7981 20.5294 21.7985H8.47063C7.90786 21.7983 7.35065 21.6873 6.83081 21.4717C6.31097 21.2561 5.83869 20.9403 5.44094 20.5421C5.0432 20.144 4.72779 19.6714 4.51272 19.1514C4.29765 18.6313 4.18714 18.074 4.1875 17.5113V11.4888C4.1875 10.3527 4.63871 9.2631 5.44192 8.45964C6.24512 7.65618 7.33454 7.20324 8.47063 7.20288ZM11.8806 11.5066C11.8231 11.5098 11.7689 11.5347 11.7291 11.5763C11.6892 11.6179 11.6667 11.6731 11.6661 11.7308V17.2789C11.6656 17.3175 11.6751 17.3556 11.6935 17.3896C11.712 17.4235 11.7389 17.4522 11.7716 17.4727C11.8043 17.4933 11.8418 17.5051 11.8804 17.5071C11.919 17.509 11.9574 17.501 11.992 17.4838L17.6309 14.7929C17.6688 14.7745 17.7008 14.746 17.7234 14.7105C17.746 14.675 17.7583 14.6339 17.7588 14.5918C17.7594 14.5497 17.7483 14.5082 17.7266 14.4721C17.705 14.436 17.6738 14.4066 17.6364 14.3873L11.9975 11.53C11.962 11.5114 11.922 11.5028 11.882 11.5052L11.8806 11.5066Z" fill="white"/>
</svg>
