<svg width="61" height="49" viewBox="0 0 61 49" fill="none" xmlns="http://www.w3.org/2000/svg">
<path d="M44.75 15.7981L45.1091 15.5056C51.1397 10.595 54.155 8.13969 56.5775 9.32656C59 10.5106 59 14.4425 59 22.3006V26.6994C59 34.5575 59 38.4894 56.5775 39.6734C54.155 40.8575 51.1397 38.405 45.1091 33.4944L44.75 33.2019M2 21.6875C2 12.4062 2 7.76563 4.92125 4.88281C7.8425 2 12.545 2 21.95 2H24.8C34.205 2 38.9075 2 41.8288 4.88281C44.75 7.76563 44.75 12.4062 44.75 21.6875V27.3125C44.75 36.5938 44.75 41.2344 41.8288 44.1172C38.9075 47 34.205 47 24.8 47H21.95C12.545 47 7.8425 47 4.92125 44.1172C2 41.2344 2 36.5938 2 27.3125V21.6875Z" stroke="#2D415C" stroke-width="3" stroke-linecap="round" stroke-linejoin="round"/>
<path d="M27.6484 13.25H33.3484" stroke="#FF8A40" stroke-width="4" stroke-linecap="round" stroke-linejoin="round"/>
</svg>
