<svg width="52" height="54" viewBox="0 0 52 54" fill="none" xmlns="http://www.w3.org/2000/svg">
<path d="M19.5164 53.9928C13.5548 53.6126 8.81214 52.7732 5.28843 51.4747C1.76281 50.1743 0 48.698 0 47.0459V23.5728C0 22.5671 0.647504 21.6355 1.94251 20.7781C3.23942 19.9225 5.04407 19.1744 7.35645 18.5337C9.66692 17.8968 12.411 17.3892 15.5886 17.0109C18.7662 16.6325 22.2367 16.4434 26 16.4434C29.7633 16.4434 33.2338 16.6325 36.4114 17.0109C39.589 17.3892 42.334 17.8978 44.6464 18.5366C46.9588 19.1754 48.7625 19.9225 50.0575 20.7781C51.3525 21.6355 52 22.5671 52 23.5728V47.043C52 48.7085 50.2258 50.1886 46.6773 51.4833C43.1289 52.778 38.3739 53.6145 32.4123 53.9928C31.8209 54.0404 31.317 53.8664 30.9005 53.471C30.4859 53.0736 30.2787 52.5793 30.2787 51.988V42.7682H21.7213V51.9139C21.7213 52.5071 21.5027 53.0137 21.0653 53.4339C20.6241 53.8541 20.1078 54.0404 19.5164 53.9928ZM26 27.8505C30.7217 27.8505 35.1421 27.4769 39.261 26.7298C43.3799 25.9826 46.4568 24.9959 48.4915 23.7696C47.8697 22.7639 45.5972 21.7667 41.6742 20.7781C37.7511 19.7895 32.5264 19.2951 26 19.2951C19.4736 19.2951 14.2498 19.7895 10.3287 20.7781C6.40753 21.7667 4.13509 22.7648 3.51136 23.7725C5.54229 24.9968 8.40804 25.9826 12.1086 26.7298C15.8092 27.4769 20.4396 27.8505 26 27.8505ZM18.8689 51.0612V42.7682C18.8689 42.0039 19.1532 41.3376 19.7218 40.7691C20.2904 40.2007 20.9569 39.9155 21.7213 39.9136H30.2787C31.0431 39.9136 31.7096 40.1988 32.2782 40.7691C32.8468 41.3395 33.1311 42.0049 33.1311 42.7654V51.0612C37.6304 50.7152 41.2473 50.1192 43.9818 49.2731C46.7163 48.4271 48.4392 47.5906 49.1504 46.7636V26.6214C46.0222 28.0701 42.5404 29.112 38.7048 29.7469C34.8692 30.3819 30.6343 30.7004 26 30.7023C21.3657 30.7042 17.1308 30.3857 13.2952 29.7469C9.45965 29.112 5.97777 28.0701 2.84959 26.6214V46.7664C3.5608 47.5915 5.17433 48.4281 7.69018 49.276C10.206 50.122 13.9323 50.7171 18.8689 51.0612Z" fill="#2D415C"/>
<path d="M5 4.15069V10.1166C5 10.5311 5.1778 10.8524 5.53911 11.0805C5.89852 11.3125 6.2798 11.3277 6.68294 11.1262L12.5789 8.14319C12.9916 7.90554 13.1979 7.56903 13.1979 7.13366C13.1979 6.69829 12.9916 6.36178 12.5789 6.12413L6.68294 3.14116C6.2817 2.93963 5.90042 2.95389 5.53911 3.18393C5.1797 3.41398 5 3.73623 5 4.15069Z" fill="#FF8A40"/>
<path d="M41.2032 4.15069V10.1166C41.2032 10.5311 41.3838 10.8524 41.7451 11.0805C42.1046 11.3125 42.4849 11.3277 42.8861 11.1262L48.785 8.14319C49.1976 7.90554 49.4039 7.56903 49.4039 7.13366C49.4039 6.69829 49.1976 6.36178 48.785 6.12413L42.8861 3.14116C42.4849 2.93963 42.1046 2.95389 41.7451 3.18393C41.3838 3.41398 41.2032 3.73623 41.2032 4.15069Z" fill="#FF8A40"/>
<path d="M24 1.15069V7.11663C24 7.53109 24.1807 7.85239 24.542 8.08053C24.9014 8.31248 25.2817 8.32769 25.6829 8.12616L31.5818 5.14319C31.9944 4.90554 32.2008 4.56903 32.2008 4.13366C32.2008 3.69829 31.9944 3.36178 31.5818 3.12413L25.6829 0.141157C25.2817 -0.0603692 24.9014 -0.04611 24.542 0.183934C24.1807 0.413978 24 0.73623 24 1.15069Z" fill="#FF8A40"/>
</svg>
