<svg width="72" height="55" viewBox="0 0 72 55" fill="none" xmlns="http://www.w3.org/2000/svg">
<path d="M10.438 51.0714V36.1125H6.35561C4.59628 36.1125 3.09653 35.4944 1.85635 34.2583C0.616166 33.0222 -0.00261365 31.5255 8.2973e-06 29.7683V25.5375C8.2973e-06 23.7803 0.618788 22.2823 1.85635 21.0436C3.09391 19.8048 4.59235 19.1868 6.35168 19.1894H21.0254L36.6076 9.97363V45.3283L21.0254 36.1125H14.3709V51.0714H10.438ZM32.6747 38.332V16.9699L22.1306 23.1177H6.35168C5.74863 23.1177 5.19409 23.3704 4.68805 23.8759C4.18202 24.3813 3.93031 24.9352 3.93293 25.5375V29.7683C3.93293 30.3706 4.18464 30.9245 4.68805 31.43C5.19147 31.9354 5.74601 32.1868 6.35168 32.1842H22.1306L32.6747 38.332ZM43.565 38.9998V16.306C44.8812 17.5238 45.9418 19.1239 46.7467 21.1064C47.5517 23.0889 47.9528 25.2704 47.9502 27.6509C47.9476 30.0315 47.5464 32.213 46.7467 34.1955C45.947 36.178 44.8864 37.782 43.565 38.9998Z" fill="#2D415C"/>
<path d="M59.296 25.6871V29.6154H71.9993V25.6871H59.296Z" fill="#FF8A40"/>
<path d="M53.3966 47.383L63.5632 55L66.0134 51.8849L55.8468 44.2718L53.3966 47.383Z" fill="#FF8A40"/>
<path d="M53.0938 7.61696L55.544 10.7282L65.7106 3.11514L63.2603 0L53.0938 7.61696Z" fill="#FF8A40"/>
</svg>
