<svg width="61" height="57" viewBox="0 0 61 57" fill="none" xmlns="http://www.w3.org/2000/svg">
<path d="M26.1247 36.904H14.0676C12.4687 36.904 10.9354 37.5391 9.80478 38.6697C8.67421 39.8003 8.03906 41.3337 8.03906 42.9325V46.9515H12.0581V42.9325C12.0581 42.3996 12.2698 41.8884 12.6467 41.5116C13.0235 41.1347 13.5346 40.923 14.0676 40.923H26.1247C26.6576 40.923 27.1688 41.1347 27.5456 41.5116C27.9225 41.8884 28.1342 42.3996 28.1342 42.9325V46.9515H32.1532V42.9325C32.1532 41.3337 31.5181 39.8003 30.3875 38.6697C29.2569 37.5391 27.7236 36.904 26.1247 36.904ZM20.0961 34.8945C21.6859 34.8945 23.24 34.423 24.5618 33.5398C25.8837 32.6566 26.914 31.4012 27.5223 29.9324C28.1307 28.4637 28.2899 26.8475 27.9797 25.2883C27.6696 23.729 26.904 22.2968 25.7799 21.1727C24.6558 20.0485 23.2235 19.283 21.6643 18.9728C20.1051 18.6627 18.4889 18.8218 17.0201 19.4302C15.5513 20.0386 14.296 21.0689 13.4127 22.3907C12.5295 23.7126 12.0581 25.2666 12.0581 26.8564C12.0581 28.9882 12.905 31.0328 14.4124 32.5402C15.9198 34.0476 17.9643 34.8945 20.0961 34.8945ZM20.0961 22.8374C20.891 22.8374 21.6681 23.0731 22.329 23.5147C22.9899 23.9563 23.505 24.584 23.8092 25.3184C24.1134 26.0528 24.193 26.8609 24.0379 27.6405C23.8829 28.4201 23.5001 29.1362 22.938 29.6983C22.376 30.2604 21.6598 30.6431 20.8802 30.7982C20.1006 30.9533 19.2925 30.8737 18.5581 30.5695C17.8237 30.2653 17.1961 29.7502 16.7544 29.0893C16.3128 28.4283 16.0771 27.6513 16.0771 26.8564C16.0771 25.7905 16.5005 24.7683 17.2543 24.0145C18.008 23.2608 19.0302 22.8374 20.0961 22.8374Z" fill="#FF8A40"/>
<path d="M52.2473 34.8952V52.9808H4.01903V32.8856V12.7905H28.1332V8.77148H4.01903C2.95311 8.77148 1.93086 9.19492 1.17715 9.94863C0.423432 10.7023 0 11.7246 0 12.7905V52.9808C0 54.0467 0.423432 55.0689 1.17715 55.8227C1.93086 56.5764 2.95311 56.9998 4.01903 56.9998H52.2473C53.3133 56.9998 54.3355 56.5764 55.0892 55.8227C55.8429 55.0689 56.2664 54.0467 56.2664 52.9808V34.8952H52.2473Z" fill="#2D415C"/>
<path d="M36.1714 34.8951H48.2285V38.9142H36.1714V34.8951ZM40.1904 42.9332H48.2285V46.9522H40.1904V42.9332ZM60.2855 16.8095V12.7905H56.0635C55.8028 11.533 55.3035 10.3372 54.5926 9.2678L57.5868 6.27363L54.7453 3.43217L51.7511 6.42635C50.6817 5.71542 49.4859 5.21608 48.2285 4.95539V0.733398H44.2094V4.95539C42.952 5.21608 41.7562 5.71542 40.6867 6.42635L37.6926 3.43217L34.8511 6.27363L37.8453 9.2678C37.1344 10.3372 36.635 11.533 36.3743 12.7905H32.1523V16.8095H36.3743C36.635 18.0669 37.1344 19.2627 37.8453 20.3322L34.8511 23.3264L37.6926 26.1678L40.6867 23.1736C41.7562 23.8846 42.952 24.3839 44.2094 24.6446V28.8666H48.2285V24.6446C49.4859 24.3839 50.6817 23.8846 51.7511 23.1736L54.7453 26.1678L57.5868 23.3264L54.5926 20.3322C55.3035 19.2627 55.8028 18.0669 56.0635 16.8095H60.2855ZM46.2189 20.8285C45.0266 20.8285 43.861 20.475 42.8697 19.8125C41.8783 19.1501 41.1056 18.2086 40.6493 17.107C40.193 16.0054 40.0736 14.7933 40.3062 13.6239C40.5388 12.4545 41.113 11.3803 41.9561 10.5372C42.7992 9.69406 43.8734 9.1199 45.0428 8.88729C46.2122 8.65468 47.4244 8.77406 48.526 9.23035C49.6275 9.68663 50.5691 10.4593 51.2315 11.4507C51.8939 12.4421 52.2475 13.6077 52.2475 14.8C52.2459 16.3984 51.6102 17.9308 50.48 19.0611C49.3498 20.1913 47.8173 20.8269 46.2189 20.8285Z" fill="#2D415C"/>
</svg>
