<svg width="53" height="53" viewBox="0 0 53 53" fill="none" xmlns="http://www.w3.org/2000/svg">
<path d="M2.62883 44.8668C2.8715 47.8477 5.15233 50.1285 8.13317 50.3712C11.8992 50.6768 17.9087 51 26.5 51C35.0913 51 41.1008 50.6768 44.8668 50.3712C47.8477 50.1285 50.1285 47.8477 50.3712 44.8668C50.6768 41.1008 51 35.0913 51 26.5C51 17.9087 50.6768 11.8992 50.3712 8.13317C50.1285 5.15233 47.8477 2.8715 44.8668 2.62883C41.1008 2.32317 35.0913 2 26.5 2C17.9087 2 11.8992 2.32317 8.13317 2.62883C5.15233 2.8715 2.8715 5.15233 2.62883 8.13317C2.32317 11.8992 2 17.9087 2 26.5C2 35.0913 2.32317 41.1008 2.62883 44.8668Z" stroke="#2D415C" stroke-width="3" stroke-linejoin="round"/>
<path d="M2.58594 14.25H50.4193" stroke="#2D415C" stroke-width="3" stroke-linecap="round"/>
<path d="M45 31H16V35H45V31Z" fill="#2D415C"/>
<path d="M45 39H25.6667V43H45V39Z" fill="#2D415C"/>
<path d="M10.1641 8.41602H12.4974M19.4974 8.41602H21.8307" stroke="#FF8A40" stroke-width="3" stroke-linecap="round" stroke-linejoin="round"/>
</svg>
