<svg width="963" height="405" viewBox="0 0 963 405" fill="none" xmlns="http://www.w3.org/2000/svg">
<path d="M186.848 29V11.12H198.488V13.64H189.68V19.016H197.528V21.536H189.68V29H186.848ZM204.517 29.288C203.541 29.288 202.685 29.072 201.949 28.64C201.213 28.192 200.637 27.576 200.221 26.792C199.821 25.992 199.621 25.072 199.621 24.032V16.016H202.333V23.792C202.333 24.384 202.453 24.904 202.693 25.352C202.933 25.8 203.269 26.152 203.701 26.408C204.133 26.648 204.629 26.768 205.189 26.768C205.765 26.768 206.269 26.64 206.701 26.384C207.133 26.128 207.469 25.768 207.709 25.304C207.965 24.84 208.093 24.296 208.093 23.672V16.016H210.781V29H208.213V26.456L208.501 26.792C208.197 27.592 207.693 28.208 206.989 28.64C206.285 29.072 205.461 29.288 204.517 29.288ZM213.468 29V10.832H216.18V29H213.468ZM218.871 29V10.832H221.583V29H218.871ZM225.425 34.28C225.105 34.28 224.785 34.248 224.465 34.184C224.161 34.136 223.881 34.056 223.625 33.944V31.616C223.817 31.664 224.049 31.704 224.321 31.736C224.593 31.784 224.857 31.808 225.113 31.808C225.865 31.808 226.417 31.64 226.769 31.304C227.137 30.984 227.465 30.488 227.753 29.816L228.617 27.848L228.569 30.128L222.953 16.016H225.857L230.009 26.84H229.025L233.153 16.016H236.081L230.345 30.416C230.041 31.184 229.657 31.856 229.193 32.432C228.745 33.024 228.209 33.48 227.585 33.8C226.977 34.12 226.257 34.28 225.425 34.28Z" fill="#1F1F1F"/>
<path d="M250.125 29.288C248.829 29.288 247.621 29.056 246.501 28.592C245.397 28.128 244.421 27.48 243.573 26.648C242.741 25.816 242.085 24.84 241.605 23.72C241.141 22.6 240.909 21.376 240.909 20.048C240.909 18.72 241.141 17.496 241.605 16.376C242.085 15.24 242.741 14.264 243.573 13.448C244.405 12.616 245.381 11.976 246.501 11.528C247.621 11.064 248.829 10.832 250.125 10.832C251.437 10.832 252.645 11.064 253.749 11.528C254.869 11.976 255.845 12.616 256.677 13.448C257.525 14.28 258.181 15.256 258.645 16.376C259.109 17.496 259.341 18.72 259.341 20.048C259.341 21.376 259.101 22.6 258.621 23.72C258.157 24.84 257.509 25.816 256.677 26.648C255.845 27.48 254.869 28.128 253.749 28.592C252.629 29.056 251.421 29.288 250.125 29.288ZM250.125 26.696C251.053 26.696 251.901 26.528 252.669 26.192C253.453 25.856 254.133 25.392 254.709 24.8C255.285 24.192 255.733 23.488 256.053 22.688C256.373 21.872 256.533 20.992 256.533 20.048C256.533 19.104 256.373 18.232 256.053 17.432C255.733 16.632 255.285 15.928 254.709 15.32C254.133 14.712 253.453 14.24 252.669 13.904C251.901 13.568 251.053 13.4 250.125 13.4C249.197 13.4 248.341 13.568 247.557 13.904C246.789 14.24 246.117 14.712 245.541 15.32C244.965 15.928 244.517 16.632 244.197 17.432C243.893 18.232 243.741 19.104 243.741 20.048C243.741 20.992 243.893 21.872 244.197 22.688C244.517 23.488 244.965 24.192 245.541 24.8C246.117 25.392 246.797 25.856 247.581 26.192C248.365 26.528 249.213 26.696 250.125 26.696ZM261.763 33.8V16.016H264.355V18.704L264.043 18.08C264.523 17.344 265.163 16.768 265.963 16.352C266.763 15.936 267.675 15.728 268.699 15.728C269.931 15.728 271.035 16.024 272.011 16.616C273.003 17.208 273.779 18.016 274.339 19.04C274.915 20.064 275.203 21.216 275.203 22.496C275.203 23.776 274.915 24.928 274.339 25.952C273.779 26.976 273.011 27.792 272.035 28.4C271.059 28.992 269.947 29.288 268.699 29.288C267.691 29.288 266.771 29.08 265.939 28.664C265.123 28.248 264.491 27.648 264.043 26.864L264.475 26.36V33.8H261.763ZM268.435 26.768C269.203 26.768 269.883 26.584 270.475 26.216C271.067 25.848 271.531 25.344 271.867 24.704C272.219 24.048 272.395 23.312 272.395 22.496C272.395 21.68 272.219 20.952 271.867 20.312C271.531 19.672 271.067 19.168 270.475 18.8C269.883 18.432 269.203 18.248 268.435 18.248C267.683 18.248 267.003 18.432 266.395 18.8C265.803 19.168 265.331 19.672 264.979 20.312C264.643 20.952 264.475 21.68 264.475 22.496C264.475 23.312 264.643 24.048 264.979 24.704C265.331 25.344 265.803 25.848 266.395 26.216C267.003 26.584 267.683 26.768 268.435 26.768ZM283.457 29.288C282.161 29.288 281.009 28.992 280.001 28.4C279.009 27.792 278.233 26.976 277.673 25.952C277.113 24.912 276.833 23.752 276.833 22.472C276.833 21.16 277.113 20 277.673 18.992C278.249 17.984 279.017 17.192 279.977 16.616C280.937 16.024 282.025 15.728 283.241 15.728C284.217 15.728 285.089 15.896 285.857 16.232C286.625 16.568 287.273 17.032 287.801 17.624C288.329 18.2 288.729 18.864 289.001 19.616C289.289 20.368 289.433 21.168 289.433 22.016C289.433 22.224 289.425 22.44 289.409 22.664C289.393 22.888 289.361 23.096 289.313 23.288H278.969V21.128H287.777L286.481 22.112C286.641 21.328 286.585 20.632 286.313 20.024C286.057 19.4 285.657 18.912 285.113 18.56C284.585 18.192 283.961 18.008 283.241 18.008C282.521 18.008 281.881 18.192 281.321 18.56C280.761 18.912 280.329 19.424 280.025 20.096C279.721 20.752 279.601 21.552 279.665 22.496C279.585 23.376 279.705 24.144 280.025 24.8C280.361 25.456 280.825 25.968 281.417 26.336C282.025 26.704 282.713 26.888 283.481 26.888C284.265 26.888 284.929 26.712 285.473 26.36C286.033 26.008 286.473 25.552 286.793 24.992L289.001 26.072C288.745 26.68 288.345 27.232 287.801 27.728C287.273 28.208 286.633 28.592 285.881 28.88C285.145 29.152 284.337 29.288 283.457 29.288ZM291.6 29V16.016H294.192V18.632L293.952 18.248C294.24 17.4 294.704 16.792 295.344 16.424C295.984 16.04 296.752 15.848 297.648 15.848H298.44V18.32H297.312C296.416 18.32 295.688 18.6 295.128 19.16C294.584 19.704 294.312 20.488 294.312 21.512V29H291.6ZM303.703 29.288C302.823 29.288 302.047 29.136 301.375 28.832C300.719 28.512 300.207 28.08 299.839 27.536C299.471 26.976 299.287 26.32 299.287 25.568C299.287 24.864 299.439 24.232 299.743 23.672C300.063 23.112 300.551 22.64 301.207 22.256C301.863 21.872 302.687 21.6 303.679 21.44L308.191 20.696V22.832L304.207 23.528C303.487 23.656 302.959 23.888 302.623 24.224C302.287 24.544 302.119 24.96 302.119 25.472C302.119 25.968 302.303 26.376 302.671 26.696C303.055 27 303.543 27.152 304.135 27.152C304.871 27.152 305.511 26.992 306.055 26.672C306.615 26.352 307.047 25.928 307.351 25.4C307.655 24.856 307.807 24.256 307.807 23.6V20.264C307.807 19.624 307.567 19.104 307.087 18.704C306.623 18.288 305.999 18.08 305.215 18.08C304.495 18.08 303.863 18.272 303.319 18.656C302.791 19.024 302.399 19.504 302.143 20.096L299.887 18.968C300.127 18.328 300.519 17.768 301.063 17.288C301.607 16.792 302.239 16.408 302.959 16.136C303.695 15.864 304.471 15.728 305.287 15.728C306.311 15.728 307.215 15.92 307.999 16.304C308.799 16.688 309.415 17.224 309.847 17.912C310.295 18.584 310.519 19.368 310.519 20.264V29H307.927V26.648L308.479 26.72C308.175 27.248 307.783 27.704 307.303 28.088C306.839 28.472 306.303 28.768 305.695 28.976C305.103 29.184 304.439 29.288 303.703 29.288ZM318.592 29.144C317.232 29.144 316.176 28.76 315.424 27.992C314.672 27.224 314.296 26.144 314.296 24.752V18.464H312.016V16.016H312.376C312.984 16.016 313.456 15.84 313.792 15.488C314.128 15.136 314.296 14.656 314.296 14.048V13.04H317.008V16.016H319.96V18.464H317.008V24.632C317.008 25.08 317.08 25.464 317.224 25.784C317.368 26.088 317.6 26.328 317.92 26.504C318.24 26.664 318.656 26.744 319.168 26.744C319.296 26.744 319.44 26.736 319.6 26.72C319.76 26.704 319.912 26.688 320.056 26.672V29C319.832 29.032 319.584 29.064 319.312 29.096C319.04 29.128 318.8 29.144 318.592 29.144ZM322.222 29V16.016H324.934V29H322.222ZM322.222 14.24V11.12H324.934V14.24H322.222ZM333.889 29.288C332.641 29.288 331.497 28.992 330.457 28.4C329.433 27.808 328.617 27 328.009 25.976C327.401 24.952 327.097 23.792 327.097 22.496C327.097 21.184 327.401 20.024 328.009 19.016C328.617 17.992 329.433 17.192 330.457 16.616C331.481 16.024 332.625 15.728 333.889 15.728C335.169 15.728 336.313 16.024 337.321 16.616C338.345 17.192 339.153 17.992 339.745 19.016C340.353 20.024 340.657 21.184 340.657 22.496C340.657 23.808 340.353 24.976 339.745 26C339.137 27.024 338.321 27.832 337.297 28.424C336.273 29 335.137 29.288 333.889 29.288ZM333.889 26.768C334.657 26.768 335.337 26.584 335.929 26.216C336.521 25.848 336.985 25.344 337.321 24.704C337.673 24.048 337.849 23.312 337.849 22.496C337.849 21.68 337.673 20.952 337.321 20.312C336.985 19.672 336.521 19.168 335.929 18.8C335.337 18.432 334.657 18.248 333.889 18.248C333.137 18.248 332.457 18.432 331.849 18.8C331.257 19.168 330.785 19.672 330.433 20.312C330.097 20.952 329.929 21.68 329.929 22.496C329.929 23.312 330.097 24.048 330.433 24.704C330.785 25.344 331.257 25.848 331.849 26.216C332.457 26.584 333.137 26.768 333.889 26.768ZM342.825 29V16.016H345.417V18.56L345.105 18.224C345.425 17.408 345.937 16.792 346.641 16.376C347.345 15.944 348.161 15.728 349.089 15.728C350.049 15.728 350.897 15.936 351.633 16.352C352.369 16.768 352.945 17.344 353.361 18.08C353.777 18.816 353.985 19.664 353.985 20.624V29H351.297V21.344C351.297 20.688 351.177 20.136 350.937 19.688C350.697 19.224 350.353 18.872 349.905 18.632C349.473 18.376 348.977 18.248 348.417 18.248C347.857 18.248 347.353 18.376 346.905 18.632C346.473 18.872 346.137 19.224 345.897 19.688C345.657 20.152 345.537 20.704 345.537 21.344V29H342.825ZM360.295 29.288C359.415 29.288 358.639 29.136 357.967 28.832C357.311 28.512 356.799 28.08 356.431 27.536C356.063 26.976 355.879 26.32 355.879 25.568C355.879 24.864 356.031 24.232 356.335 23.672C356.655 23.112 357.143 22.64 357.799 22.256C358.455 21.872 359.279 21.6 360.271 21.44L364.783 20.696V22.832L360.799 23.528C360.079 23.656 359.551 23.888 359.215 24.224C358.879 24.544 358.711 24.96 358.711 25.472C358.711 25.968 358.895 26.376 359.263 26.696C359.647 27 360.135 27.152 360.727 27.152C361.463 27.152 362.103 26.992 362.647 26.672C363.207 26.352 363.639 25.928 363.943 25.4C364.247 24.856 364.399 24.256 364.399 23.6V20.264C364.399 19.624 364.159 19.104 363.679 18.704C363.215 18.288 362.591 18.08 361.807 18.08C361.087 18.08 360.455 18.272 359.911 18.656C359.383 19.024 358.991 19.504 358.735 20.096L356.479 18.968C356.719 18.328 357.111 17.768 357.655 17.288C358.199 16.792 358.831 16.408 359.551 16.136C360.287 15.864 361.063 15.728 361.879 15.728C362.903 15.728 363.807 15.92 364.591 16.304C365.391 16.688 366.007 17.224 366.439 17.912C366.887 18.584 367.111 19.368 367.111 20.264V29H364.519V26.648L365.071 26.72C364.767 27.248 364.375 27.704 363.895 28.088C363.431 28.472 362.895 28.768 362.287 28.976C361.695 29.184 361.031 29.288 360.295 29.288ZM369.802 29V10.832H372.514V29H369.802Z" fill="#FF8A40"/>
<path d="M757.176 258.288C755.912 258.288 754.736 258.056 753.648 257.592C752.576 257.128 751.64 256.488 750.84 255.672C750.056 254.84 749.44 253.864 748.992 252.744C748.544 251.624 748.32 250.392 748.32 249.048C748.32 247.72 748.536 246.496 748.968 245.376C749.416 244.24 750.04 243.264 750.84 242.448C751.64 241.616 752.576 240.976 753.648 240.528C754.72 240.064 755.896 239.832 757.176 239.832C758.44 239.832 759.568 240.048 760.56 240.48C761.568 240.912 762.416 241.48 763.104 242.184C763.792 242.872 764.288 243.624 764.592 244.44L762.048 245.64C761.664 244.68 761.048 243.904 760.2 243.312C759.368 242.704 758.36 242.4 757.176 242.4C755.992 242.4 754.944 242.68 754.032 243.24C753.12 243.8 752.408 244.576 751.896 245.568C751.4 246.56 751.152 247.72 751.152 249.048C751.152 250.376 751.4 251.544 751.896 252.552C752.408 253.544 753.12 254.32 754.032 254.88C754.944 255.424 755.992 255.696 757.176 255.696C758.36 255.696 759.368 255.4 760.2 254.808C761.048 254.216 761.664 253.44 762.048 252.48L764.592 253.68C764.288 254.48 763.792 255.232 763.104 255.936C762.416 256.64 761.568 257.208 760.56 257.64C759.568 258.072 758.44 258.288 757.176 258.288ZM770.414 258.288C769.534 258.288 768.758 258.136 768.086 257.832C767.43 257.512 766.918 257.08 766.55 256.536C766.182 255.976 765.998 255.32 765.998 254.568C765.998 253.864 766.15 253.232 766.454 252.672C766.774 252.112 767.262 251.64 767.918 251.256C768.574 250.872 769.398 250.6 770.39 250.44L774.902 249.696V251.832L770.918 252.528C770.198 252.656 769.67 252.888 769.334 253.224C768.998 253.544 768.83 253.96 768.83 254.472C768.83 254.968 769.014 255.376 769.382 255.696C769.766 256 770.254 256.152 770.846 256.152C771.582 256.152 772.222 255.992 772.766 255.672C773.326 255.352 773.758 254.928 774.062 254.4C774.366 253.856 774.518 253.256 774.518 252.6V249.264C774.518 248.624 774.278 248.104 773.798 247.704C773.334 247.288 772.71 247.08 771.926 247.08C771.206 247.08 770.574 247.272 770.03 247.656C769.502 248.024 769.11 248.504 768.854 249.096L766.598 247.968C766.838 247.328 767.23 246.768 767.774 246.288C768.318 245.792 768.95 245.408 769.67 245.136C770.406 244.864 771.182 244.728 771.998 244.728C773.022 244.728 773.926 244.92 774.71 245.304C775.51 245.688 776.126 246.224 776.558 246.912C777.006 247.584 777.23 248.368 777.23 249.264V258H774.638V255.648L775.19 255.72C774.886 256.248 774.494 256.704 774.014 257.088C773.55 257.472 773.014 257.768 772.406 257.976C771.814 258.184 771.15 258.288 770.414 258.288ZM779.921 262.8V245.016H782.513V247.704L782.201 247.08C782.681 246.344 783.321 245.768 784.121 245.352C784.921 244.936 785.833 244.728 786.857 244.728C788.089 244.728 789.193 245.024 790.169 245.616C791.161 246.208 791.937 247.016 792.497 248.04C793.073 249.064 793.361 250.216 793.361 251.496C793.361 252.776 793.073 253.928 792.497 254.952C791.937 255.976 791.169 256.792 790.193 257.4C789.217 257.992 788.105 258.288 786.857 258.288C785.849 258.288 784.929 258.08 784.097 257.664C783.281 257.248 782.649 256.648 782.201 255.864L782.633 255.36V262.8H779.921ZM786.593 255.768C787.361 255.768 788.041 255.584 788.633 255.216C789.225 254.848 789.689 254.344 790.025 253.704C790.377 253.048 790.553 252.312 790.553 251.496C790.553 250.68 790.377 249.952 790.025 249.312C789.689 248.672 789.225 248.168 788.633 247.8C788.041 247.432 787.361 247.248 786.593 247.248C785.841 247.248 785.161 247.432 784.553 247.8C783.961 248.168 783.489 248.672 783.137 249.312C782.801 249.952 782.633 250.68 782.633 251.496C782.633 252.312 782.801 253.048 783.137 253.704C783.489 254.344 783.961 254.848 784.553 255.216C785.161 255.584 785.841 255.768 786.593 255.768ZM800.901 258.144C799.541 258.144 798.485 257.76 797.733 256.992C796.981 256.224 796.605 255.144 796.605 253.752V247.464H794.325V245.016H794.685C795.293 245.016 795.765 244.84 796.101 244.488C796.437 244.136 796.605 243.656 796.605 243.048V242.04H799.317V245.016H802.269V247.464H799.317V253.632C799.317 254.08 799.389 254.464 799.533 254.784C799.677 255.088 799.909 255.328 800.229 255.504C800.549 255.664 800.965 255.744 801.477 255.744C801.605 255.744 801.749 255.736 801.909 255.72C802.069 255.704 802.221 255.688 802.365 255.672V258C802.141 258.032 801.893 258.064 801.621 258.096C801.349 258.128 801.109 258.144 800.901 258.144ZM809.163 258.288C808.187 258.288 807.331 258.072 806.595 257.64C805.859 257.192 805.283 256.576 804.867 255.792C804.467 254.992 804.267 254.072 804.267 253.032V245.016H806.979V252.792C806.979 253.384 807.099 253.904 807.339 254.352C807.579 254.8 807.915 255.152 808.347 255.408C808.779 255.648 809.275 255.768 809.835 255.768C810.411 255.768 810.915 255.64 811.347 255.384C811.779 255.128 812.115 254.768 812.355 254.304C812.611 253.84 812.739 253.296 812.739 252.672V245.016H815.427V258H812.859V255.456L813.147 255.792C812.843 256.592 812.339 257.208 811.635 257.64C810.931 258.072 810.107 258.288 809.163 258.288ZM818.114 258V245.016H820.706V247.632L820.466 247.248C820.754 246.4 821.218 245.792 821.858 245.424C822.498 245.04 823.266 244.848 824.162 244.848H824.954V247.32H823.826C822.93 247.32 822.202 247.6 821.642 248.16C821.098 248.704 820.826 249.488 820.826 250.512V258H818.114ZM832.425 258.288C831.129 258.288 829.977 257.992 828.969 257.4C827.977 256.792 827.201 255.976 826.641 254.952C826.081 253.912 825.801 252.752 825.801 251.472C825.801 250.16 826.081 249 826.641 247.992C827.217 246.984 827.985 246.192 828.945 245.616C829.905 245.024 830.993 244.728 832.209 244.728C833.185 244.728 834.057 244.896 834.825 245.232C835.593 245.568 836.241 246.032 836.769 246.624C837.297 247.2 837.697 247.864 837.969 248.616C838.257 249.368 838.401 250.168 838.401 251.016C838.401 251.224 838.393 251.44 838.377 251.664C838.361 251.888 838.329 252.096 838.281 252.288H827.937V250.128H836.745L835.449 251.112C835.609 250.328 835.553 249.632 835.281 249.024C835.025 248.4 834.625 247.912 834.081 247.56C833.553 247.192 832.929 247.008 832.209 247.008C831.489 247.008 830.849 247.192 830.289 247.56C829.729 247.912 829.297 248.424 828.993 249.096C828.689 249.752 828.569 250.552 828.633 251.496C828.553 252.376 828.673 253.144 828.993 253.8C829.329 254.456 829.793 254.968 830.385 255.336C830.993 255.704 831.681 255.888 832.449 255.888C833.233 255.888 833.897 255.712 834.441 255.36C835.001 255.008 835.441 254.552 835.761 253.992L837.969 255.072C837.713 255.68 837.313 256.232 836.769 256.728C836.241 257.208 835.601 257.592 834.849 257.88C834.113 258.152 833.305 258.288 832.425 258.288ZM849.899 258.144C848.539 258.144 847.483 257.76 846.731 256.992C845.979 256.224 845.603 255.144 845.603 253.752V247.464H843.323V245.016H843.683C844.291 245.016 844.763 244.84 845.099 244.488C845.435 244.136 845.603 243.656 845.603 243.048V242.04H848.315V245.016H851.267V247.464H848.315V253.632C848.315 254.08 848.387 254.464 848.531 254.784C848.675 255.088 848.907 255.328 849.227 255.504C849.547 255.664 849.963 255.744 850.475 255.744C850.603 255.744 850.747 255.736 850.907 255.72C851.067 255.704 851.219 255.688 851.363 255.672V258C851.139 258.032 850.891 258.064 850.619 258.096C850.347 258.128 850.107 258.144 849.899 258.144ZM853.53 258V239.832H856.242V247.56L855.81 247.224C856.13 246.408 856.642 245.792 857.346 245.376C858.05 244.944 858.866 244.728 859.794 244.728C860.754 244.728 861.602 244.936 862.338 245.352C863.074 245.768 863.65 246.344 864.066 247.08C864.482 247.816 864.69 248.656 864.69 249.6V258H862.002V250.344C862.002 249.688 861.874 249.136 861.618 248.688C861.378 248.224 861.042 247.872 860.61 247.632C860.178 247.376 859.682 247.248 859.122 247.248C858.578 247.248 858.082 247.376 857.634 247.632C857.202 247.872 856.858 248.224 856.602 248.688C856.362 249.152 856.242 249.704 856.242 250.344V258H853.53ZM873.208 258.288C871.912 258.288 870.76 257.992 869.752 257.4C868.76 256.792 867.984 255.976 867.424 254.952C866.864 253.912 866.584 252.752 866.584 251.472C866.584 250.16 866.864 249 867.424 247.992C868 246.984 868.768 246.192 869.728 245.616C870.688 245.024 871.776 244.728 872.992 244.728C873.968 244.728 874.84 244.896 875.608 245.232C876.376 245.568 877.024 246.032 877.552 246.624C878.08 247.2 878.48 247.864 878.752 248.616C879.04 249.368 879.184 250.168 879.184 251.016C879.184 251.224 879.176 251.44 879.16 251.664C879.144 251.888 879.112 252.096 879.064 252.288H868.72V250.128H877.528L876.232 251.112C876.392 250.328 876.336 249.632 876.064 249.024C875.808 248.4 875.408 247.912 874.864 247.56C874.336 247.192 873.712 247.008 872.992 247.008C872.272 247.008 871.632 247.192 871.072 247.56C870.512 247.912 870.08 248.424 869.776 249.096C869.472 249.752 869.352 250.552 869.416 251.496C869.336 252.376 869.456 253.144 869.776 253.8C870.112 254.456 870.576 254.968 871.168 255.336C871.776 255.704 872.464 255.888 873.232 255.888C874.016 255.888 874.68 255.712 875.224 255.36C875.784 255.008 876.224 254.552 876.544 253.992L878.752 255.072C878.496 255.68 878.096 256.232 877.552 256.728C877.024 257.208 876.384 257.592 875.632 257.88C874.896 258.152 874.088 258.288 873.208 258.288Z" fill="#1F1F1F"/>
<path d="M885.33 258V240.12H887.97L894.69 249.432H893.37L899.97 240.12H902.61V258H899.802V243.456L900.858 243.744L894.114 252.96H893.826L887.226 243.744L888.162 243.456V258H885.33ZM909.451 258.288C908.571 258.288 907.795 258.136 907.123 257.832C906.467 257.512 905.955 257.08 905.587 256.536C905.219 255.976 905.035 255.32 905.035 254.568C905.035 253.864 905.187 253.232 905.491 252.672C905.811 252.112 906.299 251.64 906.955 251.256C907.611 250.872 908.435 250.6 909.427 250.44L913.939 249.696V251.832L909.955 252.528C909.235 252.656 908.707 252.888 908.371 253.224C908.035 253.544 907.867 253.96 907.867 254.472C907.867 254.968 908.051 255.376 908.419 255.696C908.803 256 909.291 256.152 909.883 256.152C910.619 256.152 911.259 255.992 911.803 255.672C912.363 255.352 912.795 254.928 913.099 254.4C913.403 253.856 913.555 253.256 913.555 252.6V249.264C913.555 248.624 913.315 248.104 912.835 247.704C912.371 247.288 911.747 247.08 910.963 247.08C910.243 247.08 909.611 247.272 909.067 247.656C908.539 248.024 908.147 248.504 907.891 249.096L905.635 247.968C905.875 247.328 906.267 246.768 906.811 246.288C907.355 245.792 907.987 245.408 908.707 245.136C909.443 244.864 910.219 244.728 911.035 244.728C912.059 244.728 912.963 244.92 913.747 245.304C914.547 245.688 915.163 246.224 915.595 246.912C916.043 247.584 916.267 248.368 916.267 249.264V258H913.675V255.648L914.227 255.72C913.923 256.248 913.531 256.704 913.051 257.088C912.587 257.472 912.051 257.768 911.443 257.976C910.851 258.184 910.187 258.288 909.451 258.288ZM918.958 258V245.016H921.55V247.632L921.31 247.248C921.598 246.4 922.062 245.792 922.702 245.424C923.342 245.04 924.11 244.848 925.006 244.848H925.798V247.32H924.67C923.774 247.32 923.046 247.6 922.486 248.16C921.942 248.704 921.67 249.488 921.67 250.512V258H918.958ZM927.173 258V239.832H929.885V252L928.829 251.736L935.333 245.016H938.717L933.821 250.224L938.933 258H935.813L931.253 251.112L932.861 250.896L929.021 254.976L929.885 253.176V258H927.173ZM946.172 258.288C944.876 258.288 943.724 257.992 942.716 257.4C941.724 256.792 940.948 255.976 940.388 254.952C939.828 253.912 939.548 252.752 939.548 251.472C939.548 250.16 939.828 249 940.388 247.992C940.964 246.984 941.732 246.192 942.692 245.616C943.652 245.024 944.74 244.728 945.956 244.728C946.932 244.728 947.804 244.896 948.572 245.232C949.34 245.568 949.988 246.032 950.516 246.624C951.044 247.2 951.444 247.864 951.716 248.616C952.004 249.368 952.148 250.168 952.148 251.016C952.148 251.224 952.14 251.44 952.124 251.664C952.108 251.888 952.076 252.096 952.028 252.288H941.684V250.128H950.492L949.196 251.112C949.356 250.328 949.3 249.632 949.028 249.024C948.772 248.4 948.372 247.912 947.828 247.56C947.3 247.192 946.676 247.008 945.956 247.008C945.236 247.008 944.596 247.192 944.036 247.56C943.476 247.912 943.044 248.424 942.74 249.096C942.436 249.752 942.316 250.552 942.38 251.496C942.3 252.376 942.42 253.144 942.74 253.8C943.076 254.456 943.54 254.968 944.132 255.336C944.74 255.704 945.428 255.888 946.196 255.888C946.98 255.888 947.644 255.712 948.188 255.36C948.748 255.008 949.188 254.552 949.508 253.992L951.716 255.072C951.46 255.68 951.06 256.232 950.516 256.728C949.988 257.208 949.348 257.592 948.596 257.88C947.86 258.152 947.052 258.288 946.172 258.288ZM959.931 258.144C958.571 258.144 957.515 257.76 956.763 256.992C956.011 256.224 955.635 255.144 955.635 253.752V247.464H953.355V245.016H953.715C954.323 245.016 954.795 244.84 955.131 244.488C955.467 244.136 955.635 243.656 955.635 243.048V242.04H958.347V245.016H961.299V247.464H958.347V253.632C958.347 254.08 958.419 254.464 958.563 254.784C958.707 255.088 958.939 255.328 959.259 255.504C959.579 255.664 959.995 255.744 960.507 255.744C960.635 255.744 960.779 255.736 960.939 255.72C961.099 255.704 961.251 255.688 961.395 255.672V258C961.171 258.032 960.923 258.064 960.651 258.096C960.379 258.128 960.139 258.144 959.931 258.144Z" fill="#FF8A40"/>
<path opacity="0.6" d="M216.996 46.622L217.164 45.446C217.239 44.9047 217.416 44.4567 217.696 44.102C217.985 43.7473 218.368 43.514 218.844 43.402L218.774 43.892C218.485 43.9667 218.265 44.1067 218.116 44.312C217.967 44.508 217.859 44.7647 217.794 45.082H218.326L218.116 46.622H216.996ZM214.896 46.622L215.064 45.446C215.139 44.9047 215.316 44.4567 215.596 44.102C215.885 43.7473 216.268 43.514 216.744 43.402L216.674 43.892C216.385 43.9667 216.165 44.1067 216.016 44.312C215.867 44.508 215.759 44.7647 215.694 45.082H216.226L216.016 46.622H214.896ZM220.313 54L221.769 43.57H222.889L221.433 54H220.313ZM226.387 54.084C225.705 54.084 225.206 53.8833 224.889 53.482C224.571 53.0807 224.459 52.516 224.553 51.788L225.141 47.546H223.755L223.909 46.496H224.231C224.548 46.496 224.819 46.3887 225.043 46.174C225.276 45.95 225.411 45.6793 225.449 45.362L225.533 44.76H226.597L226.359 46.496H227.997L227.843 47.546H226.205L225.603 51.844C225.565 52.096 225.565 52.32 225.603 52.516C225.649 52.7027 225.752 52.8473 225.911 52.95C226.069 53.0527 226.298 53.104 226.597 53.104C226.69 53.104 226.788 53.0993 226.891 53.09C226.993 53.0807 227.082 53.0713 227.157 53.062L227.073 54.028C226.961 54.056 226.835 54.07 226.695 54.07C226.564 54.0793 226.461 54.084 226.387 54.084ZM229.7 46.79L229.77 46.3C230.059 46.2253 230.278 46.09 230.428 45.894C230.577 45.6887 230.684 45.4273 230.75 45.11H230.218L230.428 43.57H231.548L231.38 44.746C231.314 45.2873 231.137 45.7353 230.848 46.09C230.558 46.4447 230.176 46.678 229.7 46.79ZM234.873 54.168C234.397 54.168 233.958 54.084 233.557 53.916C233.156 53.748 232.815 53.51 232.535 53.202C232.255 52.8847 232.054 52.5207 231.933 52.11L232.843 51.746C233.011 52.2033 233.282 52.5627 233.655 52.824C234.038 53.0853 234.476 53.216 234.971 53.216C235.447 53.216 235.839 53.0947 236.147 52.852C236.455 52.6 236.609 52.2873 236.609 51.914C236.609 51.662 236.516 51.452 236.329 51.284C236.152 51.1067 235.872 50.9667 235.489 50.864L234.439 50.57C233.86 50.4113 233.422 50.1687 233.123 49.842C232.824 49.506 232.675 49.1093 232.675 48.652C232.675 48.2227 232.796 47.8353 233.039 47.49C233.282 47.1353 233.608 46.8553 234.019 46.65C234.43 46.4353 234.882 46.328 235.377 46.328C236.04 46.328 236.614 46.5007 237.099 46.846C237.584 47.1913 237.902 47.6533 238.051 48.232L237.127 48.596C236.978 48.1667 236.749 47.84 236.441 47.616C236.133 47.392 235.76 47.28 235.321 47.28C234.864 47.28 234.49 47.3967 234.201 47.63C233.912 47.8633 233.767 48.1573 233.767 48.512C233.767 48.764 233.842 48.974 233.991 49.142C234.15 49.31 234.402 49.4453 234.747 49.548L235.951 49.912C236.511 50.08 236.94 50.332 237.239 50.668C237.547 51.004 237.701 51.4053 237.701 51.872C237.701 52.3013 237.575 52.6887 237.323 53.034C237.08 53.3793 236.744 53.6547 236.315 53.86C235.886 54.0653 235.405 54.168 234.873 54.168ZM244.935 54.168C244.263 54.168 243.651 54.014 243.101 53.706C242.559 53.3887 242.125 52.95 241.799 52.39C241.481 51.83 241.323 51.186 241.323 50.458C241.323 49.8887 241.425 49.3567 241.631 48.862C241.836 48.358 242.121 47.9193 242.485 47.546C242.858 47.1633 243.287 46.8647 243.773 46.65C244.267 46.4353 244.795 46.328 245.355 46.328C246.045 46.328 246.661 46.4867 247.203 46.804C247.753 47.112 248.187 47.5413 248.505 48.092C248.822 48.6427 248.981 49.2773 248.981 49.996C248.981 50.5653 248.873 51.102 248.659 51.606C248.453 52.11 248.164 52.558 247.791 52.95C247.417 53.3327 246.988 53.6313 246.503 53.846C246.017 54.0607 245.495 54.168 244.935 54.168ZM244.921 53.118C245.471 53.118 245.966 52.9733 246.405 52.684C246.853 52.3947 247.207 52.012 247.469 51.536C247.73 51.06 247.861 50.542 247.861 49.982C247.861 49.478 247.753 49.03 247.539 48.638C247.324 48.246 247.025 47.938 246.643 47.714C246.269 47.49 245.845 47.378 245.369 47.378C244.827 47.378 244.333 47.5227 243.885 47.812C243.446 48.092 243.096 48.4653 242.835 48.932C242.573 49.3987 242.443 49.9167 242.443 50.486C242.443 50.99 242.55 51.4427 242.765 51.844C242.979 52.236 243.273 52.5487 243.647 52.782C244.02 53.006 244.445 53.118 244.921 53.118ZM252.722 54.168C252.19 54.168 251.723 54.042 251.322 53.79C250.92 53.5287 250.626 53.1647 250.44 52.698C250.253 52.2313 250.202 51.6853 250.286 51.06L250.93 46.496H251.98L251.322 51.13C251.266 51.5313 251.298 51.8813 251.42 52.18C251.541 52.4787 251.732 52.712 251.994 52.88C252.255 53.0387 252.572 53.118 252.946 53.118C253.338 53.118 253.697 53.0293 254.024 52.852C254.35 52.6747 254.621 52.4227 254.836 52.096C255.06 51.7693 255.204 51.382 255.27 50.934L255.9 46.496H256.95L255.9 54H254.85L255.046 52.544L255.284 52.628C255.032 53.1133 254.677 53.4913 254.22 53.762C253.772 54.0327 253.272 54.168 252.722 54.168ZM260.705 54.084C260.023 54.084 259.524 53.8833 259.207 53.482C258.889 53.0807 258.777 52.516 258.871 51.788L259.459 47.546H258.073L258.227 46.496H258.549C258.866 46.496 259.137 46.3887 259.361 46.174C259.594 45.95 259.729 45.6793 259.767 45.362L259.851 44.76H260.915L260.677 46.496H262.315L262.161 47.546H260.523L259.921 51.844C259.883 52.096 259.883 52.32 259.921 52.516C259.967 52.7027 260.07 52.8473 260.229 52.95C260.387 53.0527 260.616 53.104 260.915 53.104C261.008 53.104 261.106 53.0993 261.209 53.09C261.311 53.0807 261.4 53.0713 261.475 53.062L261.391 54.028C261.279 54.056 261.153 54.07 261.013 54.07C260.882 54.0793 260.779 54.084 260.705 54.084ZM267.979 54.084C267.297 54.084 266.798 53.8833 266.481 53.482C266.163 53.0807 266.051 52.516 266.145 51.788L266.733 47.546H265.347L265.501 46.496H265.823C266.14 46.496 266.411 46.3887 266.635 46.174C266.868 45.95 267.003 45.6793 267.041 45.362L267.125 44.76H268.189L267.951 46.496H269.589L269.435 47.546H267.797L267.195 51.844C267.157 52.096 267.157 52.32 267.195 52.516C267.241 52.7027 267.344 52.8473 267.503 52.95C267.661 53.0527 267.89 53.104 268.189 53.104C268.282 53.104 268.38 53.0993 268.483 53.09C268.585 53.0807 268.674 53.0713 268.749 53.062L268.665 54.028C268.553 54.056 268.427 54.07 268.287 54.07C268.156 54.0793 268.053 54.084 267.979 54.084ZM270.242 54L271.726 43.402H272.776L272.146 47.952L271.908 47.868C272.15 47.3827 272.5 47.0047 272.958 46.734C273.424 46.4633 273.928 46.328 274.47 46.328C275.011 46.328 275.478 46.454 275.87 46.706C276.271 46.958 276.565 47.308 276.752 47.756C276.948 48.204 277.004 48.7173 276.92 49.296L276.262 54H275.198L275.842 49.366C275.926 48.7593 275.818 48.2787 275.52 47.924C275.221 47.56 274.796 47.378 274.246 47.378C273.863 47.378 273.504 47.4667 273.168 47.644C272.841 47.8213 272.566 48.0733 272.342 48.4C272.127 48.7267 271.987 49.114 271.922 49.562L271.306 54H270.242ZM281.711 54.168C281.039 54.168 280.441 54.014 279.919 53.706C279.396 53.3887 278.981 52.9547 278.673 52.404C278.374 51.8533 278.225 51.2233 278.225 50.514C278.225 49.9447 278.318 49.408 278.505 48.904C278.701 48.4 278.971 47.9567 279.317 47.574C279.671 47.182 280.082 46.8787 280.549 46.664C281.015 46.44 281.529 46.328 282.089 46.328C282.779 46.328 283.367 46.4867 283.853 46.804C284.338 47.1213 284.707 47.5367 284.959 48.05C285.211 48.554 285.337 49.0907 285.337 49.66C285.337 49.8093 285.323 49.9727 285.295 50.15C285.267 50.3273 285.243 50.4673 285.225 50.57H278.883L278.953 49.59H284.693L284.161 49.996C284.291 49.5013 284.273 49.0533 284.105 48.652C283.946 48.2413 283.685 47.9147 283.321 47.672C282.966 47.4293 282.551 47.308 282.075 47.308C281.477 47.308 280.973 47.4527 280.563 47.742C280.152 48.0313 279.839 48.4373 279.625 48.96C279.419 49.4733 279.317 50.0707 279.317 50.752C279.317 51.2467 279.429 51.6807 279.653 52.054C279.877 52.418 280.171 52.698 280.535 52.894C280.899 53.09 281.295 53.188 281.725 53.188C282.275 53.188 282.747 53.0573 283.139 52.796C283.54 52.5253 283.871 52.194 284.133 51.802L285.015 52.306C284.837 52.642 284.585 52.9547 284.259 53.244C283.932 53.524 283.549 53.748 283.111 53.916C282.681 54.084 282.215 54.168 281.711 54.168ZM286.361 54L287.411 46.496H288.475L288.307 47.728L288.167 47.546C288.401 47.1913 288.709 46.9113 289.091 46.706C289.483 46.5007 289.936 46.398 290.449 46.398H290.925L290.771 47.448H290.113C289.572 47.448 289.115 47.6207 288.741 47.966C288.377 48.3113 288.144 48.8293 288.041 49.52L287.425 54H286.361ZM294.522 54.168C293.85 54.168 293.253 54.014 292.73 53.706C292.207 53.3887 291.792 52.9547 291.484 52.404C291.185 51.8533 291.036 51.2233 291.036 50.514C291.036 49.9447 291.129 49.408 291.316 48.904C291.512 48.4 291.783 47.9567 292.128 47.574C292.483 47.182 292.893 46.8787 293.36 46.664C293.827 46.44 294.34 46.328 294.9 46.328C295.591 46.328 296.179 46.4867 296.664 46.804C297.149 47.1213 297.518 47.5367 297.77 48.05C298.022 48.554 298.148 49.0907 298.148 49.66C298.148 49.8093 298.134 49.9727 298.106 50.15C298.078 50.3273 298.055 50.4673 298.036 50.57H291.694L291.764 49.59H297.504L296.972 49.996C297.103 49.5013 297.084 49.0533 296.916 48.652C296.757 48.2413 296.496 47.9147 296.132 47.672C295.777 47.4293 295.362 47.308 294.886 47.308C294.289 47.308 293.785 47.4527 293.374 47.742C292.963 48.0313 292.651 48.4373 292.436 48.96C292.231 49.4733 292.128 50.0707 292.128 50.752C292.128 51.2467 292.24 51.6807 292.464 52.054C292.688 52.418 292.982 52.698 293.346 52.894C293.71 53.09 294.107 53.188 294.536 53.188C295.087 53.188 295.558 53.0573 295.95 52.796C296.351 52.5253 296.683 52.194 296.944 51.802L297.826 52.306C297.649 52.642 297.397 52.9547 297.07 53.244C296.743 53.524 296.361 53.748 295.922 53.916C295.493 54.084 295.026 54.168 294.522 54.168ZM303.637 54.168C303.227 54.168 302.839 54.0933 302.475 53.944C302.111 53.7947 301.813 53.5707 301.579 53.272C301.355 52.964 301.243 52.5813 301.243 52.124C301.243 51.704 301.346 51.326 301.551 50.99C301.766 50.654 302.069 50.374 302.461 50.15C302.853 49.926 303.325 49.772 303.875 49.688L306.885 49.198L306.787 50.15L304.071 50.598C303.539 50.6913 303.119 50.8687 302.811 51.13C302.513 51.382 302.363 51.6947 302.363 52.068C302.363 52.4133 302.489 52.6933 302.741 52.908C303.003 53.1133 303.348 53.216 303.777 53.216C304.244 53.216 304.673 53.104 305.065 52.88C305.457 52.656 305.784 52.3573 306.045 51.984C306.307 51.6013 306.465 51.1813 306.521 50.724L306.759 48.974C306.815 48.6007 306.769 48.2927 306.619 48.05C306.47 47.8073 306.26 47.63 305.989 47.518C305.728 47.3967 305.443 47.336 305.135 47.336C304.659 47.336 304.235 47.4573 303.861 47.7C303.497 47.9333 303.208 48.232 302.993 48.596L302.083 48.022C302.261 47.7047 302.503 47.42 302.811 47.168C303.129 46.9067 303.493 46.7013 303.903 46.552C304.314 46.4027 304.748 46.328 305.205 46.328C305.747 46.328 306.227 46.4447 306.647 46.678C307.067 46.902 307.385 47.2147 307.599 47.616C307.823 48.0173 307.898 48.484 307.823 49.016L307.123 54H306.059L306.269 52.502L306.451 52.684C306.283 52.9733 306.055 53.23 305.765 53.454C305.476 53.678 305.149 53.8553 304.785 53.986C304.421 54.1073 304.039 54.168 303.637 54.168ZM309.017 54L310.067 46.496H311.117L310.921 47.952L310.683 47.868C310.925 47.3827 311.275 47.0047 311.733 46.734C312.199 46.4633 312.703 46.328 313.245 46.328C313.786 46.328 314.253 46.454 314.645 46.706C315.046 46.958 315.34 47.308 315.527 47.756C315.723 48.204 315.779 48.7173 315.695 49.296L315.037 54H313.987L314.631 49.366C314.715 48.7593 314.607 48.2787 314.309 47.924C314.01 47.56 313.581 47.378 313.021 47.378C312.629 47.378 312.265 47.4667 311.929 47.644C311.602 47.8213 311.327 48.0733 311.103 48.4C310.888 48.7267 310.748 49.114 310.683 49.562L310.067 54H309.017ZM320.444 54.168C319.772 54.168 319.175 54.014 318.652 53.706C318.129 53.3887 317.719 52.9593 317.42 52.418C317.131 51.8673 316.986 51.242 316.986 50.542C316.986 49.9633 317.084 49.422 317.28 48.918C317.476 48.4047 317.751 47.9567 318.106 47.574C318.461 47.182 318.876 46.8787 319.352 46.664C319.837 46.44 320.365 46.328 320.934 46.328C321.625 46.328 322.217 46.4727 322.712 46.762C323.207 47.0513 323.589 47.448 323.86 47.952L323.72 48.176L324.378 43.402H325.442L323.972 54H322.922L323.146 52.32L323.454 52.488C323.165 53.0293 322.749 53.4447 322.208 53.734C321.667 54.0233 321.079 54.168 320.444 54.168ZM320.514 53.118C321.065 53.118 321.559 52.9733 321.998 52.684C322.446 52.3947 322.801 52.012 323.062 51.536C323.323 51.06 323.454 50.5467 323.454 49.996C323.454 49.492 323.347 49.044 323.132 48.652C322.917 48.26 322.623 47.952 322.25 47.728C321.877 47.4947 321.452 47.378 320.976 47.378C320.425 47.378 319.931 47.5227 319.492 47.812C319.063 48.1013 318.722 48.4887 318.47 48.974C318.227 49.45 318.106 49.9727 318.106 50.542C318.106 51.0367 318.209 51.48 318.414 51.872C318.619 52.2547 318.904 52.558 319.268 52.782C319.632 53.006 320.047 53.118 320.514 53.118ZM327.568 56.8L329.01 46.496H330.074L329.836 48.176L329.486 47.868C329.813 47.392 330.233 47.0187 330.746 46.748C331.269 46.468 331.847 46.328 332.482 46.328C333.182 46.328 333.793 46.4913 334.316 46.818C334.839 47.1353 335.24 47.5693 335.52 48.12C335.809 48.6613 335.954 49.2727 335.954 49.954C335.954 50.5233 335.856 51.0647 335.66 51.578C335.464 52.082 335.184 52.53 334.82 52.922C334.465 53.314 334.045 53.622 333.56 53.846C333.084 54.0607 332.561 54.168 331.992 54.168C331.339 54.168 330.741 54.0187 330.2 53.72C329.668 53.412 329.281 52.992 329.038 52.46L329.248 52.32L328.632 56.8H327.568ZM331.964 53.118C332.515 53.118 333.005 52.9733 333.434 52.684C333.863 52.3947 334.204 52.012 334.456 51.536C334.708 51.06 334.834 50.542 334.834 49.982C334.834 49.478 334.727 49.03 334.512 48.638C334.307 48.246 334.017 47.938 333.644 47.714C333.28 47.49 332.851 47.378 332.356 47.378C331.805 47.378 331.311 47.5227 330.872 47.812C330.443 48.092 330.107 48.4653 329.864 48.932C329.621 49.3987 329.5 49.9073 329.5 50.458C329.5 50.9713 329.607 51.4287 329.822 51.83C330.037 52.2313 330.326 52.5487 330.69 52.782C331.063 53.006 331.488 53.118 331.964 53.118ZM340.714 54.168C340.042 54.168 339.445 54.014 338.922 53.706C338.4 53.3887 337.984 52.9547 337.676 52.404C337.378 51.8533 337.228 51.2233 337.228 50.514C337.228 49.9447 337.322 49.408 337.508 48.904C337.704 48.4 337.975 47.9567 338.32 47.574C338.675 47.182 339.086 46.8787 339.552 46.664C340.019 46.44 340.532 46.328 341.092 46.328C341.783 46.328 342.371 46.4867 342.856 46.804C343.342 47.1213 343.71 47.5367 343.962 48.05C344.214 48.554 344.34 49.0907 344.34 49.66C344.34 49.8093 344.326 49.9727 344.298 50.15C344.27 50.3273 344.247 50.4673 344.228 50.57H337.886L337.956 49.59H343.696L343.164 49.996C343.295 49.5013 343.276 49.0533 343.108 48.652C342.95 48.2413 342.688 47.9147 342.324 47.672C341.97 47.4293 341.554 47.308 341.078 47.308C340.481 47.308 339.977 47.4527 339.566 47.742C339.156 48.0313 338.843 48.4373 338.628 48.96C338.423 49.4733 338.32 50.0707 338.32 50.752C338.32 51.2467 338.432 51.6807 338.656 52.054C338.88 52.418 339.174 52.698 339.538 52.894C339.902 53.09 340.299 53.188 340.728 53.188C341.279 53.188 341.75 53.0573 342.142 52.796C342.544 52.5253 342.875 52.194 343.136 51.802L344.018 52.306C343.841 52.642 343.589 52.9547 343.262 53.244C342.936 53.524 342.553 53.748 342.114 53.916C341.685 54.084 341.218 54.168 340.714 54.168ZM349.201 54.168C348.529 54.168 347.918 54.014 347.367 53.706C346.826 53.3887 346.392 52.95 346.065 52.39C345.748 51.83 345.589 51.186 345.589 50.458C345.589 49.8887 345.692 49.3567 345.897 48.862C346.102 48.358 346.387 47.9193 346.751 47.546C347.124 47.1633 347.554 46.8647 348.039 46.65C348.534 46.4353 349.061 46.328 349.621 46.328C350.312 46.328 350.928 46.4867 351.469 46.804C352.02 47.112 352.454 47.5413 352.771 48.092C353.088 48.6427 353.247 49.2773 353.247 49.996C353.247 50.5653 353.14 51.102 352.925 51.606C352.72 52.11 352.43 52.558 352.057 52.95C351.684 53.3327 351.254 53.6313 350.769 53.846C350.284 54.0607 349.761 54.168 349.201 54.168ZM349.187 53.118C349.738 53.118 350.232 52.9733 350.671 52.684C351.119 52.3947 351.474 52.012 351.735 51.536C351.996 51.06 352.127 50.542 352.127 49.982C352.127 49.478 352.02 49.03 351.805 48.638C351.59 48.246 351.292 47.938 350.909 47.714C350.536 47.49 350.111 47.378 349.635 47.378C349.094 47.378 348.599 47.5227 348.151 47.812C347.712 48.092 347.362 48.4653 347.101 48.932C346.84 49.3987 346.709 49.9167 346.709 50.486C346.709 50.99 346.816 51.4427 347.031 51.844C347.246 52.236 347.54 52.5487 347.913 52.782C348.286 53.006 348.711 53.118 349.187 53.118ZM353.908 56.8L355.35 46.496H356.414L356.176 48.176L355.826 47.868C356.152 47.392 356.572 47.0187 357.086 46.748C357.608 46.468 358.187 46.328 358.822 46.328C359.522 46.328 360.133 46.4913 360.656 46.818C361.178 47.1353 361.58 47.5693 361.86 48.12C362.149 48.6613 362.294 49.2727 362.294 49.954C362.294 50.5233 362.196 51.0647 362 51.578C361.804 52.082 361.524 52.53 361.16 52.922C360.805 53.314 360.385 53.622 359.9 53.846C359.424 54.0607 358.901 54.168 358.332 54.168C357.678 54.168 357.081 54.0187 356.54 53.72C356.008 53.412 355.62 52.992 355.378 52.46L355.588 52.32L354.972 56.8H353.908ZM358.304 53.118C358.854 53.118 359.344 52.9733 359.774 52.684C360.203 52.3947 360.544 52.012 360.796 51.536C361.048 51.06 361.174 50.542 361.174 49.982C361.174 49.478 361.066 49.03 360.852 48.638C360.646 48.246 360.357 47.938 359.984 47.714C359.62 47.49 359.19 47.378 358.696 47.378C358.145 47.378 357.65 47.5227 357.212 47.812C356.782 48.092 356.446 48.4653 356.204 48.932C355.961 49.3987 355.84 49.9073 355.84 50.458C355.84 50.9713 355.947 51.4287 356.162 51.83C356.376 52.2313 356.666 52.5487 357.03 52.782C357.403 53.006 357.828 53.118 358.304 53.118ZM363.344 54L364.828 43.402H365.892L364.408 54H363.344ZM370.014 54.168C369.342 54.168 368.745 54.014 368.222 53.706C367.699 53.3887 367.284 52.9547 366.976 52.404C366.677 51.8533 366.528 51.2233 366.528 50.514C366.528 49.9447 366.621 49.408 366.808 48.904C367.004 48.4 367.275 47.9567 367.62 47.574C367.975 47.182 368.385 46.8787 368.852 46.664C369.319 46.44 369.832 46.328 370.392 46.328C371.083 46.328 371.671 46.4867 372.156 46.804C372.641 47.1213 373.01 47.5367 373.262 48.05C373.514 48.554 373.64 49.0907 373.64 49.66C373.64 49.8093 373.626 49.9727 373.598 50.15C373.57 50.3273 373.547 50.4673 373.528 50.57H367.186L367.256 49.59H372.996L372.464 49.996C372.595 49.5013 372.576 49.0533 372.408 48.652C372.249 48.2413 371.988 47.9147 371.624 47.672C371.269 47.4293 370.854 47.308 370.378 47.308C369.781 47.308 369.277 47.4527 368.866 47.742C368.455 48.0313 368.143 48.4373 367.928 48.96C367.723 49.4733 367.62 50.0707 367.62 50.752C367.62 51.2467 367.732 51.6807 367.956 52.054C368.18 52.418 368.474 52.698 368.838 52.894C369.202 53.09 369.599 53.188 370.028 53.188C370.579 53.188 371.05 53.0573 371.442 52.796C371.843 52.5253 372.175 52.194 372.436 51.802L373.318 52.306C373.141 52.642 372.889 52.9547 372.562 53.244C372.235 53.524 371.853 53.748 371.414 53.916C370.985 54.084 370.518 54.168 370.014 54.168ZM379.13 54.168C378.719 54.168 378.332 54.0933 377.968 53.944C377.604 53.7947 377.305 53.5707 377.072 53.272C376.848 52.964 376.736 52.5813 376.736 52.124C376.736 51.704 376.838 51.326 377.044 50.99C377.258 50.654 377.562 50.374 377.954 50.15C378.346 49.926 378.817 49.772 379.368 49.688L382.378 49.198L382.28 50.15L379.564 50.598C379.032 50.6913 378.612 50.8687 378.304 51.13C378.005 51.382 377.856 51.6947 377.856 52.068C377.856 52.4133 377.982 52.6933 378.234 52.908C378.495 53.1133 378.84 53.216 379.27 53.216C379.736 53.216 380.166 53.104 380.558 52.88C380.95 52.656 381.276 52.3573 381.538 51.984C381.799 51.6013 381.958 51.1813 382.014 50.724L382.252 48.974C382.308 48.6007 382.261 48.2927 382.112 48.05C381.962 47.8073 381.752 47.63 381.482 47.518C381.22 47.3967 380.936 47.336 380.628 47.336C380.152 47.336 379.727 47.4573 379.354 47.7C378.99 47.9333 378.7 48.232 378.486 48.596L377.576 48.022C377.753 47.7047 377.996 47.42 378.304 47.168C378.621 46.9067 378.985 46.7013 379.396 46.552C379.806 46.4027 380.24 46.328 380.698 46.328C381.239 46.328 381.72 46.4447 382.14 46.678C382.56 46.902 382.877 47.2147 383.092 47.616C383.316 48.0173 383.39 48.484 383.316 49.016L382.616 54H381.552L381.762 52.502L381.944 52.684C381.776 52.9733 381.547 53.23 381.258 53.454C380.968 53.678 380.642 53.8553 380.278 53.986C379.914 54.1073 379.531 54.168 379.13 54.168ZM384.509 54L385.559 46.496H386.623L386.455 47.728L386.315 47.546C386.548 47.1913 386.856 46.9113 387.239 46.706C387.631 46.5007 388.084 46.398 388.597 46.398H389.073L388.919 47.448H388.261C387.72 47.448 387.262 47.6207 386.889 47.966C386.525 48.3113 386.292 48.8293 386.189 49.52L385.573 54H384.509ZM392.67 54.168C391.998 54.168 391.4 54.014 390.878 53.706C390.355 53.3887 389.94 52.9547 389.632 52.404C389.333 51.8533 389.184 51.2233 389.184 50.514C389.184 49.9447 389.277 49.408 389.464 48.904C389.66 48.4 389.93 47.9567 390.276 47.574C390.63 47.182 391.041 46.8787 391.508 46.664C391.974 46.44 392.488 46.328 393.048 46.328C393.738 46.328 394.326 46.4867 394.812 46.804C395.297 47.1213 395.666 47.5367 395.918 48.05C396.17 48.554 396.296 49.0907 396.296 49.66C396.296 49.8093 396.282 49.9727 396.254 50.15C396.226 50.3273 396.202 50.4673 396.184 50.57H389.842L389.912 49.59H395.652L395.12 49.996C395.25 49.5013 395.232 49.0533 395.064 48.652C394.905 48.2413 394.644 47.9147 394.28 47.672C393.925 47.4293 393.51 47.308 393.034 47.308C392.436 47.308 391.932 47.4527 391.522 47.742C391.111 48.0313 390.798 48.4373 390.584 48.96C390.378 49.4733 390.276 50.0707 390.276 50.752C390.276 51.2467 390.388 51.6807 390.612 52.054C390.836 52.418 391.13 52.698 391.494 52.894C391.858 53.09 392.254 53.188 392.684 53.188C393.234 53.188 393.706 53.0573 394.098 52.796C394.499 52.5253 394.83 52.194 395.092 51.802L395.974 52.306C395.796 52.642 395.544 52.9547 395.218 53.244C394.891 53.524 394.508 53.748 394.07 53.916C393.64 54.084 393.174 54.168 392.67 54.168ZM217.248 76.168C216.716 76.168 216.249 76.042 215.848 75.79C215.447 75.5287 215.153 75.1647 214.966 74.698C214.779 74.2313 214.728 73.6853 214.812 73.06L215.456 68.496H216.506L215.848 73.13C215.792 73.5313 215.825 73.8813 215.946 74.18C216.067 74.4787 216.259 74.712 216.52 74.88C216.781 75.0387 217.099 75.118 217.472 75.118C217.864 75.118 218.223 75.0293 218.55 74.852C218.877 74.6747 219.147 74.4227 219.362 74.096C219.586 73.7693 219.731 73.382 219.796 72.934L220.426 68.496H221.476L220.426 76H219.376L219.572 74.544L219.81 74.628C219.558 75.1133 219.203 75.4913 218.746 75.762C218.298 76.0327 217.799 76.168 217.248 76.168ZM225.049 76.168C224.573 76.168 224.134 76.084 223.733 75.916C223.332 75.748 222.991 75.51 222.711 75.202C222.431 74.8847 222.23 74.5207 222.109 74.11L223.019 73.746C223.187 74.2033 223.458 74.5627 223.831 74.824C224.214 75.0853 224.652 75.216 225.147 75.216C225.623 75.216 226.015 75.0947 226.323 74.852C226.631 74.6 226.785 74.2873 226.785 73.914C226.785 73.662 226.692 73.452 226.505 73.284C226.328 73.1067 226.048 72.9667 225.665 72.864L224.615 72.57C224.036 72.4113 223.598 72.1687 223.299 71.842C223 71.506 222.851 71.1093 222.851 70.652C222.851 70.2227 222.972 69.8353 223.215 69.49C223.458 69.1353 223.784 68.8553 224.195 68.65C224.606 68.4353 225.058 68.328 225.553 68.328C226.216 68.328 226.79 68.5007 227.275 68.846C227.76 69.1913 228.078 69.6533 228.227 70.232L227.303 70.596C227.154 70.1667 226.925 69.84 226.617 69.616C226.309 69.392 225.936 69.28 225.497 69.28C225.04 69.28 224.666 69.3967 224.377 69.63C224.088 69.8633 223.943 70.1573 223.943 70.512C223.943 70.764 224.018 70.974 224.167 71.142C224.326 71.31 224.578 71.4453 224.923 71.548L226.127 71.912C226.687 72.08 227.116 72.332 227.415 72.668C227.723 73.004 227.877 73.4053 227.877 73.872C227.877 74.3013 227.751 74.6887 227.499 75.034C227.256 75.3793 226.92 75.6547 226.491 75.86C226.062 76.0653 225.581 76.168 225.049 76.168ZM229.176 76L230.226 68.496H231.29L230.24 76H229.176ZM230.422 67.11L230.632 65.57H231.696L231.486 67.11H230.422ZM232.136 76L233.186 68.496H234.236L234.04 69.952L233.802 69.868C234.045 69.3827 234.395 69.0047 234.852 68.734C235.319 68.4633 235.823 68.328 236.364 68.328C236.905 68.328 237.372 68.454 237.764 68.706C238.165 68.958 238.459 69.308 238.646 69.756C238.842 70.204 238.898 70.7173 238.814 71.296L238.156 76H237.106L237.75 71.366C237.834 70.7593 237.727 70.2787 237.428 69.924C237.129 69.56 236.7 69.378 236.14 69.378C235.748 69.378 235.384 69.4667 235.048 69.644C234.721 69.8213 234.446 70.0733 234.222 70.4C234.007 70.7267 233.867 71.114 233.802 71.562L233.186 76H232.136ZM243.115 79.08C242.574 79.08 242.093 78.996 241.673 78.828C241.253 78.6693 240.903 78.45 240.623 78.17C240.352 77.89 240.156 77.568 240.035 77.204L241.015 76.798C241.127 77.1247 241.36 77.4093 241.715 77.652C242.07 77.904 242.574 78.03 243.227 78.03C243.647 78.03 244.053 77.9507 244.445 77.792C244.837 77.6333 245.173 77.3907 245.453 77.064C245.733 76.7467 245.906 76.336 245.971 75.832L246.223 74.04L246.531 74.208C246.242 74.7493 245.826 75.1647 245.285 75.454C244.753 75.7433 244.179 75.888 243.563 75.888C242.938 75.888 242.364 75.7433 241.841 75.454C241.318 75.1553 240.903 74.7447 240.595 74.222C240.287 73.69 240.133 73.074 240.133 72.374C240.133 71.8233 240.231 71.3053 240.427 70.82C240.623 70.3253 240.898 69.8913 241.253 69.518C241.617 69.1447 242.037 68.8553 242.513 68.65C242.989 68.4353 243.507 68.328 244.067 68.328C244.711 68.328 245.276 68.4727 245.761 68.762C246.256 69.042 246.638 69.42 246.909 69.896L246.769 70.176L246.993 68.496H248.057L247.035 75.86C246.951 76.504 246.722 77.0687 246.349 77.554C245.976 78.0393 245.509 78.4127 244.949 78.674C244.389 78.9447 243.778 79.08 243.115 79.08ZM243.647 74.838C244.17 74.838 244.646 74.7027 245.075 74.432C245.514 74.152 245.864 73.788 246.125 73.34C246.386 72.892 246.517 72.4113 246.517 71.898C246.517 71.422 246.414 70.9927 246.209 70.61C246.004 70.2273 245.719 69.9287 245.355 69.714C244.991 69.49 244.571 69.378 244.095 69.378C243.591 69.378 243.12 69.5087 242.681 69.77C242.252 70.0313 241.906 70.386 241.645 70.834C241.384 71.2727 241.253 71.772 241.253 72.332C241.253 72.808 241.356 73.2373 241.561 73.62C241.776 73.9933 242.065 74.292 242.429 74.516C242.793 74.7307 243.199 74.838 243.647 74.838ZM250.997 76L252.047 68.496H253.111L252.061 76H250.997ZM252.243 67.11L252.453 65.57H253.517L253.307 67.11H252.243ZM256.869 76.084C256.188 76.084 255.689 75.8833 255.371 75.482C255.054 75.0807 254.942 74.516 255.035 73.788L255.623 69.546H254.237L254.391 68.496H254.713C255.031 68.496 255.301 68.3887 255.525 68.174C255.759 67.95 255.894 67.6793 255.931 67.362L256.015 66.76H257.079L256.841 68.496H258.479L258.325 69.546H256.687L256.085 73.844C256.048 74.096 256.048 74.32 256.085 74.516C256.132 74.7027 256.235 74.8473 256.393 74.95C256.552 75.0527 256.781 75.104 257.079 75.104C257.173 75.104 257.271 75.0993 257.373 75.09C257.476 75.0807 257.565 75.0713 257.639 75.062L257.555 76.028C257.443 76.056 257.317 76.07 257.177 76.07C257.047 76.0793 256.944 76.084 256.869 76.084ZM261.987 76L262.883 69.546H261.399L261.553 68.496H263.037L263.121 67.936C263.205 67.3667 263.387 66.8953 263.667 66.522C263.947 66.1487 264.279 65.8687 264.661 65.682C265.053 65.4953 265.45 65.402 265.851 65.402C265.982 65.402 266.108 65.4113 266.229 65.43C266.36 65.4393 266.472 65.4533 266.565 65.472L266.495 66.424C266.43 66.4053 266.341 66.396 266.229 66.396C266.127 66.3867 266.057 66.382 266.019 66.382C265.562 66.382 265.161 66.4987 264.815 66.732C264.47 66.9653 264.255 67.3853 264.171 67.992L264.101 68.496H265.935L265.781 69.546H263.947L263.051 76H261.987ZM269.914 76.168C269.242 76.168 268.631 76.014 268.08 75.706C267.539 75.3887 267.105 74.95 266.778 74.39C266.461 73.83 266.302 73.186 266.302 72.458C266.302 71.8887 266.405 71.3567 266.61 70.862C266.816 70.358 267.1 69.9193 267.464 69.546C267.838 69.1633 268.267 68.8647 268.752 68.65C269.247 68.4353 269.774 68.328 270.334 68.328C271.025 68.328 271.641 68.4867 272.182 68.804C272.733 69.112 273.167 69.5413 273.484 70.092C273.802 70.6427 273.96 71.2773 273.96 71.996C273.96 72.5653 273.853 73.102 273.638 73.606C273.433 74.11 273.144 74.558 272.77 74.95C272.397 75.3327 271.968 75.6313 271.482 75.846C270.997 76.0607 270.474 76.168 269.914 76.168ZM269.9 75.118C270.451 75.118 270.946 74.9733 271.384 74.684C271.832 74.3947 272.187 74.012 272.448 73.536C272.71 73.06 272.84 72.542 272.84 71.982C272.84 71.478 272.733 71.03 272.518 70.638C272.304 70.246 272.005 69.938 271.622 69.714C271.249 69.49 270.824 69.378 270.348 69.378C269.807 69.378 269.312 69.5227 268.864 69.812C268.426 70.092 268.076 70.4653 267.814 70.932C267.553 71.3987 267.422 71.9167 267.422 72.486C267.422 72.99 267.53 73.4427 267.744 73.844C267.959 74.236 268.253 74.5487 268.626 74.782C269 75.006 269.424 75.118 269.9 75.118ZM275.013 76L276.063 68.496H277.127L276.959 69.728L276.819 69.546C277.053 69.1913 277.361 68.9113 277.743 68.706C278.135 68.5007 278.588 68.398 279.101 68.398H279.577L279.423 69.448H278.765C278.224 69.448 277.767 69.6207 277.393 69.966C277.029 70.3113 276.796 70.8293 276.693 71.52L276.077 76H275.013ZM281.563 76L282.613 68.496H283.677L283.509 69.728L283.369 69.546C283.602 69.1913 283.91 68.9113 284.293 68.706C284.685 68.5007 285.137 68.398 285.651 68.398H286.127L285.973 69.448H285.315C284.773 69.448 284.316 69.6207 283.943 69.966C283.579 70.3113 283.345 70.8293 283.243 71.52L282.627 76H281.563ZM289.723 76.168C289.051 76.168 288.454 76.014 287.931 75.706C287.408 75.3887 286.993 74.9547 286.685 74.404C286.386 73.8533 286.237 73.2233 286.237 72.514C286.237 71.9447 286.33 71.408 286.517 70.904C286.713 70.4 286.984 69.9567 287.329 69.574C287.684 69.182 288.094 68.8787 288.561 68.664C289.028 68.44 289.541 68.328 290.101 68.328C290.792 68.328 291.38 68.4867 291.865 68.804C292.35 69.1213 292.719 69.5367 292.971 70.05C293.223 70.554 293.349 71.0907 293.349 71.66C293.349 71.8093 293.335 71.9727 293.307 72.15C293.279 72.3273 293.256 72.4673 293.237 72.57H286.895L286.965 71.59H292.705L292.173 71.996C292.304 71.5013 292.285 71.0533 292.117 70.652C291.958 70.2413 291.697 69.9147 291.333 69.672C290.978 69.4293 290.563 69.308 290.087 69.308C289.49 69.308 288.986 69.4527 288.575 69.742C288.164 70.0313 287.852 70.4373 287.637 70.96C287.432 71.4733 287.329 72.0707 287.329 72.752C287.329 73.2467 287.441 73.6807 287.665 74.054C287.889 74.418 288.183 74.698 288.547 74.894C288.911 75.09 289.308 75.188 289.737 75.188C290.288 75.188 290.759 75.0573 291.151 74.796C291.552 74.5253 291.884 74.194 292.145 73.802L293.027 74.306C292.85 74.642 292.598 74.9547 292.271 75.244C291.944 75.524 291.562 75.748 291.123 75.916C290.694 76.084 290.227 76.168 289.723 76.168ZM296.603 76.168C296.192 76.168 295.805 76.0933 295.441 75.944C295.077 75.7947 294.778 75.5707 294.545 75.272C294.321 74.964 294.209 74.5813 294.209 74.124C294.209 73.704 294.312 73.326 294.517 72.99C294.732 72.654 295.035 72.374 295.427 72.15C295.819 71.926 296.29 71.772 296.841 71.688L299.851 71.198L299.753 72.15L297.037 72.598C296.505 72.6913 296.085 72.8687 295.777 73.13C295.478 73.382 295.329 73.6947 295.329 74.068C295.329 74.4133 295.455 74.6933 295.707 74.908C295.968 75.1133 296.314 75.216 296.743 75.216C297.21 75.216 297.639 75.104 298.031 74.88C298.423 74.656 298.75 74.3573 299.011 73.984C299.272 73.6013 299.431 73.1813 299.487 72.724L299.725 70.974C299.781 70.6007 299.734 70.2927 299.585 70.05C299.436 69.8073 299.226 69.63 298.955 69.518C298.694 69.3967 298.409 69.336 298.101 69.336C297.625 69.336 297.2 69.4573 296.827 69.7C296.463 69.9333 296.174 70.232 295.959 70.596L295.049 70.022C295.226 69.7047 295.469 69.42 295.777 69.168C296.094 68.9067 296.458 68.7013 296.869 68.552C297.28 68.4027 297.714 68.328 298.171 68.328C298.712 68.328 299.193 68.4447 299.613 68.678C300.033 68.902 300.35 69.2147 300.565 69.616C300.789 70.0173 300.864 70.484 300.789 71.016L300.089 76H299.025L299.235 74.502L299.417 74.684C299.249 74.9733 299.02 75.23 298.731 75.454C298.442 75.678 298.115 75.8553 297.751 75.986C297.387 76.1073 297.004 76.168 296.603 76.168ZM301.982 76L303.466 65.402H304.53L303.046 76H301.982ZM305.293 76L305.517 74.46H306.637L306.413 76H305.293ZM311.104 68.79L311.174 68.3C311.464 68.2253 311.683 68.09 311.832 67.894C311.982 67.6887 312.089 67.4273 312.154 67.11H311.622L311.832 65.57H312.952L312.784 66.746C312.719 67.2873 312.542 67.7353 312.252 68.09C311.963 68.4447 311.58 68.678 311.104 68.79ZM309.004 68.79L309.074 68.3C309.364 68.2253 309.583 68.09 309.732 67.894C309.882 67.6887 309.989 67.4273 310.054 67.11H309.522L309.732 65.57H310.852L310.684 66.746C310.619 67.2873 310.442 67.7353 310.152 68.09C309.863 68.4447 309.48 68.678 309.004 68.79Z" fill="#1A202C"/>
<path opacity="0.6" d="M778.996 275.622L779.164 274.446C779.239 273.905 779.416 273.457 779.696 273.102C779.985 272.747 780.368 272.514 780.844 272.402L780.774 272.892C780.485 272.967 780.265 273.107 780.116 273.312C779.967 273.508 779.859 273.765 779.794 274.082H780.326L780.116 275.622H778.996ZM776.896 275.622L777.064 274.446C777.139 273.905 777.316 273.457 777.596 273.102C777.885 272.747 778.268 272.514 778.744 272.402L778.674 272.892C778.385 272.967 778.165 273.107 778.016 273.312C777.867 273.508 777.759 273.765 777.694 274.082H778.226L778.016 275.622H776.896ZM784.889 283L785.561 278.156L782.691 272.57H783.867L786.401 277.456L785.953 277.4L789.775 272.57H791.105L786.695 278.156L786.023 283H784.889ZM793.453 283.168C792.781 283.168 792.17 283.014 791.619 282.706C791.078 282.389 790.644 281.95 790.317 281.39C790 280.83 789.841 280.186 789.841 279.458C789.841 278.889 789.944 278.357 790.149 277.862C790.355 277.358 790.639 276.919 791.003 276.546C791.377 276.163 791.806 275.865 792.291 275.65C792.786 275.435 793.313 275.328 793.873 275.328C794.564 275.328 795.18 275.487 795.721 275.804C796.272 276.112 796.706 276.541 797.023 277.092C797.341 277.643 797.499 278.277 797.499 278.996C797.499 279.565 797.392 280.102 797.177 280.606C796.972 281.11 796.683 281.558 796.309 281.95C795.936 282.333 795.507 282.631 795.021 282.846C794.536 283.061 794.013 283.168 793.453 283.168ZM793.439 282.118C793.99 282.118 794.485 281.973 794.923 281.684C795.371 281.395 795.726 281.012 795.987 280.536C796.249 280.06 796.379 279.542 796.379 278.982C796.379 278.478 796.272 278.03 796.057 277.638C795.843 277.246 795.544 276.938 795.161 276.714C794.788 276.49 794.363 276.378 793.887 276.378C793.346 276.378 792.851 276.523 792.403 276.812C791.965 277.092 791.615 277.465 791.353 277.932C791.092 278.399 790.961 278.917 790.961 279.486C790.961 279.99 791.069 280.443 791.283 280.844C791.498 281.236 791.792 281.549 792.165 281.782C792.539 282.006 792.963 282.118 793.439 282.118ZM801.24 283.168C800.708 283.168 800.241 283.042 799.84 282.79C799.439 282.529 799.145 282.165 798.958 281.698C798.771 281.231 798.72 280.685 798.804 280.06L799.448 275.496H800.498L799.84 280.13C799.784 280.531 799.817 280.881 799.938 281.18C800.059 281.479 800.251 281.712 800.512 281.88C800.773 282.039 801.091 282.118 801.464 282.118C801.856 282.118 802.215 282.029 802.542 281.852C802.869 281.675 803.139 281.423 803.354 281.096C803.578 280.769 803.723 280.382 803.788 279.934L804.418 275.496H805.468L804.418 283H803.368L803.564 281.544L803.802 281.628C803.55 282.113 803.195 282.491 802.738 282.762C802.29 283.033 801.791 283.168 801.24 283.168ZM810.776 283.168C810.365 283.168 809.978 283.093 809.614 282.944C809.25 282.795 808.951 282.571 808.718 282.272C808.494 281.964 808.382 281.581 808.382 281.124C808.382 280.704 808.485 280.326 808.69 279.99C808.905 279.654 809.208 279.374 809.6 279.15C809.992 278.926 810.463 278.772 811.014 278.688L814.024 278.198L813.926 279.15L811.21 279.598C810.678 279.691 810.258 279.869 809.95 280.13C809.651 280.382 809.502 280.695 809.502 281.068C809.502 281.413 809.628 281.693 809.88 281.908C810.141 282.113 810.487 282.216 810.916 282.216C811.383 282.216 811.812 282.104 812.204 281.88C812.596 281.656 812.923 281.357 813.184 280.984C813.445 280.601 813.604 280.181 813.66 279.724L813.898 277.974C813.954 277.601 813.907 277.293 813.758 277.05C813.609 276.807 813.399 276.63 813.128 276.518C812.867 276.397 812.582 276.336 812.274 276.336C811.798 276.336 811.373 276.457 811 276.7C810.636 276.933 810.347 277.232 810.132 277.596L809.222 277.022C809.399 276.705 809.642 276.42 809.95 276.168C810.267 275.907 810.631 275.701 811.042 275.552C811.453 275.403 811.887 275.328 812.344 275.328C812.885 275.328 813.366 275.445 813.786 275.678C814.206 275.902 814.523 276.215 814.738 276.616C814.962 277.017 815.037 277.484 814.962 278.016L814.262 283H813.198L813.408 281.502L813.59 281.684C813.422 281.973 813.193 282.23 812.904 282.454C812.615 282.678 812.288 282.855 811.924 282.986C811.56 283.107 811.177 283.168 810.776 283.168ZM816.155 283L817.205 275.496H818.269L818.101 276.728L817.961 276.546C818.195 276.191 818.503 275.911 818.885 275.706C819.277 275.501 819.73 275.398 820.243 275.398H820.719L820.565 276.448H819.907C819.366 276.448 818.909 276.621 818.535 276.966C818.171 277.311 817.938 277.829 817.835 278.52L817.219 283H816.155ZM824.316 283.168C823.644 283.168 823.047 283.014 822.524 282.706C822.001 282.389 821.586 281.955 821.278 281.404C820.979 280.853 820.83 280.223 820.83 279.514C820.83 278.945 820.923 278.408 821.11 277.904C821.306 277.4 821.577 276.957 821.922 276.574C822.277 276.182 822.687 275.879 823.154 275.664C823.621 275.44 824.134 275.328 824.694 275.328C825.385 275.328 825.973 275.487 826.458 275.804C826.943 276.121 827.312 276.537 827.564 277.05C827.816 277.554 827.942 278.091 827.942 278.66C827.942 278.809 827.928 278.973 827.9 279.15C827.872 279.327 827.849 279.467 827.83 279.57H821.488L821.558 278.59H827.298L826.766 278.996C826.897 278.501 826.878 278.053 826.71 277.652C826.551 277.241 826.29 276.915 825.926 276.672C825.571 276.429 825.156 276.308 824.68 276.308C824.083 276.308 823.579 276.453 823.168 276.742C822.757 277.031 822.445 277.437 822.23 277.96C822.025 278.473 821.922 279.071 821.922 279.752C821.922 280.247 822.034 280.681 822.258 281.054C822.482 281.418 822.776 281.698 823.14 281.894C823.504 282.09 823.901 282.188 824.33 282.188C824.881 282.188 825.352 282.057 825.744 281.796C826.145 281.525 826.477 281.194 826.738 280.802L827.62 281.306C827.443 281.642 827.191 281.955 826.864 282.244C826.537 282.524 826.155 282.748 825.716 282.916C825.287 283.084 824.82 283.168 824.316 283.168ZM833.431 283.168C833.021 283.168 832.633 283.093 832.269 282.944C831.905 282.795 831.607 282.571 831.373 282.272C831.149 281.964 831.037 281.581 831.037 281.124C831.037 280.704 831.14 280.326 831.345 279.99C831.56 279.654 831.863 279.374 832.255 279.15C832.647 278.926 833.119 278.772 833.669 278.688L836.679 278.198L836.581 279.15L833.865 279.598C833.333 279.691 832.913 279.869 832.605 280.13C832.307 280.382 832.157 280.695 832.157 281.068C832.157 281.413 832.283 281.693 832.535 281.908C832.797 282.113 833.142 282.216 833.571 282.216C834.038 282.216 834.467 282.104 834.859 281.88C835.251 281.656 835.578 281.357 835.839 280.984C836.101 280.601 836.259 280.181 836.315 279.724L836.553 277.974C836.609 277.601 836.563 277.293 836.413 277.05C836.264 276.807 836.054 276.63 835.783 276.518C835.522 276.397 835.237 276.336 834.929 276.336C834.453 276.336 834.029 276.457 833.655 276.7C833.291 276.933 833.002 277.232 832.787 277.596L831.877 277.022C832.055 276.705 832.297 276.42 832.605 276.168C832.923 275.907 833.287 275.701 833.697 275.552C834.108 275.403 834.542 275.328 834.999 275.328C835.541 275.328 836.021 275.445 836.441 275.678C836.861 275.902 837.179 276.215 837.393 276.616C837.617 277.017 837.692 277.484 837.617 278.016L836.917 283H835.853L836.063 281.502L836.245 281.684C836.077 281.973 835.849 282.23 835.559 282.454C835.27 282.678 834.943 282.855 834.579 282.986C834.215 283.107 833.833 283.168 833.431 283.168ZM838.811 283L840.295 272.402H841.359L839.875 283H838.811ZM841.771 283L843.255 272.402H844.319L842.835 283H841.771ZM849.56 283.168C849.084 283.168 848.645 283.084 848.244 282.916C847.843 282.748 847.502 282.51 847.222 282.202C846.942 281.885 846.741 281.521 846.62 281.11L847.53 280.746C847.698 281.203 847.969 281.563 848.342 281.824C848.725 282.085 849.163 282.216 849.658 282.216C850.134 282.216 850.526 282.095 850.834 281.852C851.142 281.6 851.296 281.287 851.296 280.914C851.296 280.662 851.203 280.452 851.016 280.284C850.839 280.107 850.559 279.967 850.176 279.864L849.126 279.57C848.547 279.411 848.109 279.169 847.81 278.842C847.511 278.506 847.362 278.109 847.362 277.652C847.362 277.223 847.483 276.835 847.726 276.49C847.969 276.135 848.295 275.855 848.706 275.65C849.117 275.435 849.569 275.328 850.064 275.328C850.727 275.328 851.301 275.501 851.786 275.846C852.271 276.191 852.589 276.653 852.738 277.232L851.814 277.596C851.665 277.167 851.436 276.84 851.128 276.616C850.82 276.392 850.447 276.28 850.008 276.28C849.551 276.28 849.177 276.397 848.888 276.63C848.599 276.863 848.454 277.157 848.454 277.512C848.454 277.764 848.529 277.974 848.678 278.142C848.837 278.31 849.089 278.445 849.434 278.548L850.638 278.912C851.198 279.08 851.627 279.332 851.926 279.668C852.234 280.004 852.388 280.405 852.388 280.872C852.388 281.301 852.262 281.689 852.01 282.034C851.767 282.379 851.431 282.655 851.002 282.86C850.573 283.065 850.092 283.168 849.56 283.168ZM857.397 283.168C856.725 283.168 856.128 283.014 855.605 282.706C855.082 282.389 854.667 281.955 854.359 281.404C854.06 280.853 853.911 280.223 853.911 279.514C853.911 278.945 854.004 278.408 854.191 277.904C854.387 277.4 854.658 276.957 855.003 276.574C855.358 276.182 855.768 275.879 856.235 275.664C856.702 275.44 857.215 275.328 857.775 275.328C858.466 275.328 859.054 275.487 859.539 275.804C860.024 276.121 860.393 276.537 860.645 277.05C860.897 277.554 861.023 278.091 861.023 278.66C861.023 278.809 861.009 278.973 860.981 279.15C860.953 279.327 860.93 279.467 860.911 279.57H854.569L854.639 278.59H860.379L859.847 278.996C859.978 278.501 859.959 278.053 859.791 277.652C859.632 277.241 859.371 276.915 859.007 276.672C858.652 276.429 858.237 276.308 857.761 276.308C857.164 276.308 856.66 276.453 856.249 276.742C855.838 277.031 855.526 277.437 855.311 277.96C855.106 278.473 855.003 279.071 855.003 279.752C855.003 280.247 855.115 280.681 855.339 281.054C855.563 281.418 855.857 281.698 856.221 281.894C856.585 282.09 856.982 282.188 857.411 282.188C857.962 282.188 858.433 282.057 858.825 281.796C859.226 281.525 859.558 281.194 859.819 280.802L860.701 281.306C860.524 281.642 860.272 281.955 859.945 282.244C859.618 282.524 859.236 282.748 858.797 282.916C858.368 283.084 857.901 283.168 857.397 283.168ZM864.823 283.084C864.141 283.084 863.642 282.883 863.325 282.482C863.007 282.081 862.895 281.516 862.989 280.788L863.577 276.546H862.191L862.345 275.496H862.667C862.984 275.496 863.255 275.389 863.479 275.174C863.712 274.95 863.847 274.679 863.885 274.362L863.969 273.76H865.033L864.795 275.496H866.433L866.279 276.546H864.641L864.039 280.844C864.001 281.096 864.001 281.32 864.039 281.516C864.085 281.703 864.188 281.847 864.347 281.95C864.505 282.053 864.734 282.104 865.033 282.104C865.126 282.104 865.224 282.099 865.327 282.09C865.429 282.081 865.518 282.071 865.593 282.062L865.509 283.028C865.397 283.056 865.271 283.07 865.131 283.07C865 283.079 864.897 283.084 864.823 283.084ZM871.551 283.168C871.14 283.168 870.753 283.093 870.389 282.944C870.025 282.795 869.726 282.571 869.493 282.272C869.269 281.964 869.157 281.581 869.157 281.124C869.157 280.704 869.259 280.326 869.465 279.99C869.679 279.654 869.983 279.374 870.375 279.15C870.767 278.926 871.238 278.772 871.789 278.688L874.799 278.198L874.701 279.15L871.985 279.598C871.453 279.691 871.033 279.869 870.725 280.13C870.426 280.382 870.277 280.695 870.277 281.068C870.277 281.413 870.403 281.693 870.655 281.908C870.916 282.113 871.261 282.216 871.691 282.216C872.157 282.216 872.587 282.104 872.979 281.88C873.371 281.656 873.697 281.357 873.959 280.984C874.22 280.601 874.379 280.181 874.435 279.724L874.673 277.974C874.729 277.601 874.682 277.293 874.533 277.05C874.383 276.807 874.173 276.63 873.903 276.518C873.641 276.397 873.357 276.336 873.049 276.336C872.573 276.336 872.148 276.457 871.775 276.7C871.411 276.933 871.121 277.232 870.907 277.596L869.997 277.022C870.174 276.705 870.417 276.42 870.725 276.168C871.042 275.907 871.406 275.701 871.817 275.552C872.227 275.403 872.661 275.328 873.119 275.328C873.66 275.328 874.141 275.445 874.561 275.678C874.981 275.902 875.298 276.215 875.513 276.616C875.737 277.017 875.811 277.484 875.737 278.016L875.037 283H873.973L874.183 281.502L874.365 281.684C874.197 281.973 873.968 282.23 873.679 282.454C873.389 282.678 873.063 282.855 872.699 282.986C872.335 283.107 871.952 283.168 871.551 283.168ZM876.93 283L877.98 275.496H879.03L878.834 276.952L878.596 276.868C878.839 276.383 879.189 276.005 879.646 275.734C880.113 275.463 880.617 275.328 881.158 275.328C881.699 275.328 882.166 275.454 882.558 275.706C882.959 275.958 883.253 276.308 883.44 276.756C883.636 277.204 883.692 277.717 883.608 278.296L882.95 283H881.9L882.544 278.366C882.628 277.759 882.521 277.279 882.222 276.924C881.923 276.56 881.494 276.378 880.934 276.378C880.542 276.378 880.178 276.467 879.842 276.644C879.515 276.821 879.24 277.073 879.016 277.4C878.801 277.727 878.661 278.114 878.596 278.562L877.98 283H876.93ZM888.357 283.168C887.685 283.168 887.088 283.014 886.565 282.706C886.043 282.389 885.632 281.959 885.333 281.418C885.044 280.867 884.899 280.242 884.899 279.542C884.899 278.963 884.997 278.422 885.193 277.918C885.389 277.405 885.665 276.957 886.019 276.574C886.374 276.182 886.789 275.879 887.265 275.664C887.751 275.44 888.278 275.328 888.847 275.328C889.538 275.328 890.131 275.473 890.625 275.762C891.12 276.051 891.503 276.448 891.773 276.952L891.633 277.176L892.291 272.402H893.355L891.885 283H890.835L891.059 281.32L891.367 281.488C891.078 282.029 890.663 282.445 890.121 282.734C889.58 283.023 888.992 283.168 888.357 283.168ZM888.427 282.118C888.978 282.118 889.473 281.973 889.911 281.684C890.359 281.395 890.714 281.012 890.975 280.536C891.237 280.06 891.367 279.547 891.367 278.996C891.367 278.492 891.26 278.044 891.045 277.652C890.831 277.26 890.537 276.952 890.163 276.728C889.79 276.495 889.365 276.378 888.889 276.378C888.339 276.378 887.844 276.523 887.405 276.812C886.976 277.101 886.635 277.489 886.383 277.974C886.141 278.45 886.019 278.973 886.019 279.542C886.019 280.037 886.122 280.48 886.327 280.872C886.533 281.255 886.817 281.558 887.181 281.782C887.545 282.006 887.961 282.118 888.427 282.118ZM895.873 283L896.923 275.496H897.987L896.937 283H895.873ZM897.119 274.11L897.329 272.57H898.393L898.183 274.11H897.119ZM901.746 283.084C901.064 283.084 900.565 282.883 900.248 282.482C899.93 282.081 899.818 281.516 899.912 280.788L900.5 276.546H899.114L899.268 275.496H899.59C899.907 275.496 900.178 275.389 900.402 275.174C900.635 274.95 900.77 274.679 900.808 274.362L900.892 273.76H901.956L901.718 275.496H903.356L903.202 276.546H901.564L900.962 280.844C900.924 281.096 900.924 281.32 900.962 281.516C901.008 281.703 901.111 281.847 901.27 281.95C901.428 282.053 901.657 282.104 901.956 282.104C902.049 282.104 902.147 282.099 902.25 282.09C902.352 282.081 902.441 282.071 902.516 282.062L902.432 283.028C902.32 283.056 902.194 283.07 902.054 283.07C901.923 283.079 901.82 283.084 901.746 283.084ZM905.059 275.79L905.129 275.3C905.418 275.225 905.637 275.09 905.787 274.894C905.936 274.689 906.043 274.427 906.109 274.11H905.577L905.787 272.57H906.907L906.739 273.746C906.673 274.287 906.496 274.735 906.207 275.09C905.917 275.445 905.535 275.678 905.059 275.79ZM910.232 283.168C909.756 283.168 909.317 283.084 908.916 282.916C908.515 282.748 908.174 282.51 907.894 282.202C907.614 281.885 907.413 281.521 907.292 281.11L908.202 280.746C908.37 281.203 908.641 281.563 909.014 281.824C909.397 282.085 909.835 282.216 910.33 282.216C910.806 282.216 911.198 282.095 911.506 281.852C911.814 281.6 911.968 281.287 911.968 280.914C911.968 280.662 911.875 280.452 911.688 280.284C911.511 280.107 911.231 279.967 910.848 279.864L909.798 279.57C909.219 279.411 908.781 279.169 908.482 278.842C908.183 278.506 908.034 278.109 908.034 277.652C908.034 277.223 908.155 276.835 908.398 276.49C908.641 276.135 908.967 275.855 909.378 275.65C909.789 275.435 910.241 275.328 910.736 275.328C911.399 275.328 911.973 275.501 912.458 275.846C912.943 276.191 913.261 276.653 913.41 277.232L912.486 277.596C912.337 277.167 912.108 276.84 911.8 276.616C911.492 276.392 911.119 276.28 910.68 276.28C910.223 276.28 909.849 276.397 909.56 276.63C909.271 276.863 909.126 277.157 909.126 277.512C909.126 277.764 909.201 277.974 909.35 278.142C909.509 278.31 909.761 278.445 910.106 278.548L911.31 278.912C911.87 279.08 912.299 279.332 912.598 279.668C912.906 280.004 913.06 280.405 913.06 280.872C913.06 281.301 912.934 281.689 912.682 282.034C912.439 282.379 912.103 282.655 911.674 282.86C911.245 283.065 910.764 283.168 910.232 283.168ZM919.37 283.084C918.688 283.084 918.189 282.883 917.872 282.482C917.554 282.081 917.442 281.516 917.536 280.788L918.124 276.546H916.738L916.892 275.496H917.214C917.531 275.496 917.802 275.389 918.026 275.174C918.259 274.95 918.394 274.679 918.432 274.362L918.516 273.76H919.58L919.342 275.496H920.98L920.826 276.546H919.188L918.586 280.844C918.548 281.096 918.548 281.32 918.586 281.516C918.632 281.703 918.735 281.847 918.894 281.95C919.052 282.053 919.281 282.104 919.58 282.104C919.673 282.104 919.771 282.099 919.874 282.09C919.976 282.081 920.065 282.071 920.14 282.062L920.056 283.028C919.944 283.056 919.818 283.07 919.678 283.07C919.547 283.079 919.444 283.084 919.37 283.084ZM921.633 283L922.683 275.496H923.747L922.697 283H921.633ZM922.879 274.11L923.089 272.57H924.153L923.943 274.11H922.879ZM924.593 283L925.643 275.496H926.693L926.511 276.882L926.385 276.672C926.646 276.243 926.987 275.911 927.407 275.678C927.827 275.445 928.275 275.328 928.751 275.328C929.339 275.328 929.843 275.491 930.263 275.818C930.683 276.145 930.954 276.583 931.075 277.134L930.795 277.12C931.047 276.523 931.425 276.075 931.929 275.776C932.442 275.477 932.974 275.328 933.525 275.328C934.048 275.328 934.505 275.454 934.897 275.706C935.289 275.958 935.583 276.308 935.779 276.756C935.984 277.204 936.045 277.717 935.961 278.296L935.303 283H934.253L934.897 278.366C934.953 277.955 934.92 277.605 934.799 277.316C934.687 277.017 934.505 276.789 934.253 276.63C934.01 276.462 933.712 276.378 933.357 276.378C933.012 276.378 932.676 276.457 932.349 276.616C932.032 276.775 931.761 277.003 931.537 277.302C931.313 277.601 931.173 277.96 931.117 278.38L930.473 283H929.423L930.067 278.366C930.123 277.955 930.09 277.605 929.969 277.316C929.857 277.017 929.675 276.789 929.423 276.63C929.18 276.462 928.882 276.378 928.527 276.378C928.163 276.378 927.818 276.467 927.491 276.644C927.174 276.821 926.903 277.073 926.679 277.4C926.464 277.727 926.324 278.114 926.259 278.562L925.643 283H924.593ZM940.752 283.168C940.08 283.168 939.482 283.014 938.96 282.706C938.437 282.389 938.022 281.955 937.714 281.404C937.415 280.853 937.266 280.223 937.266 279.514C937.266 278.945 937.359 278.408 937.546 277.904C937.742 277.4 938.012 276.957 938.358 276.574C938.712 276.182 939.123 275.879 939.59 275.664C940.056 275.44 940.57 275.328 941.13 275.328C941.82 275.328 942.408 275.487 942.894 275.804C943.379 276.121 943.748 276.537 944 277.05C944.252 277.554 944.378 278.091 944.378 278.66C944.378 278.809 944.364 278.973 944.336 279.15C944.308 279.327 944.284 279.467 944.266 279.57H937.924L937.994 278.59H943.734L943.202 278.996C943.332 278.501 943.314 278.053 943.146 277.652C942.987 277.241 942.726 276.915 942.362 276.672C942.007 276.429 941.592 276.308 941.116 276.308C940.518 276.308 940.014 276.453 939.604 276.742C939.193 277.031 938.88 277.437 938.666 277.96C938.46 278.473 938.358 279.071 938.358 279.752C938.358 280.247 938.47 280.681 938.694 281.054C938.918 281.418 939.212 281.698 939.576 281.894C939.94 282.09 940.336 282.188 940.766 282.188C941.316 282.188 941.788 282.057 942.18 281.796C942.581 281.525 942.912 281.194 943.174 280.802L944.056 281.306C943.878 281.642 943.626 281.955 943.3 282.244C942.973 282.524 942.59 282.748 942.152 282.916C941.722 283.084 941.256 283.168 940.752 283.168ZM779.472 305.084C778.791 305.084 778.291 304.883 777.974 304.482C777.657 304.081 777.545 303.516 777.638 302.788L778.226 298.546H776.84L776.994 297.496H777.316C777.633 297.496 777.904 297.389 778.128 297.174C778.361 296.95 778.497 296.679 778.534 296.362L778.618 295.76H779.682L779.444 297.496H781.082L780.928 298.546H779.29L778.688 302.844C778.651 303.096 778.651 303.32 778.688 303.516C778.735 303.703 778.837 303.847 778.996 303.95C779.155 304.053 779.383 304.104 779.682 304.104C779.775 304.104 779.873 304.099 779.976 304.09C780.079 304.081 780.167 304.071 780.242 304.062L780.158 305.028C780.046 305.056 779.92 305.07 779.78 305.07C779.649 305.079 779.547 305.084 779.472 305.084ZM785.298 305.168C784.626 305.168 784.014 305.014 783.464 304.706C782.922 304.389 782.488 303.95 782.162 303.39C781.844 302.83 781.686 302.186 781.686 301.458C781.686 300.889 781.788 300.357 781.994 299.862C782.199 299.358 782.484 298.919 782.848 298.546C783.221 298.163 783.65 297.865 784.136 297.65C784.63 297.435 785.158 297.328 785.718 297.328C786.408 297.328 787.024 297.487 787.566 297.804C788.116 298.112 788.55 298.541 788.868 299.092C789.185 299.643 789.344 300.277 789.344 300.996C789.344 301.565 789.236 302.102 789.022 302.606C788.816 303.11 788.527 303.558 788.154 303.95C787.78 304.333 787.351 304.631 786.866 304.846C786.38 305.061 785.858 305.168 785.298 305.168ZM785.284 304.118C785.834 304.118 786.329 303.973 786.768 303.684C787.216 303.395 787.57 303.012 787.832 302.536C788.093 302.06 788.224 301.542 788.224 300.982C788.224 300.478 788.116 300.03 787.902 299.638C787.687 299.246 787.388 298.938 787.006 298.714C786.632 298.49 786.208 298.378 785.732 298.378C785.19 298.378 784.696 298.523 784.248 298.812C783.809 299.092 783.459 299.465 783.198 299.932C782.936 300.399 782.806 300.917 782.806 301.486C782.806 301.99 782.913 302.443 783.128 302.844C783.342 303.236 783.636 303.549 784.01 303.782C784.383 304.006 784.808 304.118 785.284 304.118ZM792.495 305L793.545 297.496H794.609L794.441 298.728L794.301 298.546C794.535 298.191 794.843 297.911 795.225 297.706C795.617 297.501 796.07 297.398 796.583 297.398H797.059L796.905 298.448H796.247C795.706 298.448 795.249 298.621 794.875 298.966C794.511 299.311 794.278 299.829 794.175 300.52L793.559 305H792.495ZM799.634 305.168C799.102 305.168 798.635 305.042 798.234 304.79C797.833 304.529 797.539 304.165 797.352 303.698C797.165 303.231 797.114 302.685 797.198 302.06L797.842 297.496H798.892L798.234 302.13C798.178 302.531 798.211 302.881 798.332 303.18C798.453 303.479 798.645 303.712 798.906 303.88C799.167 304.039 799.485 304.118 799.858 304.118C800.25 304.118 800.609 304.029 800.936 303.852C801.263 303.675 801.533 303.423 801.748 303.096C801.972 302.769 802.117 302.382 802.182 301.934L802.812 297.496H803.862L802.812 305H801.762L801.958 303.544L802.196 303.628C801.944 304.113 801.589 304.491 801.132 304.762C800.684 305.033 800.185 305.168 799.634 305.168ZM804.705 305L806.189 294.402H807.253L805.769 305H804.705ZM811.375 305.168C810.703 305.168 810.106 305.014 809.583 304.706C809.06 304.389 808.645 303.955 808.337 303.404C808.038 302.853 807.889 302.223 807.889 301.514C807.889 300.945 807.982 300.408 808.169 299.904C808.365 299.4 808.636 298.957 808.981 298.574C809.336 298.182 809.746 297.879 810.213 297.664C810.68 297.44 811.193 297.328 811.753 297.328C812.444 297.328 813.032 297.487 813.517 297.804C814.002 298.121 814.371 298.537 814.623 299.05C814.875 299.554 815.001 300.091 815.001 300.66C815.001 300.809 814.987 300.973 814.959 301.15C814.931 301.327 814.908 301.467 814.889 301.57H808.547L808.617 300.59H814.357L813.825 300.996C813.956 300.501 813.937 300.053 813.769 299.652C813.61 299.241 813.349 298.915 812.985 298.672C812.63 298.429 812.215 298.308 811.739 298.308C811.142 298.308 810.638 298.453 810.227 298.742C809.816 299.031 809.504 299.437 809.289 299.96C809.084 300.473 808.981 301.071 808.981 301.752C808.981 302.247 809.093 302.681 809.317 303.054C809.541 303.418 809.835 303.698 810.199 303.894C810.563 304.09 810.96 304.188 811.389 304.188C811.94 304.188 812.411 304.057 812.803 303.796C813.204 303.525 813.536 303.194 813.797 302.802L814.679 303.306C814.502 303.642 814.25 303.955 813.923 304.244C813.596 304.524 813.214 304.748 812.775 304.916C812.346 305.084 811.879 305.168 811.375 305.168ZM821.037 305.084C820.355 305.084 819.856 304.883 819.539 304.482C819.221 304.081 819.109 303.516 819.203 302.788L819.791 298.546H818.405L818.559 297.496H818.881C819.198 297.496 819.469 297.389 819.693 297.174C819.926 296.95 820.061 296.679 820.099 296.362L820.183 295.76H821.247L821.009 297.496H822.647L822.493 298.546H820.855L820.253 302.844C820.215 303.096 820.215 303.32 820.253 303.516C820.299 303.703 820.402 303.847 820.561 303.95C820.719 304.053 820.948 304.104 821.247 304.104C821.34 304.104 821.438 304.099 821.541 304.09C821.643 304.081 821.732 304.071 821.807 304.062L821.723 305.028C821.611 305.056 821.485 305.07 821.345 305.07C821.214 305.079 821.111 305.084 821.037 305.084ZM823.3 305L824.784 294.402H825.834L825.204 298.952L824.966 298.868C825.208 298.383 825.558 298.005 826.016 297.734C826.482 297.463 826.986 297.328 827.528 297.328C828.069 297.328 828.536 297.454 828.928 297.706C829.329 297.958 829.623 298.308 829.81 298.756C830.006 299.204 830.062 299.717 829.978 300.296L829.32 305H828.256L828.9 300.366C828.984 299.759 828.876 299.279 828.578 298.924C828.279 298.56 827.854 298.378 827.304 298.378C826.921 298.378 826.562 298.467 826.226 298.644C825.899 298.821 825.624 299.073 825.4 299.4C825.185 299.727 825.045 300.114 824.98 300.562L824.364 305H823.3ZM834.769 305.168C834.097 305.168 833.499 305.014 832.977 304.706C832.454 304.389 832.039 303.955 831.731 303.404C831.432 302.853 831.283 302.223 831.283 301.514C831.283 300.945 831.376 300.408 831.563 299.904C831.759 299.4 832.029 298.957 832.375 298.574C832.729 298.182 833.14 297.879 833.607 297.664C834.073 297.44 834.587 297.328 835.147 297.328C835.837 297.328 836.425 297.487 836.911 297.804C837.396 298.121 837.765 298.537 838.017 299.05C838.269 299.554 838.395 300.091 838.395 300.66C838.395 300.809 838.381 300.973 838.353 301.15C838.325 301.327 838.301 301.467 838.283 301.57H831.941L832.011 300.59H837.751L837.219 300.996C837.349 300.501 837.331 300.053 837.163 299.652C837.004 299.241 836.743 298.915 836.379 298.672C836.024 298.429 835.609 298.308 835.133 298.308C834.535 298.308 834.031 298.453 833.621 298.742C833.21 299.031 832.897 299.437 832.683 299.96C832.477 300.473 832.375 301.071 832.375 301.752C832.375 302.247 832.487 302.681 832.711 303.054C832.935 303.418 833.229 303.698 833.593 303.894C833.957 304.09 834.353 304.188 834.783 304.188C835.333 304.188 835.805 304.057 836.197 303.796C836.598 303.525 836.929 303.194 837.191 302.802L838.073 303.306C837.895 303.642 837.643 303.955 837.317 304.244C836.99 304.524 836.607 304.748 836.169 304.916C835.739 305.084 835.273 305.168 834.769 305.168ZM841.518 305L842.568 297.496H843.618L843.436 298.882L843.31 298.672C843.572 298.243 843.912 297.911 844.332 297.678C844.752 297.445 845.2 297.328 845.676 297.328C846.264 297.328 846.768 297.491 847.188 297.818C847.608 298.145 847.879 298.583 848 299.134L847.72 299.12C847.972 298.523 848.35 298.075 848.854 297.776C849.368 297.477 849.9 297.328 850.45 297.328C850.973 297.328 851.43 297.454 851.822 297.706C852.214 297.958 852.508 298.308 852.704 298.756C852.91 299.204 852.97 299.717 852.886 300.296L852.228 305H851.178L851.822 300.366C851.878 299.955 851.846 299.605 851.724 299.316C851.612 299.017 851.43 298.789 851.178 298.63C850.936 298.462 850.637 298.378 850.282 298.378C849.937 298.378 849.601 298.457 849.274 298.616C848.957 298.775 848.686 299.003 848.462 299.302C848.238 299.601 848.098 299.96 848.042 300.38L847.398 305H846.348L846.992 300.366C847.048 299.955 847.016 299.605 846.894 299.316C846.782 299.017 846.6 298.789 846.348 298.63C846.106 298.462 845.807 298.378 845.452 298.378C845.088 298.378 844.743 298.467 844.416 298.644C844.099 298.821 843.828 299.073 843.604 299.4C843.39 299.727 843.25 300.114 843.184 300.562L842.568 305H841.518ZM856.333 305.168C855.922 305.168 855.535 305.093 855.171 304.944C854.807 304.795 854.508 304.571 854.275 304.272C854.051 303.964 853.939 303.581 853.939 303.124C853.939 302.704 854.042 302.326 854.247 301.99C854.462 301.654 854.765 301.374 855.157 301.15C855.549 300.926 856.02 300.772 856.571 300.688L859.581 300.198L859.483 301.15L856.767 301.598C856.235 301.691 855.815 301.869 855.507 302.13C855.208 302.382 855.059 302.695 855.059 303.068C855.059 303.413 855.185 303.693 855.437 303.908C855.698 304.113 856.044 304.216 856.473 304.216C856.94 304.216 857.369 304.104 857.761 303.88C858.153 303.656 858.48 303.357 858.741 302.984C859.002 302.601 859.161 302.181 859.217 301.724L859.455 299.974C859.511 299.601 859.464 299.293 859.315 299.05C859.166 298.807 858.956 298.63 858.685 298.518C858.424 298.397 858.139 298.336 857.831 298.336C857.355 298.336 856.93 298.457 856.557 298.7C856.193 298.933 855.904 299.232 855.689 299.596L854.779 299.022C854.956 298.705 855.199 298.42 855.507 298.168C855.824 297.907 856.188 297.701 856.599 297.552C857.01 297.403 857.444 297.328 857.901 297.328C858.442 297.328 858.923 297.445 859.343 297.678C859.763 297.902 860.08 298.215 860.295 298.616C860.519 299.017 860.594 299.484 860.519 300.016L859.819 305H858.755L858.965 303.502L859.147 303.684C858.979 303.973 858.75 304.23 858.461 304.454C858.172 304.678 857.845 304.855 857.481 304.986C857.117 305.107 856.734 305.168 856.333 305.168ZM861.712 305L862.762 297.496H863.826L863.658 298.728L863.518 298.546C863.752 298.191 864.06 297.911 864.442 297.706C864.834 297.501 865.287 297.398 865.8 297.398H866.276L866.122 298.448H865.464C864.923 298.448 864.466 298.621 864.092 298.966C863.728 299.311 863.495 299.829 863.392 300.52L862.776 305H861.712ZM866.149 305L867.633 294.402H868.697L867.661 301.822L867.129 301.752L871.931 297.496H873.387L870.013 300.506L872.575 305H871.385L868.963 300.842L869.579 300.898L867.115 303.11L867.591 302.242L867.213 305H866.149ZM877.112 305.168C876.44 305.168 875.843 305.014 875.32 304.706C874.798 304.389 874.382 303.955 874.074 303.404C873.776 302.853 873.626 302.223 873.626 301.514C873.626 300.945 873.72 300.408 873.906 299.904C874.102 299.4 874.373 298.957 874.718 298.574C875.073 298.182 875.484 297.879 875.95 297.664C876.417 297.44 876.93 297.328 877.49 297.328C878.181 297.328 878.769 297.487 879.254 297.804C879.74 298.121 880.108 298.537 880.36 299.05C880.612 299.554 880.738 300.091 880.738 300.66C880.738 300.809 880.724 300.973 880.696 301.15C880.668 301.327 880.645 301.467 880.626 301.57H874.284L874.354 300.59H880.094L879.562 300.996C879.693 300.501 879.674 300.053 879.506 299.652C879.348 299.241 879.086 298.915 878.722 298.672C878.368 298.429 877.952 298.308 877.476 298.308C876.879 298.308 876.375 298.453 875.964 298.742C875.554 299.031 875.241 299.437 875.026 299.96C874.821 300.473 874.718 301.071 874.718 301.752C874.718 302.247 874.83 302.681 875.054 303.054C875.278 303.418 875.572 303.698 875.936 303.894C876.3 304.09 876.697 304.188 877.126 304.188C877.677 304.188 878.148 304.057 878.54 303.796C878.942 303.525 879.273 303.194 879.534 302.802L880.416 303.306C880.239 303.642 879.987 303.955 879.66 304.244C879.334 304.524 878.951 304.748 878.512 304.916C878.083 305.084 877.616 305.168 877.112 305.168ZM884.538 305.084C883.857 305.084 883.358 304.883 883.04 304.482C882.723 304.081 882.611 303.516 882.704 302.788L883.292 298.546H881.906L882.06 297.496H882.382C882.7 297.496 882.97 297.389 883.194 297.174C883.428 296.95 883.563 296.679 883.6 296.362L883.684 295.76H884.748L884.51 297.496H886.148L885.994 298.546H884.356L883.754 302.844C883.717 303.096 883.717 303.32 883.754 303.516C883.801 303.703 883.904 303.847 884.062 303.95C884.221 304.053 884.45 304.104 884.748 304.104C884.842 304.104 884.94 304.099 885.042 304.09C885.145 304.081 885.234 304.071 885.308 304.062L885.224 305.028C885.112 305.056 884.986 305.07 884.846 305.07C884.716 305.079 884.613 305.084 884.538 305.084ZM889.237 297.79L889.307 297.3C889.597 297.225 889.816 297.09 889.965 296.894C890.115 296.689 890.222 296.427 890.287 296.11H889.755L889.965 294.57H891.085L890.917 295.746C890.852 296.287 890.675 296.735 890.385 297.09C890.096 297.445 889.713 297.678 889.237 297.79ZM887.137 297.79L887.207 297.3C887.497 297.225 887.716 297.09 887.865 296.894C888.015 296.689 888.122 296.427 888.187 296.11H887.655L887.865 294.57H888.985L888.817 295.746C888.752 296.287 888.575 296.735 888.285 297.09C887.996 297.445 887.613 297.678 887.137 297.79Z" fill="#1A202C"/>
<circle cx="92.3862" cy="110.386" r="83.3862" fill="#E3E3E3" fill-opacity="0.7"/>
<circle cx="92.5802" cy="109.72" r="90.5678" stroke="#6C3231" stroke-width="3.98977"/>
<circle cx="653.941" cy="312.641" r="83.3862" fill="#E3E3E3" fill-opacity="0.7"/>
<circle cx="654.34" cy="312.4" r="90.5678" stroke="#6C3231" stroke-width="3.98977"/>
<path d="M156.019 176.748C304.438 375.837 568.96 -73.4109 646.761 217.842" stroke="#6C3231" stroke-width="6.38363" stroke-linejoin="round" stroke-dasharray="15.96 15.96"/>
<path d="M67.0081 101V74.2H58.7681V71.2H78.3681V74.2H70.2081V101H67.0081ZM82.3169 101V71.2H92.5569C94.5035 71.2 96.2102 71.5867 97.6769 72.36C99.1435 73.1067 100.277 74.1733 101.077 75.56C101.904 76.92 102.317 78.5067 102.317 80.32C102.317 82.4267 101.757 84.2267 100.637 85.72C99.5435 87.2133 98.0502 88.2667 96.1569 88.88L103.117 101H99.3569L92.0769 88.16L94.2369 89.4H85.5169V101H82.3169ZM85.5169 86.4H92.7169C93.9969 86.4 95.1169 86.16 96.0769 85.68C97.0369 85.1733 97.7835 84.4667 98.3169 83.56C98.8502 82.6267 99.1169 81.5333 99.1169 80.28C99.1169 79.0267 98.8502 77.9467 98.3169 77.04C97.7835 76.1333 97.0369 75.44 96.0769 74.96C95.1169 74.4533 93.9969 74.2 92.7169 74.2H85.5169V86.4ZM107.942 101V71.2H111.142V98H124.342V101H107.942ZM83.0097 151L93.0497 138.16L94.0497 139.56C93.6764 139.72 93.3164 139.867 92.9697 140C92.6497 140.107 92.3164 140.187 91.9697 140.24C91.623 140.293 91.263 140.32 90.8897 140.32C89.0497 140.32 87.4097 139.907 85.9697 139.08C84.5564 138.253 83.4364 137.133 82.6097 135.72C81.8097 134.28 81.4097 132.667 81.4097 130.88C81.4097 128.907 81.863 127.16 82.7697 125.64C83.6764 124.12 84.9297 122.92 86.5297 122.04C88.1297 121.16 89.9564 120.72 92.0097 120.72C94.0897 120.72 95.9164 121.16 97.4897 122.04C99.0897 122.893 100.343 124.067 101.25 125.56C102.156 127.027 102.61 128.707 102.61 130.6C102.61 131.533 102.516 132.467 102.33 133.4C102.143 134.333 101.77 135.36 101.21 136.48C100.65 137.573 99.8097 138.853 98.6897 140.32L90.4097 151H83.0097ZM92.0097 135.24C92.8364 135.24 93.5697 135.053 94.2097 134.68C94.8764 134.307 95.4097 133.787 95.8097 133.12C96.2097 132.453 96.4097 131.68 96.4097 130.8C96.4097 129.893 96.2097 129.107 95.8097 128.44C95.4097 127.773 94.8764 127.253 94.2097 126.88C93.5697 126.507 92.8364 126.32 92.0097 126.32C91.2097 126.32 90.4764 126.507 89.8097 126.88C89.143 127.253 88.6097 127.773 88.2097 128.44C87.8097 129.107 87.6097 129.893 87.6097 130.8C87.6097 131.68 87.8097 132.453 88.2097 133.12C88.6097 133.787 89.143 134.307 89.8097 134.68C90.4764 135.053 91.2097 135.24 92.0097 135.24Z" fill="#2D415C"/>
<path d="M642.072 301V276.88H634.656V274.18H652.296V276.88H644.952V301H642.072ZM661.958 301.432C660.134 301.432 658.478 301 656.99 300.136C655.502 299.248 654.314 298.048 653.426 296.536C652.562 295 652.13 293.26 652.13 291.316C652.13 289.396 652.562 287.68 653.426 286.168C654.29 284.656 655.454 283.468 656.918 282.604C658.406 281.716 660.086 281.272 661.958 281.272C663.83 281.272 665.498 281.704 666.962 282.568C668.45 283.432 669.614 284.62 670.454 286.132C671.318 287.644 671.75 289.372 671.75 291.316C671.75 293.284 671.306 295.036 670.418 296.572C669.53 298.084 668.342 299.272 666.854 300.136C665.39 301 663.758 301.432 661.958 301.432ZM661.958 298.732C663.254 298.732 664.418 298.408 665.45 297.76C666.506 297.112 667.334 296.224 667.934 295.096C668.558 293.968 668.87 292.708 668.87 291.316C668.87 289.924 668.558 288.676 667.934 287.572C667.334 286.468 666.506 285.592 665.45 284.944C664.418 284.296 663.254 283.972 661.958 283.972C660.662 283.972 659.486 284.296 658.43 284.944C657.398 285.592 656.57 286.468 655.946 287.572C655.322 288.676 655.01 289.924 655.01 291.316C655.01 292.708 655.322 293.968 655.946 295.096C656.57 296.224 657.398 297.112 658.43 297.76C659.486 298.408 660.662 298.732 661.958 298.732ZM593.569 346V319.18H598.969L609.013 332.5H606.493L616.249 319.18H621.649V346H616.069V325.336L618.301 325.84L607.969 339.16H607.249L597.277 325.84L599.149 325.336V346H593.569ZM632.093 346.432C630.677 346.432 629.453 346.204 628.421 345.748C627.389 345.292 626.597 344.644 626.045 343.804C625.493 342.94 625.217 341.92 625.217 340.744C625.217 339.64 625.469 338.668 625.973 337.828C626.477 336.964 627.245 336.244 628.277 335.668C629.333 335.092 630.641 334.684 632.201 334.444L638.213 333.472V337.432L633.173 338.332C632.405 338.476 631.817 338.728 631.409 339.088C631.001 339.424 630.797 339.916 630.797 340.564C630.797 341.164 631.025 341.632 631.481 341.968C631.937 342.304 632.501 342.472 633.173 342.472C634.061 342.472 634.841 342.28 635.513 341.896C636.185 341.512 636.701 340.996 637.061 340.348C637.445 339.676 637.637 338.944 637.637 338.152V333.04C637.637 332.296 637.337 331.672 636.737 331.168C636.161 330.664 635.369 330.412 634.361 330.412C633.401 330.412 632.549 330.676 631.805 331.204C631.085 331.732 630.557 332.428 630.221 333.292L625.901 331.24C626.285 330.136 626.897 329.188 627.737 328.396C628.577 327.604 629.585 326.992 630.761 326.56C631.937 326.128 633.221 325.912 634.613 325.912C636.269 325.912 637.733 326.212 639.005 326.812C640.277 327.412 641.261 328.252 641.957 329.332C642.677 330.388 643.037 331.624 643.037 333.04V346H637.997V342.832L639.221 342.616C638.645 343.48 638.009 344.2 637.313 344.776C636.617 345.328 635.837 345.736 634.973 346C634.109 346.288 633.149 346.432 632.093 346.432ZM646.998 346V326.344H652.038V331.06L651.678 330.376C652.11 328.72 652.818 327.604 653.802 327.028C654.81 326.428 655.998 326.128 657.366 326.128H658.518V330.808H656.826C655.506 330.808 654.438 331.216 653.622 332.032C652.806 332.824 652.398 333.952 652.398 335.416V346H646.998ZM660.884 346V318.748H666.284V336.208L664.268 335.56L672.944 326.344H679.604L672.476 334.264L679.568 346H673.448L667.508 336.028L670.64 335.236L664.628 341.788L666.284 338.656V346H660.884ZM691.094 346.432C689.006 346.432 687.194 345.976 685.658 345.064C684.122 344.128 682.934 342.88 682.094 341.32C681.254 339.76 680.834 338.032 680.834 336.136C680.834 334.168 681.266 332.416 682.13 330.88C683.018 329.344 684.206 328.132 685.694 327.244C687.182 326.356 688.862 325.912 690.734 325.912C692.294 325.912 693.674 326.164 694.874 326.668C696.074 327.148 697.082 327.832 697.898 328.72C698.738 329.608 699.374 330.64 699.806 331.816C700.238 332.968 700.454 334.228 700.454 335.596C700.454 335.98 700.43 336.364 700.382 336.748C700.358 337.108 700.298 337.42 700.202 337.684H685.478V333.724H697.142L694.586 335.596C694.826 334.564 694.814 333.652 694.55 332.86C694.286 332.044 693.818 331.408 693.146 330.952C692.498 330.472 691.694 330.232 690.734 330.232C689.798 330.232 688.994 330.46 688.322 330.916C687.65 331.372 687.146 332.044 686.81 332.932C686.474 333.82 686.342 334.9 686.414 336.172C686.318 337.276 686.45 338.248 686.81 339.088C687.17 339.928 687.722 340.588 688.466 341.068C689.21 341.524 690.11 341.752 691.166 341.752C692.126 341.752 692.942 341.56 693.614 341.176C694.31 340.792 694.85 340.264 695.234 339.592L699.554 341.644C699.17 342.604 698.558 343.444 697.718 344.164C696.902 344.884 695.93 345.448 694.802 345.856C693.674 346.24 692.438 346.432 691.094 346.432ZM713.102 346.216C710.726 346.216 708.878 345.58 707.558 344.308C706.262 343.012 705.614 341.212 705.614 338.908V331.024H702.302V326.344H702.482C703.49 326.344 704.258 326.092 704.786 325.588C705.338 325.084 705.614 324.328 705.614 323.32V321.88H711.014V326.344H715.622V331.024H711.014V338.548C711.014 339.22 711.134 339.784 711.374 340.24C711.614 340.672 711.986 340.996 712.49 341.212C712.994 341.428 713.618 341.536 714.362 341.536C714.53 341.536 714.722 341.524 714.938 341.5C715.154 341.476 715.382 341.452 715.622 341.428V346C715.262 346.048 714.854 346.096 714.398 346.144C713.942 346.192 713.51 346.216 713.102 346.216Z" fill="#2D415C"/>
</svg>
