<svg width="966" height="405" viewBox="0 0 966 405" fill="none" xmlns="http://www.w3.org/2000/svg">
<path d="M193.094 29.288C191.974 29.288 190.934 29.08 189.974 28.664C189.014 28.232 188.198 27.648 187.526 26.912C186.854 26.176 186.358 25.328 186.038 24.368L188.438 23.36C188.87 24.464 189.502 25.312 190.334 25.904C191.166 26.496 192.126 26.792 193.214 26.792C193.854 26.792 194.414 26.696 194.894 26.504C195.374 26.296 195.742 26.008 195.998 25.64C196.27 25.272 196.406 24.848 196.406 24.368C196.406 23.712 196.222 23.192 195.854 22.808C195.486 22.424 194.942 22.12 194.222 21.896L190.862 20.84C189.518 20.424 188.494 19.792 187.79 18.944C187.086 18.08 186.734 17.072 186.734 15.92C186.734 14.912 186.982 14.032 187.478 13.28C187.974 12.512 188.654 11.912 189.518 11.48C190.398 11.048 191.398 10.832 192.518 10.832C193.59 10.832 194.566 11.024 195.446 11.408C196.326 11.776 197.078 12.288 197.702 12.944C198.342 13.6 198.806 14.36 199.094 15.224L196.742 16.256C196.39 15.312 195.838 14.584 195.086 14.072C194.35 13.56 193.494 13.304 192.518 13.304C191.926 13.304 191.406 13.408 190.958 13.616C190.51 13.808 190.158 14.096 189.902 14.48C189.662 14.848 189.542 15.28 189.542 15.776C189.542 16.352 189.726 16.864 190.094 17.312C190.462 17.76 191.022 18.096 191.774 18.32L194.894 19.304C196.318 19.736 197.39 20.36 198.11 21.176C198.83 21.976 199.19 22.976 199.19 24.176C199.19 25.168 198.926 26.048 198.398 26.816C197.886 27.584 197.174 28.192 196.262 28.64C195.35 29.072 194.294 29.288 193.094 29.288ZM202.777 34.28C202.457 34.28 202.137 34.248 201.817 34.184C201.513 34.136 201.233 34.056 200.977 33.944V31.616C201.169 31.664 201.401 31.704 201.673 31.736C201.945 31.784 202.209 31.808 202.465 31.808C203.217 31.808 203.769 31.64 204.121 31.304C204.489 30.984 204.817 30.488 205.105 29.816L205.969 27.848L205.921 30.128L200.305 16.016H203.209L207.361 26.84H206.377L210.505 16.016H213.433L207.697 30.416C207.393 31.184 207.009 31.856 206.545 32.432C206.097 33.024 205.561 33.48 204.937 33.8C204.329 34.12 203.609 34.28 202.777 34.28ZM219.61 29.288C218.282 29.288 217.114 28.96 216.106 28.304C215.114 27.648 214.418 26.768 214.018 25.664L216.106 24.68C216.458 25.416 216.938 26 217.546 26.432C218.17 26.864 218.858 27.08 219.61 27.08C220.25 27.08 220.77 26.936 221.17 26.648C221.57 26.36 221.77 25.968 221.77 25.472C221.77 25.152 221.682 24.896 221.506 24.704C221.33 24.496 221.106 24.328 220.834 24.2C220.578 24.072 220.314 23.976 220.042 23.912L218.002 23.336C216.882 23.016 216.042 22.536 215.482 21.896C214.938 21.24 214.666 20.48 214.666 19.616C214.666 18.832 214.866 18.152 215.266 17.576C215.666 16.984 216.218 16.528 216.922 16.208C217.626 15.888 218.418 15.728 219.298 15.728C220.482 15.728 221.538 16.024 222.466 16.616C223.394 17.192 224.05 18 224.434 19.04L222.346 20.024C222.09 19.4 221.682 18.904 221.122 18.536C220.578 18.168 219.962 17.984 219.274 17.984C218.682 17.984 218.21 18.128 217.858 18.416C217.506 18.688 217.33 19.048 217.33 19.496C217.33 19.8 217.41 20.056 217.57 20.264C217.73 20.456 217.938 20.616 218.194 20.744C218.45 20.856 218.714 20.952 218.986 21.032L221.098 21.656C222.17 21.96 222.994 22.44 223.57 23.096C224.146 23.736 224.434 24.504 224.434 25.4C224.434 26.168 224.226 26.848 223.81 27.44C223.41 28.016 222.85 28.472 222.13 28.808C221.41 29.128 220.57 29.288 219.61 29.288ZM232.227 29.144C230.867 29.144 229.811 28.76 229.059 27.992C228.307 27.224 227.931 26.144 227.931 24.752V18.464H225.651V16.016H226.011C226.619 16.016 227.091 15.84 227.427 15.488C227.763 15.136 227.931 14.656 227.931 14.048V13.04H230.643V16.016H233.595V18.464H230.643V24.632C230.643 25.08 230.715 25.464 230.859 25.784C231.003 26.088 231.235 26.328 231.555 26.504C231.875 26.664 232.291 26.744 232.803 26.744C232.931 26.744 233.075 26.736 233.235 26.72C233.395 26.704 233.547 26.688 233.691 26.672V29C233.467 29.032 233.219 29.064 232.947 29.096C232.675 29.128 232.435 29.144 232.227 29.144ZM241.719 29.288C240.423 29.288 239.271 28.992 238.263 28.4C237.271 27.792 236.495 26.976 235.935 25.952C235.375 24.912 235.095 23.752 235.095 22.472C235.095 21.16 235.375 20 235.935 18.992C236.511 17.984 237.279 17.192 238.239 16.616C239.199 16.024 240.287 15.728 241.503 15.728C242.479 15.728 243.351 15.896 244.119 16.232C244.887 16.568 245.535 17.032 246.063 17.624C246.591 18.2 246.991 18.864 247.263 19.616C247.551 20.368 247.695 21.168 247.695 22.016C247.695 22.224 247.687 22.44 247.671 22.664C247.655 22.888 247.623 23.096 247.575 23.288H237.231V21.128H246.039L244.743 22.112C244.903 21.328 244.847 20.632 244.575 20.024C244.319 19.4 243.919 18.912 243.375 18.56C242.847 18.192 242.223 18.008 241.503 18.008C240.783 18.008 240.143 18.192 239.583 18.56C239.023 18.912 238.591 19.424 238.287 20.096C237.983 20.752 237.863 21.552 237.927 22.496C237.847 23.376 237.967 24.144 238.287 24.8C238.623 25.456 239.087 25.968 239.679 26.336C240.287 26.704 240.975 26.888 241.743 26.888C242.527 26.888 243.191 26.712 243.735 26.36C244.295 26.008 244.735 25.552 245.055 24.992L247.263 26.072C247.007 26.68 246.607 27.232 246.063 27.728C245.535 28.208 244.895 28.592 244.143 28.88C243.407 29.152 242.599 29.288 241.719 29.288ZM249.862 29V16.016H252.454V18.824L252.118 18.392C252.39 17.512 252.886 16.848 253.606 16.4C254.326 15.952 255.15 15.728 256.078 15.728C257.118 15.728 258.038 16.008 258.838 16.568C259.654 17.112 260.198 17.84 260.47 18.752L259.702 18.824C260.086 17.784 260.67 17.008 261.454 16.496C262.254 15.984 263.166 15.728 264.19 15.728C265.086 15.728 265.894 15.936 266.614 16.352C267.35 16.768 267.934 17.344 268.366 18.08C268.798 18.816 269.014 19.656 269.014 20.6V29H266.302V21.344C266.302 20.688 266.182 20.136 265.942 19.688C265.718 19.224 265.398 18.872 264.982 18.632C264.582 18.376 264.11 18.248 263.566 18.248C263.022 18.248 262.542 18.376 262.126 18.632C261.71 18.872 261.382 19.224 261.142 19.688C260.902 20.152 260.782 20.704 260.782 21.344V29H258.094V21.344C258.094 20.688 257.974 20.136 257.734 19.688C257.51 19.224 257.19 18.872 256.774 18.632C256.374 18.376 255.894 18.248 255.334 18.248C254.79 18.248 254.31 18.376 253.894 18.632C253.478 18.872 253.15 19.224 252.91 19.688C252.686 20.152 252.574 20.704 252.574 21.344V29H249.862Z" fill="#1F1F1F"/>
<path d="M273.832 29L280.12 11.12H283.624L289.912 29H286.888L285.52 24.992H278.248L276.856 29H273.832ZM279.064 22.472H284.656L281.488 13.112H282.28L279.064 22.472ZM291.289 29V10.832H294.001V29H291.289ZM296.692 29V16.016H299.284V18.824L298.948 18.392C299.22 17.512 299.716 16.848 300.436 16.4C301.156 15.952 301.98 15.728 302.908 15.728C303.948 15.728 304.868 16.008 305.668 16.568C306.484 17.112 307.028 17.84 307.3 18.752L306.532 18.824C306.916 17.784 307.5 17.008 308.284 16.496C309.084 15.984 309.996 15.728 311.02 15.728C311.916 15.728 312.724 15.936 313.444 16.352C314.18 16.768 314.764 17.344 315.196 18.08C315.628 18.816 315.844 19.656 315.844 20.6V29H313.132V21.344C313.132 20.688 313.012 20.136 312.772 19.688C312.548 19.224 312.228 18.872 311.812 18.632C311.412 18.376 310.94 18.248 310.396 18.248C309.852 18.248 309.372 18.376 308.956 18.632C308.54 18.872 308.212 19.224 307.972 19.688C307.732 20.152 307.612 20.704 307.612 21.344V29H304.924V21.344C304.924 20.688 304.804 20.136 304.564 19.688C304.34 19.224 304.02 18.872 303.604 18.632C303.204 18.376 302.724 18.248 302.164 18.248C301.62 18.248 301.14 18.376 300.724 18.632C300.308 18.872 299.98 19.224 299.74 19.688C299.516 20.152 299.404 20.704 299.404 21.344V29H296.692ZM324.53 29.288C323.282 29.288 322.138 28.992 321.098 28.4C320.074 27.808 319.258 27 318.65 25.976C318.042 24.952 317.738 23.792 317.738 22.496C317.738 21.184 318.042 20.024 318.65 19.016C319.258 17.992 320.074 17.192 321.098 16.616C322.122 16.024 323.266 15.728 324.53 15.728C325.81 15.728 326.954 16.024 327.962 16.616C328.986 17.192 329.794 17.992 330.386 19.016C330.994 20.024 331.298 21.184 331.298 22.496C331.298 23.808 330.994 24.976 330.386 26C329.778 27.024 328.962 27.832 327.938 28.424C326.914 29 325.778 29.288 324.53 29.288ZM324.53 26.768C325.298 26.768 325.978 26.584 326.57 26.216C327.162 25.848 327.626 25.344 327.962 24.704C328.314 24.048 328.49 23.312 328.49 22.496C328.49 21.68 328.314 20.952 327.962 20.312C327.626 19.672 327.162 19.168 326.57 18.8C325.978 18.432 325.298 18.248 324.53 18.248C323.778 18.248 323.098 18.432 322.49 18.8C321.898 19.168 321.426 19.672 321.074 20.312C320.738 20.952 320.57 21.68 320.57 22.496C320.57 23.312 320.738 24.048 321.074 24.704C321.426 25.344 321.898 25.848 322.49 26.216C323.098 26.584 323.778 26.768 324.53 26.768ZM338.266 29.288C336.938 29.288 335.77 28.96 334.762 28.304C333.77 27.648 333.074 26.768 332.674 25.664L334.762 24.68C335.114 25.416 335.594 26 336.202 26.432C336.826 26.864 337.514 27.08 338.266 27.08C338.906 27.08 339.426 26.936 339.826 26.648C340.226 26.36 340.426 25.968 340.426 25.472C340.426 25.152 340.338 24.896 340.162 24.704C339.986 24.496 339.762 24.328 339.49 24.2C339.234 24.072 338.97 23.976 338.698 23.912L336.658 23.336C335.538 23.016 334.698 22.536 334.138 21.896C333.594 21.24 333.322 20.48 333.322 19.616C333.322 18.832 333.522 18.152 333.922 17.576C334.322 16.984 334.874 16.528 335.578 16.208C336.282 15.888 337.074 15.728 337.954 15.728C339.138 15.728 340.194 16.024 341.122 16.616C342.05 17.192 342.706 18 343.09 19.04L341.002 20.024C340.746 19.4 340.338 18.904 339.778 18.536C339.234 18.168 338.618 17.984 337.93 17.984C337.338 17.984 336.866 18.128 336.514 18.416C336.162 18.688 335.986 19.048 335.986 19.496C335.986 19.8 336.066 20.056 336.226 20.264C336.386 20.456 336.594 20.616 336.85 20.744C337.106 20.856 337.37 20.952 337.642 21.032L339.754 21.656C340.826 21.96 341.65 22.44 342.226 23.096C342.802 23.736 343.09 24.504 343.09 25.4C343.09 26.168 342.882 26.848 342.466 27.44C342.066 28.016 341.506 28.472 340.786 28.808C340.066 29.128 339.226 29.288 338.266 29.288ZM350.883 29.144C349.523 29.144 348.467 28.76 347.715 27.992C346.963 27.224 346.587 26.144 346.587 24.752V18.464H344.307V16.016H344.667C345.275 16.016 345.747 15.84 346.083 15.488C346.419 15.136 346.587 14.656 346.587 14.048V13.04H349.299V16.016H352.251V18.464H349.299V24.632C349.299 25.08 349.371 25.464 349.515 25.784C349.659 26.088 349.891 26.328 350.211 26.504C350.531 26.664 350.947 26.744 351.459 26.744C351.587 26.744 351.731 26.736 351.891 26.72C352.051 26.704 352.203 26.688 352.347 26.672V29C352.123 29.032 351.875 29.064 351.603 29.096C351.331 29.128 351.091 29.144 350.883 29.144ZM358.493 29V11.12H364.997C366.197 11.12 367.253 11.344 368.165 11.792C369.077 12.224 369.789 12.864 370.301 13.712C370.829 14.544 371.093 15.544 371.093 16.712C371.093 17.944 370.781 19 370.157 19.88C369.549 20.76 368.725 21.4 367.685 21.8L371.813 29H368.597L364.205 21.2L366.053 22.28H361.325V29H358.493ZM361.325 19.76H365.045C365.701 19.76 366.269 19.632 366.749 19.376C367.229 19.12 367.597 18.768 367.853 18.32C368.125 17.856 368.261 17.312 368.261 16.688C368.261 16.064 368.125 15.528 367.853 15.08C367.597 14.616 367.229 14.264 366.749 14.024C366.269 13.768 365.701 13.64 365.045 13.64H361.325V19.76ZM378.822 29.288C377.526 29.288 376.374 28.992 375.366 28.4C374.374 27.792 373.598 26.976 373.038 25.952C372.478 24.912 372.198 23.752 372.198 22.472C372.198 21.16 372.478 20 373.038 18.992C373.614 17.984 374.382 17.192 375.342 16.616C376.302 16.024 377.39 15.728 378.606 15.728C379.582 15.728 380.454 15.896 381.222 16.232C381.99 16.568 382.638 17.032 383.166 17.624C383.694 18.2 384.094 18.864 384.366 19.616C384.654 20.368 384.798 21.168 384.798 22.016C384.798 22.224 384.79 22.44 384.774 22.664C384.758 22.888 384.726 23.096 384.678 23.288H374.334V21.128H383.142L381.846 22.112C382.006 21.328 381.95 20.632 381.678 20.024C381.422 19.4 381.022 18.912 380.478 18.56C379.95 18.192 379.326 18.008 378.606 18.008C377.886 18.008 377.246 18.192 376.686 18.56C376.126 18.912 375.694 19.424 375.39 20.096C375.086 20.752 374.966 21.552 375.03 22.496C374.95 23.376 375.07 24.144 375.39 24.8C375.726 25.456 376.19 25.968 376.782 26.336C377.39 26.704 378.078 26.888 378.846 26.888C379.63 26.888 380.294 26.712 380.838 26.36C381.398 26.008 381.838 25.552 382.158 24.992L384.366 26.072C384.11 26.68 383.71 27.232 383.166 27.728C382.638 28.208 381.998 28.592 381.246 28.88C380.51 29.152 379.702 29.288 378.822 29.288ZM390.735 29.288C389.855 29.288 389.079 29.136 388.407 28.832C387.751 28.512 387.239 28.08 386.871 27.536C386.503 26.976 386.319 26.32 386.319 25.568C386.319 24.864 386.471 24.232 386.775 23.672C387.095 23.112 387.583 22.64 388.239 22.256C388.895 21.872 389.719 21.6 390.711 21.44L395.223 20.696V22.832L391.239 23.528C390.519 23.656 389.991 23.888 389.655 24.224C389.319 24.544 389.151 24.96 389.151 25.472C389.151 25.968 389.335 26.376 389.703 26.696C390.087 27 390.575 27.152 391.167 27.152C391.903 27.152 392.543 26.992 393.087 26.672C393.647 26.352 394.079 25.928 394.383 25.4C394.687 24.856 394.839 24.256 394.839 23.6V20.264C394.839 19.624 394.599 19.104 394.119 18.704C393.655 18.288 393.031 18.08 392.247 18.08C391.527 18.08 390.895 18.272 390.351 18.656C389.823 19.024 389.431 19.504 389.175 20.096L386.919 18.968C387.159 18.328 387.551 17.768 388.095 17.288C388.639 16.792 389.271 16.408 389.991 16.136C390.727 15.864 391.503 15.728 392.319 15.728C393.343 15.728 394.247 15.92 395.031 16.304C395.831 16.688 396.447 17.224 396.879 17.912C397.327 18.584 397.551 19.368 397.551 20.264V29H394.959V26.648L395.511 26.72C395.207 27.248 394.815 27.704 394.335 28.088C393.871 28.472 393.335 28.768 392.727 28.976C392.135 29.184 391.471 29.288 390.735 29.288ZM406.242 29.288C404.994 29.288 403.874 28.992 402.882 28.4C401.906 27.792 401.13 26.976 400.554 25.952C399.994 24.928 399.714 23.776 399.714 22.496C399.714 21.216 400.002 20.064 400.578 19.04C401.154 18.016 401.93 17.208 402.906 16.616C403.882 16.024 404.986 15.728 406.218 15.728C407.258 15.728 408.178 15.936 408.978 16.352C409.778 16.768 410.41 17.344 410.874 18.08L410.466 18.704V10.832H413.154V29H410.586V26.36L410.898 26.864C410.45 27.648 409.81 28.248 408.978 28.664C408.146 29.08 407.234 29.288 406.242 29.288ZM406.506 26.768C407.258 26.768 407.93 26.584 408.522 26.216C409.13 25.848 409.602 25.344 409.938 24.704C410.29 24.048 410.466 23.312 410.466 22.496C410.466 21.68 410.29 20.952 409.938 20.312C409.602 19.672 409.13 19.168 408.522 18.8C407.93 18.432 407.258 18.248 406.506 18.248C405.754 18.248 405.074 18.432 404.466 18.8C403.858 19.168 403.386 19.672 403.05 20.312C402.714 20.952 402.546 21.68 402.546 22.496C402.546 23.312 402.714 24.048 403.05 24.704C403.386 25.344 403.85 25.848 404.442 26.216C405.05 26.584 405.738 26.768 406.506 26.768ZM416.992 34.28C416.672 34.28 416.352 34.248 416.032 34.184C415.728 34.136 415.448 34.056 415.192 33.944V31.616C415.384 31.664 415.616 31.704 415.888 31.736C416.16 31.784 416.424 31.808 416.68 31.808C417.432 31.808 417.984 31.64 418.336 31.304C418.704 30.984 419.032 30.488 419.32 29.816L420.184 27.848L420.136 30.128L414.52 16.016H417.424L421.576 26.84H420.592L424.72 16.016H427.648L421.912 30.416C421.608 31.184 421.224 31.856 420.76 32.432C420.312 33.024 419.776 33.48 419.152 33.8C418.544 34.12 417.824 34.28 416.992 34.28Z" fill="#FF8A40"/>
<path d="M725.83 238V220.12H737.47V222.64H728.662V228.016H736.51V230.536H728.662V238H725.83ZM739.102 238V225.016H741.814V238H739.102ZM739.102 223.24V220.12H741.814V223.24H739.102ZM744.505 238V225.016H747.097V227.56L746.785 227.224C747.105 226.408 747.617 225.792 748.321 225.376C749.025 224.944 749.841 224.728 750.769 224.728C751.729 224.728 752.577 224.936 753.313 225.352C754.049 225.768 754.625 226.344 755.041 227.08C755.457 227.816 755.665 228.664 755.665 229.624V238H752.977V230.344C752.977 229.688 752.857 229.136 752.617 228.688C752.377 228.224 752.033 227.872 751.585 227.632C751.153 227.376 750.657 227.248 750.097 227.248C749.537 227.248 749.033 227.376 748.585 227.632C748.153 227.872 747.817 228.224 747.577 228.688C747.337 229.152 747.217 229.704 747.217 230.344V238H744.505ZM761.975 238.288C761.095 238.288 760.319 238.136 759.647 237.832C758.991 237.512 758.479 237.08 758.111 236.536C757.743 235.976 757.559 235.32 757.559 234.568C757.559 233.864 757.711 233.232 758.015 232.672C758.335 232.112 758.823 231.64 759.479 231.256C760.135 230.872 760.959 230.6 761.951 230.44L766.463 229.696V231.832L762.479 232.528C761.759 232.656 761.231 232.888 760.895 233.224C760.559 233.544 760.391 233.96 760.391 234.472C760.391 234.968 760.575 235.376 760.943 235.696C761.327 236 761.815 236.152 762.407 236.152C763.143 236.152 763.783 235.992 764.327 235.672C764.887 235.352 765.319 234.928 765.623 234.4C765.927 233.856 766.079 233.256 766.079 232.6V229.264C766.079 228.624 765.839 228.104 765.359 227.704C764.895 227.288 764.271 227.08 763.487 227.08C762.767 227.08 762.135 227.272 761.591 227.656C761.063 228.024 760.671 228.504 760.415 229.096L758.159 227.968C758.399 227.328 758.791 226.768 759.335 226.288C759.879 225.792 760.511 225.408 761.231 225.136C761.967 224.864 762.743 224.728 763.559 224.728C764.583 224.728 765.487 224.92 766.271 225.304C767.071 225.688 767.687 226.224 768.119 226.912C768.567 227.584 768.791 228.368 768.791 229.264V238H766.199V235.648L766.751 235.72C766.447 236.248 766.055 236.704 765.575 237.088C765.111 237.472 764.575 237.768 763.967 237.976C763.375 238.184 762.711 238.288 761.975 238.288ZM771.482 238V219.832H774.194V238H771.482ZM780.864 238V220.12H787.368C788.568 220.12 789.624 220.344 790.536 220.792C791.464 221.224 792.184 221.864 792.696 222.712C793.208 223.544 793.464 224.544 793.464 225.712C793.464 226.864 793.2 227.856 792.672 228.688C792.16 229.52 791.448 230.16 790.536 230.608C789.624 231.056 788.568 231.28 787.368 231.28H783.696V238H780.864ZM783.696 228.76H787.44C788.08 228.76 788.64 228.632 789.12 228.376C789.6 228.12 789.976 227.768 790.248 227.32C790.52 226.856 790.656 226.312 790.656 225.688C790.656 225.064 790.52 224.528 790.248 224.08C789.976 223.616 789.6 223.264 789.12 223.024C788.64 222.768 788.08 222.64 787.44 222.64H783.696V228.76ZM795.636 238V225.016H798.228V227.632L797.988 227.248C798.276 226.4 798.74 225.792 799.38 225.424C800.02 225.04 800.788 224.848 801.684 224.848H802.476V227.32H801.348C800.452 227.32 799.724 227.6 799.164 228.16C798.62 228.704 798.348 229.488 798.348 230.512V238H795.636ZM810.115 238.288C808.867 238.288 807.723 237.992 806.683 237.4C805.659 236.808 804.843 236 804.235 234.976C803.627 233.952 803.323 232.792 803.323 231.496C803.323 230.184 803.627 229.024 804.235 228.016C804.843 226.992 805.659 226.192 806.683 225.616C807.707 225.024 808.851 224.728 810.115 224.728C811.395 224.728 812.539 225.024 813.547 225.616C814.571 226.192 815.379 226.992 815.971 228.016C816.579 229.024 816.883 230.184 816.883 231.496C816.883 232.808 816.579 233.976 815.971 235C815.363 236.024 814.547 236.832 813.523 237.424C812.499 238 811.363 238.288 810.115 238.288ZM810.115 235.768C810.883 235.768 811.563 235.584 812.155 235.216C812.747 234.848 813.211 234.344 813.547 233.704C813.899 233.048 814.075 232.312 814.075 231.496C814.075 230.68 813.899 229.952 813.547 229.312C813.211 228.672 812.747 228.168 812.155 227.8C811.563 227.432 810.883 227.248 810.115 227.248C809.363 227.248 808.683 227.432 808.075 227.8C807.483 228.168 807.011 228.672 806.659 229.312C806.323 229.952 806.155 230.68 806.155 231.496C806.155 232.312 806.323 233.048 806.659 233.704C807.011 234.344 807.483 234.848 808.075 235.216C808.683 235.584 809.363 235.768 810.115 235.768ZM825.051 238.288C823.803 238.288 822.683 237.992 821.691 237.4C820.715 236.792 819.939 235.976 819.363 234.952C818.803 233.928 818.523 232.776 818.523 231.496C818.523 230.216 818.811 229.064 819.387 228.04C819.963 227.016 820.739 226.208 821.715 225.616C822.691 225.024 823.795 224.728 825.027 224.728C826.067 224.728 826.987 224.936 827.787 225.352C828.587 225.768 829.219 226.344 829.683 227.08L829.275 227.704V219.832H831.963V238H829.395V235.36L829.707 235.864C829.259 236.648 828.619 237.248 827.787 237.664C826.955 238.08 826.043 238.288 825.051 238.288ZM825.315 235.768C826.067 235.768 826.739 235.584 827.331 235.216C827.939 234.848 828.411 234.344 828.747 233.704C829.099 233.048 829.275 232.312 829.275 231.496C829.275 230.68 829.099 229.952 828.747 229.312C828.411 228.672 827.939 228.168 827.331 227.8C826.739 227.432 826.067 227.248 825.315 227.248C824.563 227.248 823.883 227.432 823.275 227.8C822.667 228.168 822.195 228.672 821.859 229.312C821.523 229.952 821.355 230.68 821.355 231.496C821.355 232.312 821.523 233.048 821.859 233.704C822.195 234.344 822.659 234.848 823.251 235.216C823.859 235.584 824.547 235.768 825.315 235.768ZM839.281 238.288C838.305 238.288 837.449 238.072 836.713 237.64C835.977 237.192 835.401 236.576 834.985 235.792C834.585 234.992 834.385 234.072 834.385 233.032V225.016H837.097V232.792C837.097 233.384 837.217 233.904 837.457 234.352C837.697 234.8 838.033 235.152 838.465 235.408C838.897 235.648 839.393 235.768 839.953 235.768C840.529 235.768 841.033 235.64 841.465 235.384C841.897 235.128 842.233 234.768 842.473 234.304C842.729 233.84 842.857 233.296 842.857 232.672V225.016H845.545V238H842.977V235.456L843.265 235.792C842.961 236.592 842.457 237.208 841.753 237.64C841.049 238.072 840.225 238.288 839.281 238.288ZM854.4 238.288C853.104 238.288 851.952 237.992 850.944 237.4C849.952 236.792 849.16 235.976 848.568 234.952C847.992 233.928 847.704 232.768 847.704 231.472C847.704 230.192 847.992 229.04 848.568 228.016C849.144 226.992 849.936 226.192 850.944 225.616C851.952 225.024 853.104 224.728 854.4 224.728C855.28 224.728 856.104 224.888 856.872 225.208C857.64 225.512 858.304 225.936 858.864 226.48C859.44 227.024 859.864 227.656 860.136 228.376L857.76 229.48C857.488 228.808 857.048 228.272 856.44 227.872C855.848 227.456 855.168 227.248 854.4 227.248C853.664 227.248 853 227.432 852.408 227.8C851.832 228.152 851.376 228.656 851.04 229.312C850.704 229.952 850.536 230.68 850.536 231.496C850.536 232.312 850.704 233.048 851.04 233.704C851.376 234.344 851.832 234.848 852.408 235.216C853 235.584 853.664 235.768 854.4 235.768C855.184 235.768 855.864 235.568 856.44 235.168C857.032 234.752 857.472 234.2 857.76 233.512L860.136 234.64C859.88 235.328 859.464 235.952 858.888 236.512C858.328 237.056 857.664 237.488 856.896 237.808C856.128 238.128 855.296 238.288 854.4 238.288ZM867.922 238.144C866.562 238.144 865.506 237.76 864.754 236.992C864.002 236.224 863.626 235.144 863.626 233.752V227.464H861.346V225.016H861.706C862.314 225.016 862.786 224.84 863.122 224.488C863.458 224.136 863.626 223.656 863.626 223.048V222.04H866.338V225.016H869.29V227.464H866.338V233.632C866.338 234.08 866.41 234.464 866.554 234.784C866.698 235.088 866.93 235.328 867.25 235.504C867.57 235.664 867.986 235.744 868.498 235.744C868.626 235.744 868.77 235.736 868.93 235.72C869.09 235.704 869.242 235.688 869.386 235.672V238C869.162 238.032 868.914 238.064 868.642 238.096C868.37 238.128 868.13 238.144 867.922 238.144Z" fill="#FF8A40"/>
<path d="M875.268 238V225.016H877.98V238H875.268ZM875.268 223.24V220.12H877.98V223.24H875.268ZM885.471 238.288C884.143 238.288 882.975 237.96 881.967 237.304C880.975 236.648 880.279 235.768 879.879 234.664L881.967 233.68C882.319 234.416 882.799 235 883.407 235.432C884.031 235.864 884.719 236.08 885.471 236.08C886.111 236.08 886.631 235.936 887.031 235.648C887.431 235.36 887.631 234.968 887.631 234.472C887.631 234.152 887.543 233.896 887.367 233.704C887.191 233.496 886.967 233.328 886.695 233.2C886.439 233.072 886.175 232.976 885.903 232.912L883.863 232.336C882.743 232.016 881.903 231.536 881.343 230.896C880.799 230.24 880.527 229.48 880.527 228.616C880.527 227.832 880.727 227.152 881.127 226.576C881.527 225.984 882.079 225.528 882.783 225.208C883.487 224.888 884.279 224.728 885.159 224.728C886.343 224.728 887.399 225.024 888.327 225.616C889.255 226.192 889.911 227 890.295 228.04L888.207 229.024C887.951 228.4 887.543 227.904 886.983 227.536C886.439 227.168 885.823 226.984 885.135 226.984C884.543 226.984 884.071 227.128 883.719 227.416C883.367 227.688 883.191 228.048 883.191 228.496C883.191 228.8 883.271 229.056 883.431 229.264C883.591 229.456 883.799 229.616 884.055 229.744C884.311 229.856 884.575 229.952 884.847 230.032L886.959 230.656C888.031 230.96 888.855 231.44 889.431 232.096C890.007 232.736 890.295 233.504 890.295 234.4C890.295 235.168 890.087 235.848 889.671 236.44C889.271 237.016 888.711 237.472 887.991 237.808C887.271 238.128 886.431 238.288 885.471 238.288ZM896.452 238V220.12H902.956C904.156 220.12 905.212 220.344 906.124 220.792C907.036 221.224 907.748 221.864 908.26 222.712C908.788 223.544 909.052 224.544 909.052 225.712C909.052 226.944 908.74 228 908.116 228.88C907.508 229.76 906.684 230.4 905.644 230.8L909.772 238H906.556L902.164 230.2L904.012 231.28H899.284V238H896.452ZM899.284 228.76H903.004C903.66 228.76 904.228 228.632 904.708 228.376C905.188 228.12 905.556 227.768 905.812 227.32C906.084 226.856 906.22 226.312 906.22 225.688C906.22 225.064 906.084 224.528 905.812 224.08C905.556 223.616 905.188 223.264 904.708 223.024C904.228 222.768 903.66 222.64 903.004 222.64H899.284V228.76ZM916.78 238.288C915.484 238.288 914.332 237.992 913.324 237.4C912.332 236.792 911.556 235.976 910.996 234.952C910.436 233.912 910.156 232.752 910.156 231.472C910.156 230.16 910.436 229 910.996 227.992C911.572 226.984 912.34 226.192 913.3 225.616C914.26 225.024 915.348 224.728 916.564 224.728C917.54 224.728 918.412 224.896 919.18 225.232C919.948 225.568 920.596 226.032 921.124 226.624C921.652 227.2 922.052 227.864 922.324 228.616C922.612 229.368 922.756 230.168 922.756 231.016C922.756 231.224 922.748 231.44 922.732 231.664C922.716 231.888 922.684 232.096 922.636 232.288H912.292V230.128H921.1L919.804 231.112C919.964 230.328 919.908 229.632 919.636 229.024C919.38 228.4 918.98 227.912 918.436 227.56C917.908 227.192 917.284 227.008 916.564 227.008C915.844 227.008 915.204 227.192 914.644 227.56C914.084 227.912 913.652 228.424 913.348 229.096C913.044 229.752 912.924 230.552 912.988 231.496C912.908 232.376 913.028 233.144 913.348 233.8C913.684 234.456 914.148 234.968 914.74 235.336C915.348 235.704 916.036 235.888 916.804 235.888C917.588 235.888 918.252 235.712 918.796 235.36C919.356 235.008 919.796 234.552 920.116 233.992L922.324 235.072C922.068 235.68 921.668 236.232 921.124 236.728C920.596 237.208 919.956 237.592 919.204 237.88C918.468 238.152 917.66 238.288 916.78 238.288ZM928.694 238.288C927.814 238.288 927.038 238.136 926.366 237.832C925.71 237.512 925.198 237.08 924.83 236.536C924.462 235.976 924.278 235.32 924.278 234.568C924.278 233.864 924.43 233.232 924.734 232.672C925.054 232.112 925.542 231.64 926.198 231.256C926.854 230.872 927.678 230.6 928.67 230.44L933.182 229.696V231.832L929.198 232.528C928.478 232.656 927.95 232.888 927.614 233.224C927.278 233.544 927.11 233.96 927.11 234.472C927.11 234.968 927.294 235.376 927.662 235.696C928.046 236 928.534 236.152 929.126 236.152C929.862 236.152 930.502 235.992 931.046 235.672C931.606 235.352 932.038 234.928 932.342 234.4C932.646 233.856 932.798 233.256 932.798 232.6V229.264C932.798 228.624 932.558 228.104 932.078 227.704C931.614 227.288 930.99 227.08 930.206 227.08C929.486 227.08 928.854 227.272 928.31 227.656C927.782 228.024 927.39 228.504 927.134 229.096L924.878 227.968C925.118 227.328 925.51 226.768 926.054 226.288C926.598 225.792 927.23 225.408 927.95 225.136C928.686 224.864 929.462 224.728 930.278 224.728C931.302 224.728 932.206 224.92 932.99 225.304C933.79 225.688 934.406 226.224 934.838 226.912C935.286 227.584 935.51 228.368 935.51 229.264V238H932.918V235.648L933.47 235.72C933.166 236.248 932.774 236.704 932.294 237.088C931.83 237.472 931.294 237.768 930.686 237.976C930.094 238.184 929.43 238.288 928.694 238.288ZM944.201 238.288C942.953 238.288 941.833 237.992 940.841 237.4C939.865 236.792 939.089 235.976 938.513 234.952C937.953 233.928 937.673 232.776 937.673 231.496C937.673 230.216 937.961 229.064 938.537 228.04C939.113 227.016 939.889 226.208 940.865 225.616C941.841 225.024 942.945 224.728 944.177 224.728C945.217 224.728 946.137 224.936 946.937 225.352C947.737 225.768 948.369 226.344 948.833 227.08L948.425 227.704V219.832H951.113V238H948.545V235.36L948.857 235.864C948.409 236.648 947.769 237.248 946.937 237.664C946.105 238.08 945.193 238.288 944.201 238.288ZM944.465 235.768C945.217 235.768 945.889 235.584 946.481 235.216C947.089 234.848 947.561 234.344 947.897 233.704C948.249 233.048 948.425 232.312 948.425 231.496C948.425 230.68 948.249 229.952 947.897 229.312C947.561 228.672 947.089 228.168 946.481 227.8C945.889 227.432 945.217 227.248 944.465 227.248C943.713 227.248 943.033 227.432 942.425 227.8C941.817 228.168 941.345 228.672 941.009 229.312C940.673 229.952 940.505 230.68 940.505 231.496C940.505 232.312 940.673 233.048 941.009 233.704C941.345 234.344 941.809 234.848 942.401 235.216C943.009 235.584 943.697 235.768 944.465 235.768ZM954.951 243.28C954.631 243.28 954.311 243.248 953.991 243.184C953.687 243.136 953.407 243.056 953.151 242.944V240.616C953.343 240.664 953.575 240.704 953.847 240.736C954.119 240.784 954.383 240.808 954.639 240.808C955.391 240.808 955.943 240.64 956.295 240.304C956.663 239.984 956.991 239.488 957.279 238.816L958.143 236.848L958.095 239.128L952.479 225.016H955.383L959.535 235.84H958.551L962.679 225.016H965.607L959.871 239.416C959.567 240.184 959.183 240.856 958.719 241.432C958.271 242.024 957.735 242.48 957.111 242.8C956.503 243.12 955.783 243.28 954.951 243.28Z" fill="#1F1F1F"/>
<path opacity="0.6" d="M216.978 46.622L217.146 45.446C217.221 44.9047 217.398 44.4567 217.678 44.102C217.968 43.7473 218.35 43.514 218.826 43.402L218.756 43.892C218.467 43.9667 218.248 44.1067 218.098 44.312C217.949 44.508 217.842 44.7647 217.776 45.082H218.308L218.098 46.622H216.978ZM214.878 46.622L215.046 45.446C215.121 44.9047 215.298 44.4567 215.578 44.102C215.868 43.7473 216.25 43.514 216.726 43.402L216.656 43.892C216.367 43.9667 216.148 44.1067 215.998 44.312C215.849 44.508 215.742 44.7647 215.676 45.082H216.208L215.998 46.622H214.878ZM220.295 54L221.751 43.57H222.871L221.415 54H220.295ZM226.369 54.084C225.688 54.084 225.188 53.8833 224.871 53.482C224.554 53.0807 224.442 52.516 224.535 51.788L225.123 47.546H223.737L223.891 46.496H224.213C224.53 46.496 224.801 46.3887 225.025 46.174C225.258 45.95 225.394 45.6793 225.431 45.362L225.515 44.76H226.579L226.341 46.496H227.979L227.825 47.546H226.187L225.585 51.844C225.548 52.096 225.548 52.32 225.585 52.516C225.632 52.7027 225.734 52.8473 225.893 52.95C226.052 53.0527 226.28 53.104 226.579 53.104C226.672 53.104 226.77 53.0993 226.873 53.09C226.976 53.0807 227.064 53.0713 227.139 53.062L227.055 54.028C226.943 54.056 226.817 54.07 226.677 54.07C226.546 54.0793 226.444 54.084 226.369 54.084ZM232.369 54L230.857 46.496H231.977L233.195 53.062H232.775L235.729 46.496H236.779L237.871 53.062H237.437L240.489 46.496H241.707L238.067 54H237.017L235.981 47.574H236.317L233.419 54H232.369ZM245.307 54.168C244.635 54.168 244.023 54.014 243.473 53.706C242.931 53.3887 242.497 52.95 242.171 52.39C241.853 51.83 241.695 51.186 241.695 50.458C241.695 49.8887 241.797 49.3567 242.003 48.862C242.208 48.358 242.493 47.9193 242.857 47.546C243.23 47.1633 243.659 46.8647 244.145 46.65C244.639 46.4353 245.167 46.328 245.727 46.328C246.417 46.328 247.033 46.4867 247.575 46.804C248.125 47.112 248.559 47.5413 248.877 48.092C249.194 48.6427 249.353 49.2773 249.353 49.996C249.353 50.5653 249.245 51.102 249.031 51.606C248.825 52.11 248.536 52.558 248.163 52.95C247.789 53.3327 247.36 53.6313 246.875 53.846C246.389 54.0607 245.867 54.168 245.307 54.168ZM245.293 53.118C245.843 53.118 246.338 52.9733 246.777 52.684C247.225 52.3947 247.579 52.012 247.841 51.536C248.102 51.06 248.233 50.542 248.233 49.982C248.233 49.478 248.125 49.03 247.911 48.638C247.696 48.246 247.397 47.938 247.015 47.714C246.641 47.49 246.217 47.378 245.741 47.378C245.199 47.378 244.705 47.5227 244.257 47.812C243.818 48.092 243.468 48.4653 243.207 48.932C242.945 49.3987 242.815 49.9167 242.815 50.486C242.815 50.99 242.922 51.4427 243.137 51.844C243.351 52.236 243.645 52.5487 244.019 52.782C244.392 53.006 244.817 53.118 245.293 53.118ZM250.405 54L251.455 46.496H252.519L252.351 47.728L252.211 47.546C252.445 47.1913 252.753 46.9113 253.135 46.706C253.527 46.5007 253.98 46.398 254.493 46.398H254.969L254.815 47.448H254.157C253.616 47.448 253.159 47.6207 252.785 47.966C252.421 48.3113 252.188 48.8293 252.085 49.52L251.469 54H250.405ZM254.842 54L256.326 43.402H257.39L256.354 50.822L255.822 50.752L260.624 46.496H262.08L258.706 49.506L261.268 54H260.078L257.656 49.842L258.272 49.898L255.808 52.11L256.284 51.242L255.906 54H254.842ZM264.962 54.168C264.486 54.168 264.047 54.084 263.646 53.916C263.245 53.748 262.904 53.51 262.624 53.202C262.344 52.8847 262.143 52.5207 262.022 52.11L262.932 51.746C263.1 52.2033 263.371 52.5627 263.744 52.824C264.127 53.0853 264.565 53.216 265.06 53.216C265.536 53.216 265.928 53.0947 266.236 52.852C266.544 52.6 266.698 52.2873 266.698 51.914C266.698 51.662 266.605 51.452 266.418 51.284C266.241 51.1067 265.961 50.9667 265.578 50.864L264.528 50.57C263.949 50.4113 263.511 50.1687 263.212 49.842C262.913 49.506 262.764 49.1093 262.764 48.652C262.764 48.2227 262.885 47.8353 263.128 47.49C263.371 47.1353 263.697 46.8553 264.108 46.65C264.519 46.4353 264.971 46.328 265.466 46.328C266.129 46.328 266.703 46.5007 267.188 46.846C267.673 47.1913 267.991 47.6533 268.14 48.232L267.216 48.596C267.067 48.1667 266.838 47.84 266.53 47.616C266.222 47.392 265.849 47.28 265.41 47.28C264.953 47.28 264.579 47.3967 264.29 47.63C264.001 47.8633 263.856 48.1573 263.856 48.512C263.856 48.764 263.931 48.974 264.08 49.142C264.239 49.31 264.491 49.4453 264.836 49.548L266.04 49.912C266.6 50.08 267.029 50.332 267.328 50.668C267.636 51.004 267.79 51.4053 267.79 51.872C267.79 52.3013 267.664 52.6887 267.412 53.034C267.169 53.3793 266.833 53.6547 266.404 53.86C265.975 54.0653 265.494 54.168 264.962 54.168ZM272.826 54L271.314 46.496H272.434L273.652 53.062H273.232L276.186 46.496H277.236L278.328 53.062H277.894L280.946 46.496H282.164L278.524 54H277.474L276.438 47.574H276.774L273.876 54H272.826ZM285.637 54.168C284.965 54.168 284.368 54.014 283.845 53.706C283.323 53.3887 282.907 52.9547 282.599 52.404C282.301 51.8533 282.151 51.2233 282.151 50.514C282.151 49.9447 282.245 49.408 282.431 48.904C282.627 48.4 282.898 47.9567 283.243 47.574C283.598 47.182 284.009 46.8787 284.475 46.664C284.942 46.44 285.455 46.328 286.015 46.328C286.706 46.328 287.294 46.4867 287.779 46.804C288.265 47.1213 288.633 47.5367 288.885 48.05C289.137 48.554 289.263 49.0907 289.263 49.66C289.263 49.8093 289.249 49.9727 289.221 50.15C289.193 50.3273 289.17 50.4673 289.151 50.57H282.809L282.879 49.59H288.619L288.087 49.996C288.218 49.5013 288.199 49.0533 288.031 48.652C287.873 48.2413 287.611 47.9147 287.247 47.672C286.893 47.4293 286.477 47.308 286.001 47.308C285.404 47.308 284.9 47.4527 284.489 47.742C284.079 48.0313 283.766 48.4373 283.551 48.96C283.346 49.4733 283.243 50.0707 283.243 50.752C283.243 51.2467 283.355 51.6807 283.579 52.054C283.803 52.418 284.097 52.698 284.461 52.894C284.825 53.09 285.222 53.188 285.651 53.188C286.202 53.188 286.673 53.0573 287.065 52.796C287.467 52.5253 287.798 52.194 288.059 51.802L288.941 52.306C288.764 52.642 288.512 52.9547 288.185 53.244C287.859 53.524 287.476 53.748 287.037 53.916C286.608 54.084 286.141 54.168 285.637 54.168ZM290.288 54L291.772 43.402H292.836L291.352 54H290.288ZM293.248 54L294.732 43.402H295.796L294.312 54H293.248ZM298.307 54L299.357 46.496H300.421L299.371 54H298.307ZM299.553 45.11L299.763 43.57H300.827L300.617 45.11H299.553ZM301.267 54L302.317 46.496H303.367L303.171 47.952L302.933 47.868C303.176 47.3827 303.526 47.0047 303.983 46.734C304.45 46.4633 304.954 46.328 305.495 46.328C306.037 46.328 306.503 46.454 306.895 46.706C307.297 46.958 307.591 47.308 307.777 47.756C307.973 48.204 308.029 48.7173 307.945 49.296L307.287 54H306.237L306.881 49.366C306.965 48.7593 306.858 48.2787 306.559 47.924C306.261 47.56 305.831 47.378 305.271 47.378C304.879 47.378 304.515 47.4667 304.179 47.644C303.853 47.8213 303.577 48.0733 303.353 48.4C303.139 48.7267 302.999 49.114 302.933 49.562L302.317 54H301.267ZM313.491 54.168C313.081 54.168 312.693 54.0933 312.329 53.944C311.965 53.7947 311.667 53.5707 311.433 53.272C311.209 52.964 311.097 52.5813 311.097 52.124C311.097 51.704 311.2 51.326 311.405 50.99C311.62 50.654 311.923 50.374 312.315 50.15C312.707 49.926 313.179 49.772 313.729 49.688L316.739 49.198L316.641 50.15L313.925 50.598C313.393 50.6913 312.973 50.8687 312.665 51.13C312.367 51.382 312.217 51.6947 312.217 52.068C312.217 52.4133 312.343 52.6933 312.595 52.908C312.857 53.1133 313.202 53.216 313.631 53.216C314.098 53.216 314.527 53.104 314.919 52.88C315.311 52.656 315.638 52.3573 315.899 51.984C316.161 51.6013 316.319 51.1813 316.375 50.724L316.613 48.974C316.669 48.6007 316.623 48.2927 316.473 48.05C316.324 47.8073 316.114 47.63 315.843 47.518C315.582 47.3967 315.297 47.336 314.989 47.336C314.513 47.336 314.089 47.4573 313.715 47.7C313.351 47.9333 313.062 48.232 312.847 48.596L311.937 48.022C312.115 47.7047 312.357 47.42 312.665 47.168C312.983 46.9067 313.347 46.7013 313.757 46.552C314.168 46.4027 314.602 46.328 315.059 46.328C315.601 46.328 316.081 46.4447 316.501 46.678C316.921 46.902 317.239 47.2147 317.453 47.616C317.677 48.0173 317.752 48.484 317.677 49.016L316.977 54H315.913L316.123 52.502L316.305 52.684C316.137 52.9733 315.909 53.23 315.619 53.454C315.33 53.678 315.003 53.8553 314.639 53.986C314.275 54.1073 313.893 54.168 313.491 54.168ZM320.97 54L322.02 46.496H323.084L322.916 47.728L322.776 47.546C323.009 47.1913 323.317 46.9113 323.7 46.706C324.092 46.5007 324.544 46.398 325.058 46.398H325.534L325.38 47.448H324.722C324.18 47.448 323.723 47.6207 323.35 47.966C322.986 48.3113 322.752 48.8293 322.65 49.52L322.034 54H320.97ZM329.13 54.168C328.458 54.168 327.861 54.014 327.338 53.706C326.816 53.3887 326.4 52.9547 326.092 52.404C325.794 51.8533 325.644 51.2233 325.644 50.514C325.644 49.9447 325.738 49.408 325.924 48.904C326.12 48.4 326.391 47.9567 326.736 47.574C327.091 47.182 327.502 46.8787 327.968 46.664C328.435 46.44 328.948 46.328 329.508 46.328C330.199 46.328 330.787 46.4867 331.272 46.804C331.758 47.1213 332.126 47.5367 332.378 48.05C332.63 48.554 332.756 49.0907 332.756 49.66C332.756 49.8093 332.742 49.9727 332.714 50.15C332.686 50.3273 332.663 50.4673 332.644 50.57H326.302L326.372 49.59H332.112L331.58 49.996C331.711 49.5013 331.692 49.0533 331.524 48.652C331.366 48.2413 331.104 47.9147 330.74 47.672C330.386 47.4293 329.97 47.308 329.494 47.308C328.897 47.308 328.393 47.4527 327.982 47.742C327.572 48.0313 327.259 48.4373 327.044 48.96C326.839 49.4733 326.736 50.0707 326.736 50.752C326.736 51.2467 326.848 51.6807 327.072 52.054C327.296 52.418 327.59 52.698 327.954 52.894C328.318 53.09 328.715 53.188 329.144 53.188C329.695 53.188 330.166 53.0573 330.558 52.796C330.96 52.5253 331.291 52.194 331.552 51.802L332.434 52.306C332.257 52.642 332.005 52.9547 331.678 53.244C331.352 53.524 330.969 53.748 330.53 53.916C330.101 54.084 329.634 54.168 329.13 54.168ZM336.01 54.168C335.599 54.168 335.212 54.0933 334.848 53.944C334.484 53.7947 334.185 53.5707 333.952 53.272C333.728 52.964 333.616 52.5813 333.616 52.124C333.616 51.704 333.719 51.326 333.924 50.99C334.139 50.654 334.442 50.374 334.834 50.15C335.226 49.926 335.697 49.772 336.248 49.688L339.258 49.198L339.16 50.15L336.444 50.598C335.912 50.6913 335.492 50.8687 335.184 51.13C334.885 51.382 334.736 51.6947 334.736 52.068C334.736 52.4133 334.862 52.6933 335.114 52.908C335.375 53.1133 335.721 53.216 336.15 53.216C336.617 53.216 337.046 53.104 337.438 52.88C337.83 52.656 338.157 52.3573 338.418 51.984C338.679 51.6013 338.838 51.1813 338.894 50.724L339.132 48.974C339.188 48.6007 339.141 48.2927 338.992 48.05C338.843 47.8073 338.633 47.63 338.362 47.518C338.101 47.3967 337.816 47.336 337.508 47.336C337.032 47.336 336.607 47.4573 336.234 47.7C335.87 47.9333 335.581 48.232 335.366 48.596L334.456 48.022C334.633 47.7047 334.876 47.42 335.184 47.168C335.501 46.9067 335.865 46.7013 336.276 46.552C336.687 46.4027 337.121 46.328 337.578 46.328C338.119 46.328 338.6 46.4447 339.02 46.678C339.44 46.902 339.757 47.2147 339.972 47.616C340.196 48.0173 340.271 48.484 340.196 49.016L339.496 54H338.432L338.642 52.502L338.824 52.684C338.656 52.9733 338.427 53.23 338.138 53.454C337.849 53.678 337.522 53.8553 337.158 53.986C336.794 54.1073 336.411 54.168 336.01 54.168ZM341.39 54L342.874 43.402H343.938L342.454 54H341.39ZM350.159 54.168C349.487 54.168 348.889 54.014 348.367 53.706C347.844 53.3887 347.429 52.9547 347.121 52.404C346.822 51.8533 346.673 51.2233 346.673 50.514C346.673 49.9447 346.766 49.408 346.953 48.904C347.149 48.4 347.419 47.9567 347.765 47.574C348.119 47.182 348.53 46.8787 348.997 46.664C349.463 46.44 349.977 46.328 350.537 46.328C351.227 46.328 351.815 46.4867 352.301 46.804C352.786 47.1213 353.155 47.5367 353.407 48.05C353.659 48.554 353.785 49.0907 353.785 49.66C353.785 49.8093 353.771 49.9727 353.743 50.15C353.715 50.3273 353.691 50.4673 353.673 50.57H347.331L347.401 49.59H353.141L352.609 49.996C352.739 49.5013 352.721 49.0533 352.553 48.652C352.394 48.2413 352.133 47.9147 351.769 47.672C351.414 47.4293 350.999 47.308 350.523 47.308C349.925 47.308 349.421 47.4527 349.011 47.742C348.6 48.0313 348.287 48.4373 348.073 48.96C347.867 49.4733 347.765 50.0707 347.765 50.752C347.765 51.2467 347.877 51.6807 348.101 52.054C348.325 52.418 348.619 52.698 348.983 52.894C349.347 53.09 349.743 53.188 350.173 53.188C350.723 53.188 351.195 53.0573 351.587 52.796C351.988 52.5253 352.319 52.194 352.581 51.802L353.463 52.306C353.285 52.642 353.033 52.9547 352.707 53.244C352.38 53.524 351.997 53.748 351.559 53.916C351.129 54.084 350.663 54.168 350.159 54.168ZM354.809 54L355.859 46.496H356.909L356.713 47.952L356.475 47.868C356.718 47.3827 357.068 47.0047 357.525 46.734C357.992 46.4633 358.496 46.328 359.037 46.328C359.579 46.328 360.045 46.454 360.437 46.706C360.839 46.958 361.133 47.308 361.319 47.756C361.515 48.204 361.571 48.7173 361.487 49.296L360.829 54H359.779L360.423 49.366C360.507 48.7593 360.4 48.2787 360.101 47.924C359.803 47.56 359.373 47.378 358.813 47.378C358.421 47.378 358.057 47.4667 357.721 47.644C357.395 47.8213 357.119 48.0733 356.895 48.4C356.681 48.7267 356.541 49.114 356.475 49.562L355.859 54H354.809ZM364.42 54L362.558 46.496H363.678L365.218 53.076H364.854L368.256 46.496H369.488L365.47 54H364.42ZM369.384 54L370.434 46.496H371.498L370.448 54H369.384ZM370.63 45.11L370.84 43.57H371.904L371.694 45.11H370.63ZM372.344 54L373.394 46.496H374.458L374.29 47.728L374.15 47.546C374.384 47.1913 374.692 46.9113 375.074 46.706C375.466 46.5007 375.919 46.398 376.432 46.398H376.908L376.754 47.448H376.096C375.555 47.448 375.098 47.6207 374.724 47.966C374.36 48.3113 374.127 48.8293 374.024 49.52L373.408 54H372.344ZM380.631 54.168C379.959 54.168 379.347 54.014 378.797 53.706C378.255 53.3887 377.821 52.95 377.495 52.39C377.177 51.83 377.019 51.186 377.019 50.458C377.019 49.8887 377.121 49.3567 377.327 48.862C377.532 48.358 377.817 47.9193 378.181 47.546C378.554 47.1633 378.983 46.8647 379.469 46.65C379.963 46.4353 380.491 46.328 381.051 46.328C381.741 46.328 382.357 46.4867 382.899 46.804C383.449 47.112 383.883 47.5413 384.201 48.092C384.518 48.6427 384.677 49.2773 384.677 49.996C384.677 50.5653 384.569 51.102 384.355 51.606C384.149 52.11 383.86 52.558 383.487 52.95C383.113 53.3327 382.684 53.6313 382.199 53.846C381.713 54.0607 381.191 54.168 380.631 54.168ZM380.617 53.118C381.167 53.118 381.662 52.9733 382.101 52.684C382.549 52.3947 382.903 52.012 383.165 51.536C383.426 51.06 383.557 50.542 383.557 49.982C383.557 49.478 383.449 49.03 383.235 48.638C383.02 48.246 382.721 47.938 382.339 47.714C381.965 47.49 381.541 47.378 381.065 47.378C380.523 47.378 380.029 47.5227 379.581 47.812C379.142 48.092 378.792 48.4653 378.531 48.932C378.269 49.3987 378.139 49.9167 378.139 50.486C378.139 50.99 378.246 51.4427 378.461 51.844C378.675 52.236 378.969 52.5487 379.343 52.782C379.716 53.006 380.141 53.118 380.617 53.118ZM385.73 54L386.78 46.496H387.83L387.634 47.952L387.396 47.868C387.638 47.3827 387.988 47.0047 388.446 46.734C388.912 46.4633 389.416 46.328 389.958 46.328C390.499 46.328 390.966 46.454 391.358 46.706C391.759 46.958 392.053 47.308 392.24 47.756C392.436 48.204 392.492 48.7173 392.408 49.296L391.75 54H390.7L391.344 49.366C391.428 48.7593 391.32 48.2787 391.022 47.924C390.723 47.56 390.294 47.378 389.734 47.378C389.342 47.378 388.978 47.4667 388.642 47.644C388.315 47.8213 388.04 48.0733 387.816 48.4C387.601 48.7267 387.461 49.114 387.396 49.562L386.78 54H385.73ZM393.489 54L394.539 46.496H395.589L395.407 47.882L395.281 47.672C395.542 47.2427 395.883 46.9113 396.303 46.678C396.723 46.4447 397.171 46.328 397.647 46.328C398.235 46.328 398.739 46.4913 399.159 46.818C399.579 47.1447 399.849 47.5833 399.971 48.134L399.691 48.12C399.943 47.5227 400.321 47.0747 400.825 46.776C401.338 46.4773 401.87 46.328 402.421 46.328C402.943 46.328 403.401 46.454 403.793 46.706C404.185 46.958 404.479 47.308 404.675 47.756C404.88 48.204 404.941 48.7173 404.857 49.296L404.199 54H403.149L403.793 49.366C403.849 48.9553 403.816 48.6053 403.695 48.316C403.583 48.0173 403.401 47.7887 403.149 47.63C402.906 47.462 402.607 47.378 402.253 47.378C401.907 47.378 401.571 47.4573 401.245 47.616C400.927 47.7747 400.657 48.0033 400.433 48.302C400.209 48.6007 400.069 48.96 400.013 49.38L399.369 54H398.319L398.963 49.366C399.019 48.9553 398.986 48.6053 398.865 48.316C398.753 48.0173 398.571 47.7887 398.319 47.63C398.076 47.462 397.777 47.378 397.423 47.378C397.059 47.378 396.713 47.4667 396.387 47.644C396.069 47.8213 395.799 48.0733 395.575 48.4C395.36 48.7267 395.22 49.114 395.155 49.562L394.539 54H393.489ZM409.647 54.168C408.975 54.168 408.378 54.014 407.855 53.706C407.333 53.3887 406.917 52.9547 406.609 52.404C406.311 51.8533 406.161 51.2233 406.161 50.514C406.161 49.9447 406.255 49.408 406.441 48.904C406.637 48.4 406.908 47.9567 407.253 47.574C407.608 47.182 408.019 46.8787 408.485 46.664C408.952 46.44 409.465 46.328 410.025 46.328C410.716 46.328 411.304 46.4867 411.789 46.804C412.275 47.1213 412.643 47.5367 412.895 48.05C413.147 48.554 413.273 49.0907 413.273 49.66C413.273 49.8093 413.259 49.9727 413.231 50.15C413.203 50.3273 413.18 50.4673 413.161 50.57H406.819L406.889 49.59H412.629L412.097 49.996C412.228 49.5013 412.209 49.0533 412.041 48.652C411.883 48.2413 411.621 47.9147 411.257 47.672C410.903 47.4293 410.487 47.308 410.011 47.308C409.414 47.308 408.91 47.4527 408.499 47.742C408.089 48.0313 407.776 48.4373 407.561 48.96C407.356 49.4733 407.253 50.0707 407.253 50.752C407.253 51.2467 407.365 51.6807 407.589 52.054C407.813 52.418 408.107 52.698 408.471 52.894C408.835 53.09 409.232 53.188 409.661 53.188C410.212 53.188 410.683 53.0573 411.075 52.796C411.477 52.5253 411.808 52.194 412.069 51.802L412.951 52.306C412.774 52.642 412.522 52.9547 412.195 53.244C411.869 53.524 411.486 53.748 411.047 53.916C410.618 54.084 410.151 54.168 409.647 54.168ZM414.298 54L415.348 46.496H416.398L416.202 47.952L415.964 47.868C416.206 47.3827 416.556 47.0047 417.014 46.734C417.48 46.4633 417.984 46.328 418.526 46.328C419.067 46.328 419.534 46.454 419.926 46.706C420.327 46.958 420.621 47.308 420.808 47.756C421.004 48.204 421.06 48.7173 420.976 49.296L420.318 54H419.268L419.912 49.366C419.996 48.7593 419.888 48.2787 419.59 47.924C419.291 47.56 418.862 47.378 418.302 47.378C417.91 47.378 417.546 47.4667 417.21 47.644C416.883 47.8213 416.608 48.0733 416.384 48.4C416.169 48.7267 416.029 49.114 415.964 49.562L415.348 54H414.298ZM424.969 54.084C424.288 54.084 423.788 53.8833 423.471 53.482C423.154 53.0807 423.042 52.516 423.135 51.788L423.723 47.546H422.337L422.491 46.496H422.813C423.13 46.496 423.401 46.3887 423.625 46.174C423.858 45.95 423.994 45.6793 424.031 45.362L424.115 44.76H425.179L424.941 46.496H426.579L426.425 47.546H424.787L424.185 51.844C424.148 52.096 424.148 52.32 424.185 52.516C424.232 52.7027 424.334 52.8473 424.493 52.95C424.652 53.0527 424.88 53.104 425.179 53.104C425.272 53.104 425.37 53.0993 425.473 53.09C425.576 53.0807 425.664 53.0713 425.739 53.062L425.655 54.028C425.543 54.056 425.417 54.07 425.277 54.07C425.146 54.0793 425.044 54.084 424.969 54.084ZM216.18 76L214.668 68.496H215.788L217.006 75.062H216.586L219.54 68.496H220.59L221.682 75.062H221.248L224.3 68.496H225.518L221.878 76H220.828L219.792 69.574H220.128L217.23 76H216.18ZM225.419 76L226.469 68.496H227.533L226.483 76H225.419ZM226.665 67.11L226.875 65.57H227.939L227.729 67.11H226.665ZM231.291 76.084C230.61 76.084 230.11 75.8833 229.793 75.482C229.476 75.0807 229.364 74.516 229.457 73.788L230.045 69.546H228.659L228.813 68.496H229.135C229.452 68.496 229.723 68.3887 229.947 68.174C230.18 67.95 230.316 67.6793 230.353 67.362L230.437 66.76H231.501L231.263 68.496H232.901L232.747 69.546H231.109L230.507 73.844C230.47 74.096 230.47 74.32 230.507 74.516C230.554 74.7027 230.656 74.8473 230.815 74.95C230.974 75.0527 231.202 75.104 231.501 75.104C231.594 75.104 231.692 75.0993 231.795 75.09C231.898 75.0807 231.986 75.0713 232.061 75.062L231.977 76.028C231.865 76.056 231.739 76.07 231.599 76.07C231.468 76.0793 231.366 76.084 231.291 76.084ZM233.554 76L235.038 65.402H236.088L235.458 69.952L235.22 69.868C235.463 69.3827 235.813 69.0047 236.27 68.734C236.737 68.4633 237.241 68.328 237.782 68.328C238.323 68.328 238.79 68.454 239.182 68.706C239.583 68.958 239.877 69.308 240.064 69.756C240.26 70.204 240.316 70.7173 240.232 71.296L239.574 76H238.51L239.154 71.366C239.238 70.7593 239.131 70.2787 238.832 69.924C238.533 69.56 238.109 69.378 237.558 69.378C237.175 69.378 236.816 69.4667 236.48 69.644C236.153 69.8213 235.878 70.0733 235.654 70.4C235.439 70.7267 235.299 71.114 235.234 71.562L234.618 76H233.554ZM245.778 76.168C245.367 76.168 244.98 76.0933 244.616 75.944C244.252 75.7947 243.953 75.5707 243.72 75.272C243.496 74.964 243.384 74.5813 243.384 74.124C243.384 73.704 243.487 73.326 243.692 72.99C243.907 72.654 244.21 72.374 244.602 72.15C244.994 71.926 245.465 71.772 246.016 71.688L249.026 71.198L248.928 72.15L246.212 72.598C245.68 72.6913 245.26 72.8687 244.952 73.13C244.653 73.382 244.504 73.6947 244.504 74.068C244.504 74.4133 244.63 74.6933 244.882 74.908C245.143 75.1133 245.489 75.216 245.918 75.216C246.385 75.216 246.814 75.104 247.206 74.88C247.598 74.656 247.925 74.3573 248.186 73.984C248.447 73.6013 248.606 73.1813 248.662 72.724L248.9 70.974C248.956 70.6007 248.909 70.2927 248.76 70.05C248.611 69.8073 248.401 69.63 248.13 69.518C247.869 69.3967 247.584 69.336 247.276 69.336C246.8 69.336 246.375 69.4573 246.002 69.7C245.638 69.9333 245.349 70.232 245.134 70.596L244.224 70.022C244.401 69.7047 244.644 69.42 244.952 69.168C245.269 68.9067 245.633 68.7013 246.044 68.552C246.455 68.4027 246.889 68.328 247.346 68.328C247.887 68.328 248.368 68.4447 248.788 68.678C249.208 68.902 249.525 69.2147 249.74 69.616C249.964 70.0173 250.039 70.484 249.964 71.016L249.264 76H248.2L248.41 74.502L248.592 74.684C248.424 74.9733 248.195 75.23 247.906 75.454C247.617 75.678 247.29 75.8553 246.926 75.986C246.562 76.1073 246.179 76.168 245.778 76.168ZM251.157 76L252.641 65.402H253.705L252.221 76H251.157ZM254.118 76L255.602 65.402H256.666L255.182 76H254.118ZM259.177 76L260.227 68.496H261.291L260.241 76H259.177ZM260.423 67.11L260.633 65.57H261.697L261.487 67.11H260.423ZM265.049 76.084C264.368 76.084 263.868 75.8833 263.551 75.482C263.234 75.0807 263.122 74.516 263.215 73.788L263.803 69.546H262.417L262.571 68.496H262.893C263.21 68.496 263.481 68.3887 263.705 68.174C263.938 67.95 264.074 67.6793 264.111 67.362L264.195 66.76H265.259L265.021 68.496H266.659L266.505 69.546H264.867L264.265 73.844C264.228 74.096 264.228 74.32 264.265 74.516C264.312 74.7027 264.414 74.8473 264.573 74.95C264.732 75.0527 264.96 75.104 265.259 75.104C265.352 75.104 265.45 75.0993 265.553 75.09C265.656 75.0807 265.744 75.0713 265.819 75.062L265.735 76.028C265.623 76.056 265.497 76.07 265.357 76.07C265.226 76.0793 265.124 76.084 265.049 76.084ZM270.042 76.168C269.566 76.168 269.127 76.084 268.726 75.916C268.325 75.748 267.984 75.51 267.704 75.202C267.424 74.8847 267.223 74.5207 267.102 74.11L268.012 73.746C268.18 74.2033 268.451 74.5627 268.824 74.824C269.207 75.0853 269.645 75.216 270.14 75.216C270.616 75.216 271.008 75.0947 271.316 74.852C271.624 74.6 271.778 74.2873 271.778 73.914C271.778 73.662 271.685 73.452 271.498 73.284C271.321 73.1067 271.041 72.9667 270.658 72.864L269.608 72.57C269.029 72.4113 268.591 72.1687 268.292 71.842C267.993 71.506 267.844 71.1093 267.844 70.652C267.844 70.2227 267.965 69.8353 268.208 69.49C268.451 69.1353 268.777 68.8553 269.188 68.65C269.599 68.4353 270.051 68.328 270.546 68.328C271.209 68.328 271.783 68.5007 272.268 68.846C272.753 69.1913 273.071 69.6533 273.22 70.232L272.296 70.596C272.147 70.1667 271.918 69.84 271.61 69.616C271.302 69.392 270.929 69.28 270.49 69.28C270.033 69.28 269.659 69.3967 269.37 69.63C269.081 69.8633 268.936 70.1573 268.936 70.512C268.936 70.764 269.011 70.974 269.16 71.142C269.319 71.31 269.571 71.4453 269.916 71.548L271.12 71.912C271.68 72.08 272.109 72.332 272.408 72.668C272.716 73.004 272.87 73.4053 272.87 73.872C272.87 74.3013 272.744 74.6887 272.492 75.034C272.249 75.3793 271.913 75.6547 271.484 75.86C271.055 76.0653 270.574 76.168 270.042 76.168ZM275.876 78.8L277.318 68.496H278.382L278.144 70.176L277.794 69.868C278.12 69.392 278.54 69.0187 279.054 68.748C279.576 68.468 280.155 68.328 280.79 68.328C281.49 68.328 282.101 68.4913 282.624 68.818C283.146 69.1353 283.548 69.5693 283.828 70.12C284.117 70.6613 284.262 71.2727 284.262 71.954C284.262 72.5233 284.164 73.0647 283.968 73.578C283.772 74.082 283.492 74.53 283.128 74.922C282.773 75.314 282.353 75.622 281.868 75.846C281.392 76.0607 280.869 76.168 280.3 76.168C279.646 76.168 279.049 76.0187 278.508 75.72C277.976 75.412 277.588 74.992 277.346 74.46L277.556 74.32L276.94 78.8H275.876ZM280.272 75.118C280.822 75.118 281.312 74.9733 281.742 74.684C282.171 74.3947 282.512 74.012 282.764 73.536C283.016 73.06 283.142 72.542 283.142 71.982C283.142 71.478 283.034 71.03 282.82 70.638C282.614 70.246 282.325 69.938 281.952 69.714C281.588 69.49 281.158 69.378 280.664 69.378C280.113 69.378 279.618 69.5227 279.18 69.812C278.75 70.092 278.414 70.4653 278.172 70.932C277.929 71.3987 277.808 71.9073 277.808 72.458C277.808 72.9713 277.915 73.4287 278.13 73.83C278.344 74.2313 278.634 74.5487 278.998 74.782C279.371 75.006 279.796 75.118 280.272 75.118ZM287.678 76.168C287.267 76.168 286.88 76.0933 286.516 75.944C286.152 75.7947 285.853 75.5707 285.62 75.272C285.396 74.964 285.284 74.5813 285.284 74.124C285.284 73.704 285.387 73.326 285.592 72.99C285.807 72.654 286.11 72.374 286.502 72.15C286.894 71.926 287.365 71.772 287.916 71.688L290.926 71.198L290.828 72.15L288.112 72.598C287.58 72.6913 287.16 72.8687 286.852 73.13C286.553 73.382 286.404 73.6947 286.404 74.068C286.404 74.4133 286.53 74.6933 286.782 74.908C287.043 75.1133 287.389 75.216 287.818 75.216C288.285 75.216 288.714 75.104 289.106 74.88C289.498 74.656 289.825 74.3573 290.086 73.984C290.347 73.6013 290.506 73.1813 290.562 72.724L290.8 70.974C290.856 70.6007 290.809 70.2927 290.66 70.05C290.511 69.8073 290.301 69.63 290.03 69.518C289.769 69.3967 289.484 69.336 289.176 69.336C288.7 69.336 288.275 69.4573 287.902 69.7C287.538 69.9333 287.249 70.232 287.034 70.596L286.124 70.022C286.301 69.7047 286.544 69.42 286.852 69.168C287.169 68.9067 287.533 68.7013 287.944 68.552C288.355 68.4027 288.789 68.328 289.246 68.328C289.787 68.328 290.268 68.4447 290.688 68.678C291.108 68.902 291.425 69.2147 291.64 69.616C291.864 70.0173 291.939 70.484 291.864 71.016L291.164 76H290.1L290.31 74.502L290.492 74.684C290.324 74.9733 290.095 75.23 289.806 75.454C289.517 75.678 289.19 75.8553 288.826 75.986C288.462 76.1073 288.079 76.168 287.678 76.168ZM293.057 76L294.107 68.496H295.171L295.003 69.728L294.863 69.546C295.097 69.1913 295.405 68.9113 295.787 68.706C296.179 68.5007 296.632 68.398 297.145 68.398H297.621L297.467 69.448H296.809C296.268 69.448 295.811 69.6207 295.437 69.966C295.073 70.3113 294.84 70.8293 294.737 71.52L294.121 76H293.057ZM300.42 76.084C299.738 76.084 299.239 75.8833 298.922 75.482C298.604 75.0807 298.492 74.516 298.586 73.788L299.174 69.546H297.788L297.942 68.496H298.264C298.581 68.496 298.852 68.3887 299.076 68.174C299.309 67.95 299.444 67.6793 299.482 67.362L299.566 66.76H300.63L300.392 68.496H302.03L301.876 69.546H300.238L299.636 73.844C299.598 74.096 299.598 74.32 299.636 74.516C299.682 74.7027 299.785 74.8473 299.944 74.95C300.102 75.0527 300.331 75.104 300.63 75.104C300.723 75.104 300.821 75.0993 300.924 75.09C301.026 75.0807 301.115 75.0713 301.19 75.062L301.106 76.028C300.994 76.056 300.868 76.07 300.728 76.07C300.597 76.0793 300.494 76.084 300.42 76.084ZM305.413 76.168C304.937 76.168 304.498 76.084 304.097 75.916C303.695 75.748 303.355 75.51 303.075 75.202C302.795 74.8847 302.594 74.5207 302.473 74.11L303.383 73.746C303.551 74.2033 303.821 74.5627 304.195 74.824C304.577 75.0853 305.016 75.216 305.511 75.216C305.987 75.216 306.379 75.0947 306.687 74.852C306.995 74.6 307.149 74.2873 307.149 73.914C307.149 73.662 307.055 73.452 306.869 73.284C306.691 73.1067 306.411 72.9667 306.029 72.864L304.979 72.57C304.4 72.4113 303.961 72.1687 303.663 71.842C303.364 71.506 303.215 71.1093 303.215 70.652C303.215 70.2227 303.336 69.8353 303.579 69.49C303.821 69.1353 304.148 68.8553 304.559 68.65C304.969 68.4353 305.422 68.328 305.917 68.328C306.579 68.328 307.153 68.5007 307.639 68.846C308.124 69.1913 308.441 69.6533 308.591 70.232L307.667 70.596C307.517 70.1667 307.289 69.84 306.981 69.616C306.673 69.392 306.299 69.28 305.861 69.28C305.403 69.28 305.03 69.3967 304.741 69.63C304.451 69.8633 304.307 70.1573 304.307 70.512C304.307 70.764 304.381 70.974 304.531 71.142C304.689 71.31 304.941 71.4453 305.287 71.548L306.491 71.912C307.051 72.08 307.48 72.332 307.779 72.668C308.087 73.004 308.241 73.4053 308.241 73.872C308.241 74.3013 308.115 74.6887 307.863 75.034C307.62 75.3793 307.284 75.6547 306.855 75.86C306.425 76.0653 305.945 76.168 305.413 76.168ZM309.89 76L310.114 74.46H311.234L311.01 76H309.89ZM315.701 68.79L315.771 68.3C316.061 68.2253 316.28 68.09 316.429 67.894C316.579 67.6887 316.686 67.4273 316.751 67.11H316.219L316.429 65.57H317.549L317.381 66.746C317.316 67.2873 317.139 67.7353 316.849 68.09C316.56 68.4447 316.177 68.678 315.701 68.79ZM313.601 68.79L313.671 68.3C313.961 68.2253 314.18 68.09 314.329 67.894C314.479 67.6887 314.586 67.4273 314.651 67.11H314.119L314.329 65.57H315.449L315.281 66.746C315.216 67.2873 315.039 67.7353 314.749 68.09C314.46 68.4447 314.077 68.678 313.601 68.79Z" fill="#1A202C"/>
<path opacity="0.6" d="M773.978 256.622L774.146 255.446C774.221 254.905 774.398 254.457 774.678 254.102C774.968 253.747 775.35 253.514 775.826 253.402L775.756 253.892C775.467 253.967 775.248 254.107 775.098 254.312C774.949 254.508 774.842 254.765 774.776 255.082H775.308L775.098 256.622H773.978ZM771.878 256.622L772.046 255.446C772.121 254.905 772.298 254.457 772.578 254.102C772.868 253.747 773.25 253.514 773.726 253.402L773.656 253.892C773.367 253.967 773.148 254.107 772.998 254.312C772.849 254.508 772.742 254.765 772.676 255.082H773.208L772.998 256.622H771.878ZM779.213 264L777.673 253.57H778.779L780.067 262.908H779.801L783.819 253.57H784.981L786.325 262.908H786.031L789.979 253.57H791.141L786.689 264H785.499L784.141 254.62H784.421L780.403 264H779.213ZM794.079 264.168C793.407 264.168 792.81 264.014 792.287 263.706C791.764 263.389 791.349 262.955 791.041 262.404C790.742 261.853 790.593 261.223 790.593 260.514C790.593 259.945 790.686 259.408 790.873 258.904C791.069 258.4 791.34 257.957 791.685 257.574C792.04 257.182 792.45 256.879 792.917 256.664C793.384 256.44 793.897 256.328 794.457 256.328C795.148 256.328 795.736 256.487 796.221 256.804C796.706 257.121 797.075 257.537 797.327 258.05C797.579 258.554 797.705 259.091 797.705 259.66C797.705 259.809 797.691 259.973 797.663 260.15C797.635 260.327 797.612 260.467 797.593 260.57H791.251L791.321 259.59H797.061L796.529 259.996C796.66 259.501 796.641 259.053 796.473 258.652C796.314 258.241 796.053 257.915 795.689 257.672C795.334 257.429 794.919 257.308 794.443 257.308C793.846 257.308 793.342 257.453 792.931 257.742C792.52 258.031 792.208 258.437 791.993 258.96C791.788 259.473 791.685 260.071 791.685 260.752C791.685 261.247 791.797 261.681 792.021 262.054C792.245 262.418 792.539 262.698 792.903 262.894C793.267 263.09 793.664 263.188 794.093 263.188C794.644 263.188 795.115 263.057 795.507 262.796C795.908 262.525 796.24 262.194 796.501 261.802L797.383 262.306C797.206 262.642 796.954 262.955 796.627 263.244C796.3 263.524 795.918 263.748 795.479 263.916C795.05 264.084 794.583 264.168 794.079 264.168ZM799.78 256.79L799.85 256.3C800.139 256.225 800.358 256.09 800.508 255.894C800.657 255.689 800.764 255.427 800.83 255.11H800.298L800.508 253.57H801.628L801.46 254.746C801.394 255.287 801.217 255.735 800.928 256.09C800.638 256.445 800.256 256.678 799.78 256.79ZM804.211 264L802.349 256.496H803.469L805.009 263.076H804.645L808.047 256.496H809.279L805.261 264H804.211ZM812.749 264.168C812.077 264.168 811.48 264.014 810.957 263.706C810.434 263.389 810.019 262.955 809.711 262.404C809.412 261.853 809.263 261.223 809.263 260.514C809.263 259.945 809.356 259.408 809.543 258.904C809.739 258.4 810.01 257.957 810.355 257.574C810.71 257.182 811.12 256.879 811.587 256.664C812.054 256.44 812.567 256.328 813.127 256.328C813.818 256.328 814.406 256.487 814.891 256.804C815.376 257.121 815.745 257.537 815.997 258.05C816.249 258.554 816.375 259.091 816.375 259.66C816.375 259.809 816.361 259.973 816.333 260.15C816.305 260.327 816.282 260.467 816.263 260.57H809.921L809.991 259.59H815.731L815.199 259.996C815.33 259.501 815.311 259.053 815.143 258.652C814.984 258.241 814.723 257.915 814.359 257.672C814.004 257.429 813.589 257.308 813.113 257.308C812.516 257.308 812.012 257.453 811.601 257.742C811.19 258.031 810.878 258.437 810.663 258.96C810.458 259.473 810.355 260.071 810.355 260.752C810.355 261.247 810.467 261.681 810.691 262.054C810.915 262.418 811.209 262.698 811.573 262.894C811.937 263.09 812.334 263.188 812.763 263.188C813.314 263.188 813.785 263.057 814.177 262.796C814.578 262.525 814.91 262.194 815.171 261.802L816.053 262.306C815.876 262.642 815.624 262.955 815.297 263.244C814.97 263.524 814.588 263.748 814.149 263.916C813.72 264.084 813.253 264.168 812.749 264.168ZM823.53 264.168C822.877 264.168 822.28 264.019 821.738 263.72C821.206 263.412 820.819 262.992 820.576 262.46L820.786 262.32L820.562 264H819.498L820.982 253.402H822.046L821.374 258.176L821.024 257.868C821.351 257.392 821.771 257.019 822.284 256.748C822.807 256.468 823.386 256.328 824.02 256.328C824.72 256.328 825.332 256.491 825.854 256.818C826.377 257.135 826.778 257.569 827.058 258.12C827.348 258.661 827.492 259.273 827.492 259.954C827.492 260.523 827.394 261.065 827.198 261.578C827.002 262.082 826.722 262.53 826.358 262.922C826.004 263.314 825.584 263.622 825.098 263.846C824.622 264.061 824.1 264.168 823.53 264.168ZM823.502 263.118C824.053 263.118 824.543 262.973 824.972 262.684C825.402 262.395 825.742 262.012 825.994 261.536C826.246 261.06 826.372 260.542 826.372 259.982C826.372 259.478 826.265 259.03 826.05 258.638C825.845 258.246 825.556 257.938 825.182 257.714C824.818 257.49 824.389 257.378 823.894 257.378C823.344 257.378 822.849 257.523 822.41 257.812C821.981 258.092 821.645 258.465 821.402 258.932C821.16 259.399 821.038 259.907 821.038 260.458C821.038 260.971 821.146 261.429 821.36 261.83C821.575 262.231 821.864 262.549 822.228 262.782C822.602 263.006 823.026 263.118 823.502 263.118ZM831.231 264.168C830.699 264.168 830.232 264.042 829.831 263.79C829.429 263.529 829.135 263.165 828.949 262.698C828.762 262.231 828.711 261.685 828.795 261.06L829.439 256.496H830.489L829.831 261.13C829.775 261.531 829.807 261.881 829.929 262.18C830.05 262.479 830.241 262.712 830.503 262.88C830.764 263.039 831.081 263.118 831.455 263.118C831.847 263.118 832.206 263.029 832.533 262.852C832.859 262.675 833.13 262.423 833.345 262.096C833.569 261.769 833.713 261.382 833.779 260.934L834.409 256.496H835.459L834.409 264H833.359L833.555 262.544L833.793 262.628C833.541 263.113 833.186 263.491 832.729 263.762C832.281 264.033 831.781 264.168 831.231 264.168ZM836.302 264L837.352 256.496H838.416L837.366 264H836.302ZM837.548 255.11L837.758 253.57H838.822L838.612 255.11H837.548ZM839.262 264L840.746 253.402H841.81L840.326 264H839.262ZM845.134 264.084C844.453 264.084 843.954 263.883 843.636 263.482C843.319 263.081 843.207 262.516 843.3 261.788L843.888 257.546H842.502L842.656 256.496H842.978C843.296 256.496 843.566 256.389 843.79 256.174C844.024 255.95 844.159 255.679 844.196 255.362L844.28 254.76H845.344L845.106 256.496H846.744L846.59 257.546H844.952L844.35 261.844C844.313 262.096 844.313 262.32 844.35 262.516C844.397 262.703 844.5 262.847 844.658 262.95C844.817 263.053 845.046 263.104 845.344 263.104C845.438 263.104 845.536 263.099 845.638 263.09C845.741 263.081 845.83 263.071 845.904 263.062L845.82 264.028C845.708 264.056 845.582 264.07 845.442 264.07C845.312 264.079 845.209 264.084 845.134 264.084ZM852.408 264.084C851.727 264.084 851.228 263.883 850.91 263.482C850.593 263.081 850.481 262.516 850.574 261.788L851.162 257.546H849.776L849.93 256.496H850.252C850.57 256.496 850.84 256.389 851.064 256.174C851.298 255.95 851.433 255.679 851.47 255.362L851.554 254.76H852.618L852.38 256.496H854.018L853.864 257.546H852.226L851.624 261.844C851.587 262.096 851.587 262.32 851.624 262.516C851.671 262.703 851.774 262.847 851.932 262.95C852.091 263.053 852.32 263.104 852.618 263.104C852.712 263.104 852.81 263.099 852.912 263.09C853.015 263.081 853.104 263.071 853.178 263.062L853.094 264.028C852.982 264.056 852.856 264.07 852.716 264.07C852.586 264.079 852.483 264.084 852.408 264.084ZM854.671 264L856.155 253.402H857.205L856.575 257.952L856.337 257.868C856.58 257.383 856.93 257.005 857.387 256.734C857.854 256.463 858.358 256.328 858.899 256.328C859.441 256.328 859.907 256.454 860.299 256.706C860.701 256.958 860.995 257.308 861.181 257.756C861.377 258.204 861.433 258.717 861.349 259.296L860.691 264H859.627L860.271 259.366C860.355 258.759 860.248 258.279 859.949 257.924C859.651 257.56 859.226 257.378 858.675 257.378C858.293 257.378 857.933 257.467 857.597 257.644C857.271 257.821 856.995 258.073 856.771 258.4C856.557 258.727 856.417 259.114 856.351 259.562L855.735 264H854.671ZM866.14 264.168C865.468 264.168 864.871 264.014 864.348 263.706C863.826 263.389 863.41 262.955 863.102 262.404C862.804 261.853 862.654 261.223 862.654 260.514C862.654 259.945 862.748 259.408 862.934 258.904C863.13 258.4 863.401 257.957 863.746 257.574C864.101 257.182 864.512 256.879 864.978 256.664C865.445 256.44 865.958 256.328 866.518 256.328C867.209 256.328 867.797 256.487 868.282 256.804C868.768 257.121 869.136 257.537 869.388 258.05C869.64 258.554 869.766 259.091 869.766 259.66C869.766 259.809 869.752 259.973 869.724 260.15C869.696 260.327 869.673 260.467 869.654 260.57H863.312L863.382 259.59H869.122L868.59 259.996C868.721 259.501 868.702 259.053 868.534 258.652C868.376 258.241 868.114 257.915 867.75 257.672C867.396 257.429 866.98 257.308 866.504 257.308C865.907 257.308 865.403 257.453 864.992 257.742C864.582 258.031 864.269 258.437 864.054 258.96C863.849 259.473 863.746 260.071 863.746 260.752C863.746 261.247 863.858 261.681 864.082 262.054C864.306 262.418 864.6 262.698 864.964 262.894C865.328 263.09 865.725 263.188 866.154 263.188C866.705 263.188 867.176 263.057 867.568 262.796C867.97 262.525 868.301 262.194 868.562 261.802L869.444 262.306C869.267 262.642 869.015 262.955 868.688 263.244C868.362 263.524 867.979 263.748 867.54 263.916C867.111 264.084 866.644 264.168 866.14 264.168ZM873.646 264L874.542 257.546H873.058L873.212 256.496H874.696L874.78 255.936C874.864 255.367 875.046 254.895 875.326 254.522C875.606 254.149 875.937 253.869 876.32 253.682C876.712 253.495 877.109 253.402 877.51 253.402C877.641 253.402 877.767 253.411 877.888 253.43C878.019 253.439 878.131 253.453 878.224 253.472L878.154 254.424C878.089 254.405 878 254.396 877.888 254.396C877.785 254.387 877.715 254.382 877.678 254.382C877.221 254.382 876.819 254.499 876.474 254.732C876.129 254.965 875.914 255.385 875.83 255.992L875.76 256.496H879.974L879.82 257.546H875.606L874.71 264H873.646ZM878.042 264L879.092 256.496H880.156L879.106 264H878.042ZM880.786 264L881.836 256.496H882.886L882.69 257.952L882.452 257.868C882.694 257.383 883.044 257.005 883.502 256.734C883.968 256.463 884.472 256.328 885.014 256.328C885.555 256.328 886.022 256.454 886.414 256.706C886.815 256.958 887.109 257.308 887.296 257.756C887.492 258.204 887.548 258.717 887.464 259.296L886.806 264H885.756L886.4 259.366C886.484 258.759 886.376 258.279 886.078 257.924C885.779 257.56 885.35 257.378 884.79 257.378C884.398 257.378 884.034 257.467 883.698 257.644C883.371 257.821 883.096 258.073 882.872 258.4C882.657 258.727 882.517 259.114 882.452 259.562L881.836 264H880.786ZM890.911 264.168C890.5 264.168 890.113 264.093 889.749 263.944C889.385 263.795 889.086 263.571 888.853 263.272C888.629 262.964 888.517 262.581 888.517 262.124C888.517 261.704 888.619 261.326 888.825 260.99C889.039 260.654 889.343 260.374 889.735 260.15C890.127 259.926 890.598 259.772 891.149 259.688L894.159 259.198L894.061 260.15L891.345 260.598C890.813 260.691 890.393 260.869 890.085 261.13C889.786 261.382 889.637 261.695 889.637 262.068C889.637 262.413 889.763 262.693 890.015 262.908C890.276 263.113 890.621 263.216 891.051 263.216C891.517 263.216 891.947 263.104 892.339 262.88C892.731 262.656 893.057 262.357 893.319 261.984C893.58 261.601 893.739 261.181 893.795 260.724L894.033 258.974C894.089 258.601 894.042 258.293 893.893 258.05C893.743 257.807 893.533 257.63 893.263 257.518C893.001 257.397 892.717 257.336 892.409 257.336C891.933 257.336 891.508 257.457 891.135 257.7C890.771 257.933 890.481 258.232 890.267 258.596L889.357 258.022C889.534 257.705 889.777 257.42 890.085 257.168C890.402 256.907 890.766 256.701 891.177 256.552C891.587 256.403 892.021 256.328 892.479 256.328C893.02 256.328 893.501 256.445 893.921 256.678C894.341 256.902 894.658 257.215 894.873 257.616C895.097 258.017 895.171 258.484 895.097 259.016L894.397 264H893.333L893.543 262.502L893.725 262.684C893.557 262.973 893.328 263.23 893.039 263.454C892.749 263.678 892.423 263.855 892.059 263.986C891.695 264.107 891.312 264.168 890.911 264.168ZM896.29 264L897.774 253.402H898.838L897.354 264H896.29ZM900.957 266.8L902.399 256.496H903.463L903.225 258.176L902.875 257.868C903.202 257.392 903.622 257.019 904.135 256.748C904.658 256.468 905.237 256.328 905.871 256.328C906.571 256.328 907.183 256.491 907.705 256.818C908.228 257.135 908.629 257.569 908.909 258.12C909.199 258.661 909.343 259.273 909.343 259.954C909.343 260.523 909.245 261.065 909.049 261.578C908.853 262.082 908.573 262.53 908.209 262.922C907.855 263.314 907.435 263.622 906.949 263.846C906.473 264.061 905.951 264.168 905.381 264.168C904.728 264.168 904.131 264.019 903.589 263.72C903.057 263.412 902.67 262.992 902.427 262.46L902.637 262.32L902.021 266.8H900.957ZM905.353 263.118C905.904 263.118 906.394 262.973 906.823 262.684C907.253 262.395 907.593 262.012 907.845 261.536C908.097 261.06 908.223 260.542 908.223 259.982C908.223 259.478 908.116 259.03 907.901 258.638C907.696 258.246 907.407 257.938 907.033 257.714C906.669 257.49 906.24 257.378 905.745 257.378C905.195 257.378 904.7 257.523 904.261 257.812C903.832 258.092 903.496 258.465 903.253 258.932C903.011 259.399 902.889 259.907 902.889 260.458C902.889 260.971 902.997 261.429 903.211 261.83C903.426 262.231 903.715 262.549 904.079 262.782C904.453 263.006 904.877 263.118 905.353 263.118ZM910.393 264L911.443 256.496H912.507L912.339 257.728L912.199 257.546C912.433 257.191 912.741 256.911 913.123 256.706C913.515 256.501 913.968 256.398 914.481 256.398H914.957L914.803 257.448H914.145C913.604 257.448 913.147 257.621 912.773 257.966C912.409 258.311 912.176 258.829 912.073 259.52L911.457 264H910.393ZM918.68 264.168C918.008 264.168 917.397 264.014 916.846 263.706C916.305 263.389 915.871 262.95 915.544 262.39C915.227 261.83 915.068 261.186 915.068 260.458C915.068 259.889 915.171 259.357 915.376 258.862C915.581 258.358 915.866 257.919 916.23 257.546C916.603 257.163 917.033 256.865 917.518 256.65C918.013 256.435 918.54 256.328 919.1 256.328C919.791 256.328 920.407 256.487 920.948 256.804C921.499 257.112 921.933 257.541 922.25 258.092C922.567 258.643 922.726 259.277 922.726 259.996C922.726 260.565 922.619 261.102 922.404 261.606C922.199 262.11 921.909 262.558 921.536 262.95C921.163 263.333 920.733 263.631 920.248 263.846C919.763 264.061 919.24 264.168 918.68 264.168ZM918.666 263.118C919.217 263.118 919.711 262.973 920.15 262.684C920.598 262.395 920.953 262.012 921.214 261.536C921.475 261.06 921.606 260.542 921.606 259.982C921.606 259.478 921.499 259.03 921.284 258.638C921.069 258.246 920.771 257.938 920.388 257.714C920.015 257.49 919.59 257.378 919.114 257.378C918.573 257.378 918.078 257.523 917.63 257.812C917.191 258.092 916.841 258.465 916.58 258.932C916.319 259.399 916.188 259.917 916.188 260.486C916.188 260.99 916.295 261.443 916.51 261.844C916.725 262.236 917.019 262.549 917.392 262.782C917.765 263.006 918.19 263.118 918.666 263.118ZM927.447 264.168C926.775 264.168 926.177 264.014 925.655 263.706C925.132 263.389 924.721 262.959 924.423 262.418C924.133 261.867 923.989 261.242 923.989 260.542C923.989 259.963 924.087 259.422 924.283 258.918C924.479 258.405 924.754 257.957 925.109 257.574C925.463 257.182 925.879 256.879 926.355 256.664C926.84 256.44 927.367 256.328 927.937 256.328C928.627 256.328 929.22 256.473 929.715 256.762C930.209 257.051 930.592 257.448 930.863 257.952L930.723 258.176L931.381 253.402H932.445L930.975 264H929.925L930.149 262.32L930.457 262.488C930.167 263.029 929.752 263.445 929.211 263.734C928.669 264.023 928.081 264.168 927.447 264.168ZM927.517 263.118C928.067 263.118 928.562 262.973 929.001 262.684C929.449 262.395 929.803 262.012 930.065 261.536C930.326 261.06 930.457 260.547 930.457 259.996C930.457 259.492 930.349 259.044 930.135 258.652C929.92 258.26 929.626 257.952 929.253 257.728C928.879 257.495 928.455 257.378 927.979 257.378C927.428 257.378 926.933 257.523 926.495 257.812C926.065 258.101 925.725 258.489 925.473 258.974C925.23 259.45 925.109 259.973 925.109 260.542C925.109 261.037 925.211 261.48 925.417 261.872C925.622 262.255 925.907 262.558 926.271 262.782C926.635 263.006 927.05 263.118 927.517 263.118ZM935.552 264.168C935.02 264.168 934.553 264.042 934.152 263.79C933.751 263.529 933.457 263.165 933.27 262.698C933.083 262.231 933.032 261.685 933.116 261.06L933.76 256.496H934.81L934.152 261.13C934.096 261.531 934.129 261.881 934.25 262.18C934.371 262.479 934.563 262.712 934.824 262.88C935.085 263.039 935.403 263.118 935.776 263.118C936.168 263.118 936.527 263.029 936.854 262.852C937.181 262.675 937.451 262.423 937.666 262.096C937.89 261.769 938.035 261.382 938.1 260.934L938.73 256.496H939.78L938.73 264H937.68L937.876 262.544L938.114 262.628C937.862 263.113 937.507 263.491 937.05 263.762C936.602 264.033 936.103 264.168 935.552 264.168ZM944.277 264.168C943.605 264.168 943.008 264.009 942.485 263.692C941.972 263.375 941.57 262.941 941.281 262.39C940.992 261.839 940.847 261.214 940.847 260.514C940.847 259.926 940.945 259.38 941.141 258.876C941.346 258.363 941.626 257.915 941.981 257.532C942.345 257.149 942.765 256.855 943.241 256.65C943.726 256.435 944.244 256.328 944.795 256.328C945.28 256.328 945.724 256.412 946.125 256.58C946.536 256.739 946.89 256.963 947.189 257.252C947.488 257.541 947.707 257.877 947.847 258.26L946.881 258.722C946.722 258.321 946.461 257.999 946.097 257.756C945.733 257.504 945.304 257.378 944.809 257.378C944.258 257.378 943.768 257.527 943.339 257.826C942.91 258.115 942.574 258.498 942.331 258.974C942.088 259.45 941.967 259.963 941.967 260.514C941.967 261.018 942.07 261.466 942.275 261.858C942.48 262.25 942.765 262.558 943.129 262.782C943.493 263.006 943.904 263.118 944.361 263.118C944.865 263.118 945.318 262.992 945.719 262.74C946.12 262.479 946.433 262.138 946.657 261.718L947.581 262.264C947.385 262.637 947.119 262.969 946.783 263.258C946.456 263.538 946.078 263.762 945.649 263.93C945.22 264.089 944.762 264.168 944.277 264.168ZM951.827 264.084C951.146 264.084 950.647 263.883 950.329 263.482C950.012 263.081 949.9 262.516 949.993 261.788L950.581 257.546H949.195L949.349 256.496H949.671C949.989 256.496 950.259 256.389 950.483 256.174C950.717 255.95 950.852 255.679 950.889 255.362L950.973 254.76H952.037L951.799 256.496H953.437L953.283 257.546H951.645L951.043 261.844C951.006 262.096 951.006 262.32 951.043 262.516C951.09 262.703 951.193 262.847 951.351 262.95C951.51 263.053 951.739 263.104 952.037 263.104C952.131 263.104 952.229 263.099 952.331 263.09C952.434 263.081 952.523 263.071 952.597 263.062L952.513 264.028C952.401 264.056 952.275 264.07 952.135 264.07C952.005 264.079 951.902 264.084 951.827 264.084ZM773.908 286.168C773.498 286.168 773.11 286.093 772.746 285.944C772.382 285.795 772.084 285.571 771.85 285.272C771.626 284.964 771.514 284.581 771.514 284.124C771.514 283.704 771.617 283.326 771.822 282.99C772.037 282.654 772.34 282.374 772.732 282.15C773.124 281.926 773.596 281.772 774.146 281.688L777.156 281.198L777.058 282.15L774.342 282.598C773.81 282.691 773.39 282.869 773.082 283.13C772.784 283.382 772.634 283.695 772.634 284.068C772.634 284.413 772.76 284.693 773.012 284.908C773.274 285.113 773.619 285.216 774.048 285.216C774.515 285.216 774.944 285.104 775.336 284.88C775.728 284.656 776.055 284.357 776.316 283.984C776.578 283.601 776.736 283.181 776.792 282.724L777.03 280.974C777.086 280.601 777.04 280.293 776.89 280.05C776.741 279.807 776.531 279.63 776.26 279.518C775.999 279.397 775.714 279.336 775.406 279.336C774.93 279.336 774.506 279.457 774.132 279.7C773.768 279.933 773.479 280.232 773.264 280.596L772.354 280.022C772.532 279.705 772.774 279.42 773.082 279.168C773.4 278.907 773.764 278.701 774.174 278.552C774.585 278.403 775.019 278.328 775.476 278.328C776.018 278.328 776.498 278.445 776.918 278.678C777.338 278.902 777.656 279.215 777.87 279.616C778.094 280.017 778.169 280.484 778.094 281.016L777.394 286H776.33L776.54 284.502L776.722 284.684C776.554 284.973 776.326 285.23 776.036 285.454C775.747 285.678 775.42 285.855 775.056 285.986C774.692 286.107 774.31 286.168 773.908 286.168ZM779.288 286L780.338 278.496H781.388L781.192 279.952L780.954 279.868C781.196 279.383 781.546 279.005 782.004 278.734C782.47 278.463 782.974 278.328 783.516 278.328C784.057 278.328 784.524 278.454 784.916 278.706C785.317 278.958 785.611 279.308 785.798 279.756C785.994 280.204 786.05 280.717 785.966 281.296L785.308 286H784.258L784.902 281.366C784.986 280.759 784.878 280.279 784.58 279.924C784.281 279.56 783.852 279.378 783.292 279.378C782.9 279.378 782.536 279.467 782.2 279.644C781.873 279.821 781.598 280.073 781.374 280.4C781.159 280.727 781.019 281.114 780.954 281.562L780.338 286H779.288ZM790.715 286.168C790.043 286.168 789.446 286.014 788.923 285.706C788.4 285.389 787.99 284.959 787.691 284.418C787.402 283.867 787.257 283.242 787.257 282.542C787.257 281.963 787.355 281.422 787.551 280.918C787.747 280.405 788.022 279.957 788.377 279.574C788.732 279.182 789.147 278.879 789.623 278.664C790.108 278.44 790.636 278.328 791.205 278.328C791.896 278.328 792.488 278.473 792.983 278.762C793.478 279.051 793.86 279.448 794.131 279.952L793.991 280.176L794.649 275.402H795.713L794.243 286H793.193L793.417 284.32L793.725 284.488C793.436 285.029 793.02 285.445 792.479 285.734C791.938 286.023 791.35 286.168 790.715 286.168ZM790.785 285.118C791.336 285.118 791.83 284.973 792.269 284.684C792.717 284.395 793.072 284.012 793.333 283.536C793.594 283.06 793.725 282.547 793.725 281.996C793.725 281.492 793.618 281.044 793.403 280.652C793.188 280.26 792.894 279.952 792.521 279.728C792.148 279.495 791.723 279.378 791.247 279.378C790.696 279.378 790.202 279.523 789.763 279.812C789.334 280.101 788.993 280.489 788.741 280.974C788.498 281.45 788.377 281.973 788.377 282.542C788.377 283.037 788.48 283.48 788.685 283.872C788.89 284.255 789.175 284.558 789.539 284.782C789.903 285.006 790.318 285.118 790.785 285.118ZM798.231 286L799.281 278.496H800.345L799.295 286H798.231ZM799.477 277.11L799.687 275.57H800.751L800.541 277.11H799.477ZM804.103 286.084C803.422 286.084 802.923 285.883 802.605 285.482C802.288 285.081 802.176 284.516 802.269 283.788L802.857 279.546H801.471L801.625 278.496H801.947C802.265 278.496 802.535 278.389 802.759 278.174C802.993 277.95 803.128 277.679 803.165 277.362L803.249 276.76H804.313L804.075 278.496H805.713L805.559 279.546H803.921L803.319 283.844C803.282 284.096 803.282 284.32 803.319 284.516C803.366 284.703 803.469 284.847 803.627 284.95C803.786 285.053 804.015 285.104 804.313 285.104C804.407 285.104 804.505 285.099 804.607 285.09C804.71 285.081 804.799 285.071 804.873 285.062L804.789 286.028C804.677 286.056 804.551 286.07 804.411 286.07C804.281 286.079 804.178 286.084 804.103 286.084ZM807.416 278.79L807.486 278.3C807.776 278.225 807.995 278.09 808.144 277.894C808.294 277.689 808.401 277.427 808.466 277.11H807.934L808.144 275.57H809.264L809.096 276.746C809.031 277.287 808.854 277.735 808.564 278.09C808.275 278.445 807.892 278.678 807.416 278.79ZM812.59 286.168C812.114 286.168 811.675 286.084 811.274 285.916C810.872 285.748 810.532 285.51 810.252 285.202C809.972 284.885 809.771 284.521 809.65 284.11L810.56 283.746C810.728 284.203 810.998 284.563 811.372 284.824C811.754 285.085 812.193 285.216 812.688 285.216C813.164 285.216 813.556 285.095 813.864 284.852C814.172 284.6 814.326 284.287 814.326 283.914C814.326 283.662 814.232 283.452 814.046 283.284C813.868 283.107 813.588 282.967 813.206 282.864L812.156 282.57C811.577 282.411 811.138 282.169 810.84 281.842C810.541 281.506 810.392 281.109 810.392 280.652C810.392 280.223 810.513 279.835 810.756 279.49C810.998 279.135 811.325 278.855 811.736 278.65C812.146 278.435 812.599 278.328 813.094 278.328C813.756 278.328 814.33 278.501 814.816 278.846C815.301 279.191 815.618 279.653 815.768 280.232L814.844 280.596C814.694 280.167 814.466 279.84 814.158 279.616C813.85 279.392 813.476 279.28 813.038 279.28C812.58 279.28 812.207 279.397 811.918 279.63C811.628 279.863 811.484 280.157 811.484 280.512C811.484 280.764 811.558 280.974 811.708 281.142C811.866 281.31 812.118 281.445 812.464 281.548L813.668 281.912C814.228 282.08 814.657 282.332 814.956 282.668C815.264 283.004 815.418 283.405 815.418 283.872C815.418 284.301 815.292 284.689 815.04 285.034C814.797 285.379 814.461 285.655 814.032 285.86C813.602 286.065 813.122 286.168 812.59 286.168ZM822.847 286.168C822.194 286.168 821.597 286.019 821.055 285.72C820.523 285.412 820.136 284.992 819.893 284.46L820.103 284.32L819.879 286H818.815L820.299 275.402H821.363L820.691 280.176L820.341 279.868C820.668 279.392 821.088 279.019 821.601 278.748C822.124 278.468 822.703 278.328 823.337 278.328C824.037 278.328 824.649 278.491 825.171 278.818C825.694 279.135 826.095 279.569 826.375 280.12C826.665 280.661 826.809 281.273 826.809 281.954C826.809 282.523 826.711 283.065 826.515 283.578C826.319 284.082 826.039 284.53 825.675 284.922C825.321 285.314 824.901 285.622 824.415 285.846C823.939 286.061 823.417 286.168 822.847 286.168ZM822.819 285.118C823.37 285.118 823.86 284.973 824.289 284.684C824.719 284.395 825.059 284.012 825.311 283.536C825.563 283.06 825.689 282.542 825.689 281.982C825.689 281.478 825.582 281.03 825.367 280.638C825.162 280.246 824.873 279.938 824.499 279.714C824.135 279.49 823.706 279.378 823.211 279.378C822.661 279.378 822.166 279.523 821.727 279.812C821.298 280.092 820.962 280.465 820.719 280.932C820.477 281.399 820.355 281.907 820.355 282.458C820.355 282.971 820.463 283.429 820.677 283.83C820.892 284.231 821.181 284.549 821.545 284.782C821.919 285.006 822.343 285.118 822.819 285.118ZM831.57 286.168C830.898 286.168 830.3 286.014 829.778 285.706C829.255 285.389 828.84 284.955 828.532 284.404C828.233 283.853 828.084 283.223 828.084 282.514C828.084 281.945 828.177 281.408 828.364 280.904C828.56 280.4 828.83 279.957 829.176 279.574C829.53 279.182 829.941 278.879 830.408 278.664C830.874 278.44 831.388 278.328 831.948 278.328C832.638 278.328 833.226 278.487 833.712 278.804C834.197 279.121 834.566 279.537 834.818 280.05C835.07 280.554 835.196 281.091 835.196 281.66C835.196 281.809 835.182 281.973 835.154 282.15C835.126 282.327 835.102 282.467 835.084 282.57H828.742L828.812 281.59H834.552L834.02 281.996C834.15 281.501 834.132 281.053 833.964 280.652C833.805 280.241 833.544 279.915 833.18 279.672C832.825 279.429 832.41 279.308 831.934 279.308C831.336 279.308 830.832 279.453 830.422 279.742C830.011 280.031 829.698 280.437 829.484 280.96C829.278 281.473 829.176 282.071 829.176 282.752C829.176 283.247 829.288 283.681 829.512 284.054C829.736 284.418 830.03 284.698 830.394 284.894C830.758 285.09 831.154 285.188 831.584 285.188C832.134 285.188 832.606 285.057 832.998 284.796C833.399 284.525 833.73 284.194 833.992 283.802L834.874 284.306C834.696 284.642 834.444 284.955 834.118 285.244C833.791 285.524 833.408 285.748 832.97 285.916C832.54 286.084 832.074 286.168 831.57 286.168ZM836.22 286L837.27 278.496H838.334L837.284 286H836.22ZM837.466 277.11L837.676 275.57H838.74L838.53 277.11H837.466ZM839.18 286L840.23 278.496H841.28L841.084 279.952L840.846 279.868C841.089 279.383 841.439 279.005 841.896 278.734C842.363 278.463 842.867 278.328 843.408 278.328C843.95 278.328 844.416 278.454 844.808 278.706C845.21 278.958 845.504 279.308 845.69 279.756C845.886 280.204 845.942 280.717 845.858 281.296L845.2 286H844.15L844.794 281.366C844.878 280.759 844.771 280.279 844.472 279.924C844.174 279.56 843.744 279.378 843.184 279.378C842.792 279.378 842.428 279.467 842.092 279.644C841.766 279.821 841.49 280.073 841.266 280.4C841.052 280.727 840.912 281.114 840.846 281.562L840.23 286H839.18ZM850.16 289.08C849.618 289.08 849.138 288.996 848.718 288.828C848.298 288.669 847.948 288.45 847.668 288.17C847.397 287.89 847.201 287.568 847.08 287.204L848.06 286.798C848.172 287.125 848.405 287.409 848.76 287.652C849.114 287.904 849.618 288.03 850.272 288.03C850.692 288.03 851.098 287.951 851.49 287.792C851.882 287.633 852.218 287.391 852.498 287.064C852.778 286.747 852.95 286.336 853.016 285.832L853.268 284.04L853.576 284.208C853.286 284.749 852.871 285.165 852.33 285.454C851.798 285.743 851.224 285.888 850.608 285.888C849.982 285.888 849.408 285.743 848.886 285.454C848.363 285.155 847.948 284.745 847.64 284.222C847.332 283.69 847.178 283.074 847.178 282.374C847.178 281.823 847.276 281.305 847.472 280.82C847.668 280.325 847.943 279.891 848.298 279.518C848.662 279.145 849.082 278.855 849.558 278.65C850.034 278.435 850.552 278.328 851.112 278.328C851.756 278.328 852.32 278.473 852.806 278.762C853.3 279.042 853.683 279.42 853.954 279.896L853.814 280.176L854.038 278.496H855.102L854.08 285.86C853.996 286.504 853.767 287.069 853.394 287.554C853.02 288.039 852.554 288.413 851.994 288.674C851.434 288.945 850.822 289.08 850.16 289.08ZM850.692 284.838C851.214 284.838 851.69 284.703 852.12 284.432C852.558 284.152 852.908 283.788 853.17 283.34C853.431 282.892 853.562 282.411 853.562 281.898C853.562 281.422 853.459 280.993 853.254 280.61C853.048 280.227 852.764 279.929 852.4 279.714C852.036 279.49 851.616 279.378 851.14 279.378C850.636 279.378 850.164 279.509 849.726 279.77C849.296 280.031 848.951 280.386 848.69 280.834C848.428 281.273 848.298 281.772 848.298 282.332C848.298 282.808 848.4 283.237 848.606 283.62C848.82 283.993 849.11 284.292 849.474 284.516C849.838 284.731 850.244 284.838 850.692 284.838ZM860.73 286.168C860.198 286.168 859.731 286.042 859.33 285.79C858.928 285.529 858.634 285.165 858.448 284.698C858.261 284.231 858.21 283.685 858.294 283.06L858.938 278.496H859.988L859.33 283.13C859.274 283.531 859.306 283.881 859.428 284.18C859.549 284.479 859.74 284.712 860.002 284.88C860.263 285.039 860.58 285.118 860.954 285.118C861.346 285.118 861.705 285.029 862.032 284.852C862.358 284.675 862.629 284.423 862.844 284.096C863.068 283.769 863.212 283.382 863.278 282.934L863.908 278.496H864.958L863.908 286H862.858L863.054 284.544L863.292 284.628C863.04 285.113 862.685 285.491 862.228 285.762C861.78 286.033 861.28 286.168 860.73 286.168ZM868.531 286.168C868.055 286.168 867.616 286.084 867.215 285.916C866.813 285.748 866.473 285.51 866.193 285.202C865.913 284.885 865.712 284.521 865.591 284.11L866.501 283.746C866.669 284.203 866.939 284.563 867.313 284.824C867.695 285.085 868.134 285.216 868.629 285.216C869.105 285.216 869.497 285.095 869.805 284.852C870.113 284.6 870.267 284.287 870.267 283.914C870.267 283.662 870.173 283.452 869.987 283.284C869.809 283.107 869.529 282.967 869.147 282.864L868.097 282.57C867.518 282.411 867.079 282.169 866.781 281.842C866.482 281.506 866.333 281.109 866.333 280.652C866.333 280.223 866.454 279.835 866.697 279.49C866.939 279.135 867.266 278.855 867.677 278.65C868.087 278.435 868.54 278.328 869.035 278.328C869.697 278.328 870.271 278.501 870.757 278.846C871.242 279.191 871.559 279.653 871.709 280.232L870.785 280.596C870.635 280.167 870.407 279.84 870.099 279.616C869.791 279.392 869.417 279.28 868.979 279.28C868.521 279.28 868.148 279.397 867.859 279.63C867.569 279.863 867.425 280.157 867.425 280.512C867.425 280.764 867.499 280.974 867.649 281.142C867.807 281.31 868.059 281.445 868.405 281.548L869.609 281.912C870.169 282.08 870.598 282.332 870.897 282.668C871.205 283.004 871.359 283.405 871.359 283.872C871.359 284.301 871.233 284.689 870.981 285.034C870.738 285.379 870.402 285.655 869.973 285.86C869.543 286.065 869.063 286.168 868.531 286.168ZM876.367 286.168C875.695 286.168 875.098 286.014 874.575 285.706C874.053 285.389 873.637 284.955 873.329 284.404C873.031 283.853 872.881 283.223 872.881 282.514C872.881 281.945 872.975 281.408 873.161 280.904C873.357 280.4 873.628 279.957 873.973 279.574C874.328 279.182 874.739 278.879 875.205 278.664C875.672 278.44 876.185 278.328 876.745 278.328C877.436 278.328 878.024 278.487 878.509 278.804C878.995 279.121 879.363 279.537 879.615 280.05C879.867 280.554 879.993 281.091 879.993 281.66C879.993 281.809 879.979 281.973 879.951 282.15C879.923 282.327 879.9 282.467 879.881 282.57H873.539L873.609 281.59H879.349L878.817 281.996C878.948 281.501 878.929 281.053 878.761 280.652C878.603 280.241 878.341 279.915 877.977 279.672C877.623 279.429 877.207 279.308 876.731 279.308C876.134 279.308 875.63 279.453 875.219 279.742C874.809 280.031 874.496 280.437 874.281 280.96C874.076 281.473 873.973 282.071 873.973 282.752C873.973 283.247 874.085 283.681 874.309 284.054C874.533 284.418 874.827 284.698 875.191 284.894C875.555 285.09 875.952 285.188 876.381 285.188C876.932 285.188 877.403 285.057 877.795 284.796C878.197 284.525 878.528 284.194 878.789 283.802L879.671 284.306C879.494 284.642 879.242 284.955 878.915 285.244C878.589 285.524 878.206 285.748 877.767 285.916C877.338 286.084 876.871 286.168 876.367 286.168ZM884.686 286.168C884.014 286.168 883.417 286.014 882.894 285.706C882.371 285.389 881.961 284.959 881.662 284.418C881.373 283.867 881.228 283.242 881.228 282.542C881.228 281.963 881.326 281.422 881.522 280.918C881.718 280.405 881.993 279.957 882.348 279.574C882.703 279.182 883.118 278.879 883.594 278.664C884.079 278.44 884.607 278.328 885.176 278.328C885.867 278.328 886.459 278.473 886.954 278.762C887.449 279.051 887.831 279.448 888.102 279.952L887.962 280.176L888.62 275.402H889.684L888.214 286H887.164L887.388 284.32L887.696 284.488C887.407 285.029 886.991 285.445 886.45 285.734C885.909 286.023 885.321 286.168 884.686 286.168ZM884.756 285.118C885.307 285.118 885.801 284.973 886.24 284.684C886.688 284.395 887.043 284.012 887.304 283.536C887.565 283.06 887.696 282.547 887.696 281.996C887.696 281.492 887.589 281.044 887.374 280.652C887.159 280.26 886.865 279.952 886.492 279.728C886.119 279.495 885.694 279.378 885.218 279.378C884.667 279.378 884.173 279.523 883.734 279.812C883.305 280.101 882.964 280.489 882.712 280.974C882.469 281.45 882.348 281.973 882.348 282.542C882.348 283.037 882.451 283.48 882.656 283.872C882.861 284.255 883.146 284.558 883.51 284.782C883.874 285.006 884.289 285.118 884.756 285.118ZM890.453 286L890.677 284.46H891.797L891.573 286H890.453ZM896.265 278.79L896.335 278.3C896.624 278.225 896.844 278.09 896.993 277.894C897.142 277.689 897.25 277.427 897.315 277.11H896.783L896.993 275.57H898.113L897.945 276.746C897.88 277.287 897.702 277.735 897.413 278.09C897.124 278.445 896.741 278.678 896.265 278.79ZM894.165 278.79L894.235 278.3C894.524 278.225 894.744 278.09 894.893 277.894C895.042 277.689 895.15 277.427 895.215 277.11H894.683L894.893 275.57H896.013L895.845 276.746C895.78 277.287 895.602 277.735 895.313 278.09C895.024 278.445 894.641 278.678 894.165 278.79Z" fill="#1A202C"/>
<circle cx="92.3686" cy="110.386" r="83.3862" fill="#E3E3E3" fill-opacity="0.7"/>
<circle cx="92.5626" cy="109.72" r="90.5678" stroke="#6C3231" stroke-width="3.98977"/>
<circle cx="653.925" cy="312.641" r="83.3862" fill="#E3E3E3" fill-opacity="0.7"/>
<circle cx="654.322" cy="312.4" r="90.5678" stroke="#6C3231" stroke-width="3.98977"/>
<path d="M156.001 176.748C304.421 375.837 568.942 -73.4109 646.743 217.842" stroke="#6C3231" stroke-width="6.38363" stroke-linejoin="round" stroke-dasharray="15.96 15.96"/>
<path d="M66.9905 101V74.2H58.7505V71.2H78.3505V74.2H70.1905V101H66.9905ZM82.2993 101V71.2H92.5393C94.486 71.2 96.1926 71.5867 97.6593 72.36C99.126 73.1067 100.259 74.1733 101.059 75.56C101.886 76.92 102.299 78.5067 102.299 80.32C102.299 82.4267 101.739 84.2267 100.619 85.72C99.526 87.2133 98.0326 88.2667 96.1393 88.88L103.099 101H99.3393L92.0593 88.16L94.2193 89.4H85.4993V101H82.2993ZM85.4993 86.4H92.6993C93.9793 86.4 95.0993 86.16 96.0593 85.68C97.0193 85.1733 97.766 84.4667 98.2993 83.56C98.8326 82.6267 99.0993 81.5333 99.0993 80.28C99.0993 79.0267 98.8326 77.9467 98.2993 77.04C97.766 76.1333 97.0193 75.44 96.0593 74.96C95.0993 74.4533 93.9793 74.2 92.6993 74.2H85.4993V86.4ZM107.924 101V71.2H111.124V98H124.324V101H107.924ZM83.4934 151L95.5334 126.4H81.7734V121.2H102.053V126.4L90.3734 151H83.4934Z" fill="#2D415C"/>
<path d="M628.991 303V276.2H620.751V273.2H640.351V276.2H632.191V303H628.991ZM644.299 303V273.2H654.539C656.486 273.2 658.193 273.587 659.659 274.36C661.126 275.107 662.259 276.173 663.059 277.56C663.886 278.92 664.299 280.507 664.299 282.32C664.299 284.427 663.739 286.227 662.619 287.72C661.526 289.213 660.033 290.267 658.139 290.88L665.099 303H661.339L654.059 290.16L656.219 291.4H647.499V303H644.299ZM647.499 288.4H654.699C655.979 288.4 657.099 288.16 658.059 287.68C659.019 287.173 659.766 286.467 660.299 285.56C660.833 284.627 661.099 283.533 661.099 282.28C661.099 281.027 660.833 279.947 660.299 279.04C659.766 278.133 659.019 277.44 658.059 276.96C657.099 276.453 655.979 276.2 654.699 276.2H647.499V288.4ZM669.924 303V273.2H673.124V300H686.324V303H669.924ZM653.966 353.48C651.726 353.48 649.793 353.067 648.166 352.24C646.566 351.413 645.34 350.307 644.486 348.92C643.633 347.533 643.206 346.027 643.206 344.4C643.206 342.453 643.713 340.827 644.726 339.52C645.766 338.213 647.286 337.227 649.286 336.56L648.886 338.08C647.473 337.653 646.34 336.773 645.486 335.44C644.66 334.107 644.246 332.627 644.246 331C644.246 329.4 644.66 327.973 645.486 326.72C646.313 325.467 647.46 324.493 648.926 323.8C650.393 323.08 652.073 322.72 653.966 322.72C655.86 322.72 657.526 323.08 658.966 323.8C660.433 324.493 661.58 325.467 662.406 326.72C663.26 327.973 663.686 329.4 663.686 331C663.686 332.627 663.273 334.107 662.446 335.44C661.62 336.773 660.486 337.667 659.046 338.12L658.686 336.52C660.686 337.267 662.206 338.293 663.246 339.6C664.286 340.88 664.806 342.493 664.806 344.44C664.806 346.067 664.366 347.573 663.486 348.96C662.633 350.32 661.393 351.413 659.766 352.24C658.14 353.067 656.206 353.48 653.966 353.48ZM653.966 348.28C654.9 348.28 655.713 348.107 656.406 347.76C657.1 347.413 657.633 346.933 658.006 346.32C658.406 345.707 658.606 345 658.606 344.2C658.606 343.373 658.406 342.667 658.006 342.08C657.633 341.467 657.1 341 656.406 340.68C655.713 340.333 654.9 340.16 653.966 340.16C653.06 340.16 652.26 340.333 651.566 340.68C650.9 341 650.366 341.467 649.966 342.08C649.593 342.667 649.406 343.373 649.406 344.2C649.406 345 649.593 345.707 649.966 346.32C650.366 346.933 650.9 347.413 651.566 347.76C652.26 348.107 653.06 348.28 653.966 348.28ZM653.966 334.96C654.686 334.96 655.3 334.8 655.806 334.48C656.34 334.16 656.753 333.733 657.046 333.2C657.34 332.667 657.486 332.08 657.486 331.44C657.486 330.773 657.34 330.173 657.046 329.64C656.753 329.107 656.34 328.693 655.806 328.4C655.3 328.08 654.686 327.92 653.966 327.92C653.273 327.92 652.66 328.08 652.126 328.4C651.593 328.693 651.18 329.107 650.886 329.64C650.593 330.173 650.446 330.773 650.446 331.44C650.446 332.08 650.593 332.667 650.886 333.2C651.18 333.733 651.593 334.16 652.126 334.48C652.66 334.8 653.273 334.96 653.966 334.96Z" fill="#2D415C"/>
</svg>
