<svg width="33" height="34" viewBox="0 0 33 34" fill="none" xmlns="http://www.w3.org/2000/svg">
<path d="M3.333 34C2.38288 34 1.59019 33.6727 0.954937 33.0182C0.319687 32.3638 0.001375 31.5463 0 30.566V3.434C0 2.45508 0.318312 1.63837 0.954937 0.983875C1.59156 0.329375 2.38425 0.00141667 3.333 0H13.8827C14.1756 0 14.421 0.101292 14.619 0.303875C14.817 0.506459 14.9153 0.759333 14.9139 1.0625C14.9126 1.36567 14.8143 1.61854 14.619 1.82112C14.4238 2.02371 14.1776 2.125 13.8806 2.125H3.333C3.01538 2.125 2.72387 2.261 2.4585 2.533C2.19312 2.805 2.06113 3.10533 2.0625 3.434V30.5681C2.0625 30.894 2.1945 31.1936 2.4585 31.467C2.7225 31.7404 3.01331 31.8764 3.33094 31.875H29.6691C29.9853 31.875 30.2761 31.739 30.5415 31.467C30.8069 31.195 30.9389 30.8954 30.9375 30.5681V19.6966C30.9375 19.3949 31.0358 19.142 31.2324 18.938C31.4291 18.734 31.6745 18.6327 31.9688 18.6341C32.263 18.6355 32.5084 18.7368 32.7051 18.938C32.9017 19.1392 33 19.392 33 19.6966V30.5681C33 31.5456 32.6824 32.3616 32.0471 33.0161C31.4119 33.6706 30.6185 33.9986 29.667 34H3.333ZM30.9375 3.6295L12.5648 22.559C12.3723 22.7573 12.1358 22.8636 11.8553 22.8778C11.5748 22.8919 11.3252 22.7857 11.1066 22.559C10.8879 22.3323 10.7779 22.0816 10.7766 21.8067C10.7752 21.5319 10.8852 21.2812 11.1066 21.0545L29.4773 2.125H21.6563C21.3634 2.125 21.1179 2.02371 20.9199 1.82112C20.7219 1.61854 20.6236 1.36567 20.625 1.0625C20.6264 0.759333 20.7247 0.506459 20.9199 0.303875C21.1152 0.101292 21.3606 0 21.6563 0H31.3335C31.8134 0 32.2108 0.162917 32.5256 0.48875C32.8405 0.814583 32.9986 1.224 33 1.717V11.6875C33 11.9907 32.9017 12.2435 32.7051 12.4461C32.5084 12.6487 32.263 12.75 31.9688 12.75C31.6745 12.75 31.4291 12.6487 31.2324 12.4461C31.0358 12.2435 30.9375 11.9907 30.9375 11.6875V3.6295Z" fill="white"/>
</svg>
