<svg width="34" height="35" viewBox="0 0 34 35" fill="none" xmlns="http://www.w3.org/2000/svg">
<path d="M3.131 35C2.23846 35 1.49381 34.692 0.897062 34.076C0.300312 33.46 0.00129167 32.6907 0 31.768V6.232C0 5.31067 0.29902 4.542 0.897062 3.926C1.4951 3.31 2.23975 3.00133 3.131 3H13.0413C13.3164 3 13.547 3.09533 13.733 3.286C13.919 3.47667 14.0114 3.71467 14.0101 4C14.0088 4.28533 13.9164 4.52333 13.733 4.714C13.5496 4.90467 13.3184 5 13.0394 5H3.131C2.83263 5 2.55879 5.128 2.3095 5.384C2.06021 5.64 1.93621 5.92267 1.9375 6.232V31.77C1.9375 32.0767 2.0615 32.3587 2.3095 32.616C2.5575 32.8733 2.83069 33.0013 3.12906 33H27.8709C28.168 33 28.4412 32.872 28.6905 32.616C28.9398 32.36 29.0638 32.078 29.0625 31.77V21.538C29.0625 21.254 29.1549 21.016 29.3396 20.824C29.5243 20.632 29.7548 20.5367 30.0312 20.538C30.3077 20.5393 30.5382 20.6347 30.7229 20.824C30.9076 21.0133 31 21.2513 31 21.538V31.77C31 32.69 30.7016 33.458 30.1049 34.074C29.5081 34.69 28.7628 34.9987 27.869 35H3.131Z" fill="#2D415C"/>
<path d="M14.6798 21.232L31.9391 3.416V11C31.9391 11.2853 32.0314 11.5233 32.2161 11.714C32.4008 11.9047 32.6314 12 32.9078 12C33.1842 12 33.4148 11.9047 33.5995 11.714C33.7842 11.5233 33.8766 11.2853 33.8766 11V1.616C33.8753 1.152 33.7267 0.766667 33.431 0.46C33.1352 0.153333 32.7619 0 32.3111 0H23.2203C22.9426 0 22.7121 0.0953336 22.5286 0.286C22.3452 0.476667 22.2529 0.714667 22.2516 1C22.2503 1.28533 22.3426 1.52333 22.5286 1.714C22.7146 1.90467 22.9452 2 23.2203 2H30.5673L13.31 19.816C13.1021 20.0293 12.9987 20.2653 13 20.524C13.0013 20.7827 13.1046 21.0187 13.31 21.232C13.5154 21.4453 13.7498 21.5453 14.0133 21.532C14.2768 21.5187 14.499 21.4187 14.6798 21.232Z" fill="#FF8A40"/>
</svg>
