<svg width="28" height="28" viewBox="0 0 28 28" fill="none" xmlns="http://www.w3.org/2000/svg">
<path d="M24.6667 0C25.4844 0 26.2687 0.32485 26.8469 0.903087C27.4251 1.48132 27.75 2.26558 27.75 3.08333V24.6667C27.75 25.4844 27.4251 26.2687 26.8469 26.8469C26.2687 27.4251 25.4844 27.75 24.6667 27.75H3.08333C2.26558 27.75 1.48132 27.4251 0.903087 26.8469C0.32485 26.2687 0 25.4844 0 24.6667V3.08333C0 2.26558 0.32485 1.48132 0.903087 0.903087C1.48132 0.32485 2.26558 0 3.08333 0H24.6667ZM23.8958 23.8958V15.725C23.8958 14.3921 23.3663 13.1137 22.4238 12.1712C21.4813 11.2287 20.2029 10.6992 18.87 10.6992C17.5596 10.6992 16.0333 11.5008 15.2933 12.7033V10.9921H10.9921V23.8958H15.2933V16.2954C15.2933 15.1083 16.2492 14.1371 17.4363 14.1371C18.0087 14.1371 18.5577 14.3645 18.9624 14.7692C19.3672 15.174 19.5946 15.723 19.5946 16.2954V23.8958H23.8958ZM5.98167 8.57167C6.66858 8.57167 7.32735 8.29879 7.81307 7.81307C8.29879 7.32735 8.57167 6.66858 8.57167 5.98167C8.57167 4.54792 7.41542 3.37625 5.98167 3.37625C5.29067 3.37625 4.62797 3.65075 4.13936 4.13936C3.65075 4.62797 3.37625 5.29067 3.37625 5.98167C3.37625 7.41542 4.54792 8.57167 5.98167 8.57167ZM8.12458 23.8958V10.9921H3.85417V23.8958H8.12458Z" fill="#007EBB"/>
</svg>
