<svg width="37" height="37" viewBox="0 0 37 37" fill="none" xmlns="http://www.w3.org/2000/svg">
<path d="M29.2917 4.625C30.1094 4.625 30.8937 4.94985 31.4719 5.52809C32.0501 6.10632 32.375 6.89058 32.375 7.70833V29.2917C32.375 30.1094 32.0501 30.8937 31.4719 31.4719C30.8937 32.0501 30.1094 32.375 29.2917 32.375H7.70833C6.89058 32.375 6.10632 32.0501 5.52809 31.4719C4.94985 30.8937 4.625 30.1094 4.625 29.2917V7.70833C4.625 6.89058 4.94985 6.10632 5.52809 5.52809C6.10632 4.94985 6.89058 4.625 7.70833 4.625H29.2917ZM28.5208 28.5208V20.35C28.5208 19.0171 27.9913 17.7387 27.0488 16.7962C26.1063 15.8537 24.8279 15.3242 23.495 15.3242C22.1846 15.3242 20.6583 16.1258 19.9183 17.3283V15.6171H15.6171V28.5208H19.9183V20.9204C19.9183 19.7333 20.8742 18.7621 22.0613 18.7621C22.6337 18.7621 23.1827 18.9895 23.5874 19.3942C23.9922 19.799 24.2196 20.348 24.2196 20.9204V28.5208H28.5208ZM10.6067 13.1967C11.2936 13.1967 11.9524 12.9238 12.4381 12.4381C12.9238 11.9524 13.1967 11.2936 13.1967 10.6067C13.1967 9.17292 12.0404 8.00125 10.6067 8.00125C9.91567 8.00125 9.25297 8.27575 8.76436 8.76436C8.27575 9.25297 8.00125 9.91567 8.00125 10.6067C8.00125 12.0404 9.17292 13.1967 10.6067 13.1967ZM12.7496 28.5208V15.6171H8.47917V28.5208H12.7496Z" fill="#007EBB"/>
</svg>
