<svg width="30" height="30" viewBox="0 0 30 30" fill="none" xmlns="http://www.w3.org/2000/svg">
<path d="M1.854 14.854C1.854 8.72621 1.854 5.66095 3.75748 3.75748C5.66095 1.854 8.72485 1.854 14.8554 1.854C20.9832 1.854 24.0471 1.854 25.9505 3.75748C27.854 5.66095 27.854 8.72485 27.854 14.854C27.854 20.9818 27.854 24.0471 25.9505 25.9505C24.0471 27.854 20.9832 27.854 14.854 27.854C8.72621 27.854 5.66232 27.854 3.75748 25.9505C1.85537 24.0457 1.854 20.9832 1.854 14.854Z" stroke="#FF8A40" stroke-width="2.5" stroke-linecap="round" stroke-linejoin="round"/>
<path d="M8.01172 21.6959L13.7509 15.9581M13.7509 15.9581L8.01172 8.01172H11.8118L15.9581 13.7509L21.6959 8.01172M13.7509 15.9581L17.8945 21.6959H21.6959L15.9581 13.7495" stroke="#FF8A40" stroke-width="1.5" stroke-linecap="round" stroke-linejoin="round"/>
</svg>
