<svg width="33" height="33" viewBox="0 0 33 33" fill="none" xmlns="http://www.w3.org/2000/svg">
<path d="M7.92 2.75C6.54883 2.75 5.23382 3.2947 4.26426 4.26426C3.2947 5.23382 2.75 6.54883 2.75 7.92V25.08C2.75 26.4512 3.2947 27.7662 4.26426 28.7357C5.23382 29.7053 6.54883 30.25 7.92 30.25H25.08C25.7589 30.25 26.4312 30.1163 27.0585 29.8565C27.6857 29.5966 28.2557 29.2158 28.7357 28.7357C29.2158 28.2557 29.5966 27.6857 29.8565 27.0585C30.1163 26.4312 30.25 25.7589 30.25 25.08V7.92C30.25 7.24107 30.1163 6.56878 29.8565 5.94153C29.5966 5.31427 29.2158 4.74434 28.7357 4.26426C28.2557 3.78418 27.6857 3.40336 27.0585 3.14354C26.4312 2.88373 25.7589 2.75 25.08 2.75H7.92ZM10.4706 9.20288H22.5294C23.092 9.20306 23.6491 9.31406 24.1689 9.52954C24.6886 9.74502 25.1609 10.0608 25.5586 10.4587C25.9563 10.8567 26.2717 11.3292 26.4869 11.849C26.702 12.3689 26.8127 12.9261 26.8125 13.4888V19.514C26.8125 20.6501 26.3613 21.7397 25.5581 22.5431C24.7549 23.3466 23.6655 23.7981 22.5294 23.7985H10.4706C9.90786 23.7983 9.35065 23.6873 8.83081 23.4717C8.31097 23.2561 7.83869 22.9403 7.44094 22.5421C7.0432 22.144 6.72779 21.6714 6.51272 21.1514C6.29765 20.6313 6.18714 20.074 6.1875 19.5113V13.4888C6.1875 12.3527 6.63871 11.2631 7.44192 10.4596C8.24512 9.65618 9.33454 9.20324 10.4706 9.20288ZM13.8806 13.5066C13.8231 13.5098 13.7689 13.5347 13.7291 13.5763C13.6892 13.6179 13.6667 13.6731 13.6661 13.7308V19.2789C13.6656 19.3175 13.6751 19.3556 13.6935 19.3896C13.712 19.4235 13.7389 19.4522 13.7716 19.4727C13.8043 19.4933 13.8418 19.5051 13.8804 19.5071C13.919 19.509 13.9574 19.501 13.992 19.4838L19.6309 16.7929C19.6688 16.7745 19.7008 16.746 19.7234 16.7105C19.746 16.675 19.7583 16.6339 19.7588 16.5918C19.7594 16.5497 19.7483 16.5082 19.7266 16.4721C19.705 16.436 19.6738 16.4066 19.6364 16.3873L13.9975 13.53C13.962 13.5114 13.922 13.5028 13.882 13.5052L13.8806 13.5066Z" fill="#FF0000"/>
<path d="M7.92 2.75C6.54883 2.75 5.23382 3.2947 4.26426 4.26426C3.2947 5.23382 2.75 6.54883 2.75 7.92V25.08C2.75 26.4512 3.2947 27.7662 4.26426 28.7357C5.23382 29.7053 6.54883 30.25 7.92 30.25H25.08C25.7589 30.25 26.4312 30.1163 27.0585 29.8565C27.6857 29.5966 28.2557 29.2158 28.7357 28.7357C29.2158 28.2557 29.5966 27.6857 29.8565 27.0585C30.1163 26.4312 30.25 25.7589 30.25 25.08V7.92C30.25 7.24107 30.1163 6.56878 29.8565 5.94153C29.5966 5.31427 29.2158 4.74434 28.7357 4.26426C28.2557 3.78418 27.6857 3.40336 27.0585 3.14354C26.4312 2.88373 25.7589 2.75 25.08 2.75H7.92ZM10.4706 9.20288H22.5294C23.092 9.20306 23.6491 9.31406 24.1689 9.52954C24.6886 9.74502 25.1609 10.0608 25.5586 10.4587C25.9563 10.8567 26.2717 11.3292 26.4869 11.849C26.702 12.3689 26.8127 12.9261 26.8125 13.4888V19.514C26.8125 20.6501 26.3613 21.7397 25.5581 22.5431C24.7549 23.3466 23.6655 23.7981 22.5294 23.7985H10.4706C9.90786 23.7983 9.35065 23.6873 8.83081 23.4717C8.31097 23.2561 7.83869 22.9403 7.44094 22.5421C7.0432 22.144 6.72779 21.6714 6.51272 21.1514C6.29765 20.6313 6.18714 20.074 6.1875 19.5113V13.4888C6.1875 12.3527 6.63871 11.2631 7.44192 10.4596C8.24512 9.65618 9.33454 9.20324 10.4706 9.20288ZM13.8806 13.5066C13.8231 13.5098 13.7689 13.5347 13.7291 13.5763C13.6892 13.6179 13.6667 13.6731 13.6661 13.7308V19.2789C13.6656 19.3175 13.6751 19.3556 13.6935 19.3896C13.712 19.4235 13.7389 19.4522 13.7716 19.4727C13.8043 19.4933 13.8418 19.5051 13.8804 19.5071C13.919 19.509 13.9574 19.501 13.992 19.4838L19.6309 16.7929C19.6688 16.7745 19.7008 16.746 19.7234 16.7105C19.746 16.675 19.7583 16.6339 19.7588 16.5918C19.7594 16.5497 19.7483 16.5082 19.7266 16.4721C19.705 16.436 19.6738 16.4066 19.6364 16.3873L13.9975 13.53C13.962 13.5114 13.922 13.5028 13.882 13.5052L13.8806 13.5066Z" fill="#FF0000"/>
<path d="M13.8806 13.4996C13.8231 13.5027 13.7689 13.5276 13.7291 13.5692C13.6892 13.6109 13.6667 13.6661 13.6661 13.7237V19.2718C13.6656 19.3105 13.6751 19.3486 13.6935 19.3825C13.712 19.4165 13.7389 19.4451 13.7716 19.4657C13.8043 19.4863 13.8418 19.4981 13.8804 19.5C13.919 19.5019 13.9574 19.4939 13.992 19.4767L19.6309 16.7858C19.6688 16.7675 19.7008 16.7389 19.7234 16.7034C19.746 16.6679 19.7583 16.6268 19.7588 16.5847C19.7594 16.5426 19.7483 16.5012 19.7266 16.4651C19.705 16.429 19.6738 16.3996 19.6364 16.3802L13.9975 13.5229C13.962 13.5043 13.922 13.4958 13.882 13.4982L13.8806 13.4996Z" fill="white"/>
</svg>
