<svg width="22" height="21" viewBox="0 0 22 21" fill="none" xmlns="http://www.w3.org/2000/svg">
<path d="M7.005 2.1375L2.415 6.7375C-0.805 9.9575 -0.805 15.1875 2.415 18.4075C5.635 21.6275 10.865 21.6275 14.085 18.4075L21.155 11.3175C21.645 10.8475 21.645 10.0575 21.155 9.5675C21.0389 9.45109 20.9009 9.35874 20.7491 9.29572C20.5972 9.2327 20.4344 9.20027 20.27 9.20027C20.1056 9.20027 19.9428 9.2327 19.7909 9.29572C19.6391 9.35874 19.5011 9.45109 19.385 9.5675L14.965 13.9875L14.255 13.2775L20.795 6.7375C21.285 6.2475 21.285 5.4575 20.795 4.9675C20.305 4.4775 19.505 4.4775 19.005 4.9675L13.195 10.8175L12.505 10.0875L19.375 3.1975C19.865 2.7075 19.865 1.9175 19.375 1.4275C18.885 0.9375 18.095 0.9375 17.605 1.4275L10.715 8.3175L10.005 7.6175L15.505 2.1375C16.005 1.6475 16.005 0.8575 15.505 0.3675C15.005 -0.1225 14.225 -0.1225 13.735 0.3675L6.115 7.9875C6.71226 8.75688 7.00828 9.71775 6.94752 10.6898C6.88677 11.6619 6.47341 12.5785 5.785 13.2675L5.075 12.5575C5.6368 11.995 5.95236 11.2325 5.95236 10.4375C5.95236 9.6425 5.6368 8.88 5.075 8.3175L4.725 7.9675L8.795 3.8975C9.285 3.4075 9.285 2.6175 8.795 2.1275C8.295 1.6475 7.505 1.6475 7.005 2.1375Z" fill="#2D415C"/>
</svg>
