<svg width="64" height="64" viewBox="0 0 64 64" fill="none" xmlns="http://www.w3.org/2000/svg">
<path d="M44.7221 1.06525L46.0324 5.09702C46.4391 6.32373 47.1273 7.43826 48.0419 8.35144C48.9566 9.26462 50.0723 9.95112 51.2998 10.356L55.3322 11.6661L55.4113 11.6886C55.7223 11.7981 55.9917 12.0014 56.1822 12.2704C56.3728 12.5395 56.4751 12.861 56.4751 13.1907C56.4751 13.5203 56.3728 13.8419 56.1822 14.1109C55.9917 14.38 55.7223 14.5832 55.4113 14.6927L51.3789 16.0027C50.1514 16.4076 49.0357 17.0941 48.121 18.0073C47.2064 18.9205 46.5182 20.035 46.1114 21.2617L44.8012 25.2897C44.6917 25.6007 44.4884 25.87 44.2193 26.0605C43.9502 26.2511 43.6286 26.3534 43.2989 26.3534C42.9692 26.3534 42.6476 26.2511 42.3785 26.0605C42.1094 25.87 41.9061 25.6007 41.7966 25.2897L40.4826 21.2617C40.0791 20.0323 39.3931 18.9145 38.4795 17.9979C37.5655 17.0796 36.4487 16.3885 35.219 15.9802L31.1865 14.6701C30.8755 14.5606 30.6061 14.3574 30.4156 14.0883C30.225 13.8193 30.1227 13.4977 30.1227 13.1681C30.1227 12.8384 30.225 12.5169 30.4156 12.2478C30.6061 11.9788 30.8755 11.7755 31.1865 11.6661L35.219 10.356C36.4311 9.94016 37.5303 9.24877 38.4299 8.33622C39.3295 7.42367 40.0051 6.31486 40.4035 5.09702L41.7138 1.06901C41.8225 0.756741 42.0257 0.486043 42.2952 0.294482C42.5648 0.102922 42.8873 0 43.218 0C43.5486 0 43.8711 0.102922 44.1407 0.294482C44.4102 0.486043 44.6134 0.752976 44.7221 1.06525ZM63.19 30.9252L60.306 29.9916C59.4308 29.6991 58.6357 29.207 57.9836 28.5543C57.3314 27.9016 56.8401 27.1061 56.5484 26.2309L55.6071 23.3548C55.5291 23.1324 55.384 22.9398 55.1918 22.8035C54.9995 22.6672 54.7697 22.594 54.534 22.594C54.2984 22.594 54.0685 22.6672 53.8763 22.8035C53.6841 22.9398 53.5389 23.1324 53.461 23.3548L52.5272 26.2309C52.2408 27.1005 51.7575 27.8924 51.1149 28.5447C50.4723 29.197 49.6877 29.6921 48.8223 29.9916L45.942 30.9252C45.7213 31.0048 45.5306 31.1506 45.3957 31.3426C45.2609 31.5346 45.1885 31.7635 45.1885 31.9981C45.1885 32.2327 45.2609 32.4615 45.3957 32.6535C45.5306 32.8455 45.7213 32.9913 45.942 33.0709L48.8223 34.0083C49.7001 34.301 50.4974 34.7943 51.1511 35.4491C51.8047 36.1039 52.2965 36.9021 52.5875 37.7803L53.5212 40.6564C53.5992 40.8788 53.7443 41.0714 53.9365 41.2077C54.1288 41.344 54.3586 41.4172 54.5943 41.4172C54.8299 41.4172 55.0598 41.344 55.252 41.2077C55.4442 41.0714 55.5894 40.8788 55.6673 40.6564L56.6048 37.7803C56.8969 36.9046 57.3889 36.1089 58.0417 35.4562C58.6945 34.8035 59.4904 34.3116 60.3662 34.0196L63.2465 33.086C63.4672 33.0063 63.658 32.8606 63.7928 32.6686C63.9277 32.4766 64 32.2477 64 32.0131C64 31.7785 63.9277 31.5496 63.7928 31.3576C63.658 31.1656 63.4672 31.0199 63.2465 30.9402L63.19 30.9252ZM13.1779 37.6486C12.6786 37.6486 12.1998 37.4503 11.8468 37.0973C11.4937 36.7443 11.2954 36.2655 11.2954 35.7663C11.2954 35.2671 11.4937 34.7884 11.8468 34.4354C12.1998 34.0824 12.6786 33.8841 13.1779 33.8841C13.6772 33.8841 14.156 34.0824 14.5091 34.4354C14.8621 34.7884 15.0605 35.2671 15.0605 35.7663C15.0605 36.2655 14.8621 36.7443 14.5091 37.0973C14.156 37.4503 13.6772 37.6486 13.1779 37.6486ZM15.0605 50.8243C15.0605 51.3235 14.8621 51.8022 14.5091 52.1552C14.156 52.5082 13.6772 52.7065 13.1779 52.7065C12.6786 52.7065 12.1998 52.5082 11.8468 52.1552C11.4937 51.8022 11.2954 51.3235 11.2954 50.8243C11.2954 50.3251 11.4937 49.8463 11.8468 49.4933C12.1998 49.1403 12.6786 48.942 13.1779 48.942C13.6772 48.942 14.156 49.1403 14.5091 49.4933C14.8621 49.8463 15.0605 50.3251 15.0605 50.8243ZM11.2954 11.2971H26.7512C26.5127 11.8973 26.379 12.534 26.3559 13.1794C26.369 14.3103 26.7406 15.4079 27.4171 16.3144C28.0937 17.2208 29.0404 17.8893 30.121 18.2238L31.9621 18.8261H9.4128C8.91352 18.8261 8.43468 19.0244 8.08163 19.3774C7.72858 19.7304 7.53024 20.2092 7.53024 20.7084C7.53024 21.2076 7.72858 21.6863 8.08163 22.0393C8.43468 22.3923 8.91352 22.5906 9.4128 22.5906H37.0224L38.216 26.3551C38.5548 27.3263 39.1573 28.1846 39.9479 28.8397C40.45 29.2111 41.0022 29.4746 41.6046 29.6302C41.3477 30.3932 41.283 31.2078 41.4163 32.0018C41.4151 32.6477 41.5418 33.2874 41.7891 33.8841H24.4733C23.974 33.8841 23.4952 34.0824 23.1421 34.4354C22.7891 34.7884 22.5907 35.2671 22.5907 35.7663C22.5907 36.2655 22.7891 36.7443 23.1421 37.0973C23.4952 37.4503 23.974 37.6486 24.4733 37.6486H43.2989C43.6294 37.6486 43.954 37.5616 44.2402 37.3964C44.5263 37.2312 44.764 36.9936 44.9292 36.7074L47.6664 37.5733C47.9727 37.6988 48.2488 37.8744 48.4948 38.1003C48.7338 38.3453 48.9141 38.6413 49.0219 38.9661L49.9255 41.8271C50.1596 42.4882 50.5279 43.0937 51.0074 43.6055C51.4869 44.1174 52.0672 44.5244 52.7117 44.8011V52.7065C52.7117 55.7017 51.5217 58.5743 49.4034 60.6922C47.2851 62.8102 44.4121 64 41.4163 64H11.2954C8.29965 64 5.42663 62.8102 3.30834 60.6922C1.19004 58.5743 0 55.7017 0 52.7065V22.5906C0 19.5954 1.19004 16.7228 3.30834 14.6049C5.42663 12.487 8.29965 11.2971 11.2954 11.2971ZM13.1779 41.4131C14.6758 41.4131 16.1123 40.8181 17.1714 39.7592C18.2306 38.7002 18.8256 37.2639 18.8256 35.7663C18.8256 34.2687 18.2306 32.8324 17.1714 31.7735C16.1123 30.7145 14.6758 30.1196 13.1779 30.1196C11.6801 30.1196 10.2436 30.7145 9.18441 31.7735C8.12527 32.8324 7.53024 34.2687 7.53024 35.7663C7.53024 37.2639 8.12527 38.7002 9.18441 39.7592C10.2436 40.8181 11.6801 41.4131 13.1779 41.4131ZM18.8256 50.8243C18.8256 49.3267 18.2306 47.8904 17.1714 46.8314C16.1123 45.7725 14.6758 45.1775 13.1779 45.1775C11.6801 45.1775 10.2436 45.7725 9.18441 46.8314C8.12527 47.8904 7.53024 49.3267 7.53024 50.8243C7.53024 52.3219 8.12527 53.7582 9.18441 54.8171C10.2436 55.8761 11.6801 56.471 13.1779 56.471C14.6758 56.471 16.1123 55.8761 17.1714 54.8171C18.2306 53.7582 18.8256 52.3219 18.8256 50.8243ZM24.4733 48.942C23.974 48.942 23.4952 49.1403 23.1421 49.4933C22.7891 49.8463 22.5907 50.3251 22.5907 50.8243C22.5907 51.3235 22.7891 51.8022 23.1421 52.1552C23.4952 52.5082 23.974 52.7065 24.4733 52.7065H43.2989C43.7982 52.7065 44.277 52.5082 44.6301 52.1552C44.9831 51.8022 45.1815 51.3235 45.1815 50.8243C45.1815 50.3251 44.9831 49.8463 44.6301 49.4933C44.277 49.1403 43.7982 48.942 43.2989 48.942H24.4733Z" fill="#2D415C"/>
</svg>
