<svg width="64" height="64" viewBox="0 0 64 64" fill="none" xmlns="http://www.w3.org/2000/svg">
<path d="M54.4 6.4H48V3.2C48 2.35131 47.6629 1.53737 47.0627 0.937258C46.4626 0.337142 45.6487 0 44.8 0C43.9513 0 43.1374 0.337142 42.5373 0.937258C41.9371 1.53737 41.6 2.35131 41.6 3.2V6.4H22.4V3.2C22.4 2.35131 22.0629 1.53737 21.4627 0.937258C20.8626 0.337142 20.0487 0 19.2 0C18.3513 0 17.5374 0.337142 16.9373 0.937258C16.3371 1.53737 16 2.35131 16 3.2V6.4H9.6C7.05392 6.4 4.61212 7.41143 2.81178 9.21178C1.01143 11.0121 0 13.4539 0 16V54.4C0 56.9461 1.01143 59.3879 2.81178 61.1882C4.61212 62.9886 7.05392 64 9.6 64H54.4C56.9461 64 59.3879 62.9886 61.1882 61.1882C62.9886 59.3879 64 56.9461 64 54.4V16C64 13.4539 62.9886 11.0121 61.1882 9.21178C59.3879 7.41143 56.9461 6.4 54.4 6.4ZM57.6 54.4C57.6 55.2487 57.2629 56.0626 56.6627 56.6627C56.0626 57.2629 55.2487 57.6 54.4 57.6H9.6C8.75131 57.6 7.93738 57.2629 7.33726 56.6627C6.73714 56.0626 6.4 55.2487 6.4 54.4V32H57.6V54.4ZM57.6 25.6H6.4V16C6.4 15.1513 6.73714 14.3374 7.33726 13.7373C7.93738 13.1371 8.75131 12.8 9.6 12.8H16V16C16 16.8487 16.3371 17.6626 16.9373 18.2627C17.5374 18.8629 18.3513 19.2 19.2 19.2C20.0487 19.2 20.8626 18.8629 21.4627 18.2627C22.0629 17.6626 22.4 16.8487 22.4 16V12.8H41.6V16C41.6 16.8487 41.9371 17.6626 42.5373 18.2627C43.1374 18.8629 43.9513 19.2 44.8 19.2C45.6487 19.2 46.4626 18.8629 47.0627 18.2627C47.6629 17.6626 48 16.8487 48 16V12.8H54.4C55.2487 12.8 56.0626 13.1371 56.6627 13.7373C57.2629 14.3374 57.6 15.1513 57.6 16V25.6Z" fill="#2D415C"/>
</svg>
