<svg width="64" height="64" viewBox="0 0 64 64" fill="none" xmlns="http://www.w3.org/2000/svg">
<path d="M28.66 11.9975H38.68L49.6687 0.98694C49.9792 0.674212 50.3486 0.425994 50.7556 0.256602C51.1626 0.0872111 51.5992 0 52.0401 0C52.481 0 52.9176 0.0872111 53.3246 0.256602C53.7316 0.425994 54.101 0.674212 54.4115 0.98694L63.0287 9.62856C63.6508 10.2537 64 11.0993 64 11.9808C64 12.8623 63.6508 13.7079 63.0287 14.3331L55.3801 22.0071H28.66V28.6802C28.66 29.5651 28.3081 30.4137 27.6817 31.0394C27.0553 31.6652 26.2058 32.0167 25.32 32.0167C24.4341 32.0167 23.5846 31.6652 22.9582 31.0394C22.3318 30.4137 21.9799 29.5651 21.9799 28.6802V18.6706C21.9799 16.9008 22.6837 15.2034 23.9365 13.952C25.1892 12.7005 26.8883 11.9975 28.66 11.9975ZM8.61989 28.6802V42.0263L0.971252 49.6669C0.349171 50.2921 0 51.1377 0 52.0192C0 52.9007 0.349171 53.7463 0.971252 54.3714L9.58849 63.0131C9.89899 63.3258 10.2684 63.574 10.6754 63.7434C11.0824 63.9128 11.519 64 11.9599 64C12.4008 64 12.8374 63.9128 13.2444 63.7434C13.6514 63.574 14.0208 63.3258 14.3313 63.0131L28.66 48.6993H42.02C42.9059 48.6993 43.7554 48.3478 44.3818 47.7221C45.0082 47.0964 45.3601 46.2477 45.3601 45.3628V42.0263H48.7001C49.5859 42.0263 50.4355 41.6748 51.0618 41.049C51.6882 40.4233 52.0401 39.5746 52.0401 38.6897V35.3532H55.3801C56.2659 35.3532 57.1155 35.0017 57.7419 34.376C58.3682 33.7502 58.7201 32.9016 58.7201 32.0167V28.6802H35.34V32.0167C35.34 33.7865 34.6362 35.4838 33.3835 36.7352C32.1307 37.9867 30.4316 38.6897 28.66 38.6897H21.9799C20.2083 38.6897 18.5092 37.9867 17.2565 36.7352C16.0037 35.4838 15.2999 33.7865 15.2999 32.0167V22.0071L8.61989 28.6802Z" fill="#2D415C"/>
</svg>
