<svg width="74" height="70" viewBox="0 0 74 70" fill="none" xmlns="http://www.w3.org/2000/svg">
<path d="M19.8421 19.8421C29.1437 19.8421 36.6842 16.0719 36.6842 11.4211C36.6842 6.77023 29.1437 3 19.8421 3C10.5405 3 3 6.77023 3 11.4211C3 16.0719 10.5405 19.8421 19.8421 19.8421Z" stroke="#2D415C" stroke-width="6" stroke-linecap="round" stroke-linejoin="round"/>
<path d="M3 11.4219C3 11.4219 3 18.5606 3 23.2113C3 27.8621 10.5405 31.6324 19.8421 31.6324C29.1437 31.6324 36.6842 27.8621 36.6842 23.2113C36.6842 20.4567 36.6842 11.4219 36.6842 11.4219" stroke="#2D415C" stroke-width="6" stroke-linecap="round" stroke-linejoin="round"/>
<path d="M3 23.2109C3 23.2109 3 30.3496 3 35.0004C3 39.6512 10.5405 43.4215 19.8421 43.4215C29.1437 43.4215 36.6842 39.6512 36.6842 35.0004C36.6842 32.2457 36.6842 23.2109 36.6842 23.2109" stroke="#2D415C" stroke-width="6" stroke-linecap="round" stroke-linejoin="round"/>
<path d="M3 35C3 35 3 42.1387 3 46.7895C3 51.4403 10.5405 55.2105 19.8421 55.2105C29.1437 55.2105 36.6842 51.4403 36.6842 46.7895C36.6842 44.0348 36.6842 35 36.6842 35" stroke="#2D415C" stroke-width="6" stroke-linecap="round" stroke-linejoin="round"/>
<path d="M3 46.7891C3 46.7891 3 53.9278 3 58.5785C3 63.2293 10.5405 66.9996 19.8421 66.9996C29.1437 66.9996 36.6842 63.2293 36.6842 58.5785C36.6842 55.8238 36.6842 46.7891 36.6842 46.7891" stroke="#2D415C" stroke-width="6" stroke-linecap="round" stroke-linejoin="round"/>
<path d="M53.5257 43.4202C62.8273 43.4202 70.3678 39.65 70.3678 34.9992C70.3678 30.3484 62.8273 26.5781 53.5257 26.5781C44.2241 26.5781 36.6836 30.3484 36.6836 34.9992C36.6836 39.65 44.2241 43.4202 53.5257 43.4202Z" stroke="#2D415C" stroke-width="6" stroke-linecap="round" stroke-linejoin="round"/>
<path d="M36.6836 35C36.6836 35 36.6836 42.1387 36.6836 46.7895C36.6836 51.4403 44.2241 55.2105 53.5257 55.2105C62.8273 55.2105 70.3678 51.4403 70.3678 46.7895C70.3678 44.0348 70.3678 35 70.3678 35" stroke="#2D415C" stroke-width="6" stroke-linecap="round" stroke-linejoin="round"/>
<path d="M36.6836 46.7891C36.6836 46.7891 36.6836 53.9278 36.6836 58.5785C36.6836 63.2293 44.2241 66.9996 53.5257 66.9996C62.8273 66.9996 70.3678 63.2293 70.3678 58.5785C70.3678 55.8238 70.3678 46.7891 70.3678 46.7891" stroke="#2D415C" stroke-width="6" stroke-linecap="round" stroke-linejoin="round"/>
</svg>
