<svg width="20" height="20" viewBox="0 0 20 20" fill="none" xmlns="http://www.w3.org/2000/svg">
<path d="M16.9558 0C17.5179 0 18.057 0.223301 18.4545 0.620779C18.8519 1.01826 19.0752 1.55735 19.0752 2.11947V16.9558C19.0752 17.5179 18.8519 18.057 18.4545 18.4545C18.057 18.8519 17.5179 19.0752 16.9558 19.0752H2.11947C1.55735 19.0752 1.01826 18.8519 0.620779 18.4545C0.223301 18.057 0 17.5179 0 16.9558V2.11947C0 1.55735 0.223301 1.01826 0.620779 0.620779C1.01826 0.223301 1.55735 0 2.11947 0H16.9558ZM16.4259 16.4259V10.8093C16.4259 9.89305 16.0619 9.01432 15.414 8.36644C14.7661 7.71855 13.8874 7.35457 12.9712 7.35457C12.0704 7.35457 11.0213 7.90563 10.5126 8.73222V7.55592H7.55592V16.4259H10.5126V11.2014C10.5126 10.3854 11.1696 9.71778 11.9856 9.71778C12.3791 9.71778 12.7565 9.87409 13.0347 10.1523C13.3129 10.4306 13.4692 10.8079 13.4692 11.2014V16.4259H16.4259ZM4.11177 5.89213C4.58395 5.89213 5.0368 5.70456 5.37068 5.37068C5.70456 5.0368 5.89213 4.58395 5.89213 4.11177C5.89213 3.12622 5.09733 2.32082 4.11177 2.32082C3.63678 2.32082 3.18125 2.50951 2.84538 2.84538C2.50951 3.18125 2.32082 3.63678 2.32082 4.11177C2.32082 5.09733 3.12622 5.89213 4.11177 5.89213ZM5.58481 16.4259V7.55592H2.64934V16.4259H5.58481Z" fill="#2D415C"/>
</svg>
