<svg width="251" height="238" viewBox="0 0 251 238" fill="none" xmlns="http://www.w3.org/2000/svg">
<path d="M216.511 107.338H139.304C135.89 107.338 133.129 104.72 133.129 101.483V47.8382C133.129 44.6014 135.89 41.9834 139.304 41.9834H216.511C219.925 41.9834 222.686 44.6014 222.686 47.8382V101.436C222.686 104.72 219.925 107.338 216.511 107.338ZM139.304 42.6974C136.292 42.6974 133.882 45.0298 133.882 47.8382V101.436C133.882 104.292 136.342 106.577 139.304 106.577H216.511C219.523 106.577 221.933 104.244 221.933 101.436V47.8382C221.933 44.9822 219.473 42.6974 216.511 42.6974H139.304Z" fill="#231F20"/>
<path d="M215.406 55.7401H209.683C209.482 55.7401 209.281 55.5973 209.281 55.3593C209.281 55.1213 209.432 54.9785 209.683 54.9785H215.406C215.606 54.9785 215.807 55.1213 215.807 55.3593C215.807 55.5973 215.657 55.7401 215.406 55.7401Z" fill="#D1D3D4"/>
<path d="M209.735 55.7401H140.359C140.158 55.7401 139.957 55.5973 139.957 55.3593C139.957 55.1213 140.108 54.9785 140.359 54.9785H209.685C209.886 54.9785 210.086 55.1213 210.086 55.3593C210.086 55.5973 209.936 55.7401 209.735 55.7401Z" fill="#D1D3D4"/>
<path d="M215.408 64.2128H140.359C140.158 64.2128 139.957 64.07 139.957 63.832C139.957 63.594 140.108 63.4512 140.359 63.4512H215.408C215.608 63.4512 215.809 63.594 215.809 63.832C215.809 64.07 215.659 64.2128 215.408 64.2128Z" fill="#D1D3D4"/>
<path d="M215.406 72.7333H209.031C208.83 72.7333 208.629 72.5905 208.629 72.3525C208.629 72.1145 208.78 71.9717 209.031 71.9717H215.406C215.607 71.9717 215.808 72.1145 215.808 72.3525C215.808 72.5905 215.657 72.7333 215.406 72.7333Z" fill="#D1D3D4"/>
<path d="M144.978 72.7333H140.409C140.209 72.7333 140.008 72.5905 140.008 72.3525C140.008 72.1145 140.158 71.9717 140.409 71.9717H144.978C145.178 71.9717 145.379 72.1145 145.379 72.3525C145.379 72.5905 145.178 72.7333 144.978 72.7333Z" fill="#D1D3D4"/>
<path d="M215.408 81.2538H209.183C208.982 81.2538 208.781 81.111 208.781 80.873C208.781 80.635 208.932 80.4922 209.183 80.4922H215.408C215.608 80.4922 215.809 80.635 215.809 80.873C215.809 81.111 215.659 81.2538 215.408 81.2538Z" fill="#D1D3D4"/>
<path d="M148.089 81.2538H140.359C140.158 81.2538 139.957 81.111 139.957 80.873C139.957 80.635 140.108 80.4922 140.359 80.4922H148.089C148.29 80.4922 148.491 80.635 148.491 80.873C148.491 81.111 148.29 81.2538 148.089 81.2538Z" fill="#D1D3D4"/>
<path d="M215.405 89.7733H205.616C205.416 89.7733 205.215 89.6305 205.215 89.3925C205.215 89.1545 205.365 89.0117 205.616 89.0117H215.405C215.606 89.0117 215.807 89.1545 215.807 89.3925C215.807 89.6305 215.656 89.7733 215.405 89.7733Z" fill="#D1D3D4"/>
<path d="M199.395 89.7733H170.128C169.927 89.7733 169.727 89.6305 169.727 89.3925C169.727 89.1545 169.877 89.0117 170.128 89.0117H199.395C199.596 89.0117 199.796 89.1545 199.796 89.3925C199.796 89.6305 199.646 89.7733 199.395 89.7733Z" fill="#D1D3D4"/>
<path d="M164.606 89.7733H140.409C140.209 89.7733 140.008 89.6305 140.008 89.3925C140.008 89.1545 140.158 89.0117 140.409 89.0117H164.606C164.807 89.0117 165.007 89.1545 165.007 89.3925C165.007 89.6305 164.807 89.7733 164.606 89.7733Z" fill="#D1D3D4"/>
<path d="M215.405 98.2938H190.757C190.556 98.2938 190.355 98.151 190.355 97.913C190.355 97.675 190.506 97.5322 190.757 97.5322H215.455C215.656 97.5322 215.857 97.675 215.857 97.913C215.857 98.151 215.656 98.2938 215.405 98.2938Z" fill="#D1D3D4"/>
<path d="M152.658 98.2938H140.409C140.209 98.2938 140.008 98.151 140.008 97.913C140.008 97.675 140.158 97.5322 140.409 97.5322H152.708C152.909 97.5322 153.11 97.675 153.11 97.913C153.11 98.151 152.859 98.2938 152.658 98.2938Z" fill="#D1D3D4"/>
<path d="M155.015 52.4082H200.797C204.01 52.4082 206.62 54.8834 206.62 57.9298V76.7794C206.62 79.8258 204.01 82.301 200.797 82.301H155.015C151.802 82.301 149.191 79.8258 149.191 76.7794V57.9298C149.191 54.8834 151.802 52.4082 155.015 52.4082Z" fill="#FF8A40"/>
<path d="M200.797 82.6341H155.014C151.601 82.6341 148.84 80.0161 148.84 76.7317V57.8821C148.84 54.6453 151.601 52.0273 155.014 52.0273H200.797C204.21 52.0273 206.971 54.6453 206.971 57.8821V76.7317C206.971 80.0161 204.21 82.6341 200.797 82.6341ZM155.014 52.7413C152.002 52.7413 149.593 55.0737 149.593 57.8821V76.7317C149.593 79.5877 152.053 81.8725 155.014 81.9201H200.797C203.809 81.9201 206.218 79.5877 206.218 76.7317V57.8821C206.218 55.0261 203.759 52.7413 200.797 52.7413H155.014Z" fill="#231F20"/>
<path d="M171.633 76.4454C171.081 76.4454 170.579 76.2074 170.278 75.8266L163.902 68.401C163.25 67.687 163.35 66.6398 164.053 66.0686C164.806 65.4498 165.91 65.545 166.513 66.2114C166.563 66.259 166.563 66.259 166.613 66.3066L171.934 72.4946L191.663 58.3574C192.416 57.7862 193.52 57.8814 194.123 58.5954C194.725 59.3094 194.625 60.3566 193.872 60.9278C193.821 60.9278 193.821 60.9754 193.771 60.9754L172.687 76.1122C172.386 76.3502 171.984 76.4454 171.633 76.4454Z" fill="#231F20"/>
<path d="M167.317 123.236L149.044 131.471C149.044 131.471 144.175 181.546 146.383 197.159C146.383 197.159 182.929 201.586 196.885 194.303C196.885 194.303 204.013 168.028 201.704 148.655C200.85 141.277 199.897 129.996 199.897 129.996L181.272 123.617L167.317 123.236Z" fill="#FF8A40"/>
<path d="M155.771 108.337C155.57 108.337 155.37 108.432 155.219 108.575C155.068 108.813 154.968 109.146 154.968 109.432C154.868 110.527 155.018 111.622 155.37 112.669C155.721 113.668 156.424 114.525 157.378 115.096C157.829 115.382 158.382 115.525 158.884 115.382C159.185 115.239 159.386 115.001 159.436 114.716C160.189 112.002 158.532 110.003 157.478 109.004C157.026 108.575 156.374 108.29 155.771 108.337Z" fill="white"/>
<path d="M158.481 115.81C157.979 115.81 157.527 115.668 157.125 115.382C156.121 114.763 155.368 113.859 155.017 112.764C154.615 111.669 154.465 110.527 154.565 109.384C154.565 109.004 154.666 108.623 154.917 108.337C155.117 108.147 155.419 108.004 155.72 107.956C156.473 107.909 157.226 108.194 157.728 108.718C158.832 109.718 160.639 111.907 159.786 114.763C159.686 115.192 159.384 115.525 158.983 115.668C158.832 115.81 158.682 115.81 158.481 115.81ZM155.77 108.337L155.82 108.67C155.72 108.67 155.619 108.718 155.519 108.766C155.419 108.956 155.368 109.194 155.368 109.432C155.268 110.479 155.419 111.526 155.77 112.526C156.121 113.43 156.774 114.24 157.577 114.811C157.929 115.049 158.33 115.144 158.782 115.096C158.882 115.049 159.033 114.954 159.133 114.668C159.836 112.145 158.28 110.241 157.276 109.337C156.925 108.956 156.423 108.766 155.87 108.766L155.77 108.337Z" fill="#231F20"/>
<path d="M183.23 111.003C185.54 107.957 186.293 104.72 185.54 101.388C182.728 91.6776 173.441 94.4384 172.99 94.4384C172.488 92.5344 166.413 90.916 163.502 91.868C160.239 92.9628 154.365 97.5324 155.871 108.909C156.624 111.908 156.875 116.572 160.64 117.62C164.958 118.857 170.731 116.382 174.847 115.192C177.257 114.478 180.771 113.478 182.528 111.717C182.829 111.527 183.03 111.289 183.23 111.003Z" fill="white"/>
<path d="M163.302 118.333C162.399 118.333 161.495 118.238 160.592 118C157.178 117.048 156.475 113.431 155.873 110.575C155.773 110.051 155.672 109.527 155.521 109.051C153.614 95.2475 162.349 91.9155 163.353 91.5823C165.562 90.8683 169.327 91.5347 171.485 92.6295C172.188 92.9151 172.79 93.4387 173.192 94.0575C179.517 92.7723 184.136 95.3903 185.842 101.34C186.646 104.767 185.842 108.099 183.483 111.241C183.282 111.527 183.031 111.765 182.78 112.003C180.973 113.811 177.609 114.763 175.15 115.525L174.949 115.573C174.246 115.763 173.493 116.049 172.69 116.287C169.829 117.239 166.415 118.333 163.302 118.333ZM165.612 91.9631C164.959 91.9631 164.307 92.0583 163.654 92.2487C162.7 92.5819 154.517 95.6759 156.274 108.909C156.375 109.337 156.475 109.861 156.576 110.432C157.128 113.288 157.781 116.477 160.742 117.334C164.206 118.286 168.774 116.81 172.389 115.62C173.192 115.335 173.995 115.097 174.698 114.906L174.899 114.859C177.308 114.145 180.571 113.193 182.228 111.527C182.429 111.289 182.63 111.051 182.83 110.813C185.039 107.861 185.792 104.72 185.089 101.483C182.931 93.9147 176.706 94.0575 173.242 94.7715C173.142 94.7715 173.041 94.8191 172.991 94.8191H172.69L172.64 94.5335C172.539 94.1051 172.037 93.6767 171.184 93.2483C169.477 92.4391 167.57 92.0107 165.612 91.9631Z" fill="#231F20"/>
<path d="M165.46 122.998L164.606 132.232C164.606 132.232 168.271 137.611 174.395 135.517C180.52 133.423 181.022 128.71 181.022 128.662C180.821 125.426 180.67 122.189 180.469 118.952C180.369 116.953 180.218 114.954 180.118 112.954C180.068 112.478 180.218 111.526 180.018 111.098C179.716 110.527 178.963 110.146 178.461 109.67C177.809 108.956 177.206 108.242 176.704 107.433C175.65 105.862 174.797 104.148 174.245 102.34C171.885 102.72 168.221 102.578 166.213 101.388C166.062 102.768 167.367 103.434 167.317 104.767C164.757 104.577 163.652 103.91 161.895 102.482C161.092 102.482 158.532 108.099 158.281 110.241C157.93 113.05 158.13 115.906 158.883 118.619C160.189 123.188 165.51 122.998 165.46 122.998Z" fill="white"/>
<path d="M171.584 136.327C167.016 136.327 164.305 132.471 164.305 132.424L164.255 132.328L165.108 123.38C163.753 123.284 159.686 122.713 158.532 118.715C157.779 115.954 157.578 113.05 157.929 110.194C158.13 108.243 160.64 102.102 161.895 102.102H162.046L162.146 102.198C163.853 103.578 164.857 104.149 166.915 104.34C166.815 103.959 166.664 103.626 166.413 103.34C166.012 102.769 165.761 102.055 165.811 101.341L165.861 100.77L166.363 101.055C168.271 102.15 171.785 102.34 174.144 101.96L174.495 101.912L174.596 102.198C175.148 103.959 176.001 105.672 177.056 107.196C177.558 107.957 178.16 108.719 178.813 109.385C178.963 109.528 179.164 109.671 179.365 109.814C179.817 110.099 180.168 110.48 180.419 110.908C180.57 111.384 180.62 111.86 180.57 112.336C180.57 112.527 180.57 112.717 180.57 112.86C180.67 114.859 180.821 116.858 180.921 118.858C181.021 120.476 181.122 122.094 181.222 123.713C181.323 125.331 181.423 126.95 181.523 128.568C181.523 128.616 181.021 133.518 174.646 135.756C173.592 136.136 172.588 136.327 171.584 136.327ZM164.957 132.138C165.51 132.852 168.823 137.041 174.244 135.184C179.967 133.185 180.57 128.996 180.62 128.663C180.519 127.045 180.419 125.426 180.319 123.808C180.218 122.19 180.118 120.571 180.017 118.953C179.917 116.954 179.766 114.954 179.666 112.955C179.666 112.812 179.666 112.574 179.666 112.384C179.716 112.003 179.666 111.622 179.616 111.242C179.415 110.908 179.114 110.623 178.762 110.432C178.562 110.29 178.361 110.099 178.16 109.909C177.457 109.195 176.855 108.433 176.353 107.624C175.299 106.101 174.495 104.435 173.893 102.721C171.684 103.054 168.572 102.864 166.564 102.007C166.664 102.34 166.815 102.721 167.016 103.007C167.367 103.53 167.618 104.149 167.618 104.768V105.149L167.216 105.101C164.706 104.911 163.502 104.292 161.745 102.912C160.992 103.626 158.783 108.195 158.582 110.29C158.231 113.05 158.431 115.859 159.184 118.524C160.439 122.761 165.259 122.666 165.459 122.666L165.51 123.046L165.861 123.094L164.957 132.138Z" fill="#231F20"/>
<path d="M165.008 127.854C167.267 128.044 169.476 127.14 170.881 125.474C173.341 122.618 172.889 120.523 172.889 120.523C172.889 120.523 169.727 123.379 165.46 122.999L165.008 127.854Z" fill="#231F20"/>
<path d="M165.559 128.235C165.358 128.235 165.158 128.235 164.957 128.187L164.605 128.14L165.158 122.618L165.509 122.666C169.525 122.999 172.587 120.286 172.637 120.238L173.139 119.81L173.29 120.428C173.29 120.524 173.792 122.713 171.232 125.664C169.826 127.283 167.718 128.235 165.559 128.235ZM165.409 127.521C167.417 127.568 169.324 126.712 170.579 125.236C172.085 123.475 172.437 122.047 172.537 121.238C170.629 122.666 168.27 123.427 165.81 123.38L165.409 127.521Z" fill="#231F20"/>
<path d="M166.363 107.957C166.363 107.957 163.452 112.907 164.305 113.669C165.158 114.431 167.317 113.717 167.317 113.717" fill="white"/>
<path d="M165.511 114.383C164.959 114.43 164.406 114.24 164.005 113.954C163.704 113.669 163.252 112.526 166.013 107.814C166.113 107.671 166.314 107.576 166.515 107.671C166.665 107.766 166.766 107.957 166.665 108.147C165.21 110.575 164.206 113.05 164.507 113.431C165.059 113.907 166.615 113.574 167.117 113.383C167.318 113.288 167.519 113.383 167.619 113.574C167.72 113.764 167.619 113.954 167.418 114.05H167.368C166.816 114.24 166.163 114.335 165.511 114.383Z" fill="#231F20"/>
<path d="M172.516 107.845C172.649 107.254 172.406 106.703 171.972 106.615C171.539 106.527 171.079 106.935 170.945 107.526C170.811 108.117 171.055 108.668 171.488 108.756C171.922 108.844 172.382 108.437 172.516 107.845Z" fill="#231F20"/>
<path d="M163.489 108.092C163.575 107.493 163.288 106.961 162.848 106.905C162.408 106.849 161.983 107.289 161.897 107.888C161.812 108.487 162.099 109.018 162.538 109.075C162.978 109.131 163.403 108.691 163.489 108.092Z" fill="#231F20"/>
<path d="M177.861 110.908C177.56 108.956 179.367 106.053 181.777 107.052C182.63 107.481 183.232 108.195 183.534 109.051C185.04 113.002 181.877 114.763 179.718 115.953" fill="white"/>
<path d="M179.665 116.334C179.464 116.334 179.314 116.191 179.314 115.953C179.314 115.811 179.364 115.715 179.515 115.668L179.565 115.62C181.673 114.43 184.535 112.812 183.129 109.147C182.878 108.385 182.326 107.719 181.573 107.338C180.92 107.052 180.117 107.147 179.565 107.623C178.561 108.433 178.059 109.623 178.209 110.86C178.26 111.051 178.109 111.241 177.908 111.289C177.707 111.336 177.507 111.193 177.456 111.003V110.955C177.306 109.48 177.908 108.004 179.113 107.052C179.916 106.433 180.97 106.291 181.874 106.719C182.828 107.147 183.531 107.957 183.832 108.909C185.438 113.097 182.125 115.001 179.916 116.239L179.866 116.287C179.816 116.287 179.766 116.334 179.665 116.334Z" fill="#231F20"/>
<path d="M162.195 116.334C162.195 116.334 165.258 120.713 170.78 116.715L162.195 116.334Z" fill="white"/>
<path d="M166.362 118.714C166.061 118.714 165.759 118.714 165.508 118.667C164.053 118.429 162.747 117.667 161.894 116.525C161.794 116.334 161.844 116.144 162.045 116.049C162.195 115.953 162.446 116.001 162.547 116.144C163.3 117.096 164.404 117.762 165.659 118C167.215 118.238 168.872 117.715 170.629 116.477C170.779 116.382 171.03 116.429 171.131 116.572C171.231 116.715 171.231 116.905 171.081 117.048C169.424 118.143 167.868 118.714 166.362 118.714Z" fill="#231F20"/>
<path d="M199.946 129.995C203.359 130.947 212.596 160.554 214.654 173.216C215.709 179.69 195.528 197.54 195.528 197.54L174.344 197.682C174.344 197.682 188.852 181.451 194.876 174.216C193.018 166.219 191.362 159.031 189.605 154.224C187.747 147.94 180.217 124.474 199.946 129.995Z" fill="#FF8A40"/>
<path d="M149.044 131.471C149.044 131.471 144.024 137.944 141.113 149.701C138.201 161.459 126.906 195.397 126.906 195.397L150.601 197.635L159.837 144.941C159.837 144.941 159.586 132.232 149.044 131.471Z" fill="#FF8A40"/>
<path d="M180.267 191.352C180.167 191.352 180.066 191.304 180.016 191.257C179.866 191.114 179.815 190.924 179.966 190.733C184.635 185.45 190.91 178.31 194.474 174.073C193.269 168.885 191.01 160.698 189.353 154.748C188.45 151.511 187.747 148.94 187.546 147.988C187.496 147.798 187.647 147.608 187.847 147.56C188.048 147.512 188.249 147.655 188.299 147.846C188.5 148.75 189.203 151.32 190.106 154.557C191.813 160.602 194.072 168.932 195.277 174.073L195.327 174.264L195.227 174.406C191.713 178.643 185.337 185.878 180.619 191.209C180.468 191.304 180.368 191.352 180.267 191.352Z" fill="#231F20"/>
<path d="M151.757 167.932C151.506 167.932 151.355 167.742 151.355 167.552L153.313 142.895C153.313 142.704 153.514 142.562 153.715 142.562C153.916 142.562 154.066 142.752 154.066 142.942L152.058 167.599C152.108 167.79 151.958 167.932 151.757 167.932Z" fill="#231F20"/>
<path d="M187.195 196.635C187.195 196.635 182.677 188.829 176.051 191.066C169.726 193.161 166.613 195.731 166.613 195.731L179.515 196.064C179.665 196.064 179.816 196.064 179.966 196.064L187.195 196.635Z" fill="white"/>
<path d="M187.848 197.064L179.916 196.398C179.766 196.398 179.615 196.398 179.465 196.398L165.609 196.017L166.362 195.398C166.513 195.303 169.625 192.78 175.9 190.686C178.762 189.734 181.673 190.448 184.334 192.732C185.589 193.827 186.643 195.065 187.497 196.445L187.848 197.064ZM179.916 195.684L186.493 196.207C185.288 194.494 181.372 189.638 176.202 191.4C173.19 192.352 170.328 193.684 167.718 195.398L179.565 195.731C179.615 195.731 179.766 195.731 179.916 195.684Z" fill="#231F20"/>
<path d="M175.449 196.303C175.248 196.303 175.098 196.16 175.098 195.922C175.098 195.779 175.198 195.636 175.349 195.589L180.519 193.494C180.72 193.399 180.921 193.494 181.021 193.685C181.122 193.875 181.021 194.066 180.82 194.161L175.65 196.255C175.549 196.303 175.499 196.303 175.449 196.303Z" fill="#231F20"/>
<path d="M170.782 196.207C170.632 196.207 170.531 196.112 170.431 196.017C170.331 195.826 170.431 195.636 170.582 195.541L176.606 192.637C176.806 192.542 177.007 192.637 177.108 192.78C177.208 192.97 177.108 193.161 176.957 193.256L170.933 196.159C170.883 196.159 170.833 196.207 170.782 196.207Z" fill="#231F20"/>
<path d="M108.535 199.444H79.0175L76.9593 186.877C76.9593 186.877 76.3067 193.208 75.5537 199.444H46.7891L50.7047 160.126L102.21 157.556L108.535 199.444Z" fill="#231F20"/>
<path d="M76.9582 71.1148C76.7574 68.2588 76.406 65.4028 76.6068 62.5468C76.8076 59.6908 77.7614 56.7396 79.8196 54.6928C80.6228 53.836 81.7272 53.2172 82.932 53.0268C83.9862 52.884 85.5926 53.6932 85.5926 53.6932C86.4962 53.2648 87.45 52.8364 88.454 52.5032C90.5122 51.8844 92.721 51.932 94.8294 52.0272C97.8414 52.2176 101.305 52.884 102.811 55.4068C103.916 57.2156 103.665 59.5004 103.363 61.5948C103.112 63.4036 102.861 65.1648 102.61 66.9736" fill="white"/>
<path d="M76.9075 71.5428C76.7067 71.4952 76.5561 71.3524 76.5561 71.162C76.5059 70.4004 76.4557 69.6864 76.4055 68.9248C76.1545 66.7828 76.1043 64.6408 76.2047 62.5464C76.4055 60.1664 77.1083 56.8344 79.5681 54.4544C80.4215 53.5024 81.6263 52.8836 82.9315 52.6456C83.8853 52.5504 85.1403 53.0264 85.6423 53.2644C86.5459 52.836 87.4495 52.4552 88.3531 52.122C90.5619 51.5032 92.8711 51.5032 94.8791 51.646C99.1963 51.9316 101.907 53.074 103.212 55.216C104.467 57.2628 104.116 59.7856 103.815 61.6896L103.062 67.0684C103.012 67.3064 102.811 67.4492 102.61 67.4016C102.359 67.4016 102.208 67.2112 102.259 66.9732C102.259 66.9732 102.259 66.9732 102.259 66.9256L103.012 61.5468C103.313 59.262 103.514 57.2628 102.51 55.5968C101.355 53.6928 98.8449 52.6932 94.8791 52.4076C92.9715 52.3124 90.7125 52.2648 88.6543 52.8836C87.7005 53.2168 86.7969 53.6452 85.8933 54.0736C85.7929 54.1212 85.6423 54.1212 85.4917 54.0736C85.0901 53.8832 83.8351 53.3596 83.0821 53.4548C81.9777 53.6452 80.9737 54.2164 80.2207 55.0256C77.9617 57.2628 77.2589 60.4044 77.1083 62.6416C77.0079 64.736 77.0581 66.8304 77.3091 68.9248C77.3593 69.6864 77.4095 70.448 77.4597 71.162C77.4597 71.4 77.3091 71.5904 77.0581 71.5904H76.9577L76.9075 71.5428Z" fill="#231F20"/>
<path d="M99.9008 151.654C99.0976 136.66 100.252 92.2012 98.8968 91.3444C95.6338 89.2976 77.361 84.6805 71.9896 90.8209C70.333 92.7249 58.3854 150.559 57.9336 163.173H99.2984L99.9008 151.654Z" fill="#231F20"/>
<path d="M89.3576 163.459H71.386C71.1852 163.459 70.9844 163.316 70.9844 163.078C70.9844 162.84 71.135 162.697 71.386 162.697H89.3576C89.5584 162.697 89.7592 162.84 89.7592 163.078C89.7592 163.316 89.5584 163.459 89.3576 163.459Z" fill="white"/>
<path d="M90.7134 96.914L87.4002 101.864L87.7516 134.185L82.581 140.135L76.7578 134.518L84.84 101.198L80.1714 93.3916L90.7134 96.914Z" fill="white"/>
<path d="M82.5302 140.515C82.4298 140.515 82.3796 140.468 82.2792 140.42L76.456 134.803C76.3556 134.708 76.3054 134.565 76.3556 134.422L84.3876 101.245L79.7692 93.5817C79.6688 93.4389 79.6688 93.2485 79.8194 93.1057C79.9198 92.9629 80.1206 92.9153 80.2712 93.0105L90.8132 96.5329C90.9136 96.5805 91.014 96.6757 91.0642 96.7709C91.1144 96.8661 91.0642 97.0089 91.014 97.1041L87.8012 101.959L88.1526 134.184C88.1526 134.28 88.1024 134.375 88.0522 134.422L82.8816 140.372C82.7812 140.468 82.6808 140.515 82.5804 140.515H82.5302ZM77.209 134.375L82.5302 139.516L87.3494 134.042L86.998 101.864C86.998 101.769 86.998 101.721 87.0482 101.626L90.0602 97.1517L81.0744 94.1529L85.1908 101.007C85.241 101.102 85.241 101.198 85.241 101.293L77.209 134.375Z" fill="#231F20"/>
<path d="M72.2907 170.836L77.2103 88.4879L95.2823 91.2487L87.2503 170.122L105.824 167.076C106.878 143.656 110.292 96.7227 108.485 94.1523C101.708 84.3943 80.0717 83.9659 80.0717 83.9659C80.0717 83.9659 64.7607 82.3475 58.4857 90.0111C56.8793 91.9627 48.1947 155.699 46.7891 164.838L72.2907 170.836Z" fill="#FF8A40"/>
<path d="M94.7313 86.0134L94.6811 92.1062C94.6811 92.1062 92.2213 100.579 85.5949 98.0086C78.9685 95.4382 77.2617 89.155 77.2617 89.155L79.0689 73.3518C79.0689 73.3518 84.5909 71.4954 84.7917 60.833C90.0125 63.927 96.0867 65.6406 102.261 65.7834C102.261 65.7834 102.864 76.9218 101.207 81.8246C99.5505 86.7274 94.7313 86.0134 94.7313 86.0134Z" fill="white"/>
<path d="M87.05 98.8178C86.4978 98.7226 85.9456 98.5798 85.4436 98.3894C78.7168 95.7714 76.9096 89.5358 76.8594 89.2502C76.8594 89.2026 76.8594 89.155 76.8594 89.1074L78.6666 73.3042C78.6666 73.1614 78.8172 73.0186 78.9678 72.971C79.018 72.971 84.1886 71.067 84.3894 60.7854C84.3894 60.6426 84.4898 60.4998 84.6404 60.4522C84.791 60.4046 84.9416 60.4046 85.0922 60.4998C90.2628 63.5462 96.2366 65.2122 102.311 65.355C102.512 65.355 102.712 65.5454 102.712 65.7358C102.763 66.1642 103.315 77.017 101.658 81.9198C100.253 86.1562 96.5378 86.4894 95.1824 86.4418L95.1322 92.1062C95.1322 92.1538 95.1322 92.1538 95.1322 92.2014C95.082 92.3918 93.7768 96.8186 90.4134 98.3418C89.3592 98.8178 88.2046 98.9606 87.05 98.8178ZM77.7128 89.0598C77.9136 89.7262 79.8212 95.2954 85.795 97.5802C87.1504 98.199 88.7066 98.199 90.0118 97.5802C92.823 96.2474 94.1282 92.4394 94.2286 91.9634L94.2788 85.9658C94.2788 85.8706 94.329 85.7278 94.4294 85.6802C94.5298 85.585 94.6302 85.585 94.7808 85.585C94.9816 85.6326 99.2486 86.1562 100.755 81.6342C102.21 77.3502 101.859 68.0682 101.809 66.069C95.9354 65.831 90.2126 64.2602 85.1424 61.4518C84.791 70.5434 80.524 73.0186 79.4196 73.5422L77.7128 89.0598Z" fill="#231F20"/>
<path d="M93.6764 70.876C93.6764 70.876 95.9856 77.064 94.831 77.7304C93.6764 78.3968 91.3672 77.2068 91.3672 77.2068" fill="white"/>
<path d="M93.375 78.3498C92.622 78.207 91.869 77.969 91.2164 77.5882C91.0156 77.493 90.9654 77.255 91.0658 77.0646C91.1662 76.8742 91.4172 76.8266 91.618 76.9218C92.1702 77.2074 93.877 77.9214 94.63 77.4454C95.0818 77.1598 94.4292 74.1134 93.3248 71.0194C93.2746 70.829 93.375 70.591 93.5758 70.5434C93.7766 70.4958 94.0276 70.591 94.0778 70.7814C94.7806 72.733 96.3368 77.3502 95.0818 78.1118C94.5798 78.3498 93.9272 78.445 93.375 78.3498Z" fill="#231F20"/>
<path d="M88.811 70.8954C88.9131 70.0862 88.6834 69.3948 88.298 69.3511C87.9126 69.3073 87.5175 69.9279 87.4153 70.737C87.3132 71.5462 87.5429 72.2376 87.9283 72.2813C88.3137 72.325 88.7089 71.7045 88.811 70.8954Z" fill="#231F20"/>
<path d="M99.5961 72.5477C99.6982 71.7385 99.4686 71.0471 99.0832 71.0034C98.6978 70.9597 98.3026 71.5802 98.2005 72.3894C98.0984 73.1985 98.328 73.8899 98.7134 73.9337C99.0988 73.9774 99.494 73.3569 99.5961 72.5477Z" fill="#231F20"/>
<path d="M83.9352 71.3048C83.4834 70.21 82.8308 69.258 82.0276 68.4012C81.626 67.9252 81.0236 67.5444 80.4212 67.4016C79.869 67.3064 79.367 67.4016 78.865 67.592C77.359 68.1632 76.2044 69.258 75.602 70.686C75.351 71.3524 75.2506 72.0664 75.351 72.7328C75.5518 73.8276 76.1542 74.7796 77.0578 75.4936C77.9614 76.2076 78.9152 76.7788 79.9694 77.2548" fill="white"/>
<path d="M79.8702 77.6832C79.82 77.6832 79.7697 77.6832 79.7195 77.6356C78.6653 77.1596 77.6111 76.5408 76.7075 75.8268C75.7537 75.0652 75.051 74.018 74.8502 72.828C74.7498 72.0664 74.8501 71.3048 75.1513 70.5908C75.7537 69.0676 77.0589 67.83 78.6653 67.2588C79.2175 67.0208 79.8701 66.9732 80.4725 67.0684C81.1753 67.2588 81.8279 67.6396 82.3299 68.2108C83.1833 69.1152 83.8861 70.1148 84.3379 71.2572C84.4383 71.4476 84.3379 71.6856 84.1371 71.7808C83.9363 71.876 83.6853 71.7808 83.5849 71.5904C83.5849 71.5904 83.5849 71.5428 83.5347 71.5428C83.1331 70.4956 82.4805 69.5912 81.6773 68.782C81.3259 68.3536 80.8239 68.068 80.2717 67.8776C79.8199 67.83 79.3681 67.8776 78.9163 68.068C77.5107 68.5916 76.4565 69.5912 75.9043 70.924C75.6533 71.4952 75.6031 72.1616 75.6533 72.7804C75.8541 73.78 76.4565 74.6368 77.2597 75.3032C78.1131 75.9696 79.0669 76.5408 80.0709 77.0168C80.2717 77.112 80.3721 77.35 80.2215 77.5404C80.2215 77.6356 80.0208 77.7308 79.8702 77.6832Z" fill="#231F20"/>
<path d="M94.7292 86.0134C90.663 85.9658 86.7474 84.7282 83.4844 82.4434C83.4844 82.4434 87.902 91.9158 94.679 91.7254L94.7292 86.0134Z" fill="#231F20"/>
<path d="M93.3243 92.0109C87.1497 91.0589 83.3345 82.9669 83.1839 82.5861C83.0835 82.3957 83.1839 82.1577 83.3847 82.0625C83.5353 82.0149 83.6859 82.0149 83.7863 82.1101C86.9489 84.3473 90.8143 85.5849 94.7299 85.6325C94.8303 85.6325 94.9307 85.6801 95.0311 85.7277C95.1315 85.8229 95.1817 85.9181 95.1817 86.0133L95.1315 91.7253C95.1315 91.9157 94.9307 92.1061 94.7299 92.1061C94.2279 92.1537 93.7761 92.1061 93.3243 92.0109ZM84.5895 83.5857C86.0453 86.0609 89.5593 91.1541 94.2781 91.2969L94.3283 86.3941C90.8645 86.2989 87.5011 85.3469 84.5895 83.5857Z" fill="#231F20"/>
<path d="M87.8038 74.2562C84.7918 73.7802 82.7336 71.1146 83.2356 68.2586C83.7376 65.4026 86.5488 63.451 89.5608 63.927C92.5728 64.403 94.5808 67.0686 94.129 69.9246C93.6772 72.7806 90.8158 74.7322 87.8038 74.2562ZM89.4102 64.6886C86.85 64.3078 84.4404 65.9262 84.0388 68.3538C83.6372 70.7814 85.344 73.0662 87.9042 73.447C90.4644 73.8278 92.874 72.2094 93.2756 69.7818C93.7274 67.3542 92.0206 65.0694 89.4102 64.6886C89.4604 64.6886 89.4604 64.6886 89.4102 64.6886Z" fill="#231F20"/>
<path d="M98.6944 75.9222C95.6824 75.4462 93.6242 72.7806 94.1262 69.9246C94.6282 67.0686 97.4394 65.117 100.451 65.593C103.463 66.069 105.471 68.7346 105.02 71.5906C104.568 74.4466 101.706 76.3982 98.6944 75.9222ZM100.301 66.3546C97.7406 65.9738 95.331 67.5922 94.9294 70.0198C94.5278 72.4474 96.2346 74.7322 98.7948 75.113C101.355 75.4938 103.765 73.8754 104.166 71.4478C104.618 69.0202 102.861 66.7354 100.301 66.3546Z" fill="#231F20"/>
<path d="M108.435 94.1523C108.435 94.1523 124.198 110.336 127.662 112.669C131.075 115.001 154.87 128.091 154.87 128.091L144.077 137.897C144.077 137.897 129.369 132.423 118.174 128.758C109.941 123.76 102.16 118.048 102.16 118.048" fill="#FF8A40"/>
<path d="M89.6573 79.1111C90.6613 79.4443 92.1673 79.9203 93.8741 80.3011C97.3379 81.0627 94.6773 83.4427 91.3139 82.5859C88.7035 81.9671 88.5529 78.7303 89.6573 79.1111Z" fill="#231F20"/>
<path d="M58.4344 90.0595C58.4344 90.0595 34.2882 117.81 33.7862 122.761C33.2842 127.711 70.7836 143.943 70.7836 143.943L83.1329 130.377L61.0448 118.239C61.0448 118.239 71.9382 107.672 72.7414 99.5319C73.5446 91.3923 67.0186 83.9667 58.4344 90.0595Z" fill="#FF8A40"/>
<path d="M97.9401 141.515C98.2915 142.229 97.4381 144.895 95.2293 144.752C95.4803 145.609 94.9783 146.465 94.0747 146.703C93.8237 146.751 93.5225 146.799 93.2715 146.703C93.6229 147.751 92.6189 148.465 91.0627 148.274C83.6833 147.56 78.6633 138.897 78.6633 138.897L75.9023 137.755L83.1311 130.329L85.1893 131.376C86.6451 130.329 91.5145 126.997 92.7193 127.378C94.1249 127.806 92.2174 130.519 90.9121 133.137C93.372 134.089 96.2835 136.231 97.9903 137.136C99.8979 138.183 100.902 140.849 97.9401 141.515Z" fill="white"/>
<path d="M91.5159 148.75C91.3653 148.75 91.2147 148.75 91.0641 148.75C87.9517 148.417 84.7891 146.655 81.8775 143.657C80.5723 142.324 79.4177 140.848 78.4639 139.277L75.8535 138.135C75.6527 138.04 75.5523 137.849 75.6527 137.659C75.7531 137.469 75.9539 137.373 76.1547 137.469L78.9157 138.611C78.9659 138.659 79.0663 138.706 79.1165 138.754C79.1667 138.849 84.0863 147.227 91.2147 147.941C91.8171 148.083 92.4697 147.893 92.9215 147.512C93.0721 147.322 93.1223 147.036 93.0219 146.798C92.9717 146.655 93.0219 146.56 93.1223 146.417C93.2227 146.322 93.3733 146.275 93.4737 146.322C93.9255 146.417 94.4275 146.275 94.7287 145.941C95.0299 145.656 95.1303 145.227 95.0299 144.847C94.9797 144.751 94.9797 144.609 95.0801 144.513C95.1805 144.418 95.2809 144.371 95.4315 144.371C96.1845 144.418 96.8873 144.037 97.2889 143.419C97.6905 142.895 97.8411 142.276 97.7407 141.657C97.6403 141.467 97.7407 141.277 97.8913 141.181C97.8913 141.181 97.9415 141.181 97.9415 141.134C98.5941 140.991 99.3973 140.658 99.4977 139.849C99.5981 139.039 98.9455 137.992 97.9415 137.469C97.3893 137.183 96.6865 136.755 95.8833 136.231C94.3271 135.184 92.6705 134.279 90.9135 133.47C90.8131 133.423 90.7629 133.375 90.7127 133.28C90.6625 133.185 90.6625 133.089 90.7127 132.994C91.0139 132.423 91.3151 131.852 91.6163 131.328C92.3693 129.948 93.1725 128.425 92.9717 127.901C92.9215 127.806 92.8713 127.758 92.7709 127.758C92.1183 127.568 89.1565 129.186 85.5421 131.709C85.4417 131.804 85.2409 131.804 85.1405 131.757L83.0823 130.709C82.8815 130.614 82.8313 130.376 82.9317 130.233C83.0321 130.043 83.2831 129.995 83.4337 130.091L85.2911 131.043C88.1525 128.996 91.7669 126.759 92.9717 127.139C93.2729 127.235 93.5239 127.425 93.6243 127.711C93.9757 128.567 93.2227 129.948 92.2689 131.757C92.0179 132.185 91.8171 132.661 91.5661 133.089C93.2227 133.851 94.7789 134.755 96.2849 135.707C97.0379 136.183 97.7407 136.612 98.2929 136.945C99.5479 137.611 100.351 138.944 100.2 140.039C100.15 140.515 99.7989 141.372 98.4435 141.8C98.4937 142.514 98.2427 143.276 97.7909 143.847C97.3391 144.561 96.5861 145.037 95.7327 145.132C95.7327 145.608 95.5821 146.084 95.2307 146.465C94.8793 146.893 94.3271 147.131 93.7749 147.179C93.7749 147.512 93.6745 147.798 93.4737 148.036C92.9215 148.512 92.2187 148.75 91.5159 148.75Z" fill="#231F20"/>
<path d="M75.4535 126.378C75.4033 126.378 75.3531 126.378 75.2527 126.331L60.8453 118.572C60.6445 118.477 60.5943 118.239 60.6947 118.096C60.6947 118.096 60.6947 118.048 60.7449 118.048L68.4255 108.909C68.5761 108.766 68.7769 108.719 68.9777 108.862C69.1283 109.004 69.1785 109.195 69.0279 109.385L61.5983 118.191L75.6041 125.76C75.7547 125.855 75.8551 126.045 75.7547 126.236C75.7547 126.283 75.6041 126.378 75.4535 126.378Z" fill="#231F20"/>
<path d="M70.8839 144.37C70.8337 144.37 70.7835 144.37 70.7835 144.37C60.3419 140.705 50.4525 135.85 41.2659 129.9C41.1153 129.805 41.0651 129.567 41.1655 129.424C41.2659 129.281 41.5169 129.234 41.6675 129.329C41.6675 129.329 41.6675 129.329 41.7177 129.329C50.8541 135.231 60.6933 140.039 71.0847 143.704C71.2855 143.752 71.3859 143.99 71.3357 144.18C71.1851 144.275 71.0345 144.37 70.8839 144.37Z" fill="#231F20"/>
<path d="M107.027 142.515C106.826 142.515 106.676 142.324 106.676 142.134L107.981 117.192C107.981 117.001 108.182 116.858 108.383 116.858C108.583 116.858 108.734 117.049 108.734 117.239L107.429 142.229C107.429 142.372 107.228 142.515 107.027 142.515Z" fill="#231F20"/>
<path d="M222.597 200H17.4028C17.2014 200 17 199.812 17 199.5C17 199.187 17.1511 199 17.4028 199H222.597C222.799 199 223 199.187 223 199.5C223 199.812 222.799 200 222.597 200Z" fill="#231F20"/>
<path d="M198.291 199.873H132.98V195.018L198.291 196.779V199.873Z" fill="white"/>
<path d="M198.641 200.206H132.578V194.637L198.641 196.446V200.206ZM133.331 199.492H197.888V197.112L133.331 195.351V199.492Z" fill="#231F20"/>
<path d="M169.222 199.872H112.395L98.2891 155.224H155.065L169.222 199.872Z" fill="white"/>
<path d="M169.725 200.206H112.146L112.045 199.968L97.7383 154.891H155.368L155.468 155.129L169.725 200.206ZM112.698 199.492H168.721L154.816 155.605H98.7925L112.698 199.492Z" fill="#231F20"/>
<path d="M193.52 183.831H209.082V200.919C209.082 201.824 208.329 202.538 207.375 202.538H195.277C194.323 202.538 193.57 201.824 193.57 200.919L193.52 183.831Z" fill="white"/>
<path d="M207.375 202.966H195.276C194.122 202.966 193.168 202.062 193.168 200.967V183.879C193.168 183.688 193.319 183.546 193.57 183.498H209.132C209.332 183.498 209.533 183.641 209.533 183.879V200.967C209.483 202.062 208.529 202.966 207.375 202.966ZM193.921 184.212V200.967C193.921 201.681 194.523 202.252 195.276 202.252H207.375C208.128 202.252 208.73 201.681 208.73 200.967V184.212H193.921Z" fill="#231F20"/>
<path d="M206.523 199.015C206.322 199.015 206.171 198.873 206.121 198.635V187.544C206.121 187.353 206.272 187.163 206.523 187.163C206.774 187.163 206.924 187.306 206.924 187.544V198.682C206.874 198.873 206.723 199.015 206.523 199.015Z" fill="#231F20"/>
<path d="M210.034 197.826C209.783 197.826 209.532 197.826 209.281 197.778C209.08 197.73 208.929 197.588 208.979 197.35C209.029 197.159 209.18 197.064 209.381 197.064C209.381 197.064 212.192 197.302 214.25 196.112C215.756 195.208 217.011 190.876 216.359 188.686C216.058 187.639 215.455 187.639 215.254 187.592C213.648 187.544 209.331 187.592 209.281 187.592C209.08 187.592 208.929 187.449 208.879 187.258C208.879 187.068 209.029 186.878 209.23 186.878C209.28 186.878 213.648 186.83 215.254 186.878C216.158 186.878 216.76 187.449 217.062 188.496C217.764 190.971 216.409 195.684 214.602 196.731C213.246 197.492 211.64 197.873 210.034 197.826Z" fill="#231F20"/>
<path d="M150.95 137.422C149.143 136.184 148.792 135.47 146.784 134.946C146.282 136.803 147.788 137.898 146.734 139.468C145.077 141.896 143.571 137.374 142.818 135.565C142.366 134.47 142.517 132.519 143.32 131.567C144.675 129.901 148.089 126.378 151.503 125.474C154.264 124.76 156.974 125.95 159.133 127.521C162.848 130.234 155.97 140.754 150.95 137.422Z" fill="white"/>
<path d="M145.782 140.515H145.681C144.476 140.42 143.623 138.468 142.77 136.279C142.669 136.041 142.569 135.85 142.519 135.66C142.017 134.518 142.167 132.423 143.071 131.328C143.472 130.805 147.338 126.188 151.454 125.14C153.914 124.474 156.575 125.188 159.386 127.235C161.544 128.806 160.54 132.471 158.482 135.136C156.675 137.469 153.563 139.563 150.751 137.707C150.149 137.326 149.747 136.993 149.346 136.66C148.693 136.088 147.94 135.66 147.087 135.374C147.037 135.898 147.087 136.469 147.288 136.993C147.488 137.802 147.739 138.659 147.037 139.658C146.836 140.182 146.334 140.468 145.782 140.515ZM153.211 125.664C152.659 125.664 152.157 125.712 151.605 125.854C147.739 126.854 144.025 131.281 143.623 131.804C142.97 132.614 142.77 134.422 143.171 135.422C143.272 135.612 143.322 135.85 143.422 136.041C143.924 137.231 144.878 139.706 145.731 139.801C145.982 139.801 146.233 139.516 146.434 139.278C146.936 138.564 146.786 137.945 146.585 137.183C146.334 136.422 146.284 135.612 146.434 134.851C146.434 134.756 146.535 134.66 146.635 134.613C146.735 134.565 146.836 134.565 146.936 134.565C148.041 134.851 149.045 135.374 149.898 136.088C150.249 136.374 150.701 136.707 151.253 137.088C153.613 138.659 156.324 136.802 157.93 134.708C159.787 132.28 160.691 129.044 158.984 127.806C156.876 126.378 154.968 125.664 153.211 125.664Z" fill="#231F20"/>
<path d="M159.736 132.138C159.686 132.138 159.585 132.138 159.535 132.09L153.762 128.378C153.611 128.282 153.561 128.044 153.662 127.902C153.762 127.759 154.013 127.711 154.164 127.806L159.937 131.519C160.087 131.614 160.137 131.852 160.037 131.995C159.937 132.09 159.836 132.138 159.736 132.138Z" fill="#231F20"/>
<path d="M158.132 135.374C158.031 135.374 157.981 135.326 157.881 135.279L151.254 130.519C151.104 130.376 151.054 130.186 151.204 129.995C151.355 129.852 151.556 129.805 151.756 129.948L158.383 134.708C158.533 134.85 158.584 135.041 158.433 135.184C158.383 135.326 158.232 135.374 158.132 135.374Z" fill="#231F20"/>
<path d="M155.569 137.564C155.468 137.564 155.418 137.516 155.368 137.516L148.641 132.756C148.491 132.661 148.44 132.423 148.591 132.28C148.691 132.138 148.942 132.09 149.093 132.185L155.82 136.945C155.97 137.04 156.021 137.278 155.92 137.421C155.77 137.516 155.669 137.564 155.569 137.564Z" fill="#231F20"/>
</svg>
