<svg width="232" height="239" viewBox="0 0 232 239" fill="none" xmlns="http://www.w3.org/2000/svg">
<path d="M42.4562 180.494C42.4562 180.494 48.2562 171.698 49.741 162.76C49.741 162.76 37.7698 165.245 37.213 175.809C36.517 188.859 42.4562 180.494 42.4562 180.494Z" fill="white"/>
<path d="M39.0707 183.553C38.8851 183.553 38.6995 183.505 38.5139 183.457C37.1219 182.931 36.5651 180.446 36.7971 175.809C37.3539 165.054 49.5107 162.425 49.6499 162.425C49.7891 162.377 49.8819 162.425 49.9747 162.521C50.0675 162.616 50.1139 162.76 50.0675 162.855C48.5827 171.746 42.7827 180.637 42.6899 180.732C42.5507 181.067 40.7411 183.553 39.0707 183.553ZM49.2787 163.333C46.9587 164.002 38.0963 167.014 37.5859 175.857C37.3075 181.354 38.1891 182.501 38.7923 182.74C39.8595 183.122 41.6227 181.067 42.1331 180.35C42.3187 180.015 47.7011 171.746 49.2787 163.333Z" fill="#231F20"/>
<path d="M37.587 180.972C40.0926 176.67 41.4382 171.746 41.4382 166.775C41.4382 161.852 40.0926 156.976 37.587 152.817C37.587 152.817 31.555 159.414 29.8382 168.926C28.1214 178.438 31.6942 185.465 34.6174 183.266L37.587 180.972Z" fill="white"/>
<path d="M33.5016 184.03C33.0376 184.03 32.62 183.887 32.2488 183.648C29.836 182.118 28.1656 176.143 29.4648 168.83C31.1816 159.318 37.26 152.626 37.3064 152.53C37.3992 152.435 37.492 152.387 37.6312 152.387C37.724 152.387 37.8632 152.435 37.9096 152.578C40.508 156.832 41.9 161.756 41.8536 166.775C41.8536 171.889 40.508 176.86 37.9096 181.21C37.8632 181.258 37.8632 181.258 37.8168 181.306L34.8472 183.552C34.4296 183.839 33.9656 184.03 33.5016 184.03ZM37.5384 153.438C36.2856 154.968 31.6456 160.943 30.2072 168.973C28.9544 175.857 30.532 181.593 32.6664 182.979C33.1768 183.361 33.9192 183.361 34.4296 182.931L37.3064 180.732C39.7656 176.526 41.0648 171.698 41.0648 166.775C41.0648 162.09 39.812 157.454 37.5384 153.438Z" fill="#231F20"/>
<path d="M32.7598 183.218C32.7598 183.218 34.4766 171.603 31.043 165.723C27.6094 159.844 21.4846 157.263 21.4846 157.263C21.4846 157.263 17.819 165.962 21.4846 172.511C25.1502 179.059 32.7598 183.218 32.7598 183.218Z" fill="white"/>
<path d="M32.7601 183.6C32.7137 183.6 32.6209 183.6 32.5745 183.553C32.2497 183.361 24.7793 179.298 21.1137 172.702C17.4017 166.01 20.9281 157.454 21.1137 157.071C21.2065 156.88 21.4385 156.785 21.6241 156.88C21.9025 156.976 27.9345 159.557 31.4145 165.484C34.8945 171.411 33.2241 182.788 33.1777 183.266C33.1777 183.409 33.0849 183.505 32.9921 183.553C32.8993 183.6 32.8065 183.6 32.7601 183.6ZM21.6705 157.788C21.0673 159.509 18.7009 166.775 21.8097 172.32C24.8257 177.769 30.7185 181.545 32.4817 182.597C32.7601 180.207 33.6417 170.886 30.7649 165.914C27.8881 160.943 23.0161 158.458 21.6705 157.788Z" fill="#231F20"/>
<path d="M25.1055 178.39H44.1295L42.1343 192.156C41.9487 193.542 40.7887 194.546 39.4431 194.546H29.7919C28.4463 194.546 27.2863 193.542 27.1007 192.156L25.1055 178.39Z" fill="#231F20"/>
<path d="M39.4432 194.929H29.792C28.2608 194.929 26.9152 193.734 26.6832 192.157L24.7344 178.438C24.7344 178.342 24.7344 178.199 24.8272 178.103C24.92 178.008 25.0128 177.96 25.1056 177.96H44.1296C44.2224 177.96 44.3616 178.008 44.408 178.103C44.5008 178.199 44.5008 178.295 44.5008 178.438L42.552 192.157C42.32 193.782 40.9744 194.929 39.4432 194.929ZM25.5696 178.82L27.472 192.109C27.6576 193.304 28.632 194.164 29.792 194.164H39.4432C40.6032 194.164 41.5776 193.256 41.7632 192.109L43.6656 178.82H25.5696Z" fill="#231F20"/>
<path d="M212.746 191.105H14.8499C14.6643 191.105 14.5251 190.789 14.5715 190.473C14.5715 190.237 14.7107 190 14.8499 190H212.746C212.931 190 213.117 190.158 213.117 190.473C213.117 190.789 213.024 191.105 212.839 191.105C212.792 191.105 212.792 191.105 212.746 191.105Z" fill="#231F20"/>
<path d="M147.692 181.975L126.395 45.2666C126.395 45.2666 36.2393 45.649 36.6105 45.2666L57.9081 181.975C57.9081 181.975 148.527 181.114 147.692 181.975Z" fill="white"/>
<path d="M147.459 182.74L147.366 182.262C143.515 181.688 87.5098 182.07 57.9066 182.357H57.5818L57.5354 182.07L36.2842 45.4102L36.1914 45.219L36.841 44.5498L36.9338 44.98C41.017 45.219 96.7898 45.0756 126.393 44.9322H126.671L126.718 45.219L148.015 181.831L148.108 182.023L147.459 182.74ZM37.0266 45.6492L58.185 181.64C60.9226 181.592 81.8954 181.401 102.636 181.306C115.628 181.258 126.022 181.21 133.492 181.258C142.726 181.306 146.02 181.401 147.227 181.545L126.068 45.6492C123.331 45.6492 102.311 45.7448 81.5242 45.7926C68.4858 45.8404 58.1386 45.8404 50.6682 45.7926C41.481 45.7926 38.1866 45.7926 37.0266 45.6492Z" fill="#231F20"/>
<path d="M105.746 55.1133H62.2227V55.8303H105.746V55.1133Z" fill="#D1D3D4"/>
<path d="M91.4072 169.786H70.8984V170.503H91.4072V169.786Z" fill="#231F20"/>
<path d="M136.974 169.786H116.465V170.503H136.974V169.786Z" fill="#231F20"/>
<path d="M123.424 65.8682H51.5508V66.5852H123.424V65.8682Z" fill="#D1D3D4"/>
<path d="M119.85 80.3994H60.1797V81.1164H119.85V80.3994Z" fill="#D1D3D4"/>
<path d="M121.198 89.1953H61.5273V89.9123H121.198V89.1953Z" fill="#D1D3D4"/>
<path d="M122.588 98.0381H62.918V98.7551H122.588V98.0381Z" fill="#D1D3D4"/>
<path d="M123.979 106.833H64.2617V107.55H123.979V106.833Z" fill="#D1D3D4"/>
<path d="M125.327 115.628H65.6562V116.345H125.327V115.628Z" fill="#D1D3D4"/>
<path d="M126.717 124.472H67.0469V125.189H126.717V124.472Z" fill="#D1D3D4"/>
<path d="M128.111 133.267H68.3945V133.984H128.111V133.267Z" fill="#D1D3D4"/>
<path d="M129.456 142.062H69.7852V142.779H129.456V142.062Z" fill="#D1D3D4"/>
<path d="M80.1327 167.109C76.7919 167.109 73.9151 164.624 73.4511 161.23L73.4047 161.039C72.8015 157.215 75.3535 153.63 79.0655 153.056C82.7775 152.483 86.2575 155.064 86.8143 158.888V159.079C87.4175 162.903 84.8655 166.488 81.1999 167.062C80.8287 167.109 80.4575 167.109 80.1327 167.109ZM80.0863 153.678C76.7455 153.678 74.0079 156.45 73.9615 159.939C73.9615 160.274 74.0079 160.609 74.0543 160.943L74.1007 161.087C74.6111 164.528 77.7199 166.87 81.0607 166.345C84.4015 165.819 86.6751 162.616 86.1647 159.175V159.031C85.7007 155.924 83.1023 153.678 80.0863 153.678Z" fill="#FF8A40"/>
<path d="M79.6223 163.238L75.5391 159.939L75.9567 159.366L79.4831 162.186L83.7055 156.354L84.2623 156.785L79.6223 163.238Z" fill="#FF8A40"/>
<path d="M199.198 190H142C143.038 181.18 147.869 156.01 150.352 141.94C152.022 132.388 156.13 124.601 158.794 120.169C159.922 118.276 162.225 116.813 165.249 115.781C172.021 113.457 182.269 113.371 190.44 115.737C194.278 116.856 197.618 118.491 200.011 120.685C208.498 128.559 201.094 177.996 199.198 190Z" fill="#FF8A40"/>
<path d="M134.145 145.694C131.593 144.404 116.977 118.926 116.977 118.926L106.305 127.96C106.537 129.633 118.322 173.227 129.133 171.172C139.945 169.116 153.401 154.394 153.401 154.394L162.402 116.584C162.402 116.584 156.277 119.022 152.055 124.375C145.42 132.788 136.001 146.602 134.145 145.694Z" fill="#FF8A40"/>
<path d="M141.709 189.957H141.662C141.477 189.909 141.338 189.718 141.384 189.527L150.571 134.605C150.618 134.413 150.803 134.27 150.989 134.318C151.174 134.366 151.314 134.557 151.267 134.748L142.08 189.67C142.034 189.814 141.848 189.957 141.709 189.957Z" fill="#231F20"/>
<path d="M201.701 123.372C201.933 123.946 222.999 175.617 212.327 182.405C201.655 189.193 168.293 186.564 168.293 186.564L169.639 171.268L196.411 167.587L201.701 123.372Z" fill="#FF8A40"/>
<path d="M170.848 171.602C170.663 171.602 170.523 171.458 170.523 171.219C170.523 171.028 170.663 170.885 170.802 170.885L202.215 165.77C202.4 165.722 202.586 165.866 202.632 166.057C202.679 166.248 202.539 166.439 202.354 166.487L170.895 171.602H170.848Z" fill="#231F20"/>
<path d="M197.989 166.487C197.804 166.487 197.665 166.344 197.665 166.153C197.757 157.644 195.438 136.134 195.438 135.943C195.438 135.752 195.577 135.561 195.762 135.561C195.948 135.561 196.133 135.704 196.133 135.895C196.133 136.134 198.453 157.644 198.361 166.2C198.361 166.344 198.175 166.487 197.989 166.487Z" fill="#231F20"/>
<path d="M115.4 110.561C116.142 111.66 116.56 107.98 116.56 107.98C116.56 107.98 114.797 103.2 116.653 103.008C118.509 102.817 120.69 108.792 119.947 110.37C119.53 111.278 117.906 116.488 116.699 116.918C116.699 116.918 117.534 120.312 117.302 120.694C116.421 122.75 111.317 126.239 108.765 126.287C107.187 124.566 106.074 119.356 105.749 119.308C101.619 118.735 99.9024 112.855 100.645 111.182C101.944 108.362 112.198 105.685 115.4 110.561Z" fill="white"/>
<path d="M108.67 126.67L108.577 126.574C107.51 125.427 106.675 122.798 106.118 121.077C105.932 120.551 105.747 119.93 105.654 119.691C103.891 119.404 102.36 118.161 101.339 116.202C100.364 114.337 99.9469 112.139 100.457 111.039C101.2 109.414 104.494 107.884 108.02 107.55C111.547 107.215 114.331 108.267 115.723 110.322C116.001 109.605 116.187 108.793 116.28 108.028C116.048 107.406 115.073 104.491 115.816 103.248C116.001 102.913 116.326 102.722 116.697 102.674C117.347 102.579 118.043 103.057 118.692 104.013C119.945 105.781 120.966 109.223 120.363 110.561C120.27 110.752 120.131 111.135 119.945 111.661C119.017 114.146 118.136 116.488 117.208 117.158C117.996 120.456 117.764 120.838 117.718 120.934C116.836 122.989 111.64 126.622 108.902 126.67H108.67ZM109.18 108.219C108.809 108.219 108.438 108.219 108.02 108.267C104.494 108.554 101.571 110.083 101.014 111.326C100.689 112.091 100.921 114.051 101.896 115.819C102.452 116.871 103.705 118.639 105.84 118.926C106.164 118.974 106.257 119.261 106.721 120.79C107.232 122.416 108.02 124.806 108.902 125.905C111.408 125.714 116.187 122.368 116.976 120.551C117.022 120.265 116.697 118.496 116.326 117.014L116.233 116.68L116.512 116.584C117.3 116.297 118.553 112.808 119.11 111.326C119.296 110.8 119.435 110.37 119.574 110.179C119.992 109.318 119.249 106.211 117.996 104.347C117.532 103.63 117.022 103.296 116.651 103.296C116.512 103.296 116.326 103.391 116.28 103.535C115.816 104.299 116.372 106.546 116.836 107.789L116.883 107.884V107.98C116.651 109.892 116.28 110.944 115.769 111.039C115.491 111.087 115.212 110.944 115.073 110.705C114.052 109.127 111.918 108.219 109.18 108.219Z" fill="#231F20"/>
<path d="M119.114 109.464C122.073 107.469 123.766 104.741 122.895 103.371C122.025 102.002 118.921 102.51 115.962 104.506C113.004 106.501 111.311 109.229 112.181 110.598C113.052 111.968 116.156 111.46 119.114 109.464Z" fill="#231F20"/>
<path d="M100.597 112.999C99.9014 110.035 104.263 106.689 107.511 104.06C109.46 102.483 111.455 102.961 113.497 103.821C113.497 103.821 116.466 105.016 117.301 107.55C117.951 109.605 116.42 111.899 116.234 112.425C115.677 113.859 110.481 117.492 108.996 116.966C108.114 116.632 107.557 116.106 107.279 114.576C106.722 111.565 104.263 111.756 103.567 111.804" fill="white"/>
<path d="M109.32 117.397C109.18 117.397 108.995 117.397 108.856 117.349C107.742 116.919 107.185 116.202 106.907 114.672C106.443 112.282 104.772 112.091 103.612 112.186L103.566 111.804V111.469C105.886 111.326 107.232 112.378 107.649 114.529C107.928 115.963 108.392 116.393 109.134 116.632C110.155 117.014 115.305 113.955 115.908 112.282C115.955 112.186 116.001 112.043 116.094 111.852C116.512 110.991 117.44 109.223 116.929 107.645C116.187 105.303 113.356 104.156 113.356 104.156C111.222 103.248 109.459 102.961 107.742 104.347L107.417 104.634C104.262 107.167 100.364 110.274 100.968 112.951L100.318 113.142C99.5756 110.035 103.705 106.737 107 104.108L107.324 103.821C109.459 102.101 111.64 102.674 113.635 103.535C113.728 103.582 116.79 104.825 117.625 107.502C118.228 109.366 117.208 111.326 116.744 112.282C116.651 112.425 116.604 112.569 116.558 112.664C116.001 114.003 111.361 117.397 109.32 117.397Z" fill="#231F20"/>
<path d="M111.688 105.494C112.987 105.638 114.147 106.355 114.843 107.502C115.678 108.792 115.724 110.896 114.936 113.907" fill="white"/>
<path d="M115.261 114.003L114.611 113.812C115.354 110.944 115.354 108.889 114.565 107.694C113.962 106.642 112.894 105.973 111.734 105.829V105.16C113.126 105.304 114.426 106.068 115.168 107.311C116.003 108.697 116.05 110.896 115.261 114.003Z" fill="#231F20"/>
<path d="M108.855 107.119C108.855 107.119 111.686 108.266 112.707 109.7C113.31 110.561 113.124 114.48 111.871 116.01" fill="white"/>
<path d="M112.106 116.297L111.549 115.867C112.709 114.385 112.848 110.657 112.384 109.94C111.503 108.602 108.719 107.502 108.719 107.502L108.951 106.833C109.09 106.881 111.92 108.028 112.941 109.558C113.637 110.514 113.405 114.624 112.106 116.297Z" fill="#231F20"/>
<path d="M109.97 117.206L109.32 116.967C109.877 115.341 110.202 113.143 109.459 111.709C108.717 110.275 106.258 109.223 106.258 109.223L106.536 108.554C106.629 108.602 109.274 109.749 110.109 111.374C111.083 113.429 110.248 116.345 109.97 117.206Z" fill="#231F20"/>
<path d="M168.621 182.835L167.601 182.787C167.601 182.787 156.697 186.564 154.794 186.229C153.727 186.038 152.706 185.416 152.845 184.46C151.546 184.126 151.546 182.548 151.871 181.592C150.525 181.114 150.34 178.868 150.897 177.816C149.133 175.665 150.572 174.279 151.5 173.657C152.985 172.654 160.641 172.032 160.641 172.032C160.641 172.032 159.991 164.862 161.012 163.667C162.033 162.472 163.193 165.054 163.703 167.013C164.399 169.547 165.698 170.168 166.394 171.554L169.549 171.937" fill="white"/>
<path d="M155.026 186.564C154.933 186.564 154.794 186.564 154.701 186.564C153.912 186.468 153.216 186.086 152.752 185.512C152.613 185.273 152.52 184.986 152.474 184.747C152.103 184.604 151.778 184.269 151.592 183.935C151.314 183.265 151.268 182.548 151.453 181.831C150.989 181.545 150.664 181.114 150.479 180.636C150.154 179.776 150.154 178.772 150.479 177.912C149.922 177.29 149.644 176.43 149.736 175.57C149.922 174.661 150.525 173.897 151.314 173.419C152.66 172.51 158.599 171.889 160.223 171.746C160.084 169.977 159.759 164.623 160.687 163.476C160.919 163.142 161.29 162.998 161.708 163.046C162.821 163.285 163.656 165.627 163.981 166.918C164.306 168.065 164.863 169.164 165.698 170.025C166.023 170.407 166.301 170.79 166.58 171.172L169.596 171.507L169.503 172.224L166.162 171.841L166.069 171.698C165.837 171.268 165.512 170.837 165.188 170.503C164.306 169.547 163.656 168.4 163.332 167.109C162.914 165.436 162.125 163.859 161.568 163.763C161.522 163.763 161.429 163.715 161.244 163.954C160.594 164.719 160.733 169.356 160.965 172.08L161.012 172.463L160.64 172.51C158.552 172.702 152.845 173.323 151.685 174.088C151.036 174.422 150.572 175.044 150.386 175.713C150.34 176.43 150.618 177.147 151.128 177.673L151.268 177.864L151.175 178.103C150.85 178.82 150.804 179.68 151.082 180.445C151.221 180.875 151.546 181.21 151.917 181.401L152.242 181.497L152.103 181.831C151.871 182.405 151.871 183.074 152.103 183.648C152.242 183.935 152.52 184.126 152.799 184.221L153.124 184.317L153.077 184.652C153.031 184.843 153.077 185.034 153.216 185.225C153.588 185.655 154.144 185.942 154.748 185.99C156.232 186.229 164.399 183.6 167.368 182.548H167.415L168.482 182.596L168.436 183.313L167.508 183.265C166.301 183.6 157.532 186.564 155.026 186.564Z" fill="#231F20"/>
<path d="M168.434 186.037C168.202 186.037 168.062 185.846 168.062 185.655L169.223 171.219C169.223 171.028 169.408 170.885 169.594 170.885C169.779 170.885 169.919 171.076 169.919 171.267L168.759 185.703C168.759 185.894 168.619 186.037 168.434 186.037Z" fill="#231F20"/>
<path d="M185.881 186.946C176.555 186.946 168.62 186.229 168.481 186.229C168.295 186.229 168.156 186.038 168.156 185.847C168.156 185.655 168.342 185.512 168.527 185.512C168.759 185.512 193.166 187.663 206.436 184.413C206.622 184.365 206.807 184.46 206.854 184.652C206.9 184.843 206.761 185.034 206.575 185.082C200.822 186.516 192.934 186.946 185.881 186.946Z" fill="#231F20"/>
<path d="M189.78 101.144C191.775 94.9782 192.471 89.4812 190.476 83.076C190.197 81.9766 189.64 80.925 188.852 80.1124C188.109 79.4432 187.46 79.5866 186.624 79.4432C185.65 79.2998 185.464 79.0608 184.536 78.3916C182.959 77.2922 180.964 76.9098 179.108 76.862C176.648 76.8142 174.143 77.2444 171.684 77.0532C169.224 76.862 166.58 76.0016 165.188 73.8984C164.631 76.0016 165.234 78.2004 166.765 79.6822C165.28 79.2998 163.981 78.4872 163.007 77.2444C162.032 79.1564 161.986 81.4508 162.914 83.4106C163.053 83.6974 163.192 83.9364 163.239 84.271C163.285 84.6534 163.285 85.0836 163.192 85.466C162.868 87.0912 162.728 88.7164 162.728 90.3416C162.728 92.0146 163.285 93.592 164.26 94.8826" fill="white"/>
<path d="M168.479 112.616L167.551 119.452C167.551 119.452 168.294 126.669 175.393 125.761C179.662 125.188 183.42 122.654 185.647 118.878L187.132 102.865C187.132 102.865 182.306 99.4712 185.044 88.1426C179.105 90.0068 172.841 90.1502 166.809 88.6206C166.809 88.6206 162.308 100.714 162.54 106.307C162.772 111.899 168.479 112.616 168.479 112.616Z" fill="white"/>
<path d="M167.922 118.018C167.922 118.018 170.613 118.878 174 116.249C177.387 113.62 177.155 111.087 177.155 111.087C177.155 111.087 172.423 112.378 168.757 112.33L167.922 118.018Z" fill="#231F20"/>
<path d="M173.029 96.0781C173.029 96.0781 169.131 101.958 170.013 103.009C170.894 104.061 173.493 103.392 173.493 103.392" fill="white"/>
<path d="M175.995 95.2461C176.026 94.3492 175.74 93.6104 175.356 93.5961C174.972 93.5818 174.635 94.2974 174.604 95.1943C174.572 96.0912 174.858 96.83 175.242 96.8443C175.627 96.8586 175.963 96.143 175.995 95.2461Z" fill="#231F20"/>
<path d="M167.936 94.9531C167.968 94.0562 167.682 93.3175 167.298 93.3032C166.914 93.2889 166.577 94.0044 166.545 94.9013C166.514 95.7983 166.8 96.537 167.184 96.5513C167.568 96.5656 167.905 95.8501 167.936 94.9531Z" fill="#231F20"/>
<path d="M174.188 126.192C172.657 126.24 171.172 125.714 169.965 124.758C167.599 122.798 167.228 119.595 167.228 119.452V119.404L168.109 112.856C166.81 112.569 162.449 111.326 162.263 106.307C162.031 100.667 166.346 89.0033 166.532 88.4775L166.625 88.1907L166.903 88.2863C172.842 89.7681 179.06 89.6247 184.953 87.8083L185.556 87.5693L185.417 88.2385C182.772 99.0891 187.319 102.531 187.365 102.531L187.551 102.626V102.818L186.066 118.878L186.02 118.926C183.746 122.798 179.895 125.427 175.533 126.001C175.069 126.144 174.605 126.192 174.188 126.192ZM167.924 119.452C167.97 119.834 168.388 122.559 170.429 124.232C171.729 125.284 173.353 125.666 175.394 125.427C181.844 124.567 184.999 119.404 185.324 118.783L186.762 103.057C185.927 102.34 182.354 98.6111 184.581 88.7165C178.874 90.3417 172.842 90.4851 167.042 89.0989C166.346 90.9631 162.727 101.336 162.913 106.355C163.145 111.613 168.295 112.282 168.527 112.282L169.501 112.378L168.805 112.856L167.924 119.452Z" fill="#231F20"/>
<path d="M183.098 99.3281C183.747 98.4199 184.536 97.6551 185.418 97.0815C185.882 96.7469 186.485 96.5557 187.042 96.5557C187.506 96.6035 187.97 96.7947 188.341 97.1293C189.501 97.9897 190.197 99.3281 190.336 100.762C190.382 101.431 190.336 102.1 190.058 102.722C189.594 103.678 188.851 104.443 187.923 104.873C186.995 105.303 186.021 105.638 185 105.829" fill="white"/>
<path d="M185.137 106.164C184.952 106.164 184.813 106.068 184.766 105.877C184.72 105.686 184.813 105.495 184.998 105.447C185.973 105.256 186.901 104.969 187.829 104.539C188.71 104.156 189.406 103.439 189.777 102.579C190.009 102.005 190.102 101.384 190.009 100.81C189.87 99.472 189.221 98.2292 188.153 97.4166C187.829 97.1298 187.457 96.9864 187.04 96.9386C186.529 96.9386 186.019 97.1298 185.601 97.4166C184.72 97.9902 183.977 98.7072 183.374 99.5676C183.281 99.711 183.049 99.7588 182.864 99.6632C182.725 99.5676 182.678 99.3286 182.771 99.1374C183.421 98.1814 184.256 97.4166 185.23 96.7952C185.787 96.4128 186.437 96.1738 187.086 96.1738C187.643 96.2216 188.153 96.4606 188.571 96.7952C189.777 97.7034 190.566 99.1374 190.705 100.715C190.798 101.432 190.659 102.197 190.427 102.866C189.963 103.917 189.128 104.73 188.107 105.208C187.179 105.638 186.158 105.973 185.184 106.164C185.23 106.164 185.184 106.164 185.137 106.164Z" fill="#231F20"/>
<path d="M170.754 107.597C170.476 107.597 170.244 107.597 170.012 107.55C168.805 107.454 167.599 107.119 166.485 106.546C166.346 106.45 166.253 106.259 166.346 106.068C166.439 105.924 166.624 105.829 166.81 105.924C167.831 106.45 168.944 106.737 170.058 106.833C172.703 107.024 175.255 106.116 177.668 104.108C177.807 103.965 178.039 104.012 178.178 104.156C178.317 104.299 178.271 104.538 178.132 104.682C175.348 107.024 172.656 107.597 170.754 107.597Z" fill="#231F20"/>
<path d="M170.892 103.344C169.918 103.344 168.619 103.153 168.155 102.292C167.505 100.954 169.779 96.6517 170.243 95.8391C170.336 95.6957 170.521 95.6001 170.707 95.6957C170.892 95.7913 170.939 95.9825 170.846 96.1737C169.779 98.1335 168.433 101.241 168.804 101.958C169.176 102.675 170.939 102.722 172.006 102.531C172.192 102.483 172.377 102.627 172.424 102.818C172.47 103.009 172.331 103.2 172.145 103.2C171.681 103.296 171.264 103.344 170.892 103.344Z" fill="#231F20"/>
<path d="M190.242 100.045C190.196 100.045 190.196 100.045 190.149 100.045C189.964 99.9974 189.871 99.8062 189.917 99.615C191.727 93.401 191.82 88.4776 190.149 83.2196C189.871 82.168 189.36 81.212 188.618 80.3994C188.2 80.0648 187.69 79.8736 187.133 79.8736C186.948 79.8736 186.762 79.8258 186.53 79.8258C185.88 79.7302 185.231 79.4434 184.72 79.0132L184.303 78.7264C182.957 77.8182 181.194 77.3402 179.06 77.2446C177.946 77.1968 176.832 77.2924 175.719 77.3402C174.373 77.4836 172.981 77.4836 171.636 77.4358C170.012 77.3402 167.181 76.8144 165.372 74.7112C165.14 76.432 165.789 78.2006 166.996 79.3956L167.97 80.3038L166.671 80.017C165.279 79.6824 164.026 78.9176 163.052 77.866C162.356 79.5868 162.402 81.5466 163.144 83.2196L163.191 83.363C163.33 83.602 163.423 83.8888 163.516 84.1278C163.608 84.558 163.562 85.036 163.516 85.4662L163.469 85.9442C163.191 87.3782 163.052 88.86 163.052 90.294C163.052 91.8714 163.562 93.401 164.49 94.6438C164.629 94.7872 164.583 95.0262 164.444 95.1696C164.304 95.313 164.072 95.2652 163.933 95.1218C162.68 93.64 162.356 91.6802 162.309 90.3418C162.309 88.8122 162.448 87.3304 162.727 85.8486L162.773 85.4184C162.866 85.0838 162.866 84.7014 162.82 84.3668C162.773 84.1278 162.68 83.9366 162.541 83.7454L162.495 83.602C161.567 81.5466 161.613 79.1566 162.634 77.1012L162.866 76.6232L163.191 77.0534C163.84 77.866 164.676 78.5352 165.604 78.9654C164.629 77.4836 164.304 75.5716 164.768 73.8508L164.954 73.1338L165.372 73.7552C166.949 76.1452 169.919 76.671 171.589 76.7666C172.935 76.8144 174.28 76.8144 175.58 76.671C176.693 76.5754 177.853 76.5276 178.967 76.5754C181.287 76.6232 183.143 77.149 184.581 78.1528L184.999 78.4396C185.416 78.822 185.973 79.061 186.53 79.1088C186.716 79.1566 186.901 79.1566 187.087 79.1566C187.783 79.1566 188.432 79.3956 188.943 79.8736C189.778 80.734 190.381 81.8334 190.66 82.9806C192.376 88.4298 192.284 93.4488 190.428 99.8062C190.52 99.9496 190.381 100.045 190.242 100.045Z" fill="#231F20"/>
<path d="M107.765 122.571C110.682 120.607 111.104 115.951 108.707 112.172C106.309 108.394 102.001 106.923 99.0832 108.887C96.1658 110.851 95.7443 115.507 98.1417 119.286C100.539 123.065 104.848 124.536 107.765 122.571Z" fill="#231F20"/>
<path d="M105.021 125.12C108.131 123.025 108.584 118.067 106.033 114.045C103.481 110.023 98.8909 108.46 95.7804 110.555C92.67 112.649 92.2169 117.607 94.7686 121.629C97.3202 125.651 101.91 127.214 105.021 125.12Z" fill="white"/>
<path d="M101.895 126.431C101.106 126.431 100.317 126.288 99.5751 126.049C95.2599 124.424 92.5223 120.074 92.8007 115.389C92.9399 111.9 95.8167 109.128 99.2039 109.271C99.8999 109.319 100.596 109.462 101.245 109.701C103.333 110.466 105.143 111.948 106.349 113.908C108.994 118.114 108.484 123.276 105.236 125.475C104.215 126.097 103.101 126.431 101.895 126.431ZM98.9255 109.988C97.9047 109.988 96.8839 110.275 96.0023 110.848C94.5175 111.9 93.6359 113.573 93.5431 115.389C93.3111 119.787 95.8631 123.802 99.8535 125.332C101.524 125.953 103.38 125.762 104.911 124.806C107.881 122.798 108.252 118.066 105.839 114.242C104.725 112.426 103.055 111.04 101.106 110.37C100.364 110.131 99.6215 109.988 98.9255 109.988Z" fill="#231F20"/>
<path d="M100.134 121.125L95.6328 114.385L96.236 113.955L100.319 120.121L104.356 117.158L104.727 117.731L100.134 121.125Z" fill="#FF8A40"/>
<path d="M101.85 125.14C99.5759 125.14 97.1167 123.706 95.4927 121.172C93.2191 117.587 93.5903 113.19 96.2815 111.373C97.7199 110.465 99.4367 110.322 101.014 110.943C104.634 112.425 106.954 116.058 106.814 120.073C106.768 121.794 105.933 123.371 104.541 124.327C103.706 124.853 102.778 125.14 101.85 125.14ZM98.9727 111.278C98.1375 111.278 97.3487 111.517 96.6991 111.947C94.3327 113.572 94.0543 117.492 96.0959 120.742C98.1375 123.993 101.757 125.331 104.17 123.706C105.376 122.845 106.072 121.459 106.118 119.977C106.211 118.161 105.747 116.392 104.773 114.911C103.845 113.381 102.453 112.234 100.829 111.612C100.179 111.421 99.5759 111.278 98.9727 111.278Z" fill="#FF8A40"/>
</svg>
