<svg width="75" height="75" viewBox="0 0 75 75" fill="none" xmlns="http://www.w3.org/2000/svg">
<path d="M37.5 31.25C40.8152 31.25 43.9946 29.933 46.3388 27.5888C48.683 25.2446 50 22.0652 50 18.75C50 15.4348 48.683 12.2554 46.3388 9.91117C43.9946 7.56696 40.8152 6.25 37.5 6.25C34.1848 6.25 31.0054 7.56696 28.6612 9.91117C26.317 12.2554 25 15.4348 25 18.75C25 22.0652 26.317 25.2446 28.6612 27.5888C31.0054 29.933 34.1848 31.25 37.5 31.25ZM17.1875 40.625C19.2595 40.625 21.2466 39.8019 22.7118 38.3368C24.1769 36.8716 25 34.8845 25 32.8125C25 30.7405 24.1769 28.7534 22.7118 27.2882C21.2466 25.8231 19.2595 25 17.1875 25C15.1155 25 13.1284 25.8231 11.6632 27.2882C10.1981 28.7534 9.375 30.7405 9.375 32.8125C9.375 34.8845 10.1981 36.8716 11.6632 38.3368C13.1284 39.8019 15.1155 40.625 17.1875 40.625ZM65.625 32.8125C65.625 34.8845 64.8019 36.8716 63.3368 38.3368C61.8716 39.8019 59.8845 40.625 57.8125 40.625C55.7405 40.625 53.7534 39.8019 52.2882 38.3368C50.8231 36.8716 50 34.8845 50 32.8125C50 30.7405 50.8231 28.7534 52.2882 27.2882C53.7534 25.8231 55.7405 25 57.8125 25C59.8845 25 61.8716 25.8231 63.3368 27.2882C64.8019 28.7534 65.625 30.7405 65.625 32.8125ZM37.5 34.375C41.644 34.375 45.6183 36.0212 48.5485 38.9515C51.4788 41.8817 53.125 45.856 53.125 50V68.75H21.875V50C21.875 45.856 23.5212 41.8817 26.4515 38.9515C29.3817 36.0212 33.356 34.375 37.5 34.375ZM15.625 50C15.625 47.8344 15.9375 45.7437 16.525 43.7687L15.9937 43.8125C13.3152 44.1066 10.8396 45.3791 9.04145 47.386C7.24332 49.3929 6.2493 51.9929 6.25 54.6875V68.75H15.625V50ZM68.75 68.75V54.6875C68.7503 51.9011 67.6872 49.2197 65.7777 47.1906C63.8682 45.1614 61.2562 43.9375 58.475 43.7687C59.0594 45.7437 59.375 47.8344 59.375 50V68.75H68.75Z" fill="white"/>
</svg>
