<svg width="75" height="75" viewBox="0 0 75 75" fill="none" xmlns="http://www.w3.org/2000/svg">
<path d="M37.5 68.75L31.25 50H6.25L12.5 68.75H37.5ZM37.5 68.75H50M37.5 40.625V39.0625C37.5 33.1687 37.5 30.225 35.6687 28.3938C33.8375 26.5625 30.8938 26.5625 25 26.5625C19.1062 26.5625 16.1625 26.5625 14.3312 28.3938C12.5 30.225 12.5 33.1687 12.5 39.0625V40.625M43.75 54.6875H62.5C64.1576 54.6875 65.7473 55.346 66.9194 56.5181C68.0915 57.6902 68.75 59.2799 68.75 60.9375V62.5C68.75 64.1576 68.0915 65.7473 66.9194 66.9194C65.7473 68.0915 64.1576 68.75 62.5 68.75H59.375M59.375 40.625C59.375 42.2826 58.7165 43.8723 57.5444 45.0444C56.3723 46.2165 54.7826 46.875 53.125 46.875C51.4674 46.875 49.8777 46.2165 48.7056 45.0444C47.5335 43.8723 46.875 42.2826 46.875 40.625C46.875 38.9674 47.5335 37.3777 48.7056 36.2056C49.8777 35.0335 51.4674 34.375 53.125 34.375C54.7826 34.375 56.3723 35.0335 57.5444 36.2056C58.7165 37.3777 59.375 38.9674 59.375 40.625ZM31.25 12.5C31.25 14.1576 30.5915 15.7473 29.4194 16.9194C28.2473 18.0915 26.6576 18.75 25 18.75C23.3424 18.75 21.7527 18.0915 20.5806 16.9194C19.4085 15.7473 18.75 14.1576 18.75 12.5C18.75 10.8424 19.4085 9.25268 20.5806 8.08058C21.7527 6.90848 23.3424 6.25 25 6.25C26.6576 6.25 28.2473 6.90848 29.4194 8.08058C30.5915 9.25268 31.25 10.8424 31.25 12.5Z" stroke="white" stroke-width="4" stroke-linecap="round" stroke-linejoin="round"/>
</svg>
