<svg width="50" height="50" viewBox="0 0 50 50" fill="none" xmlns="http://www.w3.org/2000/svg">
<g clip-path="url(#clip0_2929_1973)">
<path d="M25.2168 0.00010449C26.0356 0.00010449 26.8418 0.0532295 27.5918 0.178229C28.3307 0.273414 29.0597 0.434472 29.7699 0.659479C30.4783 0.871979 31.1804 1.14594 31.8762 1.48135C32.5543 1.80323 33.2512 2.19698 33.9481 2.6251C35.1262 3.3751 36.2856 3.98135 37.4668 4.46573C39.7917 5.39836 42.251 5.95226 44.7512 6.10635C46.0158 6.2001 47.3251 6.24802 48.6793 6.2501V18.7501C48.6793 21.123 48.3762 23.3793 47.7699 25.5189C47.1875 27.632 46.36 29.6698 45.3043 31.5907C44.2532 33.5091 43.0093 35.3153 41.5918 36.9814C40.1535 38.6861 38.5954 40.286 36.9293 41.7689C35.2397 43.2542 33.4626 44.6369 31.6074 45.9095C29.7491 47.2011 27.8804 48.3918 26.0012 49.4814L25.2512 49.9282L24.5012 49.4814C22.5735 48.3657 20.6908 47.1741 18.8574 45.9095C16.9923 44.6506 15.2143 43.2672 13.5356 41.7689C11.8706 40.2859 10.3135 38.686 8.87619 36.9814C7.46354 35.3075 6.21411 33.5024 5.14494 31.5907C4.10825 29.6608 3.28165 27.6252 2.67931 25.5189C2.07326 23.3141 1.77254 21.0366 1.78556 18.7501V6.2501C3.13973 6.24802 4.45015 6.2001 5.71681 6.10635C6.96595 6.02144 8.20694 5.84282 9.42931 5.57198C10.6262 5.30323 11.8231 4.94698 13.0012 4.46573C14.2234 3.97169 15.3954 3.36161 16.5012 2.64385C17.8762 1.7501 19.2699 1.09073 20.6449 0.656354C22.1259 0.202884 23.6681 -0.0184897 25.2168 0.00010449ZM45.5356 9.32198C43.1701 9.2062 40.8267 8.81074 38.5543 8.14385C36.2947 7.46807 34.1421 6.47594 32.1606 5.19698C31.1324 4.52388 30.0168 3.99499 28.8449 3.6251C27.6736 3.27185 26.4558 3.09697 25.2324 3.10635C24 3.09884 22.7731 3.27365 21.5918 3.6251C20.4186 3.98396 19.3045 4.5136 18.2856 5.19698C16.2998 6.48164 14.1419 7.47803 11.8762 8.15635C9.6616 8.8001 7.33973 9.19385 4.91056 9.3376V18.7657C4.91056 20.8345 5.17931 22.822 5.71681 24.7282C6.26487 26.6208 7.01941 28.4475 7.96681 30.1751C8.92596 31.9206 10.0565 33.5662 11.3418 35.0876C12.6449 36.622 14.0356 38.0501 15.5356 39.4064C17.0356 40.7626 18.6074 42.0189 20.2512 43.1751C21.9116 44.3334 23.572 45.3928 25.2324 46.3532C26.9323 45.3653 28.5891 44.305 30.1981 43.1751C31.8546 42.022 33.435 40.7632 34.9293 39.4064C36.4293 38.0501 37.8231 36.622 39.1262 35.0876C40.4115 33.5662 41.542 31.9206 42.5012 30.1751C43.4438 28.4493 44.1871 26.622 44.7168 24.7282C45.2712 22.7896 45.5469 20.782 45.5356 18.7657V9.32198Z" fill="#2D415C"/>
<path fill-rule="evenodd" clip-rule="evenodd" d="M36.8688 14.7154L35.4938 13.5342L34.225 13.6436L20.6 29.7311L15.9594 23.1061L14.7094 22.8936L13.2625 23.9279L13.0469 25.1779L19.0125 33.6967L19.6906 34.0717L21.1188 34.1592L21.85 33.8404L36.9594 15.9811L36.8688 14.7154Z" fill="#2D415C"/>
</g>
<defs>
<clipPath id="clip0_2929_1973">
<rect width="50" height="50" fill="white"/>
</clipPath>
</defs>
</svg>
