<svg width="75" height="75" viewBox="0 0 75 75" fill="none" xmlns="http://www.w3.org/2000/svg">
<path d="M3.48047 62.6459V43.253L20.4465 35.9834L37.4126 43.2584V62.6459L20.4465 69.9102L3.48047 62.6459Z" stroke="white" stroke-width="4" stroke-linecap="round" stroke-linejoin="round"/>
<path d="M3.48047 43.2157L20.4465 50.4853L37.4126 43.2157M20.4465 16.7246L37.4073 23.9996L54.3733 16.73" stroke="white" stroke-width="4" stroke-linecap="round" stroke-linejoin="round"/>
<path d="M37.4062 43.2158L54.3723 50.4855L71.3384 43.2158" stroke="white" stroke-width="4" stroke-linecap="round" stroke-linejoin="round"/>
<path d="M20.4453 50.4963V69.9159M54.3828 50.4963V69.9159M37.406 23.9998V43.4141M20.456 35.973V16.5802L37.4167 9.31055L54.3828 16.5802V35.973L37.4167 43.2427L20.456 35.973ZM37.406 62.6463V43.2534L54.3721 35.9838L71.3382 43.2588V62.6463L54.3721 69.9105L37.406 62.6463Z" stroke="white" stroke-width="4" stroke-linecap="round" stroke-linejoin="round"/>
</svg>
