<svg width="35" height="35" viewBox="0 0 35 35" fill="none" xmlns="http://www.w3.org/2000/svg">
<path d="M3.06248 17.5007C3.06248 17.3062 3.09894 17.1239 3.17186 16.9538C3.24477 16.7836 3.35415 16.6257 3.49998 16.4798L11.6302 8.31315C11.8976 8.04579 12.2378 7.91211 12.651 7.91211C13.0642 7.91211 13.4166 8.04579 13.7083 8.31315C14 8.60482 14.1458 8.95142 14.1458 9.35294C14.1458 9.75447 14 10.1006 13.7083 10.3913L8.02081 16.0423L17.026 16.0423C17.4392 16.0423 17.7853 16.1823 18.0644 16.4623C18.3434 16.7423 18.4834 17.0884 18.4844 17.5007C18.4853 17.9129 18.3453 18.2595 18.0644 18.5404C17.7834 18.8214 17.4373 18.9609 17.026 18.959L8.02081 18.959L13.7083 24.6465C13.9757 24.9138 14.1094 25.2483 14.1094 25.6498C14.1094 26.0513 13.9635 26.3975 13.6719 26.6882C13.4045 26.9555 13.0642 27.0892 12.651 27.0892C12.2378 27.0892 11.8976 26.9555 11.6302 26.6882L3.49998 18.5215C3.35415 18.3757 3.24477 18.2177 3.17186 18.0475C3.09894 17.8774 3.06248 17.6951 3.06248 17.5007ZM21.401 17.5007C21.401 17.0875 21.5405 16.7413 21.8196 16.4623C22.0986 16.1833 22.4452 16.0433 22.8594 16.0423L24.3177 16.0423C24.7309 16.0423 25.077 16.1823 25.356 16.4623C25.6351 16.7423 25.7751 17.0884 25.776 17.5007C25.777 17.9129 25.637 18.2595 25.356 18.5404C25.0751 18.8214 24.7289 18.9609 24.3177 18.959L22.8594 18.959C22.4462 18.959 22.0996 18.819 21.8196 18.539C21.5396 18.259 21.4001 17.9129 21.401 17.5007ZM28.6927 17.5007C28.6927 17.0875 28.8322 16.7413 29.1112 16.4623C29.3903 16.1833 29.7369 16.0433 30.151 16.0423C30.5652 16.0413 30.9113 16.1813 31.1894 16.4623C31.4674 16.7433 31.6074 17.0894 31.6094 17.5007C31.6113 17.9119 31.4713 18.2585 31.1894 18.5404C30.9074 18.8224 30.5613 18.9619 30.151 18.959C29.7407 18.9561 29.3941 18.8161 29.1112 18.539C28.8283 18.2619 28.6888 17.9158 28.6927 17.5007Z" fill="#FF8A40"/>
</svg>
