<svg width="29" height="20" viewBox="0 0 29 20" fill="none" xmlns="http://www.w3.org/2000/svg">
<path d="M28.5469 9.58822C28.5469 9.78266 28.5104 9.96496 28.4375 10.1351C28.3646 10.3052 28.2552 10.4632 28.1094 10.6091L19.9792 18.7757C19.7118 19.0431 19.3715 19.1768 18.9584 19.1768C18.5452 19.1768 18.1927 19.0431 17.9011 18.7757C17.6094 18.4841 17.4636 18.1375 17.4636 17.7359C17.4636 17.3344 17.6094 16.9883 17.9011 16.6976L23.5886 11.0466L14.5834 11.0466C14.1702 11.0466 13.824 10.9066 13.545 10.6266C13.266 10.3466 13.126 10.0004 13.125 9.58822C13.124 9.17599 13.264 8.8294 13.545 8.54842C13.826 8.26745 14.1721 8.12794 14.5834 8.12988L23.5886 8.12988L17.9011 2.44238C17.6337 2.17502 17.5 1.84058 17.5 1.43905C17.5 1.03752 17.6459 0.691412 17.9375 0.400717C18.2049 0.133357 18.5452 -0.000325632 18.9584 -0.000325578C19.3715 -0.000325524 19.7118 0.133357 19.9792 0.400717L28.1094 8.56739C28.2552 8.71322 28.3646 8.87121 28.4375 9.04134C28.5104 9.21148 28.5469 9.39377 28.5469 9.58822ZM10.2084 9.58822C10.2084 10.0014 10.0688 10.3475 9.78981 10.6266C9.51078 10.9056 9.16419 11.0456 8.75002 11.0465L7.29169 11.0465C6.87849 11.0465 6.53238 10.9065 6.25335 10.6265C5.97433 10.3465 5.83433 10.0004 5.83335 9.58822C5.83238 9.17599 5.97238 8.8294 6.25335 8.54842C6.53433 8.26745 6.88044 8.12794 7.29169 8.12988L8.75002 8.12988C9.16321 8.12988 9.50981 8.26988 9.78981 8.54988C10.0698 8.82988 10.2093 9.17599 10.2084 9.58822ZM2.91669 9.58822C2.91669 10.0014 2.77717 10.3475 2.49815 10.6265C2.21912 10.9056 1.87252 11.0456 1.45835 11.0465C1.04419 11.0475 0.698076 10.9075 0.420021 10.6265C0.141965 10.3456 0.00196562 9.99946 2.12346e-05 9.58822C-0.00192316 9.17697 0.138077 8.83037 0.420021 8.54842C0.701966 8.26648 1.04808 8.12697 1.45835 8.12988C1.86863 8.1328 2.21523 8.2728 2.49815 8.54988C2.78106 8.82697 2.92058 9.17308 2.91669 9.58822Z" fill="#FF8A40"/>
</svg>
