<svg width="80" height="80" viewBox="0 0 80 80" fill="none" xmlns="http://www.w3.org/2000/svg">
<g clip-path="url(#clip0_243_14471)">
<path d="M19.1465 66.1164C19.4848 68.2998 19.8365 70.2864 20.1298 71.8564C20.5465 74.0648 22.1165 75.8381 24.3382 76.1731C26.0815 76.4381 28.5032 76.6664 31.6665 76.6664C34.6748 76.6664 37.1465 76.4598 39.0282 76.2131C41.6682 75.8664 43.5182 73.6698 43.8048 71.0231L44.3398 66.0864" stroke="black" stroke-width="5" stroke-linecap="round" stroke-linejoin="round"/>
<path d="M59.3715 4.33997C59.5151 4.07784 59.7265 3.85916 59.9837 3.70683C60.2409 3.5545 60.5343 3.47412 60.8331 3.47412C61.132 3.47412 61.4254 3.5545 61.6826 3.70683C61.9397 3.85916 62.1512 4.07784 62.2948 4.33997L65.6148 10.41C66.5325 12.0878 67.912 13.4673 69.5898 14.385L75.6598 17.705C75.9219 17.8486 76.1406 18.06 76.293 18.3172C76.4453 18.5744 76.5257 18.8677 76.5257 19.1666C76.5257 19.4655 76.4453 19.7589 76.293 20.0161C76.1406 20.2732 75.9219 20.4847 75.6598 20.6283L69.5898 23.9483C67.912 24.866 66.5325 26.2455 65.6148 27.9233L62.2948 33.9933C62.1512 34.2554 61.9397 34.4741 61.6826 34.6264C61.4254 34.7788 61.132 34.8592 60.8331 34.8592C60.5343 34.8592 60.2409 34.7788 59.9837 34.6264C59.7265 34.4741 59.5151 34.2554 59.3715 33.9933L56.0515 27.9233C55.1338 26.2455 53.7543 24.866 52.0765 23.9483L46.0065 20.6283C45.7443 20.4847 45.5257 20.2732 45.3733 20.0161C45.221 19.7589 45.1406 19.4655 45.1406 19.1666C45.1406 18.8677 45.221 18.5744 45.3733 18.3172C45.5257 18.06 45.7443 17.8486 46.0065 17.705L52.0765 14.385C53.7543 13.4673 55.1338 12.0878 56.0515 10.41L59.3715 4.33997Z" stroke="#FF8A40" stroke-width="5"/>
<path d="M42.4999 8.81153C39.0651 7.39078 35.3836 6.66185 31.6666 6.66653C16.0183 6.66653 3.33325 19.3515 3.33325 34.9999C3.33325 44.0549 7.58158 52.1182 14.1933 57.3049C14.6802 59.2525 15.2199 61.1865 15.8116 63.1049C16.3233 64.7682 17.7049 65.9765 19.4366 66.1582C21.7583 66.3999 25.6733 66.6665 31.6666 66.6665C37.6599 66.6665 41.5749 66.3999 43.8966 66.1582C45.6282 65.9765 47.0099 64.7682 47.5199 63.1032C47.9982 61.5482 48.6032 59.4699 49.1399 57.3049C53.3466 54.0079 56.5377 49.5909 58.3466 44.5615" stroke="black" stroke-width="5" stroke-linecap="round" stroke-linejoin="round"/>
</g>
<defs>
<clipPath id="clip0_243_14471">
<rect width="80" height="80" fill="white"/>
</clipPath>
</defs>
</svg>
