<svg width="76" height="76" viewBox="0 0 76 76" fill="none" xmlns="http://www.w3.org/2000/svg">
<path d="M11.3335 3.07178V16.3335" stroke="black" stroke-width="5" stroke-linecap="round" stroke-linejoin="round"/>
<path d="M11.3335 53V63" stroke="black" stroke-width="5" stroke-linecap="round" stroke-linejoin="round"/>
<path d="M39.6665 63.0718V73.0718" stroke="black" stroke-width="5" stroke-linecap="round" stroke-linejoin="round"/>
<path d="M39.6665 23.0718V36.3334" stroke="black" stroke-width="5" stroke-linecap="round" stroke-linejoin="round"/>
<path d="M3.12913 23.6337C3.23177 19.7152 5.83965 16.4833 9.75753 16.358C10.2514 16.3423 10.7764 16.3335 11.3333 16.3335C11.8902 16.3335 12.4152 16.3423 12.9091 16.358C16.827 16.4833 19.4348 19.7152 19.5375 23.6337C19.609 26.3602 19.6667 30.0055 19.6667 34.6668C19.6667 39.3282 19.609 42.9735 19.5375 45.7C19.4348 49.6187 16.827 52.8503 12.9091 52.9757C12.4152 52.9913 11.8902 53.0002 11.3333 53.0002C10.7764 53.0002 10.2514 52.9913 9.75753 52.9757C5.83967 52.8503 3.23177 49.6187 3.12913 45.7C3.05772 42.9735 3 39.3282 3 34.6668C3 30.0055 3.05772 26.3602 3.12913 23.6337Z" stroke="black" stroke-width="5" stroke-linecap="round" stroke-linejoin="round"/>
<path d="M31.3975 43.846C31.4953 39.6992 34.4307 36.407 38.578 36.3418C38.9265 36.3365 39.2893 36.3335 39.6668 36.3335C40.0443 36.3335 40.4072 36.3365 40.7557 36.3418C44.903 36.407 47.8383 39.6992 47.9362 43.846C47.9745 45.4712 48.0002 47.4045 48.0002 49.6668C48.0002 51.9292 47.9745 53.8625 47.9362 55.4877C47.8383 59.6345 44.903 62.9267 40.7557 62.9918C40.4072 62.9972 40.0443 63.0002 39.6668 63.0002C39.2893 63.0002 38.9265 62.9972 38.578 62.9918C34.4307 62.9267 31.4953 59.6345 31.3975 55.4877C31.3592 53.8625 31.3335 51.9292 31.3335 49.6668C31.3335 47.4045 31.3592 45.4712 31.3975 43.846Z" stroke="black" stroke-width="5" stroke-linecap="round" stroke-linejoin="round"/>
<path d="M73.0002 10.6786C73.0002 10.6786 69.6668 8 64.6668 8C60.5003 8 56.3335 10.6786 56.3335 14.25C56.3335 23.1785 73.0002 17.8215 73.0002 26.75C73.0002 30.3215 68.8335 33 64.6668 33C59.6668 33 56.3335 30.3215 56.3335 30.3215" stroke="#FF8A40" stroke-width="5" stroke-linecap="round" stroke-linejoin="round"/>
<path d="M64.6665 8V3" stroke="#FF8A40" stroke-width="5" stroke-linecap="round" stroke-linejoin="round"/>
<path d="M64.6665 38V33" stroke="#FF8A40" stroke-width="5" stroke-linecap="round" stroke-linejoin="round"/>
</svg>
