<svg width="77" height="78" viewBox="0 0 77 78" fill="none" xmlns="http://www.w3.org/2000/svg">
<path d="M41.3396 47.3002C41.583 44.5468 43.2946 42.3502 46.0313 41.9635C48.428 41.6252 52.108 41.3335 57.6813 41.3335C63.2546 41.3335 66.9347 41.6252 69.3313 41.9635C72.068 42.3502 73.7813 44.5468 74.0213 47.3002C74.2375 49.7498 74.3465 52.2077 74.348 54.6668C74.348 62.1902 70.3763 69.2302 63.688 72.6735C61.453 73.8235 59.2713 74.6668 57.6813 74.6668C56.0913 74.6668 53.9096 73.8235 51.6746 72.6735C44.9846 69.2302 41.0146 62.1902 41.0146 54.6668C41.0146 51.8202 41.1663 49.2785 41.3396 47.3002Z" stroke="#FF8A40" stroke-width="5" stroke-linecap="round" stroke-linejoin="round"/>
<path d="M51.8481 55.945L57.3381 62.1667L65.1815 50.5" stroke="#FF8A40" stroke-width="5" stroke-linecap="round" stroke-linejoin="round"/>
<path d="M35.9266 37.7117C38.9603 36.1841 41.51 33.8439 43.2913 30.9519C45.0726 28.0599 46.0156 24.7299 46.0149 21.3333C46.0149 11.2083 37.8066 3 27.6816 3C17.5566 3 9.34822 11.2083 9.34822 21.3333C9.34755 24.7299 10.2905 28.0599 12.0718 30.9519C13.8531 33.8439 16.4029 36.1841 19.4366 37.7117C11.0749 40.605 4.73989 47.775 3.09822 56.5767C2.56822 59.42 4.22322 61.7433 7.09322 62.115C10.5849 62.5667 16.7766 63 27.6816 63C29.4732 63 31.1366 62.9883 32.6816 62.9667" stroke="black" stroke-width="5" stroke-linecap="round" stroke-linejoin="round"/>
</svg>
