<svg width="76" height="71" viewBox="0 0 76 71" fill="none" xmlns="http://www.w3.org/2000/svg">
<path d="M3.38892 59.6168C3.5913 61.565 4.83787 63.1853 6.6175 64.0032C10.3124 65.7013 16.7992 68.4165 20.5 68.4165C24.2008 68.4165 30.6877 65.7013 34.3825 64.0032C36.1622 63.1853 37.4087 61.565 37.611 59.6168C37.8098 57.7045 38 54.847 38 50.9165C38 46.986 37.8098 44.1285 37.611 42.2162C37.4087 40.268 36.1622 38.6477 34.3825 37.8298C30.6877 36.1317 24.2008 33.4165 20.5 33.4165C16.7992 33.4165 10.3124 36.1317 6.61752 37.8298C4.83787 38.6477 3.5913 40.268 3.38892 42.2162C3.19023 44.1285 3 46.986 3 50.9165C3 54.847 3.19023 57.7045 3.38892 59.6168Z" stroke="black" stroke-width="5" stroke-linejoin="round"/>
<path d="M3 40.4175C3 40.4175 16.9665 47.4175 20.5 47.4175C24.0335 47.4175 38 40.4175 38 40.4175" stroke="black" stroke-width="5" stroke-linejoin="round"/>
<path d="M20.5 47.4175V68.4175" stroke="black" stroke-width="5" stroke-linecap="round" stroke-linejoin="round"/>
<path d="M38.389 59.6168C38.5913 61.565 39.8378 63.1853 41.6175 64.0032C45.3123 65.7013 51.7992 68.4165 55.5 68.4165C59.2008 68.4165 65.6877 65.7013 69.3825 64.0032C71.1622 63.1853 72.4087 61.565 72.611 59.6168C72.8098 57.7045 73 54.847 73 50.9165C73 46.986 72.8098 44.1285 72.611 42.2162C72.4087 40.268 71.1622 38.6477 69.3825 37.8298C65.6877 36.1317 59.2008 33.4165 55.5 33.4165C51.7992 33.4165 45.3123 36.1317 41.6175 37.8298C39.8378 38.6477 38.5913 40.268 38.389 42.2162C38.1902 44.1285 38 46.986 38 50.9165C38 54.847 38.1902 57.7045 38.389 59.6168Z" stroke="black" stroke-width="5" stroke-linejoin="round"/>
<path d="M38 40.4175C38 40.4175 51.9665 47.4175 55.5 47.4175C59.0335 47.4175 73 40.4175 73 40.4175" stroke="black" stroke-width="5" stroke-linejoin="round"/>
<path d="M55.5 47.4175V68.4175" stroke="black" stroke-width="5" stroke-linecap="round" stroke-linejoin="round"/>
<path d="M20.889 29.2003C21.0913 31.1485 22.3378 32.7688 24.1175 33.5867C27.8123 35.2848 34.2992 38 38 38C41.7008 38 48.1877 35.2848 51.8825 33.5867C53.6622 32.7688 54.9087 31.1485 55.111 29.2003C55.3098 27.288 55.5 24.4305 55.5 20.5C55.5 16.5695 55.3098 13.712 55.111 11.7996C54.9087 9.85152 53.6622 8.23117 51.8825 7.41328C48.1877 5.71522 41.7008 3 38 3C34.2992 3 27.8123 5.71522 24.1175 7.41328C22.3378 8.23117 21.0913 9.85152 20.889 11.7996C20.6902 13.712 20.5 16.5695 20.5 20.5C20.5 24.4305 20.6902 27.288 20.889 29.2003Z" stroke="#FF8A40" stroke-width="5" stroke-linejoin="round"/>
<path d="M20.5 10.0005C20.5 10.0005 34.4665 17.0005 38 17.0005C41.5335 17.0005 55.5 10.0005 55.5 10.0005" stroke="#FF8A40" stroke-width="5" stroke-linejoin="round"/>
<path d="M38 17.0005V38.0005" stroke="#FF8A40" stroke-width="5" stroke-linecap="round" stroke-linejoin="round"/>
</svg>
